<?xml version="1.0" encoding="UTF-8"?>
<svg width="24px" height="24px" viewBox="0 0 24 24" version="1.1" xmlns="http://www.w3.org/2000/svg" xmlns:xlink="http://www.w3.org/1999/xlink">
    <title>brand/icon/24/basic/unduh</title>
    <defs>
        <path d="M11.9176785,7.12887997 L12.0817995,7.12887997 L12.2403366,7.15071693 L12.2403366,7.15071693 L12.355178,7.18068603 L12.355178,7.18068603 L12.4252089,7.20524029 L12.5307901,7.252311 L12.5307901,7.252311 L12.709924,7.36422114 L12.709924,7.36422114 L12.8317053,7.47044567 L16.5427626,11.1798525 C17.0023051,11.6391907 17.0024708,12.3840906 16.5431327,12.8436332 C16.1255526,13.2613991 15.4719709,13.2995147 15.0113279,12.9578847 L14.8793521,12.8440032 L13.1764706,11.1422269 L13.1764706,20.0672269 C13.1764706,20.6669931 12.7276645,21.1619351 12.147574,21.2345311 L12,21.2436975 C11.4002338,21.2436975 10.9052918,20.7948914 10.8326958,20.2148009 L10.8235294,20.0672269 L10.8235294,11.1672269 L9.17623395,12.8383472 C8.76130777,13.2587492 8.10798062,13.301003 7.64518338,12.9622969 L7.51248904,12.8492535 C7.09208709,12.4343273 7.04983329,11.7810001 7.38853938,11.3182029 L7.50158282,11.1855085 L11.2259103,7.41652299 L11.3411017,7.32773237 L11.3411017,7.32773237 L11.4695875,7.25210949 L11.4695875,7.25210949 L11.6365689,7.18325866 L11.6365689,7.18325866 L11.751962,7.15235803 L11.751962,7.15235803 C11.806609,7.14061482 11.8620321,7.13279619 11.9176785,7.12887997 Z M20.8235294,2.71428571 C21.4232957,2.71428571 21.9182376,3.16309181 21.9908336,3.74318233 L22,3.8907563 L22,9.77310924 C22,10.422856 21.4732762,10.9495798 20.8235294,10.9495798 C20.2237632,10.9495798 19.7288212,10.5007737 19.6562252,9.92068321 L19.6470588,9.77310924 L19.6470588,5.06722689 L4.35294118,5.06722689 L4.35294118,9.77310924 C4.35294118,10.422856 3.82621735,10.9495798 3.17647059,10.9495798 C2.57670434,10.9495798 2.08176238,10.5007737 2.00916638,9.92068321 L2,9.77310924 L2,3.8907563 C2,3.29099006 2.4488061,2.7960481 3.02889662,2.72345209 L3.17647059,2.71428571 L20.8235294,2.71428571 Z" id="path-1"></path>
    </defs>
    <g id="brand/icon/24/basic/unduh" stroke="none" stroke-width="1" fill="none" fill-rule="evenodd">
        <mask id="mask-2" fill="white">
            <use xlink:href="#path-1"></use>
        </mask>
        <use id="unduh" fill="#0066AE" fill-rule="nonzero" transform="translate(12.000000, 11.978992) scale(1, -1) translate(-12.000000, -11.978992) " xlink:href="#path-1"></use>
    </g>
</svg>