<svg xmlns="http://www.w3.org/2000/svg" width="48" height="48" viewBox="0 0 48 48">
    <g fill="none" fill-rule="evenodd">
        <g>
            <g>
                <g fill="#0C5EA9" fill-rule="nonzero">
                    <path d="M9.277 26.889c.951 0 1.723.771 1.723 1.723v5.11c0 .95.772 1.722 1.723 1.722h.22c.902 0 1.642.693 1.717 1.575l.007.149c.002.458-.179.897-.501 1.222l-4.743 4.742c-.503.506-1.17.81-1.877.86L7.333 44c-.784 0-1.536-.312-2.09-.868L.501 38.39c-.282-.284-.456-.656-.493-1.052L0 37.168c0-.952.772-1.724 1.723-1.724h.22c.952 0 1.724-.771 1.724-1.723v-5.109c0-.457.181-.895.504-1.218.324-.324.762-.505 1.219-.505h3.887zM28.783 4.962c-.723.88-.874 2.098-.388 3.128.458.969 1.403 1.608 2.462 1.68l.2.008h.22c.243.006.445.18.49.412l.01.089v5.109c0 1.568 1.227 2.85 2.773 2.94l.173.005h3.887c.45 0 .893-.104 1.296-.305 1.475 6.633-.84 13.54-6.015 17.944s-12.362 5.584-18.674 3.066c.723-.88.874-2.098.388-3.128-.458-.969-1.403-1.608-2.462-1.68l-.2-.008h-.22c-.243-.006-.445-.18-.49-.412l-.01-.089v-5.109c0-1.568-1.227-2.85-2.773-2.94l-.173-.005H5.39c-.45 0-.893.104-1.296.305-1.475-6.633.84-13.54 6.015-17.944S22.47 2.444 28.783 4.962zm-6.753 8.693c-2.391 0-4.33 1.867-4.33 4.17v1.043c0 .772.217 1.495.596 2.114-1.361.872-2.356 2.208-2.762 3.767l-1.083 4.295c-.077.277-.033.573.122.818.156.244.41.416.701.475.087.01.174.01.26 0 .51.015.96-.315 1.083-.792l1.083-4.296c.3-1.18 1.1-2.175 2.192-2.753.631.346 1.36.543 2.138.543.768 0 1.489-.192 2.114-.53 1.096.572 1.905 1.562 2.217 2.74l1.083 4.296c.122.477.573.807 1.083.792.086.01.173.01.26 0 .28-.073.517-.25.66-.494.142-.242.177-.53.098-.799l-1.083-4.306c-.359-1.383-1.19-2.61-2.36-3.482-.115-.087-.233-.17-.354-.247.39-.626.613-1.358.613-2.14v-1.043c0-2.304-1.939-4.17-4.33-4.17zm0 2.085c1.196 0 2.166.934 2.166 2.086v1.042c0 1.152-.97 2.086-2.166 2.086-.436 0-.843-.125-1.18-.341-.05-.055-.105-.106-.166-.15-.05-.037-.102-.07-.158-.095-.408-.38-.661-.911-.661-1.5v-1.042c0-1.152.97-2.086 2.165-2.086zM36.667 0c.784 0 1.536.312 2.09.868l4.742 4.742c.282.284.456.656.493 1.052l.008.17c0 .952-.772 1.724-1.723 1.724h-.22c-.952 0-1.724.771-1.724 1.723v5.109c0 .952-.771 1.723-1.723 1.723h-3.887c-.951 0-1.723-.771-1.723-1.723v-5.11c0-.95-.772-1.722-1.723-1.722h-.22c-.902 0-1.642-.693-1.717-1.575l-.007-.149c-.002-.458.179-.897.501-1.222L34.577.868c.503-.506 1.17-.81 1.877-.86L36.667 0z" transform="translate(-772 -306) translate(772 306) translate(2 2)"/>
                </g>
                <path d="M0 0H48V48H0z" transform="translate(-772 -306) translate(772 306)"/>
            </g>
        </g>
    </g>
</svg>
