<svg xmlns="http://www.w3.org/2000/svg" xmlns:xlink="http://www.w3.org/1999/xlink" width="64" height="64" viewBox="0 0 64 64">
    <defs>
        <path id="prefix__a" d="M50 0c3.314 0 6 2.686 6 6s-2.686 6-6 6h-2v36c0 4.418-3.582 8-8 8H16c-4.418 0-8-3.582-8-8V12H6c-3.314 0-6-2.686-6-6s2.686-6 6-6h44zm-8.4 6.4H14.4V48c0 .884.716 1.6 1.6 1.6h24c.884 0 1.6-.716 1.6-1.6V6.4zm-7.056 17.12c1.035 0 1.848.323 2.44.968.493.538.796 1.266.908 2.186l.053.732v.875l-.009.167c-.043 1.152-.363 2.059-.96 2.72s-1.408.992-2.432.992c-1.035 0-1.808-.352-2.32-1.056v3.536c0 .117-.037.213-.112.288-.075.075-.17.112-.288.112H29.76c-.117 0-.216-.037-.296-.112-.08-.075-.12-.17-.12-.288V24.08c0-.117.04-.213.12-.288.08-.075.179-.112.296-.112h1.904c.117 0 .213.037.288.112.075.075.112.17.112.288v.576c.576-.757 1.403-1.136 2.48-1.136zM23.2 20.8c1.408 0 2.51.32 3.304.96.795.64 1.192 1.541 1.192 2.704 0 .747-.173 1.381-.52 1.904-.347.523-.824.928-1.432 1.216l2.16 3.904c.032.064.048.123.048.176 0 .085-.032.163-.096.232-.064.07-.144.104-.24.104H25.36c-.31 0-.528-.144-.656-.432l-1.76-3.472h-1.536V31.6c0 .117-.04.213-.12.288-.08.075-.179.112-.296.112H18.8c-.107 0-.2-.04-.28-.12-.08-.08-.12-.173-.12-.28V21.216c0-.117.037-.216.112-.296.075-.08.17-.12.288-.12h4.4zm10.412 4.8c-.725 0-1.33.514-1.47 1.198l-.03.302v1.4c0 .828.672 1.5 1.5 1.5.725 0 1.33-.514 1.47-1.198l.03-.302v-1.4c0-.828-.672-1.5-1.5-1.5zm-10.428-2.496h-1.776v2.64h1.776c.459 0 .808-.115 1.048-.344.24-.23.36-.547.36-.952 0-.405-.12-.73-.36-.976-.24-.245-.59-.368-1.048-.368z"/>
    </defs>
    <g fill="none" fill-rule="evenodd" transform="translate(4 4)">
        <mask id="prefix__b" fill="#fff">
            <use xlink:href="#prefix__a"/>
        </mask>
        <use fill="#979797" fill-rule="nonzero" xlink:href="#prefix__a"/>
        <g fill="#FFF" mask="url(#prefix__b)">
            <path d="M0 0H64V64H0z" transform="translate(-4 -4)"/>
        </g>
    </g>
</svg>
