<svg xmlns="http://www.w3.org/2000/svg" xmlns:xlink="http://www.w3.org/1999/xlink" width="288" height="288" viewBox="0 0 288 288">
    <defs>
        <rect id="a" width="288" height="288" rx="12"/>
    </defs>
    <g fill="none" fill-rule="evenodd">
        <mask id="b" fill="#fff">
            <use xlink:href="#a"/>
        </mask>
        <use fill="#FFF" xlink:href="#a"/>
        <g mask="url(#b)">
            <path stroke="#F1F5F8" stroke-linecap="square" d="M251.773 30.471l-.586-.223-.318-.543C238.717 9.17 231.23-13.796 229.224-36.733c-2.004-22.904 1.245-45.8 9.655-68.105l.234-.594.548-.334c20.316-11.769 42.663-18.784 66.445-20.864 22.152-1.938 46.3 1.582 69.824 10.212l.601.204.32.556c12.381 20.913 19.955 43.868 21.928 66.426 1.966 22.467-1.372 45.393-9.949 68.126l-.225.596-.56.316C368.038 31.39 344.967 38.612 321.33 40.68c-22.313 1.952-45.717-1.472-69.556-10.209z"/>
            <path stroke="#B0B0B0" stroke-linecap="square" stroke-opacity=".346" d="M240.416 40.822l-.73-.28-.397-.678c-15.16-25.672-24.502-54.381-27.01-83.052-2.505-28.63 1.542-57.249 12.023-85.128l.292-.742.683-.417c25.333-14.706 53.2-23.468 82.858-26.063 27.624-2.417 57.74 1.99 87.078 12.783l.75.255.398.695c15.447 26.144 24.897 54.839 27.364 83.037 2.457 28.084-1.7 56.74-12.39 85.153l-.28.745-.698.396C385.409 41.998 356.64 51.02 327.16 53.6c-27.826 2.434-57.013-1.852-86.745-12.778z"/>
            <path stroke="#093967" d="M213.787 64.504l-.972-.372-.528-.9c-20.16-34.105-32.584-72.247-35.916-110.339-3.328-38.036 2.059-76.06 16.006-113.1l.388-.986.909-.554c33.698-19.542 70.768-31.188 110.218-34.64 36.745-3.214 76.805 2.636 115.828 16.972l.997.34.53.922c20.543 34.733 33.11 72.855 36.387 110.317C460.9-30.524 455.365 7.548 441.141 45.3l-.372.99-.93.525c-33.187 19.232-71.456 31.222-110.668 34.653-37.014 3.238-75.837-2.452-115.384-16.964z"/>
            <path stroke="#1473E6" stroke-linecap="square" d="M166.418 109.574l-1.296-.498-.704-1.204c-26.892-45.6-43.469-96.596-47.924-147.52-4.45-50.852 2.722-101.684 21.306-151.199l.518-1.318 1.211-.74c44.926-26.115 94.35-41.673 146.95-46.275 48.994-4.286 102.41 3.547 154.446 22.725l1.33.454.707 1.234c27.401 46.44 44.17 97.409 48.551 147.493 4.364 49.883-3.002 100.78-21.956 151.245l-.496 1.322-1.239.703c-44.244 25.7-95.268 41.719-147.55 46.293-49.352 4.318-101.12-3.302-153.854-22.715z"/>
        </g>
    </g>
</svg>
