<?xml version="1.0" encoding="UTF-8" standalone="no"?><!DOCTYPE svg PUBLIC "-//W3C//DTD SVG 1.1//EN" "http://www.w3.org/Graphics/SVG/1.1/DTD/svg11.dtd"><svg width="100%" height="100%" viewBox="0 0 13 8" version="1.1" xmlns="http://www.w3.org/2000/svg" xmlns:xlink="http://www.w3.org/1999/xlink" xml:space="preserve" xmlns:serif="http://www.serif.com/" style="fill-rule:evenodd;clip-rule:evenodd;stroke-linejoin:round;stroke-miterlimit:2;"><path id="a" d="M5.959,5.746l4.586,-5.435c0.157,-0.196 0.395,-0.311 0.646,-0.311c0.452,0 0.825,0.372 0.825,0.825c0,0.203 -0.075,0.399 -0.211,0.55l-5.221,6.188c-0.157,0.185 -0.388,0.293 -0.631,0.293c-0.245,0 -0.478,-0.11 -0.634,-0.298l-5.129,-6.188c-0.123,-0.148 -0.19,-0.334 -0.19,-0.527c0,-0.452 0.372,-0.825 0.825,-0.825c0.245,0 0.478,0.11 0.635,0.298l4.5,5.429l-0.001,0.001Z" style="fill:#0f60ad;"/></svg>