<svg xmlns="http://www.w3.org/2000/svg" xmlns:xlink="http://www.w3.org/1999/xlink" width="64" height="64" viewBox="0 0 64 64">
    <defs>
        <path id="a" d="M52.338 26.154C52.338 43.238 35.566 60 26.17 60 16.772 60 0 43.238 0 26.154 0 11.712 11.72 0 26.17 0c14.449 0 26.168 11.712 26.168 26.154z"/>
        <path id="b" d="M.279 9.29a.266.266 0 0 1-.193-.087A.266.266 0 0 1 0 9.01l.003-.07L3.105.386C3.194.128 3.371 0 3.636 0h2.07c.266 0 .442.128.531.385L9.329 8.89a.403.403 0 0 1 .013.12c0 .07-.029.134-.086.192a.266.266 0 0 1-.192.086H7.338a.46.46 0 0 1-.45-.292L6.408 7.71H2.933l-.478 1.287a.46.46 0 0 1-.451.292H.279zM3.49 5.72h2.362l-1.18-3.384L3.49 5.719zm9.25 3.57a.346.346 0 0 1-.246-.094.312.312 0 0 1-.1-.239V2.163H10.06a.346.346 0 0 1-.246-.093.312.312 0 0 1-.1-.239V.345c0-.097.034-.18.1-.245a.334.334 0 0 1 .246-.1h7.205c.098 0 .18.033.246.1.066.066.1.148.1.245v1.486a.312.312 0 0 1-.1.24.346.346 0 0 1-.246.092H14.93v6.794a.312.312 0 0 1-.1.24.346.346 0 0 1-.245.092h-1.845zm6.382 0a.346.346 0 0 1-.245-.094.312.312 0 0 1-.1-.239V.345c0-.097.033-.18.1-.245a.334.334 0 0 1 .245-.1h1.5c.221 0 .38.097.478.292l2.282 4.087L25.678.292A.496.496 0 0 1 26.155 0h1.5c.097 0 .18.033.245.1.067.066.1.148.1.245v8.612a.312.312 0 0 1-.1.24.346.346 0 0 1-.245.092H25.97a.318.318 0 0 1-.233-.1.318.318 0 0 1-.1-.232v-4.83l-1.432 2.628c-.115.203-.27.305-.465.305h-.716c-.177 0-.332-.102-.465-.305l-1.42-2.628v4.83a.312.312 0 0 1-.1.24.346.346 0 0 1-.245.092h-1.672z"/>
    </defs>
    <g fill="none" fill-rule="evenodd">
        <use fill="#093967" transform="translate(5.7 2)" xlink:href="#a"/>
        <g transform="translate(18 24)">
            <mask id="c" fill="#fff">
                <use xlink:href="#b"/>
            </mask>
            <use fill="#B0B0B0" fill-rule="nonzero" xlink:href="#b"/>
            <g fill="#FFF" mask="url(#c)">
                <path d="M-4-12h32v32H-4z"/>
            </g>
        </g>
    </g>
</svg>
