<svg xmlns="http://www.w3.org/2000/svg" xmlns:xlink="http://www.w3.org/1999/xlink" width="32" height="32" viewBox="0 0 32 32">
    <defs>
        <path id="katzyovfea" d="M24.425 12.205C24.425 20.178 16.597 28 12.212 28 7.827 28 0 20.178 0 12.205 0 5.465 5.47 0 12.212 0c6.743 0 12.213 5.466 12.213 12.205z"/>
        <path id="holawiwdhc" d="M1.057 5c-.08 0-.146-.023-.196-.068-.05-.045-.08-.101-.09-.168L.007.193C.002.183 0 .169 0 .15 0 .112.015.077.046.046.077.016.112 0 .15 0h.936c.138 0 .214.055.228.164l.436 2.7.493-1.564c.038-.129.117-.193.236-.193h.535c.12 0 .198.064.236.193l.493 1.557.443-2.693c.01-.057.03-.099.064-.125C4.283.013 4.336 0 4.407 0h.936c.043 0 .078.015.107.046.029.031.043.066.043.104v.043l-.764 4.571c-.01.067-.04.123-.093.168-.053.045-.117.068-.193.068H3.72c-.076 0-.135-.019-.178-.057-.043-.038-.072-.081-.086-.129L2.75 2.836l-.707 1.978c-.02.048-.05.09-.093.129-.043.038-.102.057-.179.057h-.714zm5.329 0c-.048 0-.09-.018-.125-.054-.036-.035-.054-.077-.054-.125V.186c0-.053.017-.097.05-.132C6.29.018 6.333 0 6.386 0h2.207c.605 0 1.055.124 1.35.371.295.248.443.6.443 1.058 0 .228-.061.426-.182.592-.122.167-.256.289-.404.365.195.085.36.227.493.425.133.197.2.42.2.668 0 .48-.158.854-.475 1.121-.317.267-.77.4-1.36.4H6.385zm2.057-.98c.176 0 .312-.048.407-.143.095-.096.143-.22.143-.372 0-.148-.047-.268-.14-.36-.092-.093-.23-.14-.41-.14H7.55V4.02h.893zm0-2.041c.176 0 .312-.048.407-.143.095-.096.143-.22.143-.372 0-.147-.047-.268-.14-.36-.092-.093-.23-.14-.41-.14H7.55V1.98h.893z"/>
        <filter id="17bkis8ekb">
            <feColorMatrix in="SourceGraphic" values="0 0 0 0 1.000000 0 0 0 0 1.000000 0 0 0 0 1.000000 0 0 0 1.000000 0"/>
        </filter>
    </defs>
    <g fill="none" fill-rule="evenodd">
        <g>
            <g>
                <g transform="translate(-947 -2015) translate(947 2015) translate(4 2)">
                    <use fill="#1473E6" xlink:href="#katzyovfea"/>
                </g>
                <g filter="url(#17bkis8ekb)" transform="translate(-947 -2015) translate(947 2015) translate(8.3 7)">
                    <g transform="translate(3 6)">
                        <mask id="z5ht4avxpd" fill="#fff">
                            <use xlink:href="#holawiwdhc"/>
                        </mask>
                        <use fill="#303030" fill-rule="nonzero" xlink:href="#holawiwdhc"/>
                        <path fill="#1473E6" d="M-3 -6H13V10H-3z" mask="url(#z5ht4avxpd)"/>
                    </g>
                </g>
            </g>
        </g>
    </g>
</svg>
