<svg xmlns="http://www.w3.org/2000/svg" xmlns:xlink="http://www.w3.org/1999/xlink" width="32" height="32" viewBox="0 0 32 32">
    <defs>
        <path id="rqghtaw64a" d="M24.425 12.205C24.425 20.178 16.597 28 12.212 28 7.827 28 0 20.178 0 12.205 0 5.465 5.47 0 12.212 0c6.743 0 12.213 5.466 12.213 12.205z"/>
        <path id="37u3p21ztc" d="M6.653 0c.412 0 .781.067 1.107.201.327.135.585.33.775.584.19.254.29.555.298.902 0 .042-.015.077-.045.105-.03.027-.066.041-.107.041h-.987c-.064 0-.112-.012-.142-.038-.03-.025-.057-.073-.08-.142-.065-.227-.163-.386-.295-.476-.132-.09-.307-.135-.524-.135-.483 0-.751.248-.804.745L5.838 2l-.005.493c0 .26.003.456.007.59.019.584.29.875.813.875.213 0 .388-.046.524-.139.11-.074.194-.19.255-.346l.04-.126c.019-.07.044-.117.077-.142.032-.026.08-.038.145-.038h.987c.041 0 .077.014.107.041.03.028.045.063.045.104-.009.348-.108.649-.298.903-.19.255-.448.45-.775.584-.326.134-.695.201-1.107.201-.662 0-1.182-.16-1.56-.48-.377-.319-.577-.786-.6-1.402l-.007-.451.007-.785C4.516 1.28 4.72.816 5.101.49 5.483.163 6 0 6.653 0zM1.104.07c.051 0 .093.017.125.052.033.034.049.077.049.128v1.514L2.507.208c.05-.092.141-.139.27-.139H3.84c.037 0 .07.015.101.046.03.03.045.063.045.1 0 .025-.004.046-.012.062L2.34 2.396 4.09 4.7c.019.019.028.047.028.084 0 .037-.015.07-.045.1s-.066.046-.108.046h-1.09c-.074 0-.134-.015-.18-.046-.031-.02-.056-.04-.075-.061L1.278 3.097v1.66c0 .046-.016.087-.049.121-.032.035-.074.053-.125.053h-.93c-.047 0-.087-.018-.122-.053C.017 4.844 0 4.803 0 4.757V.25C0 .2.016.156.049.122.08.087.123.069.174.069h.93z"/>
        <filter id="1pgwm0j7zb">
            <feColorMatrix in="SourceGraphic" values="0 0 0 0 1.000000 0 0 0 0 1.000000 0 0 0 0 1.000000 0 0 0 1.000000 0"/>
        </filter>
    </defs>
    <g fill="none" fill-rule="evenodd">
        <g>
            <g>
                <g transform="translate(-947 -2095) translate(947 2095) translate(4 2)">
                    <use fill="#1473E6" xlink:href="#rqghtaw64a"/>
                </g>
                <g filter="url(#1pgwm0j7zb)" transform="translate(-947 -2095) translate(947 2095) translate(8.3 7)">
                    <g transform="translate(4 6)">
                        <mask id="d74eyeqybd" fill="#fff">
                            <use xlink:href="#37u3p21ztc"/>
                        </mask>
                        <use fill="#303030" fill-rule="nonzero" xlink:href="#37u3p21ztc"/>
                        <path fill="#1473E6" d="M-4 -6H12V10H-4z" mask="url(#d74eyeqybd)"/>
                    </g>
                </g>
            </g>
        </g>
    </g>
</svg>
