<svg xmlns="http://www.w3.org/2000/svg" width="16" height="16" viewBox="0 0 16 16">
    <path fill="#6C6C6C" fill-rule="evenodd" d="M1.844 13.312h12.123c.466 0 .843.378.843.844 0 .43-.321.785-.737.837l-.106.007H1.844C1.378 15 1 14.622 1 14.156c0-.43.322-.785.738-.837l.106-.007h12.123H1.844zM13.234 1.87l.108.109c1.153 1.153 1.164 3.026.023 4.19l-.532.545c-.03.045-.066.088-.106.128-.036.037-.075.07-.116.098l-4.699 4.79c-.366.374-.983.633-1.51.633h-2.71c-.465 0-.843-.378-.843-.844V8.81c0-.522.26-1.145.633-1.51l4.79-4.698c.029-.04.061-.08.098-.116.04-.04.082-.075.128-.105l.546-.533c1.162-1.14 3.04-1.127 4.19.023zM8.971 4.28L4.663 8.504c-.048.047-.126.236-.126.306v1.866h1.865c.073 0 .257-.077.305-.127l4.224-4.31-1.96-1.96zm1.253-1.228l-.048.048 1.935 1.934.048-.047c.492-.503.487-1.316-.011-1.815l-.109-.109c-.497-.496-1.314-.501-1.815-.01z"/>
</svg>
