<svg xmlns="http://www.w3.org/2000/svg" width="64" height="64" viewBox="0 0 64 64">
    <path fill="#1473E6" fill-rule="evenodd" d="M15.27 60C12.36 60 10 57.612 10 54.667V9.333C10 6.388 12.36 4 15.27 4h34.26c2.91 0 5.27 2.388 5.27 5.333v45.334c0 2.945-2.36 5.333-5.27 5.333H15.27zm3.687-51.733h-3.686c-.51 0-.935.365-1.033.851l-.022.215v45.334c0 .515.362.945.842 1.045l.213.021h3.686V8.267zm30.572 0l-26.353-.003v47.47H49.53c.51 0 .935-.366 1.033-.852l.022-.215V9.333c0-.515-.362-.945-.842-1.045l-.213-.021zm-5.27 16.266c1.164 0 2.108.955 2.108 2.134a2.125 2.125 0 0 1-1.844 2.116l-.264.017H30.212c-1.165 0-2.109-.955-2.109-2.133 0-1.088.805-1.985 1.844-2.117l.265-.017h14.047zm0-8c1.164 0 2.108.955 2.108 2.134a2.125 2.125 0 0 1-1.844 2.116l-.264.017H30.212c-1.165 0-2.109-.955-2.109-2.133 0-1.088.805-1.985 1.844-2.117l.265-.017h14.047z"/>
</svg>
