<svg xmlns="http://www.w3.org/2000/svg" width="64" height="64" viewBox="0 0 64 64">
    <path fill="#FFF" fill-rule="evenodd" d="M32 0c17.662 0 32 14.338 32 32S49.662 64 32 64 0 49.662 0 32 14.338 0 32 0zm0 5.41C17.336 5.41 5.41 17.335 5.41 32S17.335 58.59 32 58.59 58.59 46.665 58.59 32 46.665 5.41 32 5.41zm-5.605 15.51c.847-.39 1.76-.39 2.542.13l13.165 8.734a2.4 2.4 0 0 1 1.108 2.02c0 .783-.391 1.565-1.043 2.02L29.002 42.82c-.391.326-.912.456-1.369.456-.39 0-.782-.065-1.173-.26-.847-.392-1.303-1.239-1.368-2.217V23.071c0-.912.521-1.694 1.303-2.15z"/>
</svg>
