<svg xmlns="http://www.w3.org/2000/svg" xmlns:xlink="http://www.w3.org/1999/xlink" width="64" height="64" viewBox="0 0 64 64">
    <defs>
        <path id="a" d="M8.077 0a8.075 8.075 0 0 1 6.384 13.018l.11.094 5.128 5.125a1.026 1.026 0 0 1-1.335 1.55l-.115-.099-5.128-5.125a1.034 1.034 0 0 1-.096-.11 8.04 8.04 0 0 1-4.948 1.692A8.075 8.075 0 0 1 0 8.072 8.075 8.075 0 0 1 8.077 0zm0 2.051A6.023 6.023 0 0 0 2.05 8.072a6.023 6.023 0 0 0 6.026 6.021 6.023 6.023 0 0 0 6.026-6.02A6.023 6.023 0 0 0 8.077 2.05z"/>
    </defs>
    <g fill="none" fill-rule="evenodd">
        <circle cx="32" cy="32" r="32" fill="#1473e6"/>
        <use fill="#FFF" transform="translate(23 23)" xlink:href="#a"/>
    </g>
</svg>
