<?xml version="1.0" encoding="UTF-8"?>
<svg width="32px" height="32px" viewBox="0 0 32 32" version="1.1" xmlns="http://www.w3.org/2000/svg" xmlns:xlink="http://www.w3.org/1999/xlink">
    <title>brand/content-icon/32/benefit/currency</title>
    <g id="brand/content-icon/32/benefit/currency" stroke="none" stroke-width="1" fill="none" fill-rule="evenodd">
        <path d="M3.05882353,15.9411765 C3.64359562,15.9411765 4.11764706,16.4152279 4.11764706,17 C4.11764706,23.5624423 9.43755768,28.8823529 16,28.8823529 C16.5847721,28.8823529 17.0588235,29.3564044 17.0588235,29.9411765 C17.0588235,30.5259486 16.5847721,31 16,31 C8.2680135,31 2,24.7319865 2,17 C2,16.4152279 2.47405144,15.9411765 3.05882353,15.9411765 Z M16,6.52941176 C21.7827462,6.52941176 26.4705882,11.2172538 26.4705882,17 C26.4705882,22.7827462 21.7827462,27.4705882 16,27.4705882 C10.2172538,27.4705882 5.52941176,22.7827462 5.52941176,17 C5.52941176,11.2172538 10.2172538,6.52941176 16,6.52941176 Z M16,8.64705882 C11.386798,8.64705882 7.64705882,12.386798 7.64705882,17 C7.64705882,21.613202 11.386798,25.3529412 16,25.3529412 C20.613202,25.3529412 24.3529412,21.613202 24.3529412,17 C24.3529412,12.386798 20.613202,8.64705882 16,8.64705882 Z M19.697999,15.1333838 C21.2823815,15.1333838 22.5667773,16.4177796 22.5667773,18.0021621 C22.5667773,19.5231693 21.3830781,20.7677087 19.8866219,20.8648383 L19.697999,20.8709404 L18.9458824,20.8705882 L18.9468678,22.008747 C18.9468678,23.3700915 16.9777801,23.418711 16.837131,22.1546053 L16.8292207,22.008747 L16.8292207,16.1922073 C16.8292207,15.6524177 17.2331462,15.2069699 17.7552277,15.1416335 L17.8880442,15.1333838 L19.697999,15.1333838 Z M13.5696263,11.9524763 C15.1540088,11.9524763 16.438406,13.2368721 16.438406,14.8212546 C16.438406,15.6451335 16.0911039,16.387896 15.5349185,16.9111263 L15.46,16.9764706 L16.1124395,17.6026825 C16.4993322,17.9737002 16.54337,18.5678254 16.2362649,18.9893671 L16.1437968,19.0997567 C15.7727791,19.4866494 15.1786538,19.5306872 14.7571122,19.2235821 L14.6467225,19.131114 L12.8176471,17.3752941 L12.8184951,18.3668982 C12.8184951,18.9066879 12.4145696,19.3521356 11.8924881,19.417472 L11.7596715,19.4257232 C11.2198819,19.4257232 10.7744341,19.0217963 10.7090977,18.4997148 L10.700848,18.3668982 L10.700848,13.0112999 C10.700848,12.4715102 11.1047735,12.0260625 11.626855,11.9607261 L11.7596715,11.9524763 L13.5696263,11.9524763 Z M19.697999,17.2510309 L18.9458824,17.2505882 L18.9458824,18.7529412 L19.697999,18.7532933 C20.1128373,18.7532933 20.4491302,18.4170004 20.4491302,18.0021621 C20.4491302,17.6250363 20.1712022,17.3128242 19.8089956,17.2591751 L19.697999,17.2510309 Z M16,3 C23.7319865,3 30,9.2680135 30,17 C30,17.5847721 29.5259486,18.0588235 28.9411765,18.0588235 C28.3564044,18.0588235 27.8823529,17.5847721 27.8823529,17 C27.8823529,10.4375577 22.5624423,5.11764706 16,5.11764706 C15.4152279,5.11764706 14.9411765,4.64359562 14.9411765,4.05882353 C14.9411765,3.47405144 15.4152279,3 16,3 Z M13.5696263,14.0701234 L12.8176471,14.0694118 L12.8176471,15.8835294 L12.8283135,15.8718852 C12.9811993,15.7203957 13.1832717,15.613403 13.4220525,15.5819468 L13.5696263,15.5723858 C13.9844646,15.5723858 14.3207575,15.2360929 14.3207575,14.8212546 C14.3207575,14.4441289 14.0428295,14.1319167 13.6806229,14.0782676 L13.5696263,14.0701234 Z" id="Shape" fill="#0066AE"></path>
    </g>
</svg>