<?xml version="1.0" encoding="UTF-8"?>
<svg width="32px" height="32px" viewBox="0 0 32 32" version="1.1" xmlns="http://www.w3.org/2000/svg" xmlns:xlink="http://www.w3.org/1999/xlink">
    <title>brand/content-icon/32/benefit/money</title>
    <g id="brand/content-icon/32/benefit/money" stroke="none" stroke-width="1" fill="none" fill-rule="evenodd">
        <path d="M15.0739871,2.60173995 L17.3572408,2.21771667 L17.9072001,2.13312009 C18.6637008,2.02288668 19.1310578,1.98624205 19.5634441,2.00445134 L19.84931,2.02451178 L20.0854992,2.0519269 C21.8096328,2.28167397 22.5425128,3.58300134 21.9405481,5.42063597 C21.796078,5.8620312 21.5656468,6.31945584 21.2508604,6.82708876 C21.122463,7.03414584 20.982991,7.2450435 20.8219676,7.47757253 L20.2621421,8.26464354 C22.0198387,8.88338211 24.0178493,10.5308374 25.9309376,12.7670782 C30.4694561,18.0739842 31.9921458,26.3222521 26.3957085,29.1133124 L26.0683124,29.2678725 C24.8137951,29.8250841 23.5180434,29.9840763 20.5595746,29.9991619 L19.7490164,30 L16.7142072,29.9808836 L13.3582199,29.992536 C9.62292422,29.9919436 8.1352257,29.848986 6.78723876,29.2145061 L6.63793029,29.1419678 L6.34019281,28.9843293 C1.17418079,26.1071573 2.53375029,17.6103611 6.79468763,12.5404742 C8.58835694,10.4060849 10.4958743,8.83868086 12.2189881,8.25084017 C12.0183215,7.88500713 11.7829269,7.49410581 11.5129799,7.07464205 L11.1975895,6.59461887 L10.4672896,5.53054441 L10.0516079,4.91822086 L9.90224356,4.67549225 C9.88147186,4.6393108 9.86252626,4.60484087 9.84505415,4.57144472 C9.74202278,4.37451084 9.6810476,4.21587531 9.66624697,3.98321301 C9.61522155,3.18110616 10.3344025,2.62302255 11.0720357,2.77244133 C11.8179935,2.92397002 12.7661513,2.91131623 14.0128025,2.75552741 L14.6144988,2.6729227 L15.0739871,2.60173995 Z M18.8323723,10.2507853 L13.6316418,10.2507853 C12.4680804,10.2507853 10.4373547,11.7236166 8.53682783,13.9851617 C5.05298212,18.1304242 3.9433859,25.0649817 7.45008294,27.0180106 L7.68363355,27.1387089 C8.55951361,27.5562439 9.6877876,27.7031322 12.3088575,27.7321943 L13.0616382,27.7373139 L16.3005949,27.7265133 L20.0927573,27.7455603 L20.8355057,27.7417629 C23.4150812,27.7162872 24.4555182,27.5585903 25.3773277,27.0987198 C29.1524721,25.2159763 27.9282431,18.5844419 24.2014965,14.2267438 C22.2355519,11.9287183 20.1653783,10.3786584 18.9763414,10.2583304 L18.8323723,10.2507853 Z M19.9318505,17.4075707 C21.5964862,17.4075707 22.94594,18.7480482 22.94594,20.401611 C22.94594,21.9890313 21.7022834,23.2879121 20.1300278,23.3892827 L19.9318505,23.3956513 L19.1416372,23.3952838 L19.1426726,24.583139 C19.1426726,26.0039251 17.0738454,26.0546675 16.9260721,24.7353661 L16.9177611,24.583139 L16.9177611,18.5126265 C16.9177611,17.9492676 17.3421465,17.4843699 17.8906727,17.4161806 L18.0302168,17.4075707 L19.9318505,17.4075707 Z M13.4629291,14.4099284 C15.1275648,14.4099284 16.4770201,15.7504059 16.4770201,17.4039687 C16.4770201,18.2638213 16.1121263,19.0390157 15.5277686,19.5850923 L15.4490552,19.6532898 L16.1345426,20.3068446 C16.5410323,20.6940623 16.5873008,21.3141294 16.26464,21.7540772 L16.1674881,21.8692869 C15.7776774,22.2730728 15.1534582,22.3190334 14.7105643,21.998519 L14.5945831,21.9020133 L12.6728602,20.0695275 L12.6737511,21.1044289 C12.6737511,21.6677879 12.2493657,22.1326856 11.7008395,22.2008749 L11.5612954,22.2094863 C10.994164,22.2094863 10.5261531,21.7879224 10.4575073,21.2430448 L10.4488396,21.1044289 L10.4488396,15.5149843 C10.4488396,14.9516253 10.873225,14.4867276 11.4217513,14.4185383 L11.5612954,14.4099284 L13.4629291,14.4099284 Z M19.1416372,19.6172205 L19.1416372,21.185172 L19.9318505,21.1855395 C20.3677015,21.1855395 20.7210285,20.8345627 20.7210285,20.401611 C20.7210285,20.0080184 20.4290227,19.6821739 20.0484695,19.6261822 L19.9318505,19.6176824 L19.1416372,19.6172205 Z M13.4629291,16.6200402 L12.6728602,16.6192975 L12.6728602,18.5126265 L12.6840669,18.5004739 C12.8446968,18.3423698 13.0570046,18.2307054 13.3078804,18.1978757 L13.4629291,18.1878972 C13.8987801,18.1878972 14.2521071,17.8369205 14.2521071,17.4039687 C14.2521071,17.0103762 13.9601013,16.6845316 13.5795481,16.62854 L13.4629291,16.6200402 Z M19.6154899,4.26858288 C19.28395,4.24340069 18.8913555,4.27019378 18.172284,4.37489581 L17.4298046,4.49086327 L15.1834523,4.86710642 L14.2673492,4.99587853 C13.9753161,5.03214131 13.6952839,5.06167223 13.4259009,5.08404122 L13.0296446,5.11216951 L12.9313217,5.11589269 L13.0893179,5.34931355 L13.4250706,5.86042695 C13.690479,6.27283831 13.9281117,6.66442065 14.1395914,7.04240453 L14.3424137,7.41612338 L14.4341752,7.59689049 L17.9580642,7.59689049 L18.0158483,7.51262457 L18.9482736,6.20562685 L19.2065457,5.82143653 C19.2455816,5.76119235 19.2828293,5.70248471 19.3186138,5.64477777 C19.5469957,5.27648288 19.7022754,4.96824011 19.7824282,4.72335182 L19.8203406,4.60163367 L19.8203406,4.60163367 L19.8848926,4.34475381 L19.8921055,4.29807766 L19.6154899,4.26858288 Z" id="Shape" fill="#0066AE"></path>
    </g>
</svg>