<svg xmlns="http://www.w3.org/2000/svg" width="48" height="48" viewBox="0 0 48 48">
    <g fill="none" fill-rule="evenodd">
        <g>
            <g>
                <path fill="#095DAA" fill-rule="nonzero" d="M18.034 39c-.176.915-.176 1.827 0 2.736.263 1.363.478 1.488.966 2.264H3.485C2.665 43.998 2 42.88 2 41.5V39zM27 21c-1.339 0-2.424 1.253-2.424 2.798v17.404c0 1.545-1.086 2.798-2.424 2.798-1.34 0-2.425-1.253-2.425-2.798v-1.75c0-.58-.407-1.049-.909-1.049H7V23.798C7 22.253 8.085 21 9.424 21zm.1 0c1.236.321 2.1 1.442 2.1 2.725v10.462C29.2 35.74 30.454 37 32 37h-7V23.725c0-1.283.864-2.404 2.1-2.725zM36 32v2.256c0 1.34-1.05 2.493-2.5 2.744-1.45-.251-2.5-1.403-2.5-2.744v-.443l.282-.064c1.655-.381 3.243-.97 4.718-1.749zm4-18c.448 0 .81.354.81.79v13.511l3.806-3.71c.316-.308.83-.308 1.146 0 .317.31.317.81 0 1.119l-5.189 5.058c-.158.155-.365.232-.573.232-.207 0-.415-.077-.573-.232l-5.19-5.058c-.316-.309-.316-.81 0-1.118.317-.309.83-.309 1.147 0l3.805 3.71V14.79c0-.436.363-.79.811-.79zM25 3c6.627 0 12 5.195 12 11.603 0 4.556-2.715 8.498-6.666 10.397v-2.937c0-1.219-.948-2.217-2.146-2.298l-.158-.005H14.247C13.45 18.205 13 16.454 13 14.602 13 8.195 18.373 3 25 3zm.28 5.5c-.463.01-.848.354-.908.789l-.008.11-.035 4.104-2.474.079c-.502.016-.908.422-.907.908.001.448.349.807.797.847l.114.003 3.373-.107c.46-.015.84-.358.9-.79l.007-.109.043-4.975c.004-.485-.4-.87-.901-.86z" transform="translate(-360 -306) translate(360 306)"/>
                <path d="M0 0H48V48H0z" transform="translate(-360 -306) translate(360 306)"/>
            </g>
        </g>
    </g>
</svg>
