<svg xmlns="http://www.w3.org/2000/svg" width="48" height="48" viewBox="0 0 48 48">
    <g fill="none" fill-rule="evenodd">
        <g>
            <g>
                <g fill="#0C5EA9" fill-rule="nonzero">
                    <path d="M38.582 16.71c-.384.193-.807.292-1.236.292h-3.708c-1.552 0-2.81-1.258-2.81-2.81V9.318c-.006-.262-.217-.472-.478-.478h-.21c-1.086-.001-2.075-.629-2.539-1.611-.463-.982-.32-2.144.37-2.984C21.95 1.843 15.093 2.97 10.156 7.171 5.218 11.372 3.01 17.96 4.418 24.29c.384-.193.807-.292 1.236-.292h3.708c1.552 0 2.81 1.258 2.81 2.81v4.874c.006.262.217.472.478.478h.21c1.086.001 2.075.629 2.539 1.611.463.982.32 2.144-.37 2.984 6.021 2.402 12.878 1.276 17.815-2.926 4.938-4.201 7.146-10.79 5.738-17.119zm-18.248 2.624h2.332c1.932 0 3.498 1.566 3.498 3.498 0 1.932-1.566 3.498-3.498 3.498v2.332c0 .644-.522 1.166-1.166 1.166-.644 0-1.166-.522-1.166-1.166V26.33h-2.332c-.644 0-1.166-.522-1.166-1.166 0-.644.522-1.166 1.166-1.166h4.664c.644 0 1.166-.522 1.166-1.166 0-.644-.522-1.166-1.166-1.166h-2.332c-1.932 0-3.498-1.566-3.498-3.498 0-1.932 1.566-3.498 3.498-3.498v-2.332c0-.644.522-1.166 1.166-1.166.644 0 1.166.522 1.166 1.166v2.332h2.332c.644 0 1.166.522 1.166 1.166 0 .644-.522 1.166-1.166 1.166h-4.664c-.644 0-1.166.522-1.166 1.166 0 .644.522 1.166 1.166 1.166z" transform="translate(-668 -169) translate(668 169) translate(2 3)"/>
                    <path d="M36 0c.749 0 1.467.292 1.995.811l4.527 4.435c.308.303.48.715.478 1.143C43 7.279 42.263 8 41.355 8h-.21c-.909 0-1.645.721-1.645 1.611v4.778c0 .89-.736 1.611-1.645 1.611h-3.71c-.909 0-1.645-.721-1.645-1.611V9.61c0-.89-.736-1.611-1.645-1.611h-.21C29.737 8 29 7.279 29 6.389c-.002-.428.17-.84.478-1.143L34.005.81C34.533.291 35.251 0 36 0zM7 42c-.749 0-1.467-.292-1.995-.811L.478 36.754c-.308-.303-.48-.715-.478-1.143C0 34.721.737 34 1.645 34h.21c.909 0 1.645-.721 1.645-1.611V27.61c0-.427.173-.837.482-1.139.308-.302.727-.472 1.163-.472h3.71c.909 0 1.645.721 1.645 1.611v4.778c0 .89.736 1.611 1.645 1.611h.21c.908 0 1.645.721 1.645 1.611.002.428-.17.84-.478 1.143L8.995 41.19C8.467 41.709 7.749 42 7 42z" transform="translate(-668 -169) translate(668 169) translate(2 3)"/>
                </g>
                <path d="M0 0H48V48H0z" transform="translate(-668 -169) translate(668 169)"/>
            </g>
        </g>
    </g>
</svg>
