<svg xmlns="http://www.w3.org/2000/svg" width="48" height="48" viewBox="0 0 48 48">
    <g fill="none" fill-rule="evenodd">
        <g>
            <g>
                <g fill="#0C5EA9" fill-rule="nonzero">
                    <path d="M15.5 25H14v2h1.5c.276 0 .5-.448.5-1s-.224-1-.5-1zM25.5 28H24v2h1.5c.276 0 .5-.448.5-1s-.224-1-.5-1z" transform="translate(-564 -43) translate(564 43) translate(4 2)"/>
                    <path d="M35.836 23.413L24.796 14c-.406.169-.841.258-1.282.263H16.46c-.44.002-.875-.08-1.282-.24l-11.04 9.39c-1.28 1.084-2.32 2.411-3.056 3.9C.38 28.742.012 30.303 0 31.887 0 38.601 6.325 44 14.109 44h11.757c3.66.036 7.21-1.22 9.993-3.534C38.481 38.373 40 35.25 40 31.95c0-3.298-1.52-6.422-4.14-8.514l-.024-.023zM18.81 30.275v1.144c0 .631-.526 1.143-1.175 1.143-.65 0-1.176-.512-1.176-1.143v-1.144c0-.632-.526-1.144-1.176-1.144H14.11v2.288c0 .631-.527 1.143-1.176 1.143-.65 0-1.176-.512-1.176-1.143v-6.863c0-.631.527-1.143 1.176-1.143h2.94c1.156 0 2.206.66 2.68 1.687.475 1.026.286 2.229-.482 3.07.48.602.74 1.343.74 2.105zm6.467 2.287h-1.764v2.288c0 .631-.526 1.143-1.175 1.143-.65 0-1.176-.512-1.176-1.143v-6.863c0-.631.526-1.143 1.176-1.143h2.939c1.623 0 2.94 1.28 2.94 2.859 0 1.58-1.317 2.86-2.94 2.86zM16.4 8C15.075 8 14 9.12 14 10.5s1.075 2.5 2.4 2.5h7.2c1.325 0 2.4-1.12 2.4-2.5S24.925 8 23.6 8h-7.2zM15.737 7c.273-.07.553-.104.834-.103h6.858c.28-.001.561.033.834.103l3.371-4.23c.238-.304.367-.68.366-1.068 0-.452-.178-.884-.495-1.203C27.187.179 26.757 0 26.309 0H13.737c-.456-.013-.898.16-1.226.481-.327.32-.511.76-.511 1.22-.001.387.128.764.366 1.068L15.737 7z" transform="translate(-564 -43) translate(564 43) translate(4 2)"/>
                </g>
                <path d="M0 0H48V48H0z" transform="translate(-564 -43) translate(564 43)"/>
            </g>
        </g>
    </g>
</svg>
