<svg xmlns="http://www.w3.org/2000/svg" width="48" height="48" viewBox="0 0 48 48">
    <g fill="none" fill-rule="evenodd">
        <g>
            <g>
                <g fill="#0C5EA9">
                    <path d="M28.41 0c.04 0 .08.006.12.017.24.067.38.315.313.555l-.42 1.502 1.902.89c.069.033.133.073.192.122.384.316.438.885.121 1.269-.417.506-.8 1.018-1.145 1.536-.55.821-1.007 1.805-1.372 2.951l.097-.292h.404c.994 0 1.8.807 1.8 1.8 0 .72-.422 1.341-1.032 1.63 2.6 1.081 4.48 3.282 4.778 5.92l1.404 12.476c.13 1.15-.633 2.212-1.765 2.455l-1.35.29c-.796.171-1.621-.1-2.16-.708l-.846-.954c-.24-.271-.58-.435-.943-.453l-5.708-.29c-.138-.006-.274-.035-.404-.083l-4.009-1.496c-1.356-.506-2.194-1.87-2.032-3.308l.89-7.929c.307-2.729 2.307-4.99 5.047-6.03-.501-.32-.834-.88-.834-1.52 0-.993.806-1.8 1.8-1.8l.458-.001c-.393-1.05-.861-1.935-1.406-2.658-.369-.489-.79-.984-1.263-1.486-.075-.08-.135-.171-.177-.272-.191-.46.026-.987.485-1.179l2.111-.88-.352-1.522c-.007-.033-.011-.067-.011-.101 0-.25.202-.451.45-.451zm.542 19.532c-.138 0-.267.014-.388.044-.12.029-.238.074-.352.134-.114.06-.226.134-.335.224-.073.06-.147.125-.222.197l-.113.113v-.462c0-.03-.007-.055-.022-.077-.014-.022-.04-.04-.076-.055-.037-.014-.085-.025-.145-.033-.06-.007-.133-.01-.22-.01-.091 0-.166.003-.226.01-.06.008-.108.019-.145.033-.036.015-.062.033-.076.055l-.017.036-.005.041v5.476c0 .03.009.056.026.08.018.023.048.042.09.059.042.016.098.028.168.037.07.009.16.013.267.013.108 0 .197-.004.267-.013s.127-.021.169-.037c.042-.017.072-.036.09-.06l.02-.037.006-.042v-1.846c.093.091.184.17.271.238.088.067.176.123.265.169.09.045.181.079.276.1.095.023.199.034.313.034.274 0 .518-.053.73-.158.214-.106.392-.257.535-.453.143-.196.251-.434.326-.714.074-.28.111-.594.111-.943 0-.296-.029-.574-.087-.835-.058-.26-.151-.49-.278-.686-.127-.196-.291-.35-.492-.463-.202-.113-.445-.17-.731-.17zm-5.515-1.367H21.97c-.096 0-.177.028-.243.085-.049.043-.08.106-.092.19l-.006.09v5.164c0 .029.009.055.026.079.018.023.048.042.092.057.044.014.103.026.177.035.075.009.167.013.278.013.114 0 .207-.004.28-.013.073-.009.132-.02.176-.035.043-.015.075-.034.094-.057l.02-.038.008-.041v-2.167h.359c.123 0 .23.019.324.057.093.038.176.094.247.17.072.074.137.167.195.278.039.074.078.156.119.244l.06.139.508 1.27c.012.035.026.065.044.09.017.025.047.045.09.061.042.016.1.027.173.033.072.006.17.01.293.01.146 0 .26-.004.346-.01.084-.006.148-.016.192-.03.044-.015.072-.033.083-.055.012-.022.018-.05.018-.082 0-.029-.007-.07-.022-.12-.011-.039-.03-.094-.058-.167l-.03-.077-.477-1.121c-.055-.135-.112-.256-.17-.363-.059-.107-.12-.202-.186-.285-.066-.084-.136-.155-.21-.214-.075-.058-.154-.108-.24-.149.176-.056.332-.129.47-.22.136-.09.252-.197.345-.32.093-.124.164-.264.212-.42.048-.157.073-.33.073-.521 0-.226-.034-.426-.101-.6s-.164-.325-.291-.453c-.127-.127-.282-.23-.464-.31-.183-.079-.388-.134-.615-.166-.079-.01-.166-.017-.263-.022-.064-.004-.14-.007-.227-.008l-.14-.001zm5.19 2.311c.147 0 .268.036.366.108.098.072.177.168.237.288.06.12.102.257.126.41.025.155.038.315.038.482 0 .15-.016.299-.046.448-.03.15-.078.284-.143.403-.064.118-.146.214-.247.287-.1.074-.222.11-.365.11-.152 0-.298-.053-.438-.16-.105-.08-.214-.186-.327-.316l-.115-.139v-1.292c.087-.117.17-.215.25-.295.078-.079.155-.143.23-.193.074-.05.147-.086.218-.108.072-.022.144-.033.217-.033zm-5.33-1.428c.13 0 .234.005.308.013.075.01.14.02.2.035.192.053.33.144.415.273.085.129.127.287.127.475 0 .123-.02.234-.061.334-.041.1-.102.185-.184.257-.082.072-.184.127-.306.167-.123.04-.266.06-.43.06h-.586v-1.614h.517z" transform="translate(-51 -456) translate(51 456) translate(3 2)"/>
                    <path d="M41.004 32.965c-.49-.07-1.05.035-1.506.21-2.836 1.056-5.567 2.251-8.404 3.306-.14.07-.315.105-.385.21-.735.88-1.716 1.231-2.801 1.231l-5.288.106c-1.19.035-2.38.07-3.606.07-.315 0-.7-.316-.7-.703-.035-.352.21-.492.525-.492.105 0 .245-.035.35-.035l4.447-.106c1.576-.035 3.116-.035 4.692-.14 1.086-.07 1.821-.88 1.856-1.934.035-1.125-.84-1.97-2.03-1.97-1.752.036-3.993-.21-5.779-.491-2.136-.317-3.186-1.442-5.252-2.11-3.187-1.02-6.478-.668-9.77-.598v-.703c-.035-.738-.385-1.055-1.12-1.02-1.926.036-3.852.106-5.778.141-.105 0-.245.035-.455.035.105 1.02.175 2.04.315 3.024.525 3.727 1.821 7.173 3.852 10.302.105.14.315.281.49.281.665.035 1.33 0 1.961-.035.665-.035 1.015-.387.98-1.055v-.563c1.471.422 2.977.88 4.447 1.301 2.767.809 5.498 1.653 8.3 2.356 2.31.598 4.657.668 6.827-.563 4.657-2.566 9.314-5.133 13.972-7.735.245-.14.455-.351.595-.562.56-.598.175-1.653-.736-1.758z" transform="translate(-51 -456) translate(51 456) translate(3 2)"/>
                </g>
                <path d="M0 0H48V48H0z" transform="translate(-51 -456) translate(51 456)"/>
            </g>
        </g>
    </g>
</svg>
