<svg xmlns="http://www.w3.org/2000/svg" width="48" height="48" viewBox="0 0 48 48">
    <g fill="none" fill-rule="evenodd">
        <g>
            <g>
                <g fill="#005CAA" fill-rule="nonzero">
                    <path d="M28.868 16.87c.529-.015 1.043.164 1.434.5L42.996 28.2c.64.576 1.002 1.374 1.004 2.207-.001.861-.386 1.682-1.061 2.261l-12.694 10.83c-.391.337-.905.516-1.434.501-.552-.014-1.075-.235-1.454-.613-.38-.378-.584-.883-.569-1.404v-4.197c0-1.084-.93-1.963-2.08-1.963h-3.37c-.792 0-1.434-.606-1.434-1.353v-9.477c0-.747.642-1.353 1.434-1.353h3.37c1.15 0 2.08-.88 2.08-1.963v-2.843c0-.52.22-1.02.61-1.388.39-.368.919-.575 1.47-.575zM15.157 0c.57 0 1.116.221 1.509.612.393.391.597.918.566 1.456v4.188c0 1.082.929 1.96 2.075 1.96h3.358c.79 0 1.431.604 1.431 1.35v9.458c0 .746-.64 1.35-1.43 1.35h-3.36c-1.145 0-2.074.878-2.074 1.96v2.837c0 1.082-.93 1.959-2.075 1.959-.528.015-1.041-.164-1.431-.5L1.062 15.822C.386 15.245 0 14.426 0 13.565c0-.86.386-1.68 1.062-2.256L13.726.501c.39-.336.903-.515 1.43-.5z" transform="translate(-462 -169) translate(462 169) translate(2 2)"/>
                </g>
                <path d="M0 0H48V48H0z" transform="translate(-462 -169) translate(462 169)"/>
            </g>
        </g>
    </g>
</svg>
