<svg xmlns="http://www.w3.org/2000/svg" width="48" height="48" viewBox="0 0 48 48">
    <g fill="none" fill-rule="evenodd">
        <g>
            <g>
                <path fill="#095DAA" fill-rule="nonzero" d="M22.977 41c-.186.915-.186 1.827 0 2.736.279 1.363.506 1.488 1.023 2.264H7.572C6.704 45.998 6 44.88 6 43.5V41zM31 21c-1.339 0-2.424 1.307-2.424 2.92v18.16c0 1.613-1.086 2.92-2.424 2.92-1.34 0-2.425-1.307-2.425-2.92v-1.825c0-.605-.407-1.095-.909-1.095H11V23.92c0-1.613 1.085-2.92 2.424-2.92zm.1 0c1.236.341 2.1 1.532 2.1 2.895v11.116C33.2 36.66 34.454 38 36 38h-7V23.895c0-1.363.864-2.554 2.1-2.895zM39 32v2.256c0 1.34-1.05 2.493-2.5 2.744-1.45-.251-2.5-1.403-2.5-2.744v-.443l.282-.064c1.655-.381 3.243-.97 4.718-1.749zM30 2c6.627 0 12 5.431 12 12.13 0 4.764-2.715 8.885-6.666 10.87v-3.024c0-1.301-1.013-2.366-2.293-2.449l-.161-.005H19.247C18.45 17.898 18 16.067 18 14.131 18 7.43 23.373 2 30 2zm.28 5.75c-.463.01-.848.37-.908.825l-.008.115-.035 4.291-2.474.082c-.502.017-.908.442-.907.95.001.47.353.848.805.886l.106.002 3.373-.112c.46-.015.84-.373.9-.825l.007-.115.043-5.2c.004-.508-.4-.91-.901-.9z" transform="translate(-257 -306) translate(257 306)"/>
                <path d="M0 0H48V48H0z" transform="translate(-257 -306) translate(257 306)"/>
            </g>
        </g>
    </g>
</svg>
