<svg xmlns="http://www.w3.org/2000/svg" width="48" height="48" viewBox="0 0 48 48">
    <g fill="none" fill-rule="evenodd">
        <g>
            <g>
                <g fill="#0C5EA9" fill-rule="nonzero">
                    <path d="M28.368 8.077h-1.736V9.23h1.736c.32 0 .58-.259.58-.577 0-.319-.26-.577-.58-.577zm0 0h-1.736V9.23h1.736c.32 0 .58-.259.58-.577 0-.319-.26-.577-.58-.577zm0 0h-1.736V9.23h1.736c.32 0 .58-.259.58-.577 0-.319-.26-.577-.58-.577zm8.106 3.461h-1.737v1.154h1.737c.32 0 .579-.258.579-.577 0-.318-.26-.577-.58-.577zm0 0h-1.737v1.154h1.737c.32 0 .579-.258.579-.577 0-.318-.26-.577-.58-.577zm-8.106-3.461h-1.736V9.23h1.736c.32 0 .58-.259.58-.577 0-.319-.26-.577-.58-.577zm11-8.077H4.632C2.074 0 0 2.066 0 4.615v20.77C0 27.934 2.074 30 4.632 30h34.736C41.926 30 44 27.934 44 25.385V4.615C44 2.066 41.926 0 39.368 0zM24.316 6.923c0-.637.518-1.154 1.158-1.154h2.894c1.14 0 2.174.666 2.641 1.702.468 1.036.282 2.249-.475 3.098.473.608.73 1.355.73 2.123v1.154c0 .637-.52 1.154-1.159 1.154-.64 0-1.158-.517-1.158-1.154v-1.154c0-.637-.518-1.154-1.158-1.154h-1.157v2.308c0 .637-.519 1.154-1.158 1.154-.64 0-1.158-.517-1.158-1.154V6.923zM7.272 23.077c-.362.01-.708-.148-.936-.43-.227-.28-.31-.65-.222-1l.833-3.324c.467-1.86 1.81-3.378 3.601-4.073-.819-.662-1.292-1.66-1.285-2.712v-.957c-.047-1.869 1.354-3.46 3.22-3.658.964-.07 1.914.263 2.622.92.707.657 1.108 1.578 1.106 2.542v1.153c-.002 1.058-.488 2.056-1.32 2.712 1.805.686 3.162 2.206 3.635 4.073l.834 3.323c.087.35.005.721-.223 1.002-.227.28-.573.44-.935.429H7.272zM38.21 24.23H25.474c-.64 0-1.158-.517-1.158-1.154 0-.637.518-1.154 1.158-1.154H38.21c.639 0 1.157.517 1.157 1.154 0 .637-.518 1.154-1.157 1.154zM36.474 15h-1.737v2.308c0 .637-.519 1.154-1.158 1.154-.64 0-1.158-.517-1.158-1.154v-6.923c0-.638.518-1.154 1.158-1.154h2.895c1.598 0 2.894 1.291 2.894 2.884 0 1.594-1.296 2.885-2.894 2.885zm0-3.462h-1.737v1.154h1.737c.32 0 .579-.258.579-.577 0-.318-.26-.577-.58-.577zm-7.527-2.884c0-.319-.259-.577-.579-.577h-1.736V9.23h1.736c.32 0 .58-.259.58-.577zm-.579-.577h-1.736V9.23h1.736c.32 0 .58-.259.58-.577 0-.319-.26-.577-.58-.577zm0 0h-1.736V9.23h1.736c.32 0 .58-.259.58-.577 0-.319-.26-.577-.58-.577z" transform="translate(-462 -306) translate(462 306) translate(2 8)"/>
                </g>
                <path d="M0 0H48V48H0z" transform="translate(-462 -306) translate(462 306)"/>
            </g>
        </g>
    </g>
</svg>
