<svg xmlns="http://www.w3.org/2000/svg" width="48" height="48" viewBox="0 0 48 48">
    <g fill="none" fill-rule="evenodd">
        <g>
            <g>
                <g fill="#0C5EA9">
                    <path d="M7.5 22.384c-2.693 0-4.884-2.191-4.884-4.884 0-2.694 2.191-4.885 4.884-4.885.608 0 1.188.117 1.725.32L6.65 16.941c-.15.232-.2.508-.142.777.06.27.219.5.451.649.167.107.36.164.557.164.352 0 .677-.177.868-.473l2.55-4.028c.895.886 1.451 2.114 1.451 3.47 0 2.693-2.191 4.884-4.884 4.884M7.5 10C3.364 10 0 13.364 0 17.5S3.364 25 7.5 25c4.135 0 7.5-3.364 7.5-7.5 0-2.659-2.116-7.5-7.5-7.5" transform="translate(-462 -606) translate(462 606) translate(2 9)"/>
                    <path d="M41.444 8.435c.611 0 .788-1.573.176-1.573H28.84c-3.454 0-5.09-.859-6.255-1.648-1.198-.81-2.71-1.176-5.61-1.308.085-.552.053-1.106-.1-1.622.181-.26.62-.265 1.572-.265h1.86c.597 0 1.082-.357 1.082-.95C21.39.414 20.903 0 20.307 0h-1.728c-2.078 0-3.153.34-3.726 1.359-.247.438-.258.95-.096 1.399.114.315.12.706.01 1.092-.386-.004-.784-.007-1.209-.007-1.12 0-1.866.976-2.166 1.922-.318 1-.633 2.412-.122 2.866 0 0 5.448 2.598 5.45 7.964C16.721 20.71 19.07 23 21.718 23h2.994c1.124 0 1.83-.757 1.83-1.556 0-10.95 5.638-13.009 14.902-13.009" transform="translate(-462 -606) translate(462 606) translate(2 9)"/>
                    <path d="M36.469 22.384c-2.373 0-4.358-1.688-4.809-3.922l2.72.01c.36.77 1.142 1.305 2.051 1.305 1.25 0 2.264-1.01 2.264-2.256 0-1.244-1.014-2.255-2.264-2.255-.85 0-1.588.467-1.975 1.155l-2.769.004c.494-2.177 2.448-3.81 4.782-3.81 2.704 0 4.904 2.191 4.904 4.885 0 2.693-2.2 4.884-4.904 4.884m0-12.384C32.68 10 29 12.976 29 17.802 29 21.772 32.64 25 36.469 25 40.62 25 44 21.636 44 17.5S40.621 10 36.469 10" transform="translate(-462 -606) translate(462 606) translate(2 9)"/>
                </g>
                <path d="M0 0H48V48H0z" transform="translate(-462 -606) translate(462 606)"/>
            </g>
        </g>
    </g>
</svg>
