<svg xmlns="http://www.w3.org/2000/svg" width="48" height="48" viewBox="0 0 48 48">
    <g fill="none" fill-rule="evenodd">
        <g>
            <g>
                <path d="M0 0H48V48H0z" transform="translate(-259 -169) translate(259 169)"/>
                <g fill="#0C5EA9" fill-rule="nonzero">
                    <g>
                        <path d="M31.152 10.23c-5.953-1.903-12.351-1.903-18.304 0-1.245.397-2.22 1.373-2.618 2.618-1.903 5.953-1.903 12.351 0 18.304.397 1.245 1.373 2.22 2.618 2.618 5.952 1.907 12.352 1.907 18.304 0 1.245-.397 2.22-1.373 2.618-2.618 1.903-5.953 1.903-12.351 0-18.304-.397-1.245-1.373-2.22-2.618-2.618zM28.6 24.2c0 3.038-2.462 5.5-5.5 5.5h-2.2c-3.038 0-5.5-2.462-5.5-5.5v-8.8c0-.608.492-1.1 1.1-1.1.608 0 1.1.492 1.1 1.1v8.8c0 1.823 1.477 3.3 3.3 3.3h2.2c1.823 0 3.3-1.477 3.3-3.3v-8.8c0-.608.492-1.1 1.1-1.1.608 0 1.1.492 1.1 1.1v8.8zM40.293 9.779c-.205-.303-.547-.485-.913-.484-.398.014-.757.241-.94.595-.182.353-.16.778.06 1.11.205.303.547.485.913.484.404-.002.774-.225.964-.58.19-.356.171-.788-.051-1.125h-.033zM42.416 14.003c.002-.485-.313-.914-.776-1.057-.463-.142-.965.035-1.236.437s-.247.934.06 1.31c.306.375.822.506 1.27.322.41-.169.68-.568.682-1.012zM42.504 19.019h.209c.525-.101.9-.566.891-1.1.005-.066.005-.132 0-.198-.101-.525-.566-.9-1.1-.891h-.22c-.608.06-1.05.602-.99 1.21.06.608.602 1.05 1.21.99v-.011zM44 21.78c-.012-.069-.034-.136-.066-.198-.024-.07-.057-.137-.099-.198-.04-.058-.085-.113-.132-.165l-.165-.132c-.061-.042-.128-.075-.198-.099l-.22-.088c-.362-.076-.739.036-1.001.297l-.132.165c-.042.061-.075.128-.099.198-.032.062-.054.13-.066.198-.005.073-.005.147 0 .22-.002.292.113.573.319.781.107.097.23.175.363.231.122.066.257.104.396.11.608 0 1.1-.492 1.1-1.1.005-.073.005-.147 0-.22zM2.596 26.081c.005-.073.005-.147 0-.22-.106-.52-.569-.89-1.1-.88h-.22c-.608.058-1.053.597-.995 1.204.057.608.596 1.054 1.204.996h.22c.525-.101.9-.566.891-1.1zM4.609 32.516c-.608 0-1.1.492-1.1 1.1 0 .608.492 1.1 1.1 1.1.403-.007.77-.235.956-.593.186-.358.16-.789-.065-1.123-.2-.297-.533-.477-.891-.484zM3.707 29.579c-.112-.27-.327-.485-.597-.596-.27-.112-.574-.11-.844.002-.479.204-.75.715-.648 1.226.1.51.546.88 1.066.886.144.004.287-.026.418-.088.414-.17.684-.575.682-1.023 0-.14-.026-.277-.077-.407zM1.1 23.1c.608 0 1.1-.492 1.1-1.1.005-.073.005-.147 0-.22-.012-.069-.034-.136-.066-.198-.024-.07-.057-.137-.099-.198l-.132-.165c-.207-.208-.488-.325-.781-.325-.293 0-.574.117-.781.325-.21.207-.331.487-.341.781-.002.292.113.573.319.781.107.097.23.175.363.231.13.062.274.092.418.088z" transform="translate(-259 -169) translate(259 169) translate(2 2)"/>
                        <path d="M12.1 8.8c.608 0 1.1-.492 1.1-1.1 0-.608-.492-1.1-1.1-1.1H9.559C17.427.262 28.804.864 35.959 7.997c.053.048.112.088.176.121.053.048.112.088.176.121.13.048.268.074.407.077.132-.002.262-.028.385-.077 0 0 .066 0 .11-.066.091-.048.176-.108.253-.176.05-.058.095-.12.132-.187.04-.052.077-.108.11-.165.056-.125.086-.26.088-.396-.008-.232-.089-.455-.231-.638-.03-.05-.062-.098-.099-.143-8.11-8.069-21.05-8.576-29.766-1.166V2.2c0-.608-.492-1.1-1.1-1.1-.608 0-1.1.492-1.1 1.1v5.5c0 .608.492 1.1 1.1 1.1h5.5zM37.4 35.2H33c-.608 0-1.1.492-1.1 1.1 0 .608.492 1.1 1.1 1.1h1.441c-7.868 6.338-19.245 5.736-26.4-1.397-.048-.047-.104-.084-.165-.11-.06-.048-.122-.092-.187-.132-.265-.107-.56-.107-.825 0-.07.038-.136.082-.198.132-.058.026-.11.064-.154.11-.04.043-.072.091-.099.143-.14.18-.22.4-.231.627 0 .147.03.293.088.429.038.07.082.136.132.198.034.053.07.105.11.154 8.139 8.103 21.141 8.582 29.854 1.1V40.7c0 .608.492 1.1 1.1 1.1.608 0 1.1-.492 1.1-1.1v-4.4c0-.304-.124-.594-.345-.802-.221-.208-.518-.316-.821-.298z" transform="translate(-259 -169) translate(259 169) translate(2 2)"/>
                    </g>
                </g>
            </g>
        </g>
    </g>
</svg>
