<svg xmlns="http://www.w3.org/2000/svg" width="48" height="48" viewBox="0 0 48 48">
    <g fill="none" fill-rule="evenodd">
        <g>
            <g>
                <path fill="#0C5EA9" d="M35.524 22.91H3.907l-.089-.006c-.058-.009-.114-.024-.166-.047L2.234 35.63l-.221 1.276-.011.185c-.05 1.526 1.017 2.529 2.414 2.529h21.136c-.913-1.617-1.433-3.48-1.433-5.462 0-6.212 5.106-11.247 11.405-11.247" transform="translate(-360 -607) translate(360 607)"/>
                <path fill="#0C5EA9" d="M41.566 36.115l-.17.012h-3.524v3.71c0 .844-.742 1.528-1.658 1.528-.851 0-1.552-.59-1.648-1.35l-.011-.178v-3.71H31.03c-.801 0-1.451-.782-1.451-1.746 0-.896.56-1.634 1.283-1.734l.168-.012h3.525v-3.71c0-.844.743-1.528 1.659-1.528.85 0 1.551.59 1.647 1.35l.011.178v3.71h3.525c.802 0 1.451.782 1.451 1.746 0 .895-.56 1.633-1.282 1.734m-5.519-12.21c-5.496 0-9.952 4.69-9.952 10.477 0 5.786 4.456 10.475 9.952 10.475 5.497 0 9.953-4.69 9.953-10.475 0-5.786-4.456-10.477-9.953-10.477M8.663 12.928h4.67c.543 0 .984.433.984.968 0 .534-.44.967-.984.967h-4.67l-.115-.007c-.489-.056-.868-.464-.868-.96 0-.535.44-.968.983-.968zm0-3.869h8.653c.542 0 .983.433.983.968 0 .534-.44.967-.983.967H8.663l-.115-.007c-.489-.056-.868-.464-.868-.96 0-.535.44-.968.983-.968zm18.021 6.183l.363-1.43c.204-.8.789-1.453 1.57-1.752-.358-.285-.564-.714-.56-1.167v-.411c-.021-.804.59-1.49 1.402-1.574.42-.03.835.113 1.142.395.309.283.484.68.483 1.094v.496c0 .455-.213.885-.576 1.167.787.295 1.378.95 1.584 1.752l.364 1.43c.037.15.002.31-.097.431-.1.121-.25.19-.408.185h-4.763c-.157.005-.307-.064-.407-.185-.099-.12-.135-.28-.097-.43zM4.111 10.944l-.002 9.768c.076-.03.158-.046.244-.046h31.873l.093.007c.091.012.176.043.251.089v-9.795l.001.001-.02-4.653-.006-.159C36.465 4.952 35.475 4 34.125 4H6.046l-.18.006c-1.276.085-1.77 1.086-1.77 2.309l.013 4.63h.002z" transform="translate(-360 -607) translate(360 607)"/>
                <path d="M0 0H48V48H0z" transform="translate(-360 -607) translate(360 607)"/>
            </g>
        </g>
    </g>
</svg>
