<svg xmlns="http://www.w3.org/2000/svg" width="48" height="48" viewBox="0 0 48 48">
    <g fill="none" fill-rule="evenodd">
        <g>
            <g>
                <path fill="#095DAA" d="M12.45 24.623c5.773 0 10.452 4.785 10.452 10.69C22.902 41.214 18.223 46 12.45 46 6.68 46 2 41.214 2 35.312c0-5.903 4.68-10.69 10.45-10.69zM12 28c-.846 0-1.532.784-1.532 1.75l-.001 4.498H6.532l-.179.012C5.591 34.361 5 35.101 5 35.999c0 .967.686 1.75 1.532 1.75h3.935v4.5l.011.205c.089.87.736 1.546 1.522 1.546.845 0 1.531-.784 1.531-1.75v-4.501h3.937l.179-.011c.762-.102 1.353-.841 1.353-1.74 0-.966-.686-1.75-1.532-1.75h-3.937v-4.497l-.01-.205C13.432 28.676 12.785 28 12 28zM38.077 2c3.566 0 6.471 3.005 6.593 6.76l.004.246v6.598c-.217-.047-.443-.071-.674-.071h-4.22c-1.31 0-2.664.71-3.564 1.77-1.012.98-1.62 2.732-1.46 4.409.323 3.032 2.609 5.36 5.307 5.36H44c.231 0 .457-.024.675-.071v7.842c0 3.787-2.83 6.872-6.366 7.002l-.232.004-13.509.002c1.01-1.952 1.58-4.177 1.58-6.539 0-7.738-6.131-14.01-13.697-14.01-2.451 0-4.752.658-6.742 1.812V9.006c0-3.787 2.83-6.872 6.366-7.002L12.306 2h25.771zM44 17.193c1.071 0 2 1.088 2 2.462v3.295c0 .99-.48 1.83-1.149 2.223-.058.01-.117.018-.176.024v.067c-.213.096-.44.148-.675.148h-3.937c-1.83 0-3.456-1.655-3.692-3.87-.102-1.071.253-2.208.849-2.912l.168-.181c.661-.772 1.582-1.256 2.392-1.256H44z" transform="translate(-360 -456) translate(360 456)"/>
                <path d="M0 0H48V48H0z" transform="translate(-360 -456) translate(360 456)"/>
            </g>
        </g>
    </g>
</svg>
