<svg xmlns="http://www.w3.org/2000/svg" width="48" height="48" viewBox="0 0 48 48">
    <g fill="none" fill-rule="evenodd">
        <g>
            <g>
                <path fill="#095DAA" fill-rule="nonzero" d="M23.947 2c.152-.004.283.01.388.03 12.73 1.06 14.144 2.08 14.563 2.445l.027.025c2.594 2.296 3.161 19.082-.666 29.575-2.655 7.278-7.073 11.357-12.824 11.868v.055L24.258 46h-1.252v-.057c-5.863-.52-10.388-4.733-13.133-12.26C5.986 23.026 6.41 6.767 8.969 4.5l.028-.025c.418-.366 1.831-1.385 14.562-2.445.105-.02.237-.033.388-.03zm0 2.402l-.114.01c-7.677.636-12.466 1.43-13.316 1.901-1.299 1.802-2.528 17.876 2.454 28.71 2.606 5.665 6.38 8.552 11.218 8.579h.062c4.777-.027 8.476-2.847 10.994-8.382 4.826-10.61 3.438-27.125 2.133-28.906-.846-.47-5.636-1.266-13.317-1.902l-.114-.01zm.015 3.01l.155-.013h.007v.026c1.72.148 9.852.886 10.787 1.743 2.07 1.896 3.373 30.751-10.291 31.406l-.419.011-.014.002H24.144c-14.11-.082-13.221-29.504-11.131-31.419.446-.409 2.53-.79 4.775-1.094l.644-.085c2.154-.274 4.325-.473 5.238-.552l.13-.012v-.027l.162.014zm-1.949 24.306c-.835 0-1.512.688-1.512 1.538 0 .85.677 1.538 1.512 1.538s1.511-.689 1.511-1.538c0-.85-.676-1.538-1.511-1.538zm5.255 0c-.835 0-1.512.688-1.512 1.538 0 .85.677 1.538 1.512 1.538s1.511-.689 1.511-1.538c0-.85-.676-1.538-1.511-1.538zm-8.004-5.422c-.835 0-1.512.689-1.512 1.538 0 .85.677 1.538 1.512 1.538s1.512-.688 1.512-1.538c0-.85-.677-1.538-1.512-1.538zm5.255 0c-.835 0-1.512.689-1.512 1.538 0 .85.677 1.538 1.512 1.538s1.511-.688 1.511-1.538c0-.85-.676-1.538-1.511-1.538zm5.255 0c-.835 0-1.512.689-1.512 1.538 0 .85.677 1.538 1.512 1.538.834 0 1.511-.688 1.511-1.538 0-.85-.677-1.538-1.511-1.538zm-10.51-5.334c-.835 0-1.512.689-1.512 1.538 0 .85.677 1.538 1.512 1.538s1.512-.688 1.512-1.538c0-.85-.677-1.538-1.512-1.538zm5.255 0c-.835 0-1.512.689-1.512 1.538 0 .85.677 1.538 1.512 1.538s1.511-.688 1.511-1.538c0-.85-.676-1.538-1.511-1.538zm5.255 0c-.835 0-1.512.689-1.512 1.538 0 .85.677 1.538 1.512 1.538.834 0 1.511-.688 1.511-1.538 0-.85-.677-1.538-1.511-1.538zm-.611-9.679H18.9c-1.592 0-2.895 1.326-2.895 2.945 0 1.562 1.212 2.85 2.726 2.94l.17.005h10.262c1.592 0 2.894-1.325 2.894-2.945 0-1.62-1.302-2.945-2.894-2.945z" transform="translate(-51 -43) translate(51 43)"/>
                <path d="M0 0H48V48H0z" transform="translate(-51 -43) translate(51 43)"/>
            </g>
        </g>
    </g>
</svg>
