<svg xmlns="http://www.w3.org/2000/svg" width="48" height="48" viewBox="0 0 48 48">
    <g fill="none" fill-rule="evenodd">
        <g>
            <g>
                <path d="M0 0H48V48H0z" transform="translate(-49 -171) translate(49 171)"/>
                <g fill="#0C5EA9" fill-rule="nonzero">
                    <g>
                        <path d="M42.927 18.308v-3.231c0-.595-.48-1.077-1.073-1.077H40.78V8.615h1.074c.592 0 1.073-.482 1.073-1.077V5.115c0-.42-.242-.803-.623-.98L33.72.097c-.286-.133-.616-.133-.901 0l-8.586 4.038c-.38.177-.623.56-.622.98v2.423c0 .595.48 1.077 1.073 1.077h1.073V14h-1.073c-.593 0-1.073.482-1.073 1.077v3.23c-.593 0-1.073.483-1.073 1.078 0 .594.48 1.077 1.073 1.077h19.317c.593 0 1.073-.483 1.073-1.077 0-.595-.48-1.077-1.073-1.077zM34.34 8.615V14h-2.146V8.615h2.146zM38.634 14h-2.146V8.615h2.146V14zM27.902 8.615h2.147V14h-2.147V8.615zM18.587 4.308h.065c.592-.033 1.046-.542 1.014-1.136-.033-.595-.54-1.05-1.132-1.018-.384.01-.733.224-.916.562-.184.338-.173.748.027 1.077.2.328.559.524.942.515zM14.423 5.277c.36.002.695-.177.896-.475.2-.299.239-.678.102-1.011-.204-.5-.746-.77-1.266-.632s-.859.641-.79 1.177c.067.536.52.938 1.058.94zM5.677 19.072c.202.204.476.319.762.319.286 0 .56-.115.762-.319l3.22-3.23c.42-.423.42-1.107 0-1.53-.421-.422-1.104-.422-1.524 0L7.512 15.68c.128-3.226 1.562-6.26 3.97-8.4.326-.282.453-.73.323-1.142-.039-.124-.105-.238-.193-.333-.34-.374-.895-.46-1.331-.205-.065.028-.127.064-.182.108C7.212 8.253 5.5 11.88 5.366 15.734L3.98 14.312c-.42-.422-1.103-.422-1.523 0-.421.423-.421 1.107 0 1.53l3.22 3.23zM28.17 35.7c-.468.2-.732.704-.63 1.205.101.501.54.862 1.05.863.132-.001.263-.027.386-.076.354-.148.603-.475.653-.857.05-.382-.108-.762-.413-.996-.306-.234-.712-.287-1.067-.139h.022zM24.361 36.615c-.383.012-.732.228-.913.567-.182.339-.17.75.032 1.077.202.327.562.522.945.51h.065c.592-.035 1.044-.547 1.009-1.141-.036-.595-.545-1.048-1.138-1.013zM37.25 21.85c-.102-.097-.223-.174-.354-.225-.262-.108-.555-.108-.816 0-.132.05-.252.128-.354.226l-3.22 3.23c-.203.203-.317.478-.317.765 0 .287.114.563.317.765.202.204.476.318.762.318.286 0 .56-.114.762-.318l1.385-1.368c-.13 3.2-1.538 6.212-3.907 8.357-.274.182-.435.493-.424.823.011.33.192.63.478.792.186.16.42.251.665.259.161-.001.32-.042.462-.119.092-.038.179-.088.257-.15 2.84-2.564 4.508-6.184 4.615-10.016l1.406 1.422c.201.204.476.318.762.318.286 0 .56-.114.762-.318.203-.202.317-.478.317-.765 0-.287-.114-.562-.317-.764L37.25 21.85zM4.797 32.803V32.846v-.043zM6.074 32.9H6.02v.097h.065s-.01-.054-.01-.097zM17.031 31.586L17.031 30.552 16.527 31.586zM10.614 30.315h-.3l-.14.55h.268c.18.015.344-.104.386-.28.054-.259-.096-.27-.214-.27z" transform="translate(-49 -171) translate(49 171) translate(2 3)"/>
                        <path d="M18.094 21.625c-4.788-1.54-9.936-1.54-14.724 0-1.061.32-1.891 1.153-2.211 2.218-1.534 4.805-1.534 9.97 0 14.775.32 1.065 1.15 1.898 2.21 2.219 4.787 1.55 9.938 1.55 14.725 0 1.06-.321 1.89-1.154 2.21-2.219 1.535-4.804 1.535-9.97 0-14.775-.32-1.065-1.15-1.897-2.21-2.218zM7.448 33.148c-.578.318-1.23.478-1.889.463-.656.016-1.304-.144-1.878-.463-.615-1.204-.615-2.63 0-3.834.574-.32 1.222-.48 1.878-.463.66-.015 1.31.144 1.889.463.615 1.203.615 2.63 0 3.834zm2.844 0H8.446l.687-2.703h-.29l.58-1.131h1.652c1.17 0 1.073 1.346.247 1.917.719.549.247 1.852-1.03 1.917zm3.22.075c-.552.047-1.087-.204-1.405-.658-.319-.455-.372-1.045-.141-1.55.389-1.138 1.499-1.865 2.694-1.766l.064-.129.858.485s-.375.732-.482.969c-.286-.275-.698-.37-1.074-.248-.16.047-.308.124-.44.226-.208.171-.355.406-.418.668-.056.232-.005.477.14.668.053.065.119.12.192.161.391.176.844.14 1.202-.097l-.568 1.142c-.185.075-.38.119-.58.13h-.043zm3.476-.097v-.657h-.89l-.322.657h-1.224l1.363-2.735h-.311l.558-1.077h1.92l.162 3.812h-1.256z" transform="translate(-49 -171) translate(49 171) translate(2 3)"/>
                        <path d="M5.495 32.878v.119h.053v-.065l-.053-.054zM10.335 31.532H9.99l-.16.636h.386c.182.01.345-.113.386-.291.024-.083.007-.173-.046-.241-.053-.069-.136-.107-.222-.104z" transform="translate(-49 -171) translate(49 171) translate(2 3)"/>
                        <path d="M5.559 28.97c-.632-.02-1.257.129-1.814.43-.294.564-.442 1.194-.429 1.83-.012.64.136 1.274.43 1.842.558.296 1.182.445 1.813.431.631.014 1.255-.135 1.814-.43.298-.567.446-1.202.429-1.842.02-.641-.128-1.276-.43-1.842-.557-.297-1.182-.442-1.813-.42zm0 .28c.423.005.762.35.762.775.002.182-.063.358-.182.495-.327.298-.514.72-.516 1.163v.765h-.118v-.765c-.004-.442-.19-.863-.515-1.163-.116-.139-.181-.314-.182-.495-.006-.419.324-.764.74-.776h.011zm-.966 3.564h-.075v-.086c0-.022-.075 0-.107.118-.032.119 0 .14 0 .162V32.868l.118.054-.054.183h-.118c-.129 0-.118-.108-.075-.248s.075-.183.204-.14c.05.008.088.047.096.097h.011zm.344.064c0 .022-.009.043-.026.056-.017.013-.04.016-.06.01.02.004.038.017.048.036.01.018.012.04.005.06-.003.036-.003.072 0 .108h-.096c-.006-.025-.006-.05 0-.076v-.097.162h-.086l.086-.377h.15c-.032 0-.01.054-.032.118h.01zm.354.216c-.002.036-.02.069-.05.09-.029.021-.066.027-.1.018-.086 0-.13-.065-.119-.13v-.28h.076v.27c-.02.02-.02.054 0 .075 0 0 .053 0 .053-.065v-.269h.075l.065.29zm-.054-.625c-.118-.258-.3-.28-.708-.204H4.42c-.28-.006-.504-.236-.504-.517-.004-.114.035-.225.107-.313.127.116.283.194.451.227.537.14.784.387.826.796l-.064.011zm-.73-.861c-.18-.026-.342-.123-.45-.27-.057-.086-.087-.187-.086-.29 0-.33.262-.598.59-.603.109-.003.216.023.311.075l.075.075c.316.27.503.662.515 1.077v.765h-.096c0-.42-.29-.69-.87-.83h.011zm1.073 1.454h-.096v.15h-.118v-.387h.14c.03 0 .059.012.08.035.02.022.03.053.027.083.009.05-.018.1-.065.119h.032zm.13-.593v-.764c.016-.415.202-.805.514-1.077l.086-.076c.092-.052.196-.078.3-.075.16 0 .31.064.422.177.11.114.172.267.169.426 0 .102-.026.202-.075.29-.112.15-.278.246-.462.27-.58.14-.847.41-.88.862l-.075-.033zm.407.711h-.15v-.388h.15c.064 0 .107 0 .129.086.021.087 0 .076-.065.087-.064.01.076 0 .086.097.011.096-.15.107-.182.118h.032zm.354-.065c-.129 0-.15 0-.171-.161-.022-.162 0-.194.085-.226.086-.033.118 0 .13.097H6.45s0-.065-.054-.065 0 .054 0 .15c0 .098 0 .14.075.13.075-.01 0-.054 0-.086h.075c0 .108-.032.15-.107.161h.032zm.419-.14l-.054-.075H6.74v.086h-.076v-.398h.108l.236.323-.118.064zm-.183-.667H6.6c-.408-.076-.59-.054-.698.204h-.075c0-.409.28-.657.827-.786.167-.035.322-.113.45-.226.064.088.101.193.108.302-.006.277-.229.5-.505.506z" transform="translate(-49 -171) translate(49 171) translate(2 3)"/>
                        <path d="M5.988 33.018V33.072c0-.064 0-.054-.064 0l.064-.054zM6.707 32.878L6.782 32.857 6.675 32.706z" transform="translate(-49 -171) translate(49 171) translate(2 3)"/>
                    </g>
                </g>
            </g>
        </g>
    </g>
</svg>
