<svg xmlns="http://www.w3.org/2000/svg" width="48" height="48" viewBox="0 0 48 48">
    <g fill="none" fill-rule="evenodd">
        <g>
            <g>
                <path fill="#095DAA" d="M23.997 28c8.654 0 16.192 6.234 17.944 14.776.16.806 0 1.612-.531 2.256-.53.592-1.273.968-2.07.968H8.655c-.796 0-1.54-.376-2.072-.968-.477-.644-.69-1.45-.53-2.256C7.804 34.234 15.342 28 23.996 28zM24 2c6.6 0 12 5.399 12 12 0 6.6-5.399 12-12 12-6.6 0-12-5.399-12-12 0-6.6 5.4-12 12-12z" transform="translate(-63 -773) translate(63 773)"/>
                <path d="M0 0H48V48H0z" transform="translate(-63 -773) translate(63 773)"/>
            </g>
        </g>
    </g>
</svg>
