<svg xmlns="http://www.w3.org/2000/svg" width="48" height="48" viewBox="0 0 48 48">
    <g fill="none" fill-rule="evenodd">
        <g>
            <g>
                <path fill="#095DAA" fill-rule="nonzero" d="M10.32 30c.376 0 .68.471.68 1.053v1.662L14.125 32c2.287 0 4.1.633 6.054 1.625l.368.19c1.536.806 1.772.832 3.534 1.056l8.104.73c1.2.176 1.65 1.992 1.353 5.45v.075l8.583-3.77c.237.36.467.714.467.714.264.348.399.744.411 1.14.023.746-.423 1.44-1.126 1.84l-7.565 4.3c-1.04.426-2.173.65-3.324.65H20.165c-.95 0-1.894-.152-2.786-.45L11 42.791v1.156c0 .582-.304 1.053-.68 1.053H8.68c-.376 0-.68-.471-.68-1.053V31.053c0-.582.304-1.053.68-1.053h1.64zM33.077 2c1.039 0 1.039.66 2.078.66.884 0 1.248-.73 1.676-.192.902 1.135-1.101 4.3-2.297 5.988.472.117.875.467 1.054.963l.011.03c.162.447.111.919-.096 1.3 11.407 8.132 12.332 17.808 8.371 23.22l-.628.269L34.455 38l.014-1.912-.033-.24c-.098-.554-.33-1.062-.664-1.492l-.149-.18-.023-.024-.023-.02c-.49-.527-1.146-.905-1.892-1.056l-.227-.038-7.385-.827-.353-.055c-1.476-.26-2.308-.794-3.687-1.578-1.211-.689-2.522-1.183-3.882-1.469-.84-5.314 1.737-12.144 9.98-18.144-.054-.07-.102-.144-.144-.222-.758-.023-4.595-.014-6.05 2.29-.125.2-.344.31-.568.31-.12 0-.24-.032-.349-.097-.314-.187-.412-.586-.22-.89.856-1.354 2.422-2.284 4.53-2.69.946-.182 1.798-.222 2.326-.224-.63-.747-1.667-1.51-3.228-1.348-1.998.207-3.483-.411-4.376-.966-.31-.193-.401-.593-.203-.895.198-.301.61-.39.921-.197.714.443 1.903.937 3.517.77 2.19-.226 3.608.898 4.36 1.768.223-.117.477-.174.736-.163-1.18-1.7-3.112-4.832-2.216-5.952.43-.539.793.202 1.678.202 1.039 0 1.039-.661 2.077-.661 1.039 0 1.039.66 2.078.66 1.038 0 1.038-.66 2.077-.66zm.644 17.177h-6.457c-1.52.004-2.752 1.22-2.757 2.72v6.37c.005 1.5 1.236 2.715 2.757 2.72h6.457c1.52-.005 2.752-1.22 2.757-2.72v-6.37c-.005-1.5-1.236-2.716-2.757-2.72zm-3.229 3.22c.269 0 .487.215.487.48v1.629c-.001.026.009.05.027.069.018.018.043.028.07.028h1.65c.27 0 .487.215.487.48 0 .264-.218.479-.486.479v-.002h-1.652c-.025 0-.05.01-.068.028-.018.018-.029.042-.028.067v1.631c0 .265-.218.48-.487.48-.268 0-.486-.215-.486-.48v-1.63c0-.026-.01-.05-.028-.068-.018-.018-.043-.028-.068-.028h-1.652c-.268 0-.486-.215-.486-.48 0-.264.218-.479.486-.479h1.652c.025 0 .05-.01.068-.028.018-.017.029-.042.028-.067v-1.629c0-.265.218-.48.486-.48z" transform="translate(-51 -306) translate(51 306)"/>
                <path d="M0 0H48V48H0z" transform="translate(-51 -306) translate(51 306)"/>
            </g>
        </g>
    </g>
</svg>
