<?xml version="1.0" encoding="UTF-8"?>
<svg width="32px" height="32px" viewBox="0 0 32 32" version="1.1" xmlns="http://www.w3.org/2000/svg" xmlns:xlink="http://www.w3.org/1999/xlink">
    <title>brand/content-icon/32/benefit/everywhere</title>
    <g id="brand/content-icon/32/benefit/everywhere" stroke="none" stroke-width="1" fill="none" fill-rule="evenodd">
        <path d="M16,2 C23.7319865,2 30,8.2680135 30,16 C30,23.7319865 23.7319865,30 16,30 C13.0919767,30 10.3910375,29.1133678 8.15276242,27.5956835 L8.1006669,27.6184142 L8.06904448,27.538475 C4.4031773,25.0139337 2,20.7876129 2,16 C2,8.2680135 8.2680135,2 16,2 Z M16,4.31192661 C11.8691647,4.31192661 8.23883833,6.45485966 6.16005588,9.68969064 L6.36904763,10.0528867 C6.99695666,11.1057828 7.48595764,11.5784286 7.66168109,11.5784286 L7.95805067,11.5771116 C10.0815738,11.5670383 11.2628953,12.1599227 11.2628953,14.3097248 C11.2628953,14.4792065 11.2469609,14.6485598 11.2162972,14.8176842 C11.0908739,15.5094506 10.7841715,16.0837865 10.212979,16.8636161 L9.39174312,17.953578 L9.99428222,18.3470808 C11.8940251,19.624538 12.5822778,21.1632804 11.1837372,23.1597 L11.0258685,23.3753624 C10.2531223,24.3879326 9.94745181,25.2632076 10.0493299,26.062121 C11.7931628,27.0952693 13.827353,27.6880734 16,27.6880734 C16.7936467,27.6880734 17.5688181,27.6089714 18.3180604,27.4582214 C18.2862428,26.7923281 18.0280483,26.2945607 17.5382668,25.9006173 L17.3826903,25.7843079 C15.3593103,24.3756016 13.559633,21.4551758 13.559633,19.5750142 C13.559633,18.0758019 14.9185366,17.3890395 16.50989,17.4134319 C17.9116977,17.4349189 19.2522293,17.9925343 19.7802083,19.0641028 C20.4836541,20.4917928 20.8336059,20.8305369 21.5877898,20.5827403 L21.71736,20.5360961 C23.0837106,20.0051686 24.4776365,20.6020653 25.9581991,22.1210446 C26.454998,21.3161751 26.8568716,20.4443119 27.147724,19.5231464 L27.1185696,19.5208808 C24.8846871,19.5208808 24.0587864,17.0571061 23.9668825,14.0513199 L23.9581651,13.6598165 L23.9241169,13.6614814 C23.5061063,13.6831226 22.9342925,13.8913913 22.4370242,14.2127556 L22.229139,14.357193 C20.8786151,15.3663452 19.5649432,14.660751 18.6456757,13.223679 C18.2301434,12.5740859 17.8769569,11.7366624 17.7161272,11.0665187 L17.6517431,10.746789 C17.585835,10.7152284 17.5133395,10.6862591 17.4272964,10.6569753 L17.2882004,10.613025 C16.6458908,10.4243666 15.6679367,10.3146048 14.4869003,10.3146048 C13.3989677,10.3146048 12.58484,9.97724051 12.3316404,9.05787201 C12.1305951,8.32787625 12.4304611,7.6815201 13.0159821,7.00266585 C13.7148859,6.1923554 14.9521668,5.26242808 16.2212228,4.55561786 L16.6389888,4.32909684 C16.4274387,4.317699 16.2143934,4.31192661 16,4.31192661 Z M16.4744567,19.7250869 C16.2916858,19.7222854 16.1257883,19.7384011 15.9932087,19.7664509 L15.8895413,19.792844 L15.9161217,19.9450432 C16.1496505,21.0226404 17.2676707,22.7663153 18.4762019,23.7181099 L18.7036683,23.8869356 C19.7436719,24.6110011 20.3645948,25.5897729 20.5616928,26.7619791 C22.0777038,26.1210989 23.4295719,25.1671796 24.5377188,23.9824417 C23.5728164,22.9178014 22.8916469,22.5601306 22.5547185,22.6910521 C20.1832219,23.6125526 18.9194455,22.547981 17.7063512,20.0859255 C17.6446159,19.9606296 17.1014662,19.7346978 16.4744567,19.7250869 Z M4.96769442,12.1307233 L4.867759,12.4281905 C4.50681253,13.5540587 4.31192661,14.7542703 4.31192661,16 C4.31192661,19.3134628 5.6907132,22.3048927 7.90584864,24.431852 C8.10587642,23.7057877 8.46930993,22.9748101 8.98719875,22.2453923 L9.18799545,21.9727836 C9.76695217,21.2141461 9.71786266,20.9699563 8.87214993,20.3803953 L7.94390569,19.7667976 C7.7756701,19.6513942 7.64144347,19.5502162 7.51648459,19.4417405 C6.78516998,18.8068929 6.77551196,17.9512816 7.19792543,17.130344 C7.28703134,16.9571715 7.39372672,16.7846028 7.5272475,16.5922954 L7.72283964,16.3217619 L8.17263285,15.7318765 C8.65923371,15.0922102 8.88819283,14.6990202 8.94145843,14.4052362 L8.9486628,14.3544071 L8.95014506,14.1654425 C8.94270221,13.9156782 8.87559529,13.8879138 8.30079795,13.8877147 L7.66168109,13.8903552 C6.7418826,13.8903552 5.93152178,13.3663251 5.14805468,12.3692033 L4.96769442,12.1307233 Z M19.4139626,4.81839285 L19.3176885,4.96855801 C18.9066146,5.5623862 18.3430145,6.04982706 17.6377443,6.4180522 C16.9001993,6.80312817 16.1511063,7.29590623 15.5643827,7.76773544 L15.2678899,8.01614679 L15.436519,8.02227664 C18.0773851,8.13693957 19.8036787,8.76703157 19.9279297,10.2341956 L19.9351176,10.4072169 C19.9351176,10.5860737 20.2412955,11.4276994 20.5932275,11.9778674 C20.6836104,12.1191612 20.771743,12.2355358 20.8499563,12.3233958 L20.953945,12.4280734 L21.1180271,12.3129704 C21.8611173,11.8192363 22.7221889,11.4798732 23.5120804,11.3790919 L23.8045837,11.3526469 C25.1111911,11.2850011 26.1652329,11.9667805 26.262655,13.2641043 L26.2815541,13.9461751 C26.3606821,15.6305813 26.8282891,17.2089542 27.1185696,17.2089542 C27.2907262,17.2089542 27.4583122,17.2234989 27.6205639,17.2522094 C27.6655999,16.8408073 27.6880734,16.4230281 27.6880734,16 C27.6880734,10.8522602 24.3602059,6.48178548 19.7384822,4.92258725 L19.4139626,4.81839285 Z" id="Shape" fill="#FFFFFF"></path>
    </g>
</svg>