<svg xmlns="http://www.w3.org/2000/svg" xmlns:xlink="http://www.w3.org/1999/xlink" width="48" height="48" viewBox="0 0 48 48">
    <defs>
        <path id="y7d0k8vlaa" d="M0 0L44 0 44 33 0 33z"/>
    </defs>
    <g fill="none" fill-rule="evenodd">
        <g>
            <g>
                <g transform="translate(-668 -604) translate(668 604) translate(2 10)">
                    <mask id="c2n853wvqb" fill="#fff">
                        <use xlink:href="#y7d0k8vlaa"/>
                    </mask>
                    <path fill="#0C5EA9" d="M26.364 33c-.967 0-1.742-.754-1.755-1.687-.089-6.123-1.464-11.468 5.608-15.063 3.408-1.739 4.128-4.134 5.78-6.118 1.634-1.986 6.906.065 4.006 3.575-2.882 3.495-5.746 6.956-6.905 8.367-1.177 1.41.07 1.608.949.558.86-1.066 5.728-6.94 6.8-8.236 1.072-1.295 1.405-3.182.913-4.28-.474-1.1-2.618-2.052-3.092-1.855-.018-2.592-.07-2.641.035-4.643.105-2.017 3.374-3.757 3.813-1.05.457 2.69 1.986 9.975 1.318 13.256-1.195 5.971-6.413 8.35-9.734 13.304v2.175c0 .937-.789 1.697-1.76 1.697h-5.976zm-8.728 0c.967 0 1.742-.754 1.755-1.687.089-6.123 1.464-11.468-5.608-15.063-3.391-1.739-4.13-4.134-5.763-6.118-1.652-1.986-6.924.065-4.024 3.575 2.899 3.495 5.746 6.956 6.923 8.367 1.16 1.41-.088 1.608-.949.558-.878-1.066-5.746-6.94-6.818-8.236-1.072-1.295-1.388-3.182-.914-4.28.475-1.1 2.619-2.052 3.11-1.855 0-2.592.053-2.641-.052-4.643C5.19 1.601 1.94-.139 1.483 2.568c-.44 2.69-1.986 9.975-1.318 13.256 1.195 5.971 6.414 8.35 9.735 13.304v2.175c0 .937.788 1.697 1.76 1.697h5.976zm4.37-31.097c-5.6-6.414-18.891 4.63 0 14.597 18.874-9.967 5.582-21.01 0-14.597z" mask="url(#c2n853wvqb)"/>
                </g>
                <path d="M0 0H48V48H0z" transform="translate(-668 -604) translate(668 604)"/>
            </g>
        </g>
    </g>
</svg>
