<?xml version="1.0" encoding="UTF-8"?>
<svg width="32px" height="32px" viewBox="0 0 32 32" version="1.1" xmlns="http://www.w3.org/2000/svg" xmlns:xlink="http://www.w3.org/1999/xlink">
    <title>brand/content-icon/32/benefit/halobca</title>
    <g id="brand/content-icon/32/benefit/halobca" stroke="none" stroke-width="1" fill="none" fill-rule="evenodd">
        <path d="M5.88311921,2.99697322 C7.15778744,1.7223822 9.19883401,1.67026648 10.5373811,2.83867323 L10.7078695,2.99799563 L13.901849,6.18174526 C15.1838629,7.46353685 15.2323919,9.500746 14.062281,10.8400793 L13.9027481,11.0106978 L12.4511341,12.4622238 C12.2610853,12.6522611 12.2373369,12.9441198 12.3801021,13.1598392 L12.4514826,13.24711 L18.7429608,19.5435754 C18.9314775,19.7320239 19.2257319,19.7555761 19.4407219,19.6141565 L19.5274682,19.5434475 L20.9790822,18.0919214 C22.2554447,16.8156363 24.2966077,16.7624577 25.6367704,17.9323858 L25.8074783,18.0919214 L29.0010693,21.285319 C30.2774836,22.5616559 30.3306675,24.6026219 29.1606055,25.9426934 L29.0010516,26.1133901 L27.8397243,27.2745969 C24.2863699,30.8277921 18.5830573,30.9066673 14.9340381,27.511277 L14.688474,27.2743895 L4.7193092,17.3006107 C1.17350316,13.7550195 1.09475835,8.03769085 4.4864062,4.39221532 L4.72303264,4.1469205 L5.88311921,2.99697322 Z M5.37080262,7.01971141 C3.74020965,9.62625162 3.99216893,13.0842229 6.12678954,15.4277416 L6.35432817,15.6661185 L16.3234994,25.6399037 C18.648311,27.9646111 22.1961164,28.3105304 24.8848992,26.6775237 L20.1603878,21.8283869 C19.2047208,22.1930373 18.0922299,22.0285309 17.2777374,21.3348105 L17.1079302,21.1780559 L10.8163289,14.8814674 C10.0124867,14.0776739 9.78552492,12.9164368 10.1355011,11.9108021 L5.37080262,7.01971141 Z M24.1726965,19.7266508 C23.7794153,19.3334158 23.1577846,19.3006463 22.7264819,19.6283241 L22.6138873,19.7266275 L21.9689432,20.371291 L26.658376,25.1863057 L27.3662642,24.4786663 C27.7595441,24.0854103 27.7923174,23.4639168 27.4645841,23.0326211 L27.3662642,22.9200251 L24.1726965,19.7266508 Z M9.07437526,4.63401052 C8.68125465,4.24093612 8.059679,4.20788602 7.63002768,4.53387283 L7.51792433,4.63167932 L6.88466528,5.25838684 L11.5715292,10.0708328 L12.2679664,9.37596826 C12.6625052,8.98147589 12.6968249,8.36360626 12.3672782,7.93089691 L12.2683776,7.81778296 L9.07437526,4.63401052 Z" id="Shape" fill="#0066AE"></path>
    </g>
</svg>