<?xml version="1.0" encoding="UTF-8"?>
<svg width="32px" height="32px" viewBox="0 0 32 32" version="1.1" xmlns="http://www.w3.org/2000/svg" xmlns:xlink="http://www.w3.org/1999/xlink">
    <title>brand/content-icon/32/benefit/message</title>
    <g id="brand/content-icon/32/benefit/message" stroke="none" stroke-width="1" fill="none" fill-rule="evenodd">
        <path d="M3.06227068,2 L28.9293739,2 L29.0742785,2.00975898 L29.0742785,2.00975898 L29.1993717,2.03438632 L29.1993717,2.03438632 L29.3455066,2.08390411 L29.3455066,2.08390411 L29.4559995,2.13828337 L29.4559995,2.13828337 L29.5667712,2.21035383 L29.5667712,2.21035383 L29.6213604,2.2533996 L29.6213604,2.2533996 L29.7126262,2.34061849 L29.7126262,2.34061849 L29.7860058,2.4284491 L29.7860058,2.4284491 C29.8722719,2.54513182 29.9328291,2.67088615 29.9673021,2.80703397 C29.9865073,2.88513638 29.9964087,2.95623216 29.9992234,3.02735924 L30,22.1996098 C30,22.7454164 29.591572,23.1958295 29.063671,23.2618942 L28.9293739,23.2702359 L16.4522624,23.2697953 L8.70370701,29.750715 C8.07484013,30.2765759 7.15012053,29.9245405 6.97535645,29.183361 L6.95335246,29.0563117 L6.94629246,28.9293979 L6.94510288,23.2697953 L3.07062607,23.2702359 C2.57030338,23.2702359 2.1501377,22.9270429 2.03269791,22.4632259 L2.0083417,22.3339069 L2,22.1996098 L2.00185672,3.00572063 L2.00185672,3.00572063 L2.01545627,2.88807258 L2.01545627,2.88807258 L2.055799,2.7286165 L2.055799,2.7286165 L2.13415067,2.55135016 L2.13415067,2.55135016 L2.18318793,2.47156406 L2.18318793,2.47156406 L2.21399422,2.4284491 L2.27368915,2.35561844 L2.27368915,2.35561844 L2.36367753,2.26657255 L2.36367753,2.26657255 L2.43418955,2.20937663 L2.43418955,2.20937663 L2.54538616,2.13740877 L2.54538616,2.13740877 L2.66563869,2.07940206 L2.66563869,2.07940206 L2.797736,2.03534213 L2.797736,2.03534213 L2.86920487,2.01894189 L2.86920487,2.01894189 L2.98790727,2.00321042 L3.06227068,2 L3.06227068,2 Z M4.14006256,5.21068864 L4.14006256,21.1285432 L8.01691854,21.1289838 C8.51724123,21.1289838 8.93740691,21.4721767 9.0548467,21.9359937 L9.07920291,22.0653128 L9.08754461,22.1996098 L9.08635502,26.6386987 L15.378154,21.3782927 C15.4937221,21.2816543 15.6274632,21.2112307 15.7701987,21.170354 L15.9155923,21.1394497 L16.0649425,21.1289838 L27.8579989,21.1285432 L27.8579989,5.21187822 L16.642201,13.6201929 C16.3038935,13.8738156 15.8529032,13.901996 15.4895551,13.7047338 L15.357799,13.6201929 L4.14006256,5.21068864 Z M25.7155571,4.14006256 L6.2825043,4.14006256 L15.9990307,11.4251022 L25.7155571,4.14006256 Z" id="Shape" fill="#0066AE"></path>
    </g>
</svg>