<?xml version="1.0" encoding="UTF-8"?>
<svg width="32px" height="32px" viewBox="0 0 32 32" version="1.1" xmlns="http://www.w3.org/2000/svg" xmlns:xlink="http://www.w3.org/1999/xlink">
    <title>brand/content-icon/32/benefit/shakehand</title>
    <g id="brand/content-icon/32/benefit/shakehand" stroke="none" stroke-width="1" fill="none" fill-rule="evenodd">
        <path d="M24.4818375,3.94085858 C25.4607942,4.4987061 26.4117264,5.27837127 27.2568551,6.20213625 C30.2819901,9.50927833 31.0650629,13.7566023 28.2837276,16.8064164 L28.0838811,17.0172242 L26.9786291,18.1406405 C27.5541224,19.1759934 27.365724,20.4815165 26.5829826,21.3909799 C26.162893,21.87908 25.6357615,22.1802197 25.0765569,22.2740561 L25.0736761,22.2910523 C24.9680573,22.8647948 24.662673,23.4039613 24.181199,23.8341227 C23.6504665,24.308293 22.9897969,24.5733662 22.3312235,24.59166 C22.2035643,25.0826698 21.9226919,25.540317 21.5038181,25.912822 C20.6331626,26.6870968 19.4012799,26.8763382 18.4102047,26.33178 C18.3551162,26.4132016 18.2940197,26.492277 18.2275234,26.5683725 L18.1238048,26.6802015 L16.5992059,28.2298139 C15.6389229,29.2075609 14.0937352,29.2544827 13.0778173,28.3699617 L12.9295384,28.2302977 L12.7543498,28.0521477 C12.374244,27.6656165 12.1369887,27.1869357 12.0427953,26.6854314 C11.5101561,26.6517617 10.9864017,26.4522892 10.5536671,26.0875865 L10.3740215,25.9211708 L10.198833,25.7430209 C9.82524819,25.363121 9.58973532,24.8944949 9.49235382,24.4027318 C8.93109151,24.3839538 8.37372555,24.1794079 7.91851558,23.7906175 L7.75279231,23.6361876 L7.57967963,23.4593937 C7.16674493,23.040007 6.92243723,22.5116813 6.84688487,21.9633493 C6.34597057,21.9133644 5.85565121,21.7141571 5.44755358,21.366833 L5.27789741,21.2089147 L5.10196334,21.0300066 C4.14026983,20.0520567 4.09376346,18.4851317 4.96437006,17.449395 L5.06461425,17.3374543 L3.97013757,16.2265947 C0.980247806,13.1906982 1.55028061,8.7867579 4.62191685,5.6987436 C7.61693857,2.68775233 11.8489213,2.0709561 14.8692329,4.84046504 L15.0828758,5.04405952 L15.4432672,5.40726436 L16.0075352,4.83763755 C18.3523351,2.51718301 22.1357413,2.60221047 24.4818375,3.94085858 Z M16.1484476,24.1708778 C16.0511416,24.1635306 15.9518889,24.1867039 15.8673741,24.24036 L15.78839,24.3041756 L14.2631311,25.8552174 C14.1088427,26.012114 14.0897735,26.2635541 14.2058537,26.4444014 L14.2638766,26.5171039 L14.43954,26.6957371 C14.5923363,26.8513119 14.8411323,26.8707033 15.0183223,26.7536075 L15.0893882,26.6950663 L16.6144626,25.1449701 C16.7099502,25.0478685 16.7535981,24.913689 16.7453381,24.7826997 L16.1484476,24.1708778 Z M14.8424487,21.0209096 C14.687306,20.8631444 14.4410798,20.8434237 14.2631663,20.9617476 L14.1915647,21.0209096 L11.7083597,23.5460906 C11.5535122,23.7035556 11.5342104,23.9544869 11.6503122,24.1352703 L11.7083597,24.2079771 L11.8835483,24.3861271 C12.0380387,24.543229 12.2853248,24.5628667 12.4630142,24.4450403 L12.5344323,24.3861271 L15.0176373,21.8609461 C15.1724229,21.7035439 15.1918252,21.4526206 15.0757022,21.27179 L15.0176373,21.1990596 L14.8424487,21.0209096 Z M6.12278099,7.24254613 C3.88948947,9.48774563 3.4508878,12.4214708 5.29864795,14.4983117 L5.47858879,14.690458 L6.57201545,15.8009539 L7.37568754,14.9851154 C8.33844667,14.0060818 9.88071457,13.9598231 10.8976388,14.845722 L11.0460993,14.9855979 L11.2220333,15.1637479 C11.3820342,15.3266581 11.5166476,15.5059542 11.6258768,15.696433 C12.5703742,15.0716717 13.8326025,15.137748 14.7113462,15.8935972 L14.8714455,16.043402 L15.0461602,16.2218284 C15.7780033,16.9651088 15.9798118,18.0497203 15.6526877,18.981115 C15.8418632,19.0728506 16.0226063,19.1908917 16.1896683,19.3341888 L16.3519754,19.4858658 L16.527164,19.6640158 C17.2010427,20.3492857 17.4254946,21.3228482 17.2008684,22.200195 L17.189824,22.2346795 C17.3963222,22.3299852 17.5929209,22.4541635 17.7736216,22.6072146 L17.9488008,22.7698899 L18.1239893,22.9480399 C18.3160143,23.1433108 18.4714986,23.3621497 18.5904572,23.5955897 L19.3105504,24.3328186 C19.503098,24.5300471 19.8327799,24.5149706 20.0984854,24.2786785 C20.3430801,24.0611601 20.3590774,23.838887 20.0337545,23.4915683 C19.945408,23.3972486 19.8770343,23.2909841 19.8285042,23.1781774 L17.1448005,20.3713947 C16.7336312,19.9418106 16.7427705,19.254611 17.1652136,18.8364913 C17.5524531,18.453215 18.1525629,18.4290846 18.5665971,18.7586136 L18.6746023,18.8572495 L21.9643282,22.2943105 C22.1436483,22.4816153 22.4835809,22.461107 22.7721838,22.2032616 C23.0161417,21.9853033 23.0566598,21.7740198 22.8301816,21.4904071 L22.7450208,21.3934053 L19.5286977,18.018088 C19.1184665,17.5875775 19.1291046,16.9004002 19.5524587,16.4832344 C19.9405333,16.1008324 20.5406943,16.0780557 20.9540086,16.4085178 L21.0617985,16.507397 L24.2775276,19.8820913 C24.5914571,20.2112858 24.7703166,20.2008777 24.9765555,19.9612498 C25.1879137,19.7156738 25.230723,19.4046217 25.1071036,19.1909831 L25.0439406,19.1058627 L18.6581303,12.2982597 C18.3180126,11.9356767 18.2733328,11.3961127 18.5169546,10.9871185 C18.0044808,10.8699848 17.7908612,10.9028344 17.5935963,11.0607651 L17.5400285,11.106886 L16.2911538,12.3586748 C15.2142076,13.4375941 13.5814117,13.732625 12.2061055,13.2960888 C10.6258407,12.7944966 9.77690405,11.3097284 10.9109224,10.0038549 L11.0400692,9.86467732 L13.92875,6.93894059 L13.5853616,6.59117543 C11.4912072,4.51823135 8.43305106,4.91995763 6.12278099,7.24254613 Z M13.2903172,17.5192838 C13.1378199,17.4178633 12.9351337,17.4178633 12.7826364,17.5192838 L12.7110348,17.5784457 L9.08873124,21.2619806 C8.93424783,21.4190754 8.91504597,21.6708361 9.03191306,21.8524427 L9.09033201,21.9254984 L9.26344468,22.1022923 C9.41737808,22.2586309 9.66629691,22.2781732 9.84360634,22.1612956 L9.91472614,22.1028541 L13.5375825,18.4179993 C13.6914569,18.2617207 13.7107996,18.010347 13.5939354,17.8287815 L13.5355066,17.7557225 L13.360318,17.5768145 L13.2903172,17.5192838 Z M9.53562401,16.5196766 C9.3815166,16.362767 9.1345583,16.3430982 8.95680732,16.4610538 L8.88533799,16.5200333 L6.61196315,18.832595 C6.45692766,18.990449 6.43765657,19.2417132 6.55354856,19.4223496 L6.61149009,19.4949629 L6.78742416,19.6738709 C6.94096727,19.8300095 7.18927649,19.8494714 7.36638061,19.7324864 L7.43743899,19.6739967 L9.71203233,17.3601956 C9.86558237,17.2040499 9.88483066,16.9512574 9.77070871,16.7718414 L9.7136365,16.6999369 L9.53562401,16.5196766 Z M17.6962076,6.20889587 L17.5049072,6.38489523 L12.7532141,11.1921124 L12.8421812,11.2238117 C13.4474383,11.4159265 14.1711586,11.3125642 14.6551134,10.9341571 L14.7927487,10.8124041 L16.0737561,9.52973094 C17.0851615,8.59718356 17.8773306,8.5482041 19.517067,9.00766461 L20.0354817,9.16038084 C21.5736399,9.63148179 22.2527098,9.61881562 23.1846842,8.87080199 C23.6474238,8.4994017 24.3186229,8.57978794 24.6838494,9.05034968 C25.0490759,9.52091142 24.970026,10.2034565 24.5072863,10.5748568 C23.3178078,11.5295464 22.278862,11.7936201 20.957229,11.6036002 L25.559815,16.5101079 L26.5754588,15.4810582 C28.626179,13.3989473 28.0969637,10.3079341 25.6938129,7.6807584 C24.9940709,6.9159078 24.2155562,6.27760697 23.437731,5.83437183 C21.89494,4.954078 19.2715147,4.86129484 17.6962076,6.20889587 Z" id="Shape" fill="#FFFFFF"></path>
    </g>
</svg>