<?xml version="1.0" encoding="UTF-8"?>
<svg width="33px" height="32px" viewBox="0 0 33 32" version="1.1" xmlns="http://www.w3.org/2000/svg" xmlns:xlink="http://www.w3.org/1999/xlink">
    <title>brand/content-icon/32/benefit/guarantee</title>
    <g id="brand/content-icon/32/benefit/guarantee" stroke="none" stroke-width="1" fill="none" fill-rule="evenodd">
        <path d="M26.5271541,2 C28.9078611,2 30.8654939,3.87852885 30.9933575,6.22875083 L31,6.47350218 L31,25.5264978 C31,27.9075776 29.1217241,29.8654757 26.7718672,29.9933566 L26.5271541,30 L7.47284595,30 C5.09213888,30 3.1345061,28.1214712 3.00664247,25.7712492 L3,25.5264978 L3,6.47350218 C3,4.09242244 4.87827589,2.13452427 7.22813277,2.00664337 L7.47284595,2 L26.5271541,2 Z M26.5271541,4.31953587 L7.47284595,4.31953587 C6.35340134,4.31953587 5.42245703,5.19167948 5.32756385,6.28869508 L5.31960057,6.47350218 L5.31960057,25.5264978 C5.31960057,26.6465014 6.19162674,27.5775926 7.28812825,27.6724997 L7.47284595,27.6804641 L26.5271541,27.6804641 C27.6465987,27.6804641 28.577543,26.8083205 28.6724361,25.7113049 L28.6803994,25.5264978 L28.679267,21.2315296 L27.3142144,21.231842 C27.2696185,21.231842 27.2249035,21.2302577 27.1802916,21.2270196 L27.1804692,23.7705262 C27.1804692,25.0357395 26.199837,26.0769739 24.9590709,26.1732701 L24.7710951,26.1805374 L9.2289049,26.1805374 C7.96392673,26.1805374 6.92305749,25.1995513 6.82679552,23.9585382 L6.81953084,23.7705262 L6.81953084,8.22876947 C6.81953084,6.96402675 7.80035366,5.92300544 9.04095629,5.82672845 L9.2289049,5.81946261 L24.7710951,5.81946261 C26.0358731,5.81946261 27.0769234,6.80025808 27.1732031,8.0408261 L27.1804692,8.22876947 L27.1802916,11.0252397 L27.247259,11.0216142 L27.247259,11.0216142 L28.679267,11.0204173 L28.6803994,6.47350218 C28.6803994,5.35349856 27.8083733,4.42240738 26.7118717,4.32750029 L26.5271541,4.31953587 Z M24.7710951,8.13899848 L9.2289049,8.13899848 C9.19370224,8.13899848 9.16080598,8.1630934 9.14655801,8.19494181 L9.1391314,8.22876947 L9.1391314,23.7705262 C9.1391314,23.8062498 9.16322234,23.8392804 9.1950728,23.8535629 L9.2289049,23.8610015 L24.7710951,23.8610015 C24.806304,23.8610015 24.8391971,23.8369019 24.8534432,23.8047575 L24.8608686,23.7705262 L24.8608686,8.22876947 C24.8608686,8.19356779 24.836773,8.16067245 24.8049237,8.14642488 L24.7710951,8.13899848 Z M16.999708,10.8454758 C19.8465393,10.8454758 22.1546679,13.1532366 22.1546679,16 C22.1546679,18.8467634 19.8465393,21.1545242 16.999708,21.1545242 C14.1529516,21.1545242 11.8453321,18.8468383 11.8453321,16 C11.8453321,13.1531617 14.1529516,10.8454758 16.999708,10.8454758 Z M17.0394041,13.0633516 C15.4025448,13.0633516 14.0757231,14.3902496 14.0757231,16.027203 C14.0757231,17.6641564 15.4025448,18.9910544 17.0394041,18.9910544 C18.6763916,18.9910544 20.0035912,17.6640282 20.0035912,16.027203 C20.0035912,14.3903778 18.6763916,13.0633516 17.0394041,13.0633516 Z M28.679267,14.6285842 L27.3142144,14.6285842 L27.1802916,14.6237618 L27.1802916,14.6237618 L27.1802916,17.6284975 L27.3142144,17.6236751 L28.679267,17.6233627 L28.679267,14.6285842 Z M16.9996686,14.5821154 C16.2171007,14.5821154 15.5824663,15.2168448 15.5824663,15.9999409 C15.5824663,16.7824306 16.217157,17.4171036 16.9996686,17.4171036 C17.7827866,17.4171036 18.4175337,16.782487 18.4175337,15.9999409 C18.4175337,15.2167884 17.782843,14.5821154 16.9996686,14.5821154 Z" id="Shape" fill="#0066AE"></path>
    </g>
</svg>