<svg xmlns="http://www.w3.org/2000/svg" width="48" height="48" viewBox="0 0 48 48">
    <g fill="none" fill-rule="evenodd">
        <g>
            <g>
                <g fill="#0C5EA9">
                    <path d="M24.157 20H17.84C16.27 20 15 21.306 15 22.916v17.168C15 41.694 16.271 43 17.84 43h6.317C25.727 43 27 41.694 27 40.084V22.916C27 21.306 25.727 20 24.157 20M41.157 13h-6.315C33.272 13 32 14.261 32 15.815v24.37C32 41.738 33.271 43 34.842 43h6.315C42.725 43 44 41.739 44 40.184V15.815C44 14.261 42.725 13 41.157 13M9.158 29H2.843C1.271 29 0 30.202 0 31.68v8.64C0 41.8 1.271 43 2.843 43h6.315C10.726 43 12 41.8 12 40.32v-8.64C12 30.203 10.726 29 9.158 29M6.01 19c.37-.007.706-.214.877-.539.17-.326.147-.717-.06-1.02-.184-.27-.49-.435-.818-.441C5.452 17 5 17.448 5 18s.452 1 1.01 1M1.01 20c.37-.007.706-.214.877-.539.17-.326.147-.717-.06-1.02-.184-.27-.49-.435-.818-.441C.452 18 0 18.448 0 19s.452 1 1.01 1M33.334 9.505c.92 0 1.666-.663 1.666-1.48V1.48C35 .662 34.254 0 33.334 0h-6.616c-.92 0-1.666.662-1.666 1.479 0 .816.745 1.479 1.666 1.479h2.99C20.92 13.352 9.53 15.042 9.418 15.058c-.91.123-1.536.876-1.398 1.684.124.733.835 1.258 1.645 1.258.083 0 .167-.005.251-.017.52-.07 12.242-1.764 21.752-12.439v2.482c0 .816.746 1.479 1.667 1.479" transform="translate(-157 -606) translate(157 606) translate(2 3)"/>
                </g>
                <path d="M0 0H48V48H0z" transform="translate(-157 -606) translate(157 606)"/>
            </g>
        </g>
    </g>
</svg>
