<svg xmlns="http://www.w3.org/2000/svg" width="48" height="48" viewBox="0 0 48 48">
    <g fill="none" fill-rule="evenodd">
        <g>
            <g>
                <g fill="#0C5EA9" fill-rule="nonzero">
                    <path d="M4 8.674v14.157C4.074 30.873 9.589 37.886 17.5 40c7.911-2.114 13.426-9.127 13.5-17.169V8.674L17.5 5 4 8.674zm19.924 9.721c.213.208.333.49.333.784 0 .294-.12.576-.333.783l-6.75 6.62c-.211.21-.499.327-.799.327-.3 0-.588-.118-.799-.326l-3.375-3.31c-.44-.433-.44-1.135 0-1.567.441-.433 1.157-.433 1.598 0l2.576 2.537 5.951-5.848c.211-.209.499-.326.799-.326.3 0 .588.117.799.326z" transform="translate(-462 -43) translate(462 43) translate(7 2)"/>
                    <path d="M33.514 4.213L18 0 2.486 4.213C1.036 4.6.022 5.878 0 7.348v14.993C.108 32.779 7.573 41.761 18 44c10.427-2.239 17.892-11.221 18-21.659V7.348c-.022-1.47-1.036-2.748-2.486-3.135zm-.889 18.128c-.044 8.516-5.9 15.954-14.31 18.172-.206.059-.424.059-.63 0-8.41-2.218-14.266-9.656-14.31-18.172V8.228c-.02-.508.32-.963.821-1.1l13.5-3.663c.198-.059.41-.059.608 0l13.5 3.663c.5.137.84.592.821 1.1v14.113z" transform="translate(-462 -43) translate(462 43) translate(7 2)"/>
                </g>
                <path d="M0 0H48V48H0z" transform="translate(-462 -43) translate(462 43)"/>
            </g>
        </g>
    </g>
</svg>
