<svg xmlns="http://www.w3.org/2000/svg" width="96" height="96" viewBox="0 0 96 96">
    <g fill="none" fill-rule="evenodd" transform="translate(2 12)">
        <path stroke="#CECECE" stroke-dasharray="24.99249935150146,3.74875009059906,4.99875009059906,18.74374985694885" stroke-linecap="round" stroke-linejoin="round" stroke-width="2.5" d="M91.75 16.875c0 9.32-7.555 16.875-16.875 16.875S58 26.195 58 16.875 65.555 0 74.875 0 91.75 7.555 91.75 16.875z"/>
        <path stroke="#CECECE" stroke-dasharray="7.34624981880188,4.897499978542328,6.122499704360962,18.36624979972839" stroke-linecap="round" stroke-linejoin="round" stroke-width="1.75" d="M86.75 16.875c0 6.558-5.316 11.875-11.875 11.875S63 23.433 63 16.875 68.316 5 74.875 5 86.75 10.317 86.75 16.875z"/>
        <path fill="#D3F5FF" d="M16.25 56.125a8.125 8.125 0 1 1-16.25 0 8.125 8.125 0 0 1 16.25 0"/>
        <path fill="#BFE7FF" d="M38.107 68.425H13.013C9.156 68.425 6 65.449 6 61.812V31.613C6 27.976 9.156 25 13.013 25h54.724c3.857 0 7.013 2.976 7.013 6.613v30.199c0 3.637-3.156 6.613-7.013 6.613H42.63"/>
        <path fill="#23A4FF" d="M19 26v27.099C19 55.794 21.055 58 23.567 58H72v3.099C72 63.794 69.945 66 67.433 66H13.567C11.055 66 9 63.794 9 61.099V30.9C9 28.206 11.055 26 13.567 26H19z"/>
        <g transform="translate(4 6)">
            <path fill="#073C66" fill-rule="nonzero" d="M69.304.26a6.434 6.434 0 0 1 6.435 6.436v25.043a6.437 6.437 0 0 1-4.696 6.197v15.542H74c.96 0 1.74.779 1.74 1.74v3.13a8 8 0 0 1-8 8H8.26a8 8 0 0 1-8-8v-3.13c0-.961.78-1.74 1.74-1.74h2.956V17.652a4.869 4.869 0 0 1 4.653-4.865l.217-.004 15.478-.001V6.696A6.434 6.434 0 0 1 31.74.26h37.565zm2.957 56.697H3.739v1.39a4.522 4.522 0 0 0 4.522 4.523h59.478a4.522 4.522 0 0 0 4.522-4.522v-1.391zM25.304 16.26H9.826a1.39 1.39 0 0 0-1.385 1.257l-.006.134v35.826h59.13V38.174H57.503L46.597 49.08c-2.081 2.081-5.64.607-5.64-2.337v-8.57H34a8.696 8.696 0 0 1-8.696-8.695V16.261zm44-12.522H31.74a2.956 2.956 0 0 0-2.956 2.957v22.782A5.217 5.217 0 0 0 34 34.696h10.435v11.627l11.627-11.627h13.242a2.956 2.956 0 0 0 2.957-2.957V6.696a2.956 2.956 0 0 0-2.957-2.957z"/>
            <path fill="#23A4FF" fill-rule="nonzero" d="M56.062 34.696h13.242a2.956 2.956 0 0 0 2.957-2.957V6.696a2.956 2.956 0 0 0-2.957-2.957H31.74a2.956 2.956 0 0 0-2.956 2.957v22.782A5.217 5.217 0 0 0 34 34.696h10.435v11.627l11.627-11.627z"/>
            <rect width="30" height="3" x="35" y="19" fill="#073C66" rx="1.5"/>
            <rect width="21" height="3" x="35" y="27" fill="#073C66" rx="1.5"/>
            <rect width="30" height="3" x="35" y="11" fill="#073C66" rx="1.5"/>
        </g>
        <rect width="30" height="3" x="39" y="25" fill="#073C66" rx="1.5"/>
        <rect width="21" height="3" x="39" y="33" fill="#073C66" rx="1.5"/>
        <rect width="30" height="3" x="39" y="17" fill="#073C66" rx="1.5"/>
        <path fill="#BFE7FF" d="M4.592 66.923l.424 2.059c.017.082.08.147.162.166l2.155.52c.23.054.22.38-.012.422l-2.13.385a.217.217 0 0 0-.176.172l-.422 2.178c-.044.229-.371.235-.425.008l-.517-2.194a.216.216 0 0 0-.17-.164l-2.054-.387c-.228-.043-.239-.364-.013-.422l2.073-.53a.216.216 0 0 0 .157-.156l.524-2.067c.056-.223.377-.215.424.01"/>
    </g>
</svg>
