<?xml version="1.0" encoding="UTF-8"?>
<svg width="64px" height="64px" viewBox="0 0 64 64" version="1.1" xmlns="http://www.w3.org/2000/svg" xmlns:xlink="http://www.w3.org/1999/xlink">
    <title>brand/content-icon/64/product/tresuri-dan-kustodian-valas</title>
    <g id="brand/content-icon/64/product/tresuri-dan-kustodian-valas" stroke="none" stroke-width="1" fill="none" fill-rule="evenodd">
        <path d="M11.6441557,35.717516 C11.7883464,36.8879588 12.0416408,38.0442712 12.3979538,39.1717442 C12.750546,40.2822394 13.2012864,41.3569491 13.7430361,42.3812398 C14.2817424,43.3985197 14.9103806,44.3662118 15.6212953,45.2732129 C16.3267364,46.174485 17.1142203,47.0137009 17.9750802,47.7819785 C18.829562,48.5456781 19.7561902,49.234625 20.738067,49.8365012 C21.1382418,50.0809785 21.5467072,50.3105793 21.9625911,50.5247494 L22.1902278,49.2875362 C22.5493885,47.3240975 24.9874515,46.7139052 26.2327478,48.1607349 L26.4021799,48.3814942 L29.614161,53.079222 C30.2880125,54.0647729 30.1119176,55.3859044 29.2471083,56.1617069 L29.0166511,56.3437867 L24.3536004,59.5786813 C22.7178735,60.7134329 20.5601695,59.4012156 20.7048875,57.4850275 L20.7391582,57.2201586 L21.0870265,55.3016967 C20.1348187,54.8795063 19.2099619,54.3940964 18.3173874,53.848797 C17.0951607,53.0995937 15.9440684,52.243758 14.8821627,51.2946709 C13.8158768,50.3430611 12.8377794,49.3007098 11.9613386,48.1809675 C11.0798881,47.0563941 10.2991738,45.8546042 9.62925523,44.5895454 C8.95553889,43.3157451 8.39570362,41.9809182 7.95683808,40.5986966 C7.51308456,39.1945464 7.19779521,37.7552214 7.01797845,36.2955902 C6.85947837,35.0089933 7.76659371,33.8365942 9.04407728,33.6769634 C10.3215609,33.5173326 11.4856556,34.4309191 11.6441557,35.717516 Z M42.2654398,26.6555755 C50.2584826,26.6555755 56.7375807,33.1808939 56.7375807,41.2309573 C56.7375807,49.2810206 50.2584826,55.806339 42.2654398,55.806339 C34.2723969,55.806339 27.7932989,49.2810206 27.7932989,41.2309573 C27.7932989,33.1808939 34.2723969,26.6555755 42.2654398,26.6555755 Z M42.2654398,31.3504793 C36.8469544,31.3504793 32.4549475,35.7738177 32.4549475,41.2309573 C32.4549475,46.6880968 36.8469544,51.1114352 42.2654398,51.1114352 C47.6839251,51.1114352 52.075932,46.6880968 52.075932,41.2309573 C52.075932,35.7738177 47.6839251,31.3504793 42.2654398,31.3504793 Z M21.4850016,5.50521048 C29.4848702,5.50521048 35.9697605,12.0374033 35.9697605,20.0947122 C35.9697605,28.1518356 29.4850545,34.682802 21.4850016,34.682802 C13.4849488,34.682802 7.00024273,28.1518356 7.00024273,20.0947122 C7.00024273,12.0374033 13.485133,5.50521048 21.4850016,5.50521048 Z M39.66248,4.42085988 C41.2984704,3.28676189 43.4556049,4.59944632 43.3104976,6.51546936 L43.2761749,6.7803118 L42.9250902,8.7012028 C43.8717139,9.12153344 44.7913026,9.60470935 45.6800851,10.1476908 C46.9001058,10.8945929 48.050168,11.7496626 49.1178347,12.7025047 C50.1790798,13.6496159 51.1562526,14.6922042 52.0372567,15.8162081 C52.9187072,16.9407816 53.6994215,18.1425715 54.3693401,19.4076302 C55.045693,20.6864155 55.6060512,22.02024 56.0429283,23.3977487 C56.4850616,24.795193 56.7999015,26.2342451 56.9817557,27.699457 C57.141423,28.9859075 56.2353716,30.1591409 54.9580334,30.3199472 C53.6806952,30.4807535 52.5157721,29.5682386 52.3561048,28.2817882 C52.209852,27.1034189 51.9567473,25.9465429 51.6018112,24.8246992 C51.251181,23.7191358 50.8002619,22.6458097 50.2555592,21.6159358 C49.716853,20.598656 49.0882148,19.6309639 48.3782783,18.7252118 C47.6678515,17.818834 46.8804481,16.978719 46.0261819,16.2163267 C45.1663968,15.449009 44.2405966,14.7606778 43.2605283,14.1606745 C42.8650201,13.9190481 42.4620377,13.6921965 42.0521219,13.4805346 L41.8237034,14.7115222 C41.4641848,16.6746704 39.0264072,17.2845247 37.7812507,15.8378302 L37.6118374,15.6170935 L34.3998563,10.9193657 C33.7258408,9.9335748 33.9022036,8.61209499 34.7674558,7.83638868 L34.9980273,7.65434249 L39.66248,4.42085988 Z M21.4850016,10.2001143 C16.0598568,10.2001143 11.6618914,14.6301596 11.6618914,20.0947122 C11.6618914,25.5589118 16.0595063,29.9878982 21.4850016,29.9878982 C26.910497,29.9878982 31.3081119,25.5589118 31.3081119,20.0947122 C31.3081119,14.6301596 26.9101464,10.2001143 21.4850016,10.2001143 Z" id="Shape" fill="#0066AE"></path>
    </g>
</svg>