<?xml version="1.0" encoding="UTF-8"?>
<svg width="64px" height="64px" viewBox="0 0 64 64" version="1.1" xmlns="http://www.w3.org/2000/svg" xmlns:xlink="http://www.w3.org/1999/xlink">
    <title>brand/content-icon/64/product/hubungan-laporan-lainya</title>
    <g id="brand/content-icon/64/product/hubungan-laporan-lainya" stroke="none" stroke-width="1" fill="none" fill-rule="evenodd">
        <path d="M47.505618,4 C51.4968283,4 54.7593326,7.10129361 54.9872778,11.0118241 L55,11.4495413 L55,52.5504587 C55,56.5177886 51.8800389,59.7607726 47.9459698,59.9873539 L47.505618,60 L16.494382,60 C12.5031717,60 9.24066739,56.8987064 9.0127222,52.9881759 L9,52.5504587 L9,11.4495413 C9,7.48221138 12.1199611,4.23922742 16.0540302,4.01264608 L16.494382,4 L47.505618,4 Z M47.505618,8.62385321 L16.494382,8.62385321 C15.0290692,8.62385321 13.8227024,9.72589905 13.668366,11.1416514 L13.6516854,11.4495413 L13.6516854,52.5504587 C13.6516854,54.0070042 14.7603647,55.2061531 16.1846389,55.359566 L16.494382,55.3761468 L47.505618,55.3761468 C48.9709308,55.3761468 50.1772976,54.2741009 50.331634,52.8583486 L50.3483146,52.5504587 L50.3483146,11.4495413 C50.3483146,9.99299582 49.2396353,8.79384694 47.8153611,8.64043396 L47.505618,8.62385321 Z M44.9213483,46.3853211 C46.2058758,46.3853211 47.247191,47.4204059 47.247191,48.6972477 C47.247191,49.8758709 46.3599165,50.8485 45.2130971,50.9911611 L44.9213483,51.0091743 L19.0786517,51.0091743 C17.7941242,51.0091743 16.752809,49.9740895 16.752809,48.6972477 C16.752809,47.5186245 17.6400835,46.5459954 18.7869029,46.4033343 L19.0786517,46.3853211 L44.9213483,46.3853211 Z M44.9213483,38.6788991 C46.2058758,38.6788991 47.247191,39.7139839 47.247191,40.9908257 C47.247191,42.1694489 46.3599165,43.142078 45.2130971,43.2847391 L44.9213483,43.3027523 L19.0786517,43.3027523 C17.7941242,43.3027523 16.752809,42.2676675 16.752809,40.9908257 C16.752809,39.8122025 17.6400835,38.8395734 18.7869029,38.6969123 L19.0786517,38.6788991 L44.9213483,38.6788991 Z M45.0655534,17.6821033 C45.8162026,18.5838651 45.7624306,19.8835895 44.9859644,20.7209279 L44.7563443,20.9371824 L34.3829726,29.4692155 C33.2528501,30.3987342 31.5767423,30.0607303 30.877959,28.831031 L30.7516847,28.5733132 L30.0747191,26.9522936 L25.2443901,32.2405816 C24.4317537,33.1297864 23.0856426,33.2420536 22.1402186,32.5454583 L21.9127509,32.3544397 L17.4685688,28.1167741 C16.5415893,27.2328704 16.5109825,25.7693556 17.4002068,24.8479224 C18.2153289,24.0032753 19.520417,23.9073238 20.4462814,24.5780284 L20.6887346,24.7799694 L23.4073034,27.373578 L29.0988962,21.1462764 C30.1739509,19.9699276 32.0607634,20.2110584 32.8305226,21.5361349 L32.9690089,21.815504 L33.84,23.9108257 L41.7908812,17.3747442 C42.7805427,16.5607538 44.2466634,16.6983632 45.0655534,17.6821033 Z" id="Shape" fill="#0066AE"></path>
    </g>
</svg>