<?xml version="1.0" encoding="UTF-8"?>
<svg width="64px" height="64px" viewBox="0 0 64 64" version="1.1" xmlns="http://www.w3.org/2000/svg" xmlns:xlink="http://www.w3.org/1999/xlink">
    <title>brand/content-icon/64/product/tresuri-dan-kustodian-derivatives</title>
    <g id="brand/content-icon/64/product/tresuri-dan-kustodian-derivatives" stroke="none" stroke-width="1" fill="none" fill-rule="evenodd">
        <path d="M14.5866852,38.0552458 C15.8887179,38.0552458 16.9631874,39.033045 17.1207861,40.2968693 L17.1406854,40.6183839 L17.1406854,56.4368619 C17.1406854,57.7435531 16.1663722,58.821867 14.9070536,58.9800295 L14.5866852,59 L7.12687654,59 C5.82484394,59 4.75037438,58.0222008 4.5927757,56.7583765 L4.57287642,56.4368619 L4.57287642,40.6183839 C4.57287642,39.3116928 5.54718962,38.2333789 6.80650819,38.0752163 L7.12687654,38.0552458 L14.5866852,38.0552458 Z M28.6833471,23.927727 C29.9853797,23.927727 31.0598492,24.9055262 31.2174479,26.1693505 L31.2373472,26.4908651 L31.2373472,56.4368619 C31.2373472,57.7435531 30.263034,58.821867 29.0037154,58.9800295 L28.6833471,59 L21.2235384,59 C19.9215058,59 18.8470362,58.0222008 18.6894375,56.7583765 L18.6695382,56.4368619 L18.6695382,26.4908651 C18.6695382,25.184174 19.6438514,24.1058601 20.90317,23.9476975 L21.2235384,23.927727 L28.6833471,23.927727 Z M42.7782353,36.5405024 C44.0802679,36.5405024 45.1547374,37.5183016 45.3123361,38.7821259 L45.3322354,39.1036405 L45.3322354,56.4368619 C45.3322354,57.7435531 44.3579222,58.821867 43.0986036,58.9800295 L42.7782353,59 L35.3184266,59 C34.0163939,59 32.9419244,58.0222008 32.7843257,56.7583765 L32.7644264,56.4368619 L32.7644264,39.1036405 C32.7644264,37.7969494 33.7387396,36.7186355 34.9980582,36.5604729 L35.3184266,36.5405024 L42.7782353,36.5405024 Z M56.8731235,29.9813608 C58.1751561,29.9813608 59.2496256,30.95916 59.4072243,32.2229843 L59.4271236,32.5444989 L59.4271236,56.4368619 C59.4271236,57.7435531 58.4528104,58.821867 57.1934918,58.9800295 L56.8731235,59 L49.4133148,59 C48.1112821,59 47.0368126,58.0222008 46.8792139,56.7583765 L46.8593146,56.4368619 L46.8593146,32.5444989 C46.8593146,31.2378078 47.8336278,30.1594939 49.0929464,30.0013313 L49.4133148,29.9813608 L56.8731235,29.9813608 Z M26.1272186,29.0540032 L23.7747007,29.0540032 L23.7747007,53.8737238 L26.1272186,53.8737238 L26.1272186,29.0540032 Z M12.0319757,43.1797421 L9.67945778,43.1797421 L9.67945778,53.8708759 L12.0319757,53.8708759 L12.0319757,43.1797421 Z M40.2224615,41.6646427 L37.8699436,41.6646427 L37.8699436,53.8708759 L40.2224615,53.8708759 L40.2224615,41.6646427 Z M54.3177044,35.1058571 L51.9651865,35.1058571 L51.9651865,53.8708759 L54.3177044,53.8708759 L54.3177044,35.1058571 Z M24.9534427,6 C28.7392933,6 31.8102236,9.08104055 31.8102236,12.8813138 C31.8102236,13.7805334 31.6382856,14.6394839 31.3256222,15.426876 L36.214384,19.4610226 C37.0781318,19.0671138 38.0376806,18.8477297 39.0483309,18.8477297 C40.6558613,18.8477297 42.1344928,19.4032359 43.3038555,20.3334343 L46.2971253,18.8074599 C46.4973539,15.1881445 49.4860528,12.3135075 53.1432191,12.3135075 C56.9299438,12.3135075 60,15.3954254 60,19.1948213 C60,22.9955458 56.9303934,26.0761351 53.1432191,26.0761351 C51.0756266,26.0761351 49.2219102,25.157944 47.9648007,23.7056619 L45.8412284,24.7859884 C45.8833488,25.0943037 45.9051118,25.4091251 45.9051118,25.7290435 C45.9051118,29.5293168 42.8341815,32.6103573 39.0483309,32.6103573 C35.2611566,32.6103573 32.19155,29.529768 32.19155,25.7290435 C32.19155,24.8275759 32.3642333,23.9666201 32.6782166,23.1776715 L27.7953216,19.1453793 C26.9294212,19.5417687 25.9670558,19.7626276 24.9534427,19.7626276 C23.7308913,19.7626276 22.582934,19.4416045 21.5888106,18.8789644 L16.4620346,23.279293 C17.2514857,24.4002715 17.7153354,25.7685423 17.7153354,27.2455669 C17.7153354,31.0462788 14.6439682,34.1268807 10.8567809,34.1268807 C7.07093034,34.1268807 4,31.0458402 4,27.2455669 C4,23.4452936 7.07093034,20.3642531 10.8567809,20.3642531 C11.2122319,20.3642531 11.5613773,20.3913901 11.9022696,20.4437124 L18.3882077,14.8783907 C18.1974528,14.2463487 18.0948882,13.5758549 18.0948882,12.8813138 C18.0948882,9.08060194 21.1662554,6 24.9534427,6 Z M10.8567809,25.4905293 C9.89167549,25.4905293 9.10800025,26.2767846 9.10800025,27.2455669 C9.10800025,28.2143492 9.89167549,29.0006045 10.8567809,29.0006045 C11.8235483,29.0006045 12.6073351,28.2144611 12.6073351,27.2455669 C12.6073351,26.2766727 11.8235483,25.4905293 10.8567809,25.4905293 Z M39.0483309,23.9740059 C38.0822272,23.9740059 37.2995503,24.7594832 37.2995503,25.7290435 C37.2995503,26.6986038 38.0822272,27.4840811 39.0483309,27.4840811 C40.0134363,27.4840811 40.7971115,26.6978259 40.7971115,25.7290435 C40.7971115,24.7602612 40.0134363,23.9740059 39.0483309,23.9740059 Z M53.1432191,17.4397837 C52.1778906,17.4397837 51.3944385,18.2262629 51.3944385,19.1948213 C51.3944385,20.1643816 52.1771154,20.9498589 53.1432191,20.9498589 C54.1093228,20.9498589 54.8919997,20.1643816 54.8919997,19.1948213 C54.8919997,18.2262629 54.1085476,17.4397837 53.1432191,17.4397837 Z M24.9534427,11.1262762 C23.9866753,11.1262762 23.2028885,11.9124196 23.2028885,12.8813138 C23.2028885,13.850208 23.9866753,14.6363514 24.9534427,14.6363514 C25.9185481,14.6363514 26.7022233,13.8500961 26.7022233,12.8813138 C26.7022233,11.9125315 25.9185481,11.1262762 24.9534427,11.1262762 Z" id="Shape" fill="#0066AE"></path>
    </g>
</svg>