<?xml version="1.0" encoding="UTF-8"?>
<svg width="64px" height="64px" viewBox="0 0 64 64" version="1.1" xmlns="http://www.w3.org/2000/svg" xmlns:xlink="http://www.w3.org/1999/xlink">
    <title>brand/content-icon/64/product/tresuri-dan-kustodian-fix-icome</title>
    <g id="brand/content-icon/64/product/tresuri-dan-kustodian-fix-icome" stroke="none" stroke-width="1" fill="none" fill-rule="evenodd">
        <path d="M32.3864453,4 C35.0121659,4 37.4779754,5.05039658 39.2957068,6.88061213 C40.4119711,8.00327555 41.2351965,9.37063889 41.7033189,10.867988 L41.7926629,11.1909478 L42.3227483,10.9658341 C43.3281012,10.5710779 44.391077,10.3327359 45.4805348,10.264254 L46.1371382,10.2436557 C48.9640161,10.2436557 51.6190745,11.3753299 53.5754751,13.3457833 C55.0364898,14.8160576 56.0320047,16.6762716 56.4399522,18.7053885 L56.5252188,19.2116203 L56.7636049,19.3799375 C57.2205139,19.725287 57.6401052,20.1179983 58.0145856,20.5515248 L58.3737405,20.9984139 C59.4220699,22.3997692 60,24.1070551 60,25.8927002 C60,27.2558426 59.6617514,28.5761639 59.0289437,29.7537439 L58.7398335,30.2493904 L58.5339663,30.5459733 L58.8048034,31.0898483 C59.340298,32.2582936 59.6586678,33.5144277 59.7387021,34.8041573 L59.7587598,35.4515712 C59.7587598,38.2499586 58.6505194,40.8828312 56.7176537,42.8277642 C54.9166193,44.6400148 52.5230888,45.7349044 49.9499612,45.882071 L49.3531623,45.8991042 L49.1589409,45.8932719 L48.9578511,46.079294 C48.4347664,46.5607185 48.1304789,46.8194508 47.7744579,47.0386282 C46.5080931,47.8139798 45.0526827,48.2320335 43.5449582,48.2320335 C42.0859,48.2320335 40.6858042,47.8425741 39.4660596,47.1310306 L39.2066292,46.9682611 L40.4572833,53.8627549 C46.7205156,54.2644278 52.3129065,55.1162524 56.4660836,56.3162526 C57.4638879,56.6045537 58.038789,57.6462321 57.7501611,58.6429066 C57.4615331,59.639581 56.4186737,60.2138311 55.4208694,59.92553 C50.1428607,58.400526 42.175577,57.4529352 33.4661597,57.3661465 L31.2784253,57.3630128 C31.1248961,57.3641353 30.9668006,57.3655321 30.8029365,57.3671966 C30.7476377,57.3677583 30.692872,57.3659304 30.6387378,57.361809 L30.8032322,57.3595194 C22.0989036,57.4493049 14.1450138,58.4003823 8.8880001,59.9193848 C7.89019903,60.2076972 6.84733309,59.633459 6.55869382,58.6367878 C6.27005456,57.6401166 6.84494379,56.5984316 7.84274486,56.3101192 C11.6169039,55.2195843 16.5888345,54.4149495 22.1780864,53.9756605 L23.4161504,46.6499391 L23.1642551,46.6938538 C22.9641745,46.7198795 22.7626596,46.7395205 22.559963,46.7526551 L21.9485801,46.7724179 C19.4174846,46.7724179 17.0378124,45.7590407 15.2901656,43.9965632 C14.216356,42.9171028 13.4222424,41.6013762 12.9698905,40.1588661 L12.7846783,39.4798649 L12.5966041,39.4059834 C11.6273705,38.984598 10.7353062,38.4019591 9.95852083,37.6832597 L9.50658792,37.2359144 C7.85941611,35.4939487 6.92254081,33.1857853 6.92254081,30.738133 C6.92254081,30.5223814 6.93010625,30.3063875 6.94513028,30.0905396 L7.00659075,29.4892484 L6.97583956,29.4561641 C6.48036917,28.9065905 6.0375704,28.310131 5.65423733,27.6743758 L5.2909778,27.0258031 C4.44776915,25.3925803 4,23.5814872 4,21.7149148 C4,18.6237455 5.22372857,15.7171279 7.35912543,13.5682906 C9.49929159,11.4146687 12.4001155,10.1791931 15.4888736,10.1791931 C16.4052333,10.1791931 17.3138147,10.2901984 18.201034,10.506772 L18.6123968,10.6195336 L18.7045376,10.5206868 C18.8343039,10.3890197 18.9686464,10.2615869 19.1073737,10.1386014 L19.5365187,9.78319998 C20.6342977,8.93838456 21.9232623,8.38734065 23.2935538,8.18415152 L23.6068377,8.14862371 L23.7970248,7.95091808 C23.9158766,7.82779024 24.0139082,7.73118544 24.1152454,7.63941585 L24.2727462,7.50267689 C24.6994232,7.14662021 25.1130971,6.88876883 25.5782587,6.79242609 L25.7122349,6.77357673 L26.0095718,6.48495735 L26.1954142,6.2779829 L26.5677916,5.93134861 C28.2379515,4.68482164 30.2632961,4 32.3864453,4 Z M21.0155796,25.2701764 L24.5610017,29.7272536 C24.6718073,29.8664956 24.7619701,30.0203899 24.8291281,30.1841669 L24.912316,30.4366484 L27.3585226,40.1213749 L27.4298862,40.4859003 L27.6207859,41.1898505 C27.9335431,41.4379137 28.1873844,41.7694775 28.3427372,42.1705803 L28.4310014,42.4470337 L28.5877307,43.0624973 C28.6415389,43.2737979 28.6654939,43.4910299 28.6593387,43.7079235 L28.627491,44.0322267 L26.9940775,53.6947752 C28.2325172,53.6466226 29.4910877,53.6156098 30.7643902,53.6024757 C30.8238107,53.6018627 30.8826159,53.6040091 30.9406839,53.6087952 L32.1544245,53.6023755 C33.3286286,53.6023755 34.4922579,53.6175568 35.6411672,53.6473694 L34.0205381,44.7135483 C33.9105679,44.1068019 34.0444461,43.4855913 34.3854404,42.9811753 L34.5730272,42.7393079 L36.4107552,40.6642286 C36.766021,40.2630786 37.212735,40.019574 37.6802092,39.9214323 L42.0982851,34.8537581 L42.9472356,31.6209626 L40.6568202,35.0210039 L40.3196329,35.3992502 L33.758688,41.0103363 C32.8038104,41.8269718 31.3592274,41.4882375 30.839564,40.3969054 L30.7428801,40.1516759 L28.4534028,32.9470431 C28.3789601,32.7127834 28.3514995,32.4669916 28.3716802,32.2236112 L28.4077657,31.981551 L29.818543,25.4580386 L27.6497497,27.6617379 C27.1014041,28.2182279 26.2749578,28.3712939 25.5734062,28.0729073 L25.3169659,27.9397567 L21.0155796,25.2701764 Z M32.3864453,8.69655514 C31.444113,8.69655514 30.5452737,8.95495792 29.7631544,9.4352053 L29.5312059,9.59150981 L29.4152436,9.72144535 C28.7361882,10.4344986 28.0544264,10.9322816 27.3716759,11.2076757 L27.0888407,11.3057524 L26.6163365,11.8008161 C26.5468511,11.8689672 26.4822337,11.928772 26.4055885,11.9966074 C25.9200575,12.4263305 25.4848605,12.7044865 24.8315299,12.7751897 L24.4854438,12.7929949 C23.7249252,12.7929949 23.0037592,13.0437139 22.4102326,13.5004657 C22.1277083,13.7188794 21.8811033,13.9778324 21.6782551,14.2685802 L21.4902828,14.5696024 C20.8859958,15.6570453 19.5376735,16.0852633 18.4156142,15.546096 C18.1084475,15.3984975 17.794492,15.2749409 17.4775436,15.1771854 C16.8290032,14.9779501 16.1612156,14.8757483 15.4888736,14.8757483 C13.6678315,14.8757483 11.9634681,15.6016453 10.6961416,16.8769397 C9.42653861,18.1545338 8.70187954,19.8757543 8.70187954,21.7149148 C8.70187954,22.8259323 8.96740057,23.8998859 9.46781459,24.8691545 C9.87430528,25.6527817 10.4304866,26.3534748 11.1020049,26.930719 C11.8041356,27.5342781 12.0859845,28.4934178 11.8218242,29.3802844 C11.7861976,29.4998936 11.7544562,29.6262044 11.7274297,29.7559918 C11.6589798,30.0852308 11.6244204,30.414861 11.6244204,30.738133 C11.6244204,31.975013 12.0943598,33.1327946 12.9258497,34.0121371 C13.4901342,34.6096726 14.1986861,35.0493695 14.9811772,35.2863013 L15.3782588,35.3876621 C16.3296649,35.5862839 17.0501705,36.3451158 17.2133885,37.2828106 L17.2453088,37.5691036 C17.304632,38.7552272 17.8000475,39.8564262 18.6281366,40.6888773 C19.5046301,41.5728067 20.685936,42.0758627 21.9485801,42.0758627 C22.6170141,42.0758627 23.2625626,41.9354435 23.854167,41.6701135 L23.7786785,41.3892744 L23.6998778,41.0481311 L23.6669173,40.870567 L23.6496289,40.8513789 C23.632579,40.8297501 23.6212607,40.8079367 23.6195811,40.7726706 L23.6225106,40.7035784 L21.3629963,31.7462041 L15.3889971,24.2447619 L15.3203553,24.1713577 C14.4207753,23.1187939 14.365651,21.5772197 15.1862843,20.4601307 L15.4097057,20.1902305 C16.4560757,19.068475 18.1648876,18.929076 19.3739312,19.8148264 L19.44045,19.8717472 L26.0230814,23.9525318 L28.7841295,21.1528631 C29.6167448,20.0074445 31.1281392,19.5996271 32.4112276,20.1621864 L32.7028557,20.3093451 C33.9463168,21.0216465 34.4821964,22.4889799 34.0690712,23.8002384 L33.9666456,24.0699456 L32.1877679,32.2889171 L33.467724,36.3096902 L37.6785183,32.7089979 L42.163589,26.0503264 L42.1869829,26.0041057 C42.8315467,24.7603792 44.2630469,24.1280048 45.6146814,24.4895298 L45.9247848,24.5907759 C47.3677541,25.1457285 48.1331037,26.6952307 47.7959337,27.986553 L47.7066529,28.2588567 L45.626148,36.2337915 C45.577264,36.4211724 45.4998248,36.5993037 45.3970329,36.7621268 L45.224231,36.9941231 L40.7686862,42.1025346 C40.8763942,42.2519614 40.9957823,42.3928835 41.1258073,42.5238497 C41.7666309,43.1695872 42.6250786,43.5354784 43.5449582,43.5354784 C44.1769797,43.5354784 44.7834633,43.3612714 45.3123379,43.037468 L46.4807386,41.9751242 L46.6762064,41.8080095 L46.9384667,41.6079779 L47.2211023,41.4347786 C47.3256398,41.3706033 47.3953314,41.3278198 47.485002,41.2964474 L47.6569516,41.2515099 L48.1014871,41.0953185 C48.471292,40.9633949 48.8667488,40.926614 49.2517859,40.9861424 L49.5380465,41.0488648 L49.7669982,41.1222442 L49.8955687,41.1732339 L50.3555021,41.1138117 C51.3373163,40.937937 52.2488631,40.5054508 53.0119302,39.8595553 L53.3807284,39.5190235 C54.4476397,38.4454513 55.0568802,36.9980644 55.0568802,35.4515712 C55.0568802,34.6161477 54.8755692,33.7996514 54.5289639,33.0433601 C54.3272281,32.6024272 54.070867,32.1903091 53.7662834,31.8162809 C53.0268174,30.9082177 53.0774921,29.6116795 53.8412205,28.7647376 L54.0671312,28.5455302 C54.3376738,28.3157374 54.5726144,28.0450841 54.7628882,27.7439295 C55.1113148,27.1917814 55.2981205,26.5567067 55.2981205,25.8927002 C55.2981205,25.1290891 55.053359,24.4060298 54.6060998,23.8081543 C54.3356224,23.445979 53.9938412,23.1396149 53.6028744,22.9080266 L53.3007726,22.7486521 C52.5793089,22.4124349 52.0835603,21.7382065 51.9690796,20.9643463 L51.9443251,20.669944 C51.9121849,19.1428725 51.2954608,17.7181333 50.2376865,16.6536548 C49.1534799,15.5616605 47.6954762,14.9402108 46.1371382,14.9402108 C45.170872,14.9402108 44.2348714,15.182531 43.3897647,15.6410399 C42.7295746,15.9990541 42.1429197,16.4833024 41.6642882,17.0638397 C41.1374313,17.70287 40.3187662,18.01178 39.513042,17.8951883 L39.0054104,17.7805067 C37.7336491,17.4942371 36.9379334,16.228971 37.2318124,14.9603114 L37.397951,14.1866968 C37.4325998,13.9993422 37.4478804,13.8764468 37.4478804,13.7998381 C37.4478804,12.4276558 36.9070319,11.1430393 35.9586754,10.1892457 C35.0130086,9.2370843 33.7441145,8.69655514 32.3864453,8.69655514 Z" id="Combined-Shape" fill="#0066AE"></path>
    </g>
</svg>