<?xml version="1.0" encoding="UTF-8"?>
<svg width="24px" height="24px" viewBox="0 0 24 24" version="1.1" xmlns="http://www.w3.org/2000/svg" xmlns:xlink="http://www.w3.org/1999/xlink">
    <title>brand/icon/24/basic/input</title>
    <defs>
        <path d="M3.20540007,19.5891999 L20.523864,19.5891999 C21.1895881,19.5891999 21.729264,20.1288758 21.729264,20.7945999 C21.729264,21.4091145 21.2694218,21.9162271 20.6750668,21.9906082 L20.523864,22 L3.20540007,22 C2.539676,22 2,21.460324 2,20.7945999 C2,20.1800854 2.45984227,19.6729728 3.05419725,19.5985916 L3.20540007,19.5891999 L20.523864,19.5891999 L3.20540007,19.5891999 Z M19.4760927,3.24286888 L19.6316496,3.39842579 C21.2782586,5.04503475 21.2936005,7.72075327 19.6639974,9.38314009 L18.9042377,10.162294 C18.8608599,10.2272726 18.8104944,10.2889675 18.7531411,10.3463208 C18.701082,10.3983799 18.6454458,10.4446818 18.5870237,10.4852264 L11.874666,17.3291742 C11.3521089,17.8622439 10.4695259,18.2331248 9.71675933,18.2331248 L5.84679382,18.2331248 C5.18106974,18.2331248 4.64139375,17.6934488 4.64139375,17.0277247 L4.64139375,13.1568607 C4.64139375,12.4106707 5.01361111,11.5200243 5.54538871,10.9987876 L12.3892921,4.28749485 C12.4298367,4.22907272 12.4761386,4.17343651 12.5281977,4.12137739 C12.5851098,4.06446529 12.646297,4.01443386 12.7107256,3.97128307 L13.4914228,3.21025982 C15.1518417,1.58275377 17.8329484,1.59972456 19.4760927,3.24286888 Z M13.388078,6.68539206 L7.23293295,12.7204588 C7.1648969,12.7871462 7.05219389,13.0568234 7.05219389,13.1568607 L7.05219389,15.8223246 L9.71675933,15.8223246 C9.82169831,15.8223246 10.0838551,15.7121605 10.1530818,15.6415412 L16.1876197,9.48493373 L13.388078,6.68539206 Z M15.1789671,4.93193104 L15.1102934,4.9993387 L17.8736731,7.76271837 L17.9424132,7.69550705 C18.6459502,6.97781662 18.6392854,5.81544785 17.9269565,5.10311892 L17.7713996,4.94756201 C17.0620684,4.23823084 15.8942375,4.23083874 15.1789671,4.93193104 Z" id="path-1"></path>
    </defs>
    <g id="brand/icon/24/basic/input" stroke="none" stroke-width="1" fill="none" fill-rule="evenodd">
        <mask id="mask-2" fill="white">
            <use xlink:href="#path-1"></use>
        </mask>
        <use id="Mask" fill="#FFFFFF" xlink:href="#path-1"></use>
    </g>
</svg>