<?xml version="1.0" encoding="UTF-8"?>
<svg width="24px" height="24px" viewBox="0 0 24 24" version="1.1" xmlns="http://www.w3.org/2000/svg" xmlns:xlink="http://www.w3.org/1999/xlink">
    <title>brand/icon/24/basic/gift</title>
    <defs>
        <path d="M7.23450868,2.21016415 C8.85435086,1.62920336 10.442257,2.24790271 11.37617,4.12616375 C11.7504371,4.87887979 12.0432224,5.66302685 12.254332,6.47749905 C12.461438,5.66274434 12.7538841,4.87874288 13.1280832,4.12616375 C14.0619962,2.24790271 15.6499023,1.62920336 17.2697445,2.21016415 C18.943786,2.81056368 19.7446875,4.96114122 18.564284,6.70740119 C18.4380308,6.85546912 18.2999101,6.99631167 18.1499503,7.13008729 L20.3050187,7.13050246 C21.0837615,7.13050246 21.7150572,7.76179823 21.7150572,8.54054102 L21.7150572,12.898842 C21.7150572,13.6256686 21.1651285,14.2240525 20.4586579,14.3006067 L20.4183779,14.3022382 C20.4281723,14.3885545 20.433204,14.4763153 20.433204,14.5652512 L20.433204,19.6926642 C20.433204,20.9669706 19.4001746,22 18.1258682,22 L6.58918906,22 C5.31488267,22 4.28185324,20.9669706 4.28185324,19.6926642 L4.28185324,14.5652512 C4.28185324,14.4763153 4.286885,14.3885545 4.29667936,14.3022382 L4.41003856,14.3088806 C3.63129577,14.3088806 3,13.6775848 3,12.898842 L3,8.54054102 C3,7.76179823 3.63129577,7.13050246 4.41003856,7.13050246 L6.35446063,7.13020287 C6.20443273,6.99639357 6.0662595,6.85551261 5.93996917,6.70740119 C4.75956565,4.96114122 5.56046716,2.81056368 7.23450868,2.21016415 Z M18.1258682,14.3088806 L6.58918906,14.3088806 C6.44759946,14.3088806 6.33281841,14.4236616 6.33281841,14.5652512 L6.33281841,19.6926642 C6.33281841,19.8342538 6.44759946,19.9490348 6.58918906,19.9490348 L18.1258682,19.9490348 C18.2674578,19.9490348 18.3822388,19.8342538 18.3822388,19.6926642 L18.3822388,14.5652512 C18.3822388,14.4236616 18.2674578,14.3088806 18.1258682,14.3088806 Z M8.12741294,9.18146764 L5.05096518,9.18146764 L5.05096518,12.2579154 L8.12741294,12.2579154 L8.12741294,9.18146764 Z M14.5366791,9.18094183 L10.1783781,9.18094183 L10.1783781,12.2573896 L14.5366791,12.2573896 L14.5366791,9.18094183 Z M19.6640921,9.18146764 L16.5876443,9.18146764 L16.5876443,12.2579154 L19.6640921,12.2579154 L19.6640921,9.18146764 Z M14.9645582,5.03929986 C14.7669065,5.43681171 14.5967529,5.84475853 14.4540466,6.26342742 L14.3204877,6.68568097 L14.6398522,6.60791771 C15.7775074,6.31317886 16.5477846,5.91453663 16.9325309,5.47047482 C17.2745922,4.96092606 17.0295343,4.30289768 16.5773458,4.14071903 C15.927518,3.90765654 15.4310546,4.10109466 14.9645582,5.03929986 Z M9.53969498,5.03929986 C9.07319855,4.10109466 8.57673518,3.90765654 7.92690743,4.14071903 C7.47471889,4.30289768 7.22966103,4.96092606 7.57172226,5.47047482 C7.92140929,5.87407169 8.58993385,6.24018415 9.5636391,6.52485687 L9.86489243,6.60777155 L10.1843747,6.6855361 L10.0505371,6.26332205 C9.90759419,5.84469117 9.73733008,5.43677831 9.53969498,5.03929986 Z" id="path-1"></path>
    </defs>
    <g id="brand/icon/24/basic/gift" stroke="none" stroke-width="1" fill="none" fill-rule="evenodd">
        <mask id="mask-2" fill="white">
            <use xlink:href="#path-1"></use>
        </mask>
        <use id="gift" fill="#0066AE" xlink:href="#path-1"></use>
    </g>
</svg>