<?xml version="1.0" encoding="UTF-8"?>
<svg width="24px" height="24px" viewBox="0 0 24 24" version="1.1" xmlns="http://www.w3.org/2000/svg" xmlns:xlink="http://www.w3.org/1999/xlink">
    <title>Group 16@2x</title>
    <g id="MyBCA-Assets" stroke="none" stroke-width="1" fill="none" fill-rule="evenodd">
        <g id="Group-16" transform="translate(1.000000, 1.000000)">
            <g id="Group-10" transform="translate(2.298144, 2.976729)" fill="#095DAA">
                <path d="M7.90000103,16.0504379 C7.90000103,15.0929666 7.90961108,12.532266 7.88654697,12.2196223 C7.90768907,8.41113848 5.04869994,5.72482211 3.24105001,5.93232074 C1.99174384,6.04025725 0.943287658,6.52969349 0.383021889,7.95240832 C-0.139764694,9.27370005 0.329205624,11.0341817 2.05901417,11.4501095 C3.91471434,11.8958128 4.99584468,12.2614943 5.78098556,12.7816366 C6.7391073,13.4180898 7.52136516,14.6379584 7.54250727,16.0532293 L7.90000103,16.0504379 Z" id="Fill-1"></path>
                <path d="M7.12480622,16.0536946 C7.13148554,14.8245211 6.42610805,13.7386426 5.50066048,13.1570881 C4.68092343,12.6397373 3.57768998,12.3029009 1.8007922,11.865572 C1.25205848,11.7315818 0.678338649,11.428243 0.50247478,11.0439518 C0.0306214481,11.502682 -0.0558689792,12.5345922 0.0286994386,13.1366174 C0.125760918,13.8335523 0.966640073,14.9827039 2.23228333,15.0320197 C3.00493115,15.0590038 3.987078,14.8673235 4.45700932,14.7714833 C5.26521431,14.6021346 6.54911666,15.0934319 6.75188866,16.0509031 L7.12480622,16.0536946 Z" id="Fill-6"></path>
                <path d="M8.55454137,2.84560478e-14 C6.40381274,2.84560478e-14 4.54619056,1.37339901 4.55480952,3.7470717 C4.56060563,5.74668856 6.21833882,6.81302682 6.81416177,7.57788725 C7.70789618,8.72796935 8.19128157,10.089272 8.24221482,12.1791461 C8.28065501,13.8354132 8.278733,15.4721401 8.28642104,16.0555556 L8.76115739,16.0555556 C8.75250835,15.447017 8.73328825,13.7097975 8.75731337,12.1261084 C8.78902653,10.0371648 9.29163201,8.72796935 10.1892104,7.57788725 C10.7811894,6.81302682 12.4398836,5.74668856 12.4447187,3.7470717 C12.4533376,1.37339901 10.5957155,2.84560478e-14 8.44594783,2.84560478e-14" id="Fill-8"></path>
                <path d="M9.09847006,16.0504379 C9.09847006,15.0929666 9.087899,12.532266 9.11384613,12.2196223 C9.09174302,8.41113848 11.9516932,5.72482211 13.7574211,5.93232074 C15.0096103,6.04025725 16.0551834,6.52969349 16.6164102,7.95240832 C17.1391968,9.27370005 16.6711875,11.0341817 14.9394569,11.4501095 C13.0847178,11.8958128 12.0045484,12.2614943 11.2203685,12.7816366 C10.2584028,13.4180898 9.5318832,14.6379584 9.51074109,16.0532293 L9.09847006,16.0504379 Z" id="Fill-10"></path>
                <path d="M9.87454244,16.0536946 C9.86881146,14.8245211 10.57515,13.7386426 11.5005975,13.1570881 C12.3193736,12.6397373 13.422607,12.3029009 15.1966218,11.865572 C15.7463165,11.7315818 16.3219583,11.428243 16.4959002,11.0439518 C16.9706366,11.502682 17.055205,12.5345922 16.9715976,13.1366174 C16.8745424,13.8335523 16.0346179,14.9827039 14.7670527,15.0320197 C13.9934438,15.0590038 13.010336,14.8673235 12.5423267,14.7714833 C11.7350827,14.6021346 10.4502193,15.0934319 10.2464863,16.0509031 L9.87454244,16.0536946 Z" id="Fill-12"></path>
            </g>
            <path d="M2.4255995,19.4863473 C5.31228451,20.8445718 8.19385581,21.5330571 11.0004261,21.5330571 C13.9731918,21.5330571 16.9331732,20.8820636 19.5616162,19.6499477 C20.8715763,16.8721484 21.5338008,14.0125489 21.5338008,11.1546535 C21.5338008,8.28568109 20.8425987,5.29997289 19.5360477,2.51620899 C16.6860109,1.17332197 13.7098361,0.466942949 10.9245729,0.466942949 C7.93476155,0.466942949 5.06682679,1.10089469 2.39747414,2.35005229 C1.11563941,5.07757853 0.465346918,7.93717805 0.465346918,10.8487548 C0.465346918,13.7688524 1.14376477,16.7528564 2.4255995,19.4863473 M11.0004261,22 C8.10180917,22 5.12478209,21.284248 2.15031186,19.87149 L2.07531089,19.8365545 L2.03951497,19.7615709 C0.704838647,16.947132 0,13.8651381 0,10.8487548 C0,7.84089237 0.676713284,4.88926759 2.01224189,2.0756807 L2.04889009,2.00069716 L2.12303878,1.96576165 C4.87591524,0.661218483 7.83589664,0 10.9245729,0 C13.8044396,0 16.8769225,0.736202022 19.8121877,2.12765793 L19.8863363,2.1651497 L19.92128,2.24013324 C21.2815248,5.10740153 22,8.19195166 22,11.1546535 C22,14.1088346 21.3096502,17.0604594 19.9485531,19.9260235 L19.9136094,20.001007 L19.8386085,20.0367946 C17.1283462,21.3217398 14.0703521,22 11.0004261,22" id="Fill-3" stroke="#095DAA"></path>
        </g>
    </g>
</svg>