<?xml version="1.0" encoding="UTF-8"?>
<svg width="65px" height="64px" viewBox="0 0 65 64" version="1.1" xmlns="http://www.w3.org/2000/svg" xmlns:xlink="http://www.w3.org/1999/xlink">
    <title>brand/content-icon/64/product/corporate-card-bca-card</title>
    <g id="brand/content-icon/64/product/corporate-card-bca-card" stroke="none" stroke-width="1" fill="none" fill-rule="evenodd">
        <path d="M53.6574021,10.115818 L53.8004659,10.5471496 L58.5807857,24.3023619 C59.5106811,25.5226135 60.1059044,27.0192365 60.2266961,28.6502873 L60.249481,29.2679554 L60.249481,51.6679554 C60.249481,55.992345 56.9210773,59.5271975 52.7241756,59.7741712 L52.2544041,59.7879554 L13.657481,59.7879554 C9.39962052,59.7879554 5.91915034,56.4075454 5.67597628,52.1450671 L5.66240412,51.6679554 L5.66038154,31.1324 L4.3053134,26.1398215 C3.06043546,22.0043871 5.22581278,17.6356546 9.16823261,16.1532445 L9.61350921,16.0005686 L43.8874717,5.35823855 C47.9592839,4.09390939 52.2608052,6.29312073 53.6574021,10.115818 Z M52.2544041,26.1879554 L13.657481,26.1879554 C12.0942716,26.1879554 10.8073082,27.3891854 10.6426606,28.9323555 L10.6248657,29.2679554 L10.6248657,51.6679554 C10.6248657,53.2555899 11.8076152,54.5626622 13.3270442,54.7298824 L13.657481,54.7479554 L52.2544041,54.7479554 C53.8176135,54.7479554 55.104577,53.5467254 55.2692245,52.0035553 L55.2870195,51.6679554 L55.2870195,29.2679554 C55.2870195,27.6803208 54.10427,26.3732486 52.584841,26.2060284 L52.2544041,26.1879554 Z M36.7246469,36 L39.0033565,37.1864333 L37.3503066,40.1464238 C36.7263614,39.646529 35.9644536,39.2787156 34.9924574,39.2787156 C32.6920438,39.2787156 31.7575171,40.970287 31.7575171,42.1619251 C31.7575171,43.0465242 32.3446162,44.3514924 34.3914943,44.3514924 C35.250622,44.3514924 36.4720389,43.7619084 36.8235735,43.4935864 L35.1887753,46.9275937 L34.9697291,46.971848 L34.4855528,47.0743427 C34.1614841,47.1416278 33.9066983,47.1836168 33.4936734,47.1962231 C29.8301085,47.304087 28.3496775,45.0838058 28.3507667,42.8152204 C28.3533013,39.8159745 31.0561467,36.1686382 35.5369277,36.1686382 C35.8115203,36.1686382 36.1473439,36.2623175 36.4344758,36.3661221 L36.7246469,36 Z M24.6267589,36.0886978 L25.8065097,36.0910251 C25.9301651,36.0915384 26.0458477,36.0921474 26.1514403,36.0928644 C27.8766394,36.1023899 28.8515036,37.0262443 28.8515036,38.3606426 C28.8515036,39.5909595 27.8233574,40.6798695 26.6947027,41.2429681 C27.8567122,41.6644213 27.9571819,42.6988765 27.9571819,43.4306133 C27.9572131,45.1987965 26.1589373,46.8508051 23.8211633,46.8508051 L18.7230769,46.8508051 L20.7117478,39.275748 L19.8948747,39.2710813 L21.5647111,36.0928644 L24.6267589,36.0886978 Z M45.8242105,36.0928644 L46.2923077,46.8508051 L42.8086248,46.8508051 L42.8065674,45.0058409 L40.4311212,45.0058409 L39.6492862,46.8508051 L35.8711771,46.8508051 L39.821079,39.1686606 L38.9303812,39.1629868 L40.6227164,36.0928644 L45.8242105,36.0928644 Z M24.258719,42.3556265 L23.0259319,42.3556265 L22.5592686,44.1237098 L23.7528093,44.1237098 C24.222247,44.1237098 24.8621136,43.8937591 25.0189123,43.3183596 C25.1737939,42.7413763 24.7264811,42.3556265 24.258719,42.3556265 Z M42.7839672,39.3839117 L41.4408832,42.5130785 L42.8245775,42.5130785 L42.7839672,39.3839117 Z M23.887491,38.920197 L23.5340315,40.454547 L24.4589024,40.454547 C24.815752,40.454547 25.4458616,40.3654651 25.6033773,39.6841315 C25.7759962,38.9444529 25.1846498,38.9245561 24.9010171,38.9245561 L23.887491,38.920197 Z M45.6595561,10.0971779 L45.338355,10.1780145 L11.0643926,20.8203446 C10.1839703,21.0937225 9.51512537,21.7371013 9.17576447,22.5423054 C10.295682,21.7718247 11.6161324,21.282136 13.0408063,21.1717526 L13.657481,21.1479554 L52.2544041,21.1479554 C52.3881251,21.1479554 52.5210793,21.1512895 52.6531906,21.1578805 L49.1251105,12.2229283 C48.6680723,10.7046658 47.1607316,9.80591206 45.6595561,10.0971779 Z" id="Combined-Shape" fill="#0066AE"></path>
    </g>
</svg>