<?xml version="1.0" encoding="UTF-8"?>
<svg width="64px" height="64px" viewBox="0 0 64 64" version="1.1" xmlns="http://www.w3.org/2000/svg" xmlns:xlink="http://www.w3.org/1999/xlink">
    <title>brand/content-icon/64/product/hubungan-investor-kronologi</title>
    <g id="brand/content-icon/64/product/hubungan-investor-kronologi" stroke="none" stroke-width="1" fill="none" fill-rule="evenodd">
        <path d="M50.5284966,4.62474364 C51.3607736,3.79173301 52.7101107,3.79175492 53.5423607,4.62479259 L53.5423607,4.62479259 L58.3757982,9.46280458 C59.2080864,10.2958805 59.2080645,11.6465701 58.3757493,12.479619 L58.3757493,12.479619 L48.7728288,22.0921298 C48.7751551,22.1078646 48.7773098,22.1236553 48.7792908,22.1395 L48.7958955,22.407081 L48.7958955,57.8668247 C48.7958955,58.9543202 47.9828902,59.8517485 46.9320652,59.9833795 L46.6647372,60 L7.13115832,60 C6.04469102,60 5.14811129,59.1862252 5.01660475,58.1344057 L5,57.8668247 L5,12.7571291 C5,11.6696335 5.81300532,10.7722053 6.86383035,10.6405742 L7.13115832,10.6239538 L44.534,10.623 Z M9.25994869,14.8886749 L9.25994869,55.7318717 L44.5329869,55.7318717 L44.533,26.334 L33.2920158,37.585463 C33.0990472,37.7786017 32.8712802,37.9323916 32.6214334,38.0390901 L32.4301071,38.1101633 L25.3500736,40.3605151 C23.7031205,40.8839906 22.1511604,39.3309891 22.6736877,37.6823332 L22.6736877,37.6823332 L24.9202838,30.5939694 C25.0235067,30.2682849 25.2033791,29.9721844 25.4447631,29.7305876 L25.4447631,29.7305876 L40.271,14.89 L9.25994869,14.8886749 Z M39.8709982,48.4549568 C41.0480044,48.4549568 42.0021565,49.4100119 42.0021565,50.5881321 C42.0021565,51.6756277 41.1891512,52.573056 40.1383261,52.704687 L39.8709982,52.7213074 L13.1963891,52.7213074 C12.0193829,52.7213074 11.0652308,51.7662523 11.0652308,50.5881321 C11.0652308,49.5006366 11.8782361,48.6032083 12.9290611,48.4715773 L13.1963891,48.4549568 L39.8709982,48.4549568 Z M39.8709982,41.9231168 C41.0480044,41.9231168 42.0021565,42.8781719 42.0021565,44.0562921 C42.0021565,45.1437877 41.1891512,46.041216 40.1383261,46.172847 L39.8709982,46.1894674 L13.1963891,46.1894674 C12.0193829,46.1894674 11.0652308,45.2344123 11.0652308,44.0562921 C11.0652308,42.9687966 11.8782361,42.0713683 12.9290611,41.9397373 L13.1963891,41.9231168 L39.8709982,41.9231168 Z M52.0346642,9.14806311 L28.8263501,32.3759722 L27.9786226,35.0471817 L30.6473065,34.198652 L53.8532526,10.9707429 L52.0346642,9.14806311 Z" id="Combined-Shape" fill="#0066AE"></path>
    </g>
</svg>