<?xml version="1.0" encoding="UTF-8"?>
<svg width="64px" height="64px" viewBox="0 0 64 64" version="1.1" xmlns="http://www.w3.org/2000/svg" xmlns:xlink="http://www.w3.org/1999/xlink">
    <title>brand/content-icon/64/product/asuransi-grow</title>
    <g id="brand/content-icon/64/product/asuransi-grow" stroke="none" stroke-width="1" fill="none" fill-rule="evenodd">
        <path d="M34.0347934,11.9826911 C39.2094649,5.81575777 46.6324508,2.74836031 52.3665529,4.62482373 C53.3279889,4.93945005 53.9894343,5.82538227 54.0156674,6.83362847 C54.1343834,11.3963643 52.163181,16.4831714 48.5996388,20.7300356 C44.0501592,26.1518943 37.7628561,29.1778922 32.4133364,28.5548045 L32.4134935,50.3784839 C39.1946824,50.7352665 45.4095654,52.6211456 49.7912071,55.6511515 C50.8681473,56.3958804 51.1417083,57.8788251 50.4022226,58.9634011 C49.6627369,60.0479772 48.1902328,60.3234778 47.1132926,59.5787489 C43.0702123,56.782866 36.8366709,55.0810246 30.0534471,55.0810246 C23.2682616,55.0810246 17.0331356,56.7838601 12.9902632,59.5810582 C11.913503,60.3260511 10.4409324,60.0509116 9.7011845,58.9665169 C8.96143663,57.8821222 9.23463904,56.3991105 10.3113992,55.6541175 C14.6911309,52.6238519 20.9040121,50.7371903 27.6836738,50.3789968 L27.6841818,34.8980118 C23.6513174,35.7580939 18.6762609,34.1040016 14.7209074,30.5425853 C10.196338,26.4686447 7.99103695,20.7826574 9.40797333,16.3158407 C9.57554243,15.787588 9.92171392,15.3331488 10.3867486,15.0309462 C14.6836424,12.2386117 21.2932185,13.6967438 26.2810861,18.18784 C27.372953,19.1709614 28.32979,20.2480041 29.1332931,21.379172 C29.9259808,18.1442656 31.6125336,14.869428 34.0347934,11.9826911 Z M13.8796201,18.5798138 L13.7566687,18.6253145 L13.7354099,18.8079219 C13.5869625,21.2351828 15.0891058,24.4630093 17.9088988,27.0019622 L18.3574043,27.3905148 C21.3727228,29.9029402 24.8651656,30.8552354 27.1245292,30.149947 L27.2518284,30.1032451 L27.2681577,29.9223321 C27.4147313,27.4939365 25.9119855,24.2666037 23.0930948,21.7284631 L22.644746,21.3400415 C19.6304796,18.8284295 16.1392034,17.8757541 13.8796201,18.5798138 Z M48.7984846,8.82013762 C45.4853062,8.83441239 41.3819878,10.8937674 38.1234721,14.5383966 L38.1234721,14.5383966 L37.684519,15.0451744 C35.4994675,17.6492174 34.0813337,20.5938793 33.5728739,23.3342669 L33.5728739,23.3342669 L33.483118,23.8858897 L33.8347856,23.8925969 C37.1481057,23.8787964 41.2519837,21.8194472 44.5109057,18.174391 L44.5109057,18.174391 L44.9499133,17.6675523 C47.1355939,15.0627596 48.5537796,12.1172779 49.0611945,9.37798522 L49.0611945,9.37798522 L49.146534,8.83027622 Z" id="Combined-Shape" fill="#0066AE"></path>
    </g>
</svg>