<?xml version="1.0" encoding="UTF-8"?>
<svg width="64px" height="64px" viewBox="0 0 64 64" version="1.1" xmlns="http://www.w3.org/2000/svg" xmlns:xlink="http://www.w3.org/1999/xlink">
    <title>brand/content-icon/64/product/remittance-worker</title>
    <g id="brand/content-icon/64/product/remittance-worker" stroke="none" stroke-width="1" fill="none" fill-rule="evenodd">
        <path d="M21.0090156,31.5169946 L25.7363397,35.0373795 C28.5402503,37.1255497 30.1196682,38.0055371 31.6154596,38.3732494 C31.8604544,38.4334768 32.0970413,38.481847 32.3529612,38.5211673 C32.4499489,38.386298 32.5712713,38.2672182 32.7121111,38.1675617 L32.8881995,38.0588212 L40.0462325,34.2314142 C41.4174163,33.4977776 42.6899504,33.026772 43.8881563,32.9901085 C45.0439676,32.9547422 45.9956293,33.3592888 46.624273,34.1324451 L46.6920371,34.2238983 L46.9046239,34.1058368 C49.8868983,32.4948853 52.7217312,33.3058917 53.5065445,35.5562242 L53.5329262,35.6415453 L53.5890741,35.6210054 C55.633996,34.8802879 57.4529181,35.0999093 58.7214169,36.2804195 L58.9276812,36.4860684 C60.5767007,38.2457271 60.2819047,41.1111369 58.3317005,42.3118154 L58.0793239,42.4530293 L39.0791076,54.5160563 C35.3826377,56.8628622 29.8957746,57.5926225 27.1684685,56.5089312 L26.8308018,56.3571879 L25.973657,56.1204212 L23.9704316,55.5336147 C21.4346384,54.7753933 18.4170674,53.8339908 17.1611595,53.4913104 L16.7750682,53.3919149 C14.4358541,52.8512558 12.3052805,52.7510661 9.40418903,53.1253465 C8.50337917,53.2415632 7.67938664,52.6018601 7.5637502,51.6965294 C7.44811376,50.7911987 8.08462258,49.9630709 8.98543244,49.8468541 C12.016882,49.4557558 14.3989058,49.5267198 16.8874063,50.0345603 L17.5121871,50.1706074 C18.9203214,50.4960675 25.465415,52.5903653 27.843075,53.2067521 C27.9441771,53.232962 28.04245,53.2687593 28.136589,53.3135973 L28.274534,53.3875666 C28.6762704,53.6283163 30.0894281,53.7792655 31.6987197,53.606058 C33.501754,53.411998 35.3067184,52.8711829 36.8268352,52.0176116 L37.3225976,51.7215509 L56.456777,39.5820529 C56.7409585,39.4370866 56.7935293,39.0297858 56.5334905,38.7523 C56.0505112,38.2369156 54.7689264,38.3328328 52.6911578,39.8511113 C51.412847,40.7852056 49.7302381,39.5514973 50.1335408,38.0900917 L50.1949979,37.9063704 C50.7976351,36.3755432 50.12392,35.912571 48.1949962,37.167336 L46.7390982,38.1650513 C45.6513668,38.9139529 44.1729629,38.1362963 44.1653048,36.8112078 L44.1758628,36.3638558 C44.17518,36.2998677 44.1635763,36.2857997 44.1209209,36.2858079 L43.9882431,36.2939722 C43.4918507,36.3091612 42.7401585,36.5686596 41.9072065,36.9857046 L41.5913804,37.149312 L38.5367473,38.783015 L39.67797,38.8438164 L39.67797,38.8438164 C41.3044229,38.9415211 42.6419017,40.2317954 42.9091382,41.8335585 C43.2054921,43.6098455 42.159116,45.239828 40.2634511,45.9697653 C33.4626882,49.0937598 28.9928021,48.6065884 21.3669722,44.7745322 L20.7054728,44.4378849 L5.01615591,37.9136233 C4.17695385,37.5646486 3.77813334,36.5980269 4.12536537,35.7546132 C4.44588724,34.9760775 5.29006029,34.5746613 6.07809164,34.7919897 L6.27359433,34.8593521 L22.0833301,41.4395072 C29.426258,45.2160567 32.9609361,45.6899499 38.9891783,42.9242343 C39.5836474,42.6942869 39.6902369,42.5282482 39.6655307,42.3801641 C39.6446933,42.2552689 39.5317664,42.1463276 39.4821135,42.1433448 L37.9785713,42.0680322 L36.6845468,42.0295519 L36.6845468,42.0295519 L34.139786,41.97157 L33.2287311,41.9300709 C32.2635937,41.8715079 31.6016695,41.7727001 30.8340227,41.5839885 C28.9399052,41.1183552 27.1295218,40.1443709 24.317524,38.09094 L19.0514014,34.1730854 C18.5178916,33.7760471 16.5525205,33.7141855 14.9906562,34.3528447 C14.1494187,34.6968336 13.1899952,34.2903115 12.847724,33.4448521 C12.5054528,32.5993928 12.9099449,31.6351544 13.7511825,31.2911655 C16.2892621,30.2533238 19.4444387,30.3526354 21.0090156,31.5169946 Z M38.5342927,8 C44.4873573,8 49.3140125,12.851372 49.3140125,18.834349 C49.3140125,24.6820564 44.7045775,29.4476287 38.9384163,29.6612251 L38.5342927,29.668698 L32.1387032,29.668698 L32.1041986,29.6650253 L31.9950965,29.668698 C26.1761585,29.668698 21.4342912,25.0362129 21.2217574,19.2405418 L21.2143217,18.834349 C21.2143217,12.8511785 26.0411694,8 31.9950965,8 L38.5342927,8 Z M31.9950965,11.3053946 C27.8575888,11.3053946 24.5032107,14.6766813 24.5032107,18.834349 C24.5032107,22.9926813 27.8571951,26.3633034 31.9950965,26.3633034 C36.1320766,26.3633034 39.4859273,22.9925469 39.4859273,18.834349 C39.4859273,14.6768157 36.1316829,11.3053946 31.9950965,11.3053946 Z M39.8582668,11.4226666 L39.8787176,11.4455203 C41.6753561,13.381093 42.7748163,15.9788372 42.7748163,18.834349 C42.7748163,21.7003137 41.6676366,24.3063511 39.8597352,26.2439865 C43.3647628,25.6165802 46.0251235,22.5377739 46.0251235,18.834349 C46.0251235,15.1308764 43.3635314,12.0511837 39.8582668,11.4226666 Z" id="Shape" fill="#0066AE"></path>
    </g>
</svg>