<svg xmlns="http://www.w3.org/2000/svg" xmlns:xlink="http://www.w3.org/1999/xlink" width="96" height="96" viewBox="0 0 96 96">
    <defs>
        <path id="a" d="M.15.34h6.656v6.306H.15z"/>
    </defs>
    <g fill="none" fill-rule="evenodd">
        <path d="M0 0h96v96H0z"/>
        <path fill="#D3F5FF" d="M89 34a6 6 0 1 1-12 0 6 6 0 0 1 12 0"/>
        <path stroke="#CECECE" stroke-dasharray="19.994,2.999,3.999,14.995" stroke-linecap="round" stroke-linejoin="round" stroke-width="2" d="M81 68c0 7.18-6.044 13-13.5 13S54 75.18 54 68s6.044-13 13.5-13S81 60.82 81 68z"/>
        <path stroke="#CECECE" stroke-dasharray="5.877,3.918,4.898,14.693" stroke-linecap="round" stroke-linejoin="round" stroke-width="1.4" d="M76 69a9 9 0 1 1-18 0 9 9 0 0 1 18 0z"/>
        <path fill="#23A4FF" d="M76 30H21v-9.515C21 19.113 22.17 18 23.615 18h49.77C74.83 18 76 19.113 76 20.485V30z"/>
        <path fill="#FFF" d="M32 62H16V29h16v4.105M32 29H16v-9.515A2.495 2.495 0 0 1 18.505 17h10.99A2.495 2.495 0 0 1 32 19.485V29z"/>
        <path stroke="#073C66" stroke-linecap="round" stroke-linejoin="round" stroke-width="3" d="M60.545 62H16V29h55v4.105M71 29H16v-9.515C16 18.113 17.17 17 18.615 17h49.77C69.83 17 71 18.113 71 19.485V29zM25 35h5M25 41h5M25 46h5M25 51h5M25 56h5M37 35h5M37 41h5M37 46h5M37 51h5M37 56h5M48 35h5M48 41h5M48 46h5M48 51h5M48 56h5M59 41h2M59 46h4M59 51h5M59 56h4"/>
        <path fill="#073C66" d="M31 20c-1.1 0-2-.827-2-1.838v-4.324c0-1.01.9-1.838 2-1.838s2 .827 2 1.838v4.324c0 1.01-.9 1.838-2 1.838M57 20c-1.1 0-2-.827-2-1.838v-4.324c0-1.01.9-1.838 2-1.838s2 .827 2 1.838v4.324c0 1.01-.9 1.838-2 1.838"/>
        <path fill="#BFE7FF" d="M68 61c0-2.13.525-4.187 1.485-6 0 0 .644.23 3.61 2.017 1.161.7 3.003 1.139 4.354.65 2.135-.771 3.108-.018 3.108-.018.29 1.078.443 2.204.443 3.351H68z"/>
        <path stroke="#073C66" stroke-linecap="round" stroke-linejoin="round" stroke-width="2" d="M68 39c0 4.102 2.007 7.933 5.35 10.215L74.5 50l1.15-.785C78.992 46.933 81 43.102 81 39H68zM68 61c0-4.102 2.007-7.933 5.35-10.215L74.5 50l1.15.785C78.992 53.067 81 56.898 81 61H68z"/>
        <path fill="#23A4FF" d="M82.184 37H65.817c-.451 0-.817.423-.817.945v.11c0 .522.366.945.817.945h16.367c.45 0 .816-.423.816-.944v-.111c0-.522-.365-.945-.816-.945"/>
        <path stroke="#073C66" stroke-linecap="round" stroke-linejoin="round" stroke-width="2" d="M83.138 37H65.862c-.476 0-.862.423-.862.945v.11c0 .522.386.945.862.945h17.276c.476 0 .862-.423.862-.944v-.111c0-.522-.386-.945-.862-.945z"/>
        <path fill="#23A4FF" d="M82.184 61H65.817c-.451 0-.817.423-.817.945v.11c0 .522.366.945.817.945h16.367c.45 0 .816-.423.816-.944v-.111c0-.522-.365-.945-.816-.945"/>
        <path stroke="#073C66" stroke-linecap="round" stroke-linejoin="round" stroke-width="2" d="M83.138 61H65.862c-.476 0-.862.423-.862.945v.11c0 .522.386.945.862.945h17.276c.476 0 .862-.423.862-.944v-.111c0-.522-.386-.945-.862-.945z"/>
        <path fill="#BFE7FF" d="M29.917 75H9.083C7.937 75 7 74.072 7 72.937V42.063C7 40.928 7.937 40 9.083 40h20.834c1.145 0 2.083.928 2.083 2.063v30.874C32 74.072 31.062 75 29.917 75"/>
        <path stroke="#073C66" stroke-width="2" d="M27.917 72H7.083C5.937 72 5 71.072 5 69.937V39.063C5 37.928 5.937 37 7.083 37h20.834c1.145 0 2.083.928 2.083 2.063v30.874C30 71.072 29.062 72 27.917 72z"/>
        <path stroke="#073C66" stroke-width="2" d="M24.625 47H9.375C8.617 47 8 46.394 8 45.654v-4.308C8 40.606 8.618 40 9.374 40h15.251c.756 0 1.375.606 1.375 1.346v4.308c0 .74-.619 1.346-1.375 1.346zM12.161 54H9.84A.84.84 0 0 1 9 53.161V50.84c0-.461.377-.839.839-.839h2.322c.462 0 .839.378.839.839v2.322a.84.84 0 0 1-.839.839zM18.161 54H15.84a.84.84 0 0 1-.839-.839V50.84c0-.461.377-.839.839-.839h2.322c.461 0 .839.378.839.839v2.322a.841.841 0 0 1-.839.839zM25.161 54H22.84a.84.84 0 0 1-.839-.839V50.84c0-.461.377-.839.839-.839h2.322c.461 0 .839.378.839.839v2.322a.841.841 0 0 1-.839.839zM25.161 68H22.84a.852.852 0 0 1-.839-.86v-9.28c0-.473.377-.86.839-.86h2.322c.461 0 .839.387.839.86v9.28c0 .473-.378.86-.839.86zM12.161 68H9.84A.84.84 0 0 1 9 67.161V64.84c0-.461.377-.839.839-.839h2.322c.462 0 .839.378.839.839v2.322a.84.84 0 0 1-.839.839zM18.161 68H15.84a.84.84 0 0 1-.839-.839V64.84c0-.461.377-.839.839-.839h2.322c.461 0 .839.378.839.839v2.322a.841.841 0 0 1-.839.839zM12.161 61H9.84A.84.84 0 0 1 9 60.161V57.84c0-.461.377-.839.839-.839h2.322c.462 0 .839.378.839.839v2.322a.84.84 0 0 1-.839.839zM18.161 61H15.84a.84.84 0 0 1-.839-.839V57.84c0-.461.377-.839.839-.839h2.322c.461 0 .839.378.839.839v2.322a.841.841 0 0 1-.839.839z"/>
        <path stroke="#459DD7" stroke-linecap="round" stroke-linejoin="round" stroke-width="2" d="M89 22a1 1 0 1 1-2 0 1 1 0 0 1 2 0z"/>
        <g transform="translate(84 11)">
            <mask id="b" fill="#fff">
                <use xlink:href="#a"/>
            </mask>
            <path fill="#459DD7" d="M6.806 3.493c0 1.742-1.49 3.153-3.328 3.153C1.64 6.646.15 5.235.15 3.493.15 1.753 1.64.341 3.478.341c1.838 0 3.328 1.411 3.328 3.152" mask="url(#b)"/>
        </g>
        <path stroke="#459DD7" stroke-linecap="round" stroke-linejoin="round" stroke-width="2" d="M13 23a1 1 0 1 1-2 0 1 1 0 0 1 2 0z"/>
        <path fill="#BFE7FF" d="M8.673 26.138l.34 1.647a.173.173 0 0 0 .13.134l1.724.415c.183.044.175.305-.01.338l-1.705.308a.173.173 0 0 0-.14.137l-.337 1.743c-.036.183-.298.188-.34.006l-.414-1.755a.174.174 0 0 0-.137-.13l-1.642-.31c-.183-.035-.191-.292-.012-.338l1.66-.424a.174.174 0 0 0 .125-.125l.42-1.654c.044-.178.301-.172.338.008M80.673 18.138l.34 1.647a.173.173 0 0 0 .13.134l1.724.415c.183.043.175.305-.01.338l-1.705.308a.173.173 0 0 0-.14.138l-.337 1.742c-.036.183-.298.188-.34.006l-.414-1.755a.174.174 0 0 0-.137-.13l-1.642-.31c-.183-.035-.192-.292-.011-.338l1.659-.424a.173.173 0 0 0 .125-.125l.42-1.653c.045-.179.301-.173.338.007"/>
        <path stroke="#073C66" stroke-linecap="round" stroke-linejoin="round" stroke-width="2" d="M43.804 86.473l-5.02-7.44-1.613-5.51a2.295 2.295 0 0 1 .986-2.864 2.26 2.26 0 0 1 3.174 1.041l1.98 4.354V60.027c0-1.12.9-2.027 2.01-2.027a2.02 2.02 0 0 1 2.011 2.027v12.744l.331-.002.07-5.806a2.02 2.02 0 0 1 2.041-2.027 2.02 2.02 0 0 1 1.982 2.027v5.808l.391-.002.009-4.591a2.02 2.02 0 0 1 2.013-2.029c1.112 0 2.013.91 2.013 2.03l-.003 4.592.407-.002-.004-3.233c0-1.058.45-1.918 1.5-1.923A1.917 1.917 0 0 1 60 69.538v5.182c0 2.742-.349 5.473-1.037 8.126L57.885 87"/>
    </g>
</svg>
