<svg xmlns="http://www.w3.org/2000/svg" xmlns:xlink="http://www.w3.org/1999/xlink" width="98" height="96" viewBox="0 0 98 96">
    <defs>
        <path id="prefix__a" d="M0.451 0.047L11.129 0.047 11.129 10.506 0.451 10.506z"/>
        <path id="prefix__c" d="M0 0L19.78 0 19.78 19.376 0 19.376z"/>
        <path id="prefix__e" d="M0.229 0.154L10.617 0.154 10.617 10 0.229 10z"/>
    </defs>
    <g fill="none" fill-rule="evenodd">
        <path d="M0 0H98V96H0z"/>
        <g>
            <path stroke="#459DD7" stroke-linecap="round" stroke-linejoin="round" stroke-width="2" d="M5.104 22c0 1.105-.914 2-2.041 2-1.127 0-2.042-.895-2.042-2s.915-2 2.042-2c1.127 0 2.041.895 2.041 2z" transform="translate(6.125 6)"/>
            <g transform="translate(6.125 6) translate(52.063)">
                <mask id="prefix__b" fill="#fff">
                    <use xlink:href="#prefix__a"/>
                </mask>
                <path fill="#459DD7" d="M11.129 5.277c0 2.888-2.39 5.23-5.339 5.23-2.948 0-5.339-2.342-5.339-5.23 0-2.889 2.39-5.23 5.34-5.23 2.947 0 5.338 2.341 5.338 5.23" mask="url(#prefix__b)"/>
            </g>
            <g transform="translate(6.125 6) translate(66.354 2)">
                <mask id="prefix__d" fill="#fff">
                    <use xlink:href="#prefix__c"/>
                </mask>
                <path fill="#D3F5FF" d="M19.78 9.688c0 5.35-4.428 9.688-9.89 9.688C4.43 19.376 0 15.039 0 9.688 0 4.338 4.429 0 9.89 0c5.462 0 9.89 4.338 9.89 9.688" mask="url(#prefix__d)"/>
            </g>
            <g transform="translate(6.125 6) translate(13.27 75)">
                <mask id="prefix__f" fill="#fff">
                    <use xlink:href="#prefix__e"/>
                </mask>
                <path fill="#BFE7FF" d="M5.783.427L6.49 3.67c.028.129.133.232.269.263l3.583.817c.38.086.364.6-.021.666l-3.542.607c-.147.025-.262.132-.29.27l-.702 3.43c-.073.362-.617.372-.707.014L4.221 6.28c-.033-.13-.144-.232-.285-.257l-3.413-.61C.143 5.345.126 4.84.5 4.75l3.448-.835c.128-.031.228-.126.26-.247l.87-3.255c.094-.352.628-.34.705.015" mask="url(#prefix__f)"/>
            </g>
            <path fill="#BFE7FF" d="M69.77 31.277l.693 3.294c.029.13.132.234.265.267l3.521.83c.373.087.358.61-.02.676l-3.48.616c-.145.026-.259.135-.286.275l-.69 3.485c-.072.366-.607.377-.694.013l-.844-3.512c-.032-.132-.14-.235-.28-.26l-3.354-.62c-.373-.069-.39-.583-.022-.675l3.388-.847c.126-.032.224-.128.257-.251l.854-3.306c.093-.357.617-.346.693.015M5.458 33.277l.693 3.293c.028.131.131.236.265.267l3.521.83c.373.088.357.61-.02.677l-3.481.616c-.145.026-.258.135-.286.276l-.689 3.483c-.073.367-.607.377-.695.013l-.843-3.51c-.032-.133-.142-.236-.28-.261L.29 38.34c-.373-.068-.39-.583-.022-.675l3.388-.848c.125-.031.224-.128.255-.25l.856-3.306c.092-.357.616-.346.692.015" transform="translate(6.125 6)"/>
            <path stroke="#CECECE" stroke-dasharray="19.994 2.999 3.999 14.995" stroke-linecap="round" stroke-linejoin="round" stroke-width="2" d="M66.354 59.5c0 11.321-9.37 20.5-20.927 20.5C33.869 80 24.5 70.821 24.5 59.5c0-11.322 9.37-20.5 20.927-20.5s20.927 9.178 20.927 20.5z" transform="translate(6.125 6)"/>
            <path stroke="#CECECE" stroke-dasharray="5.877 3.918 4.898 14.693" stroke-linecap="round" stroke-linejoin="round" stroke-width="1.4" d="M60.23 59.5c0 8.008-6.628 14.5-14.803 14.5s-14.802-6.492-14.802-14.5S37.252 45 45.427 45s14.802 6.492 14.802 14.5z" transform="translate(6.125 6)"/>
            <path fill="#BFE7FF" d="M30.625 23c0 5.524-4.57 10-10.209 10-5.637 0-10.208-4.476-10.208-10 0-5.522 4.57-10 10.208-10 5.639 0 10.209 4.478 10.209 10" transform="translate(6.125 6)"/>
            <path stroke="#073C66" stroke-linecap="round" stroke-linejoin="round" stroke-width="4" d="M33.521 19.212c1.008 5.433-2.67 10.638-8.216 11.625-5.546.988-10.86-2.616-11.868-8.049-1.008-5.433 2.671-10.638 8.217-11.625 5.546-.988 10.859 2.616 11.867 8.049z" transform="translate(6.125 6)"/>
            <path fill="#BFE7FF" d="M72.48 65c0 5.523-4.571 10-10.21 10-5.637 0-10.208-4.477-10.208-10s4.571-10 10.209-10 10.208 4.477 10.208 10" transform="translate(6.125 6)"/>
            <path stroke="#073C66" stroke-linecap="round" stroke-linejoin="round" stroke-width="4" d="M75.375 60.212c1.008 5.433-2.67 10.638-8.216 11.625-5.546.988-10.86-2.616-11.868-8.049-1.008-5.433 2.672-10.638 8.217-11.625 5.546-.988 10.86 2.616 11.867 8.05z" transform="translate(6.125 6)"/>
            <path fill="#23A4FF" d="M8.455 72.696c-1.745-1.74-1.745-4.584 0-6.324l51.264-51.068c1.746-1.739 4.602-1.739 6.347 0 1.745 1.74 1.745 4.584 0 6.322l-51.264 51.07c-1.746 1.739-4.601 1.739-6.347 0" transform="translate(6.125 6)"/>
            <path stroke="#073C66" stroke-linecap="round" stroke-linejoin="round" stroke-width="4" d="M15.601 70.696h0c-1.746-1.74-1.746-4.584 0-6.323l51.264-51.069c1.746-1.739 4.602-1.739 6.346 0 1.746 1.739 1.746 4.584 0 6.323L21.948 70.696c-1.746 1.739-4.601 1.739-6.347 0z" transform="translate(6.125 6)"/>
        </g>
    </g>
</svg>
