<svg xmlns="http://www.w3.org/2000/svg" width="96" height="96" viewBox="0 0 96 96">
    <g fill="none" fill-rule="evenodd">
        <path d="M0 0h96v96H0z"/>
        <path stroke="#CECECE" stroke-dasharray="19.994,2.999,3.999,14.995" stroke-linecap="round" stroke-linejoin="round" stroke-width="2" d="M38.842 20.429c0 8.931-7.352 16.171-16.421 16.171C13.352 36.6 6 29.36 6 20.43 6 11.497 13.352 4.257 22.42 4.257c9.069 0 16.42 7.24 16.42 16.172z"/>
        <path stroke="#CECECE" stroke-dasharray="5.877,3.918,4.898,14.693" stroke-linecap="round" stroke-linejoin="round" stroke-width="1.4" d="M33.913 20.429c0 6.25-5.145 11.318-11.492 11.318-6.347 0-11.493-5.068-11.493-11.318 0-6.251 5.146-11.319 11.493-11.319s11.492 5.068 11.492 11.319z"/>
        <path stroke="#459DD7" stroke-linecap="round" stroke-linejoin="round" stroke-width="2" d="M88.45 54.372c0 .826-.68 1.495-1.519 1.495-.839 0-1.519-.67-1.519-1.495 0-.827.68-1.496 1.52-1.496.838 0 1.518.67 1.518 1.496z"/>
        <path fill="#459DD7" d="M83.552 48.978c0 2.287-1.883 4.141-4.205 4.141s-4.205-1.854-4.205-4.14c0-2.288 1.883-4.142 4.205-4.142s4.205 1.854 4.205 4.141"/>
        <path fill="#D3F5FF" d="M90.955 31.747c0 4.272-3.516 7.735-7.854 7.735-4.337 0-7.854-3.463-7.854-7.735s3.517-7.735 7.854-7.735c4.338 0 7.854 3.463 7.854 7.735"/>
        <path stroke="#459DD7" stroke-linecap="round" stroke-linejoin="round" stroke-width="2" d="M16.972 47.606c0 .826-.68 1.496-1.519 1.496-.839 0-1.519-.67-1.519-1.496s.68-1.496 1.52-1.496c.838 0 1.518.67 1.518 1.496z"/>
        <path fill="#BFE7FF" d="M11.686 38.056l.406 1.95c.017.078.077.14.156.159l2.063.491c.22.052.21.362-.012.401l-2.04.365a.206.206 0 0 0-.167.163l-.405 2.064c-.042.217-.355.223-.406.008l-.495-2.08a.206.206 0 0 0-.164-.155l-1.966-.366c-.219-.041-.229-.346-.013-.4l1.986-.503a.206.206 0 0 0 .15-.148l.501-1.959c.054-.211.362-.204.406.01M87.139 41.42l.406 1.951c.016.078.076.14.155.158l2.064.492c.219.052.21.361-.012.401l-2.04.365a.206.206 0 0 0-.167.163l-.405 2.064c-.042.217-.355.223-.407.008l-.494-2.08a.207.207 0 0 0-.164-.155l-1.966-.367c-.219-.04-.23-.345-.013-.4l1.985-.502a.207.207 0 0 0 .15-.148l.502-1.959c.054-.211.361-.204.406.01"/>
        <path fill="#23A4FF" d="M77.524 20.429s7.662-.15 7.662 7.914H73.508s.11-4.003.828-5.433c1.245-2.481 3.188-2.481 3.188-2.481"/>
        <path stroke="#073C66" stroke-linecap="round" stroke-linejoin="round" stroke-width="3" d="M66.836 83.756h-47.31V21.829c0-1.908 1.569-3.454 3.506-3.454h52.407c-4.612 0-4.033 8.739-4.033 8.739v52.141c0 2.486-2.046 4.5-4.57 4.5z"/>
        <path fill="#23A4FF" d="M71.022 85.809H19.14s-7.662.15-7.662-7.914h51.88c.039 7.914 7.663 7.914 7.663 7.914"/>
        <path stroke="#073C66" stroke-linecap="round" stroke-linejoin="round" stroke-width="3" d="M67.373 83.756H15.492s-7.662.15-7.662-7.914h51.88c.039 7.914 7.663 7.914 7.663 7.914z"/>
        <path fill="#BFE7FF" d="M79.915 64.648l-.001-.028a33.968 33.968 0 0 1-.032-1.086c-.03-1.928-1.586-3.523-3.544-3.63-4.083-.225-7.241-1.536-9.94-4.127l-.023-.021a2.298 2.298 0 0 0-3.088 0l-.023.021c-2.699 2.59-5.857 3.902-9.94 4.126-1.958.108-3.514 1.703-3.543 3.631-.006.393-.017.748-.032 1.086l-.002.064c-.08 4.1-.178 9.203 1.555 13.834.954 2.547 2.397 4.76 4.29 6.581 2.157 2.072 4.981 3.718 8.395 4.89a2.602 2.602 0 0 0 1.69-.001c3.41-1.174 6.23-2.82 8.385-4.892 1.893-1.821 3.336-4.035 4.29-6.583 1.74-4.645 1.642-9.757 1.563-13.865"/>
        <path stroke="#073C66" stroke-linecap="round" stroke-linejoin="round" stroke-width="3" d="M75.439 18.375s7.662-.15 7.662 7.914H71.423s.11-4.002.828-5.432c1.245-2.482 3.188-2.482 3.188-2.482zM77.685 62.452l-.001-.028a33.958 33.958 0 0 1-.032-1.086c-.03-1.928-1.586-3.523-3.544-3.631-4.083-.224-7.241-1.535-9.94-4.126l-.022-.021a2.298 2.298 0 0 0-3.089 0l-.023.021c-2.698 2.59-5.857 3.902-9.94 4.126-1.958.108-3.514 1.703-3.543 3.631a34.4 34.4 0 0 1-.032 1.086l-.002.064c-.08 4.1-.178 9.203 1.555 13.834.954 2.547 2.397 4.76 4.29 6.58 2.157 2.073 4.981 3.718 8.396 4.89.11.039.226.07.344.094a2.64 2.64 0 0 0 .999 0 2.77 2.77 0 0 0 .345-.094c3.41-1.174 6.232-2.82 8.386-4.892 1.893-1.821 3.336-4.035 4.29-6.583 1.74-4.645 1.642-9.758 1.563-13.865z"/>
        <path stroke="#073C66" stroke-linecap="round" stroke-linejoin="round" stroke-width="3" d="M56.587 72.59l4.48 3.252 7.548-8.594"/>
        <text fill="#23A4FF" font-family="Open-Sans, sans-serif" font-size="10" font-weight="bold" transform="translate(6 4)">
            <tspan x="28" y="33">100%</tspan>
        </text>
        <g>
            <path fill="#FFF" d="M27.065 46.612h6.453"/>
            <path stroke="#073C66" stroke-linecap="round" stroke-linejoin="round" stroke-width="3" d="M27.065 46.612h6.453"/>
            <path fill="#FFF" d="M37.919 46.612h21.958"/>
            <path stroke="#073C66" stroke-linecap="round" stroke-linejoin="round" stroke-width="3" d="M37.919 46.612h21.958"/>
            <path fill="#FFF" d="M27.065 52.639h11.621"/>
            <path stroke="#073C66" stroke-linecap="round" stroke-linejoin="round" stroke-width="3" d="M27.065 52.639h11.621"/>
            <path fill="#FFF" d="M43.088 52.639h12.655"/>
            <path stroke="#073C66" stroke-linecap="round" stroke-linejoin="round" stroke-width="3" d="M43.088 52.639h12.655"/>
            <g>
                <path fill="#FFF" d="M27.065 58.666h6.453"/>
                <path stroke="#073C66" stroke-linecap="round" stroke-linejoin="round" stroke-width="3" d="M27.065 58.666h6.453"/>
            </g>
            <g>
                <path fill="#FFF" d="M37.919 58.666h6.453"/>
                <path stroke="#073C66" stroke-linecap="round" stroke-linejoin="round" stroke-width="3" d="M37.919 58.666h6.453"/>
            </g>
            <g>
                <path fill="#FFF" d="M27.065 64.769h16.273"/>
                <path stroke="#073C66" stroke-linecap="round" stroke-linejoin="round" stroke-width="3" d="M27.065 64.769h16.273"/>
            </g>
        </g>
    </g>
</svg>
