<svg xmlns="http://www.w3.org/2000/svg" width="96" height="96" viewBox="0 0 96 96">
    <g fill="none" fill-rule="evenodd">
        <path d="M0 0h96v96H0z"/>
        <path stroke="#CECECE" stroke-dasharray="19.994,2.999,3.999,14.995" stroke-linecap="round" stroke-linejoin="round" stroke-width="2" d="M92.602 58.245c0 8.031-6.434 14.542-14.37 14.542-7.936 0-14.37-6.51-14.37-14.542s6.434-14.543 14.37-14.543c7.936 0 14.37 6.511 14.37 14.543z"/>
        <path stroke="#CECECE" stroke-dasharray="5.877,3.918,4.898,14.693" stroke-linecap="round" stroke-linejoin="round" stroke-width="1.4" d="M88.29 58.245c0 5.62-4.503 10.178-10.058 10.178-5.554 0-10.057-4.557-10.057-10.178s4.503-10.178 10.057-10.178c5.555 0 10.057 4.557 10.057 10.178z"/>
        <path stroke="#459DD7" stroke-linecap="round" stroke-linejoin="round" stroke-width="2" d="M6.658 33.71c0 .743-.595 1.345-1.329 1.345S4 34.453 4 33.71s.596-1.345 1.33-1.345c.734 0 1.33.602 1.33 1.345z"/>
        <path fill="#459DD7" d="M17.087 29.015c0 2.057-1.647 3.724-3.68 3.724-2.031 0-3.679-1.667-3.679-3.724 0-2.056 1.648-3.724 3.68-3.724s3.68 1.668 3.68 3.724"/>
        <path fill="#D3F5FF" d="M19.075 43.702c0 3.842-3.077 6.956-6.873 6.956-3.796 0-6.873-3.114-6.873-6.956 0-3.84 3.077-6.954 6.873-6.954 3.796 0 6.873 3.113 6.873 6.954"/>
        <path stroke="#459DD7" stroke-linecap="round" stroke-linejoin="round" stroke-width="2" d="M77.899 32.365c0 .743-.595 1.346-1.33 1.346-.734 0-1.329-.603-1.329-1.346 0-.743.595-1.345 1.33-1.345.734 0 1.329.602 1.329 1.345z"/>
        <path fill="#BFE7FF" d="M70.975 32.54l.356 1.754c.014.07.067.125.135.142l1.807.442c.19.047.183.325-.01.36l-1.786.329a.183.183 0 0 0-.147.147l-.353 1.855c-.037.196-.312.2-.356.007l-.433-1.87a.183.183 0 0 0-.144-.14l-1.72-.329c-.192-.036-.2-.31-.012-.36l1.738-.45a.183.183 0 0 0 .131-.135l.44-1.76c.046-.19.316-.184.354.007"/>
        <path fill="#23A4FF" d="M39.564 41.265c-.872 6.551-6.825 11.146-13.298 10.264-6.473-.882-11.013-6.908-10.141-13.458.872-6.55 6.826-11.146 13.298-10.263 6.472.882 11.013 6.907 10.141 13.457M67.296 42.444c0 2.593-2.078 4.695-4.64 4.695s-4.639-2.102-4.639-4.695c0-2.593 2.077-4.695 4.64-4.695 2.561 0 4.639 2.102 4.639 4.695M53.554 29.015c0 2.593-2.077 4.695-4.64 4.695-2.562 0-4.639-2.102-4.639-4.695 0-2.593 2.077-4.695 4.64-4.695 2.562 0 4.639 2.102 4.639 4.695"/>
        <path fill="#BFE7FF" d="M12.632 66.333a21.47 21.47 0 0 1 15.56-6.701h10.896l12.186-4.112c1.821-.615 3.799.33 4.488 2.143.795 2.092-.322 4.427-2.435 5.094l-10.05 3.09 16.464-.244a4.084 4.084 0 0 0 2.753-1.127l8.95-8.51a4.318 4.318 0 0 1 6.235.527 4.443 4.443 0 0 1-.364 5.975L65.05 73.554a4.05 4.05 0 0 1-2.633 1.048l-25.765.473a8.754 8.754 0 0 0-4.225 1.177L25.944 80 12.632 66.333z"/>
        <path stroke="#073C66" stroke-linecap="round" stroke-linejoin="round" stroke-width="3" d="M10.54 63.654a21.469 21.469 0 0 1 15.56-6.7h10.895l12.186-4.113c1.822-.614 3.8.33 4.488 2.144.795 2.09-.321 4.426-2.434 5.093l-10.05 3.09 16.463-.244a4.083 4.083 0 0 0 2.754-1.128l8.95-8.51a4.317 4.317 0 0 1 6.235.529 4.443 4.443 0 0 1-.365 5.974L62.957 70.875a4.05 4.05 0 0 1-2.633 1.048l-25.765.473a8.765 8.765 0 0 0-4.225 1.177l-6.483 3.748L10.54 63.654zM45.394 43.637l16.715-17.82M51.366 28.006c0 2.593-2.077 4.695-4.64 4.695-2.562 0-4.639-2.102-4.639-4.695 0-2.593 2.077-4.695 4.64-4.695 2.562 0 4.639 2.102 4.639 4.695zM65.079 41.322c0 2.593-2.078 4.695-4.64 4.695s-4.64-2.102-4.64-4.695c0-2.592 2.078-4.694 4.64-4.694s4.64 2.102 4.64 4.694z"/>
        <text fill="#FFF" font-family="Open-Sans, sans-serif" font-size="9" font-weight="bold" transform="translate(4 22.5)">
            <tspan x="15" y="19.5">Rp</tspan>
        </text>
        <path stroke="#073C66" stroke-linecap="round" stroke-linejoin="round" stroke-width="3" d="M35.896 40.168c-.848 6.842-6.637 11.64-12.93 10.719-6.294-.921-10.71-7.214-9.862-14.055.848-6.84 6.637-11.64 12.93-10.719 6.294.922 10.71 7.215 9.862 14.055z"/>
    </g>
</svg>
