<svg xmlns="http://www.w3.org/2000/svg" width="96" height="96" viewBox="0 0 96 96">
    <g fill="none" fill-rule="evenodd">
        <path d="M0 0h96v96H0z"/>
        <path stroke="#459DD7" stroke-linecap="round" stroke-linejoin="round" stroke-width="2" d="M78 81.5a1.5 1.5 0 1 1-3 0 1.5 1.5 0 0 1 3 0z"/>
        <path fill="#D3F5FF" d="M17 77.5a6.5 6.5 0 1 1-13 0 6.5 6.5 0 0 1 13 0"/>
        <path stroke="#CECECE" stroke-dasharray="19.994,2.999,3.999,14.995" stroke-linecap="round" stroke-linejoin="round" stroke-width="2" d="M93 18.5C93 25.956 86.956 32 79.5 32S66 25.956 66 18.5 72.044 5 79.5 5 93 11.044 93 18.5z"/>
        <path stroke="#CECECE" stroke-dasharray="5.877,3.918,4.898,14.693" stroke-linecap="round" stroke-linejoin="round" stroke-width="1.4" d="M89 18.5a9.5 9.5 0 1 1-19 0 9.5 9.5 0 0 1 19 0z"/>
        <path fill="#23A4FF" d="M39 89c2.408-2.099 3.187-8 3.187-8h13.626s.779 5.901 3.187 8H39zM78.143 69H20.857C18.186 69 16 66.794 16 64.099V33.9C16 31.206 18.186 29 20.857 29h57.286C80.814 29 83 31.206 83 33.901V64.1C83 66.794 80.814 69 78.143 69"/>
        <path stroke="#073C66" stroke-width="3" d="M79.125 80h-67.25C9.194 80 7 77.796 7 75.103V27.897C7 25.204 9.194 23 11.875 23h67.25C81.806 23 84 25.204 84 27.897v47.206C84 77.796 81.806 80 79.125 80z"/>
        <path fill="#459DD7" d="M27 79.5a3.5 3.5 0 1 1-7 0 3.5 3.5 0 0 1 7 0"/>
        <path stroke="#073C66" stroke-width="3" d="M79.125 80h-67.25C9.194 80 7 77.767 7 75.037V71h77v4.037C84 77.767 81.806 80 79.125 80z"/>
        <path stroke="#459DD7" stroke-linecap="round" stroke-linejoin="round" stroke-width="2" d="M19 85.5a1.5 1.5 0 1 1-3 0 1.5 1.5 0 0 1 3 0z"/>
        <path fill="#BFE7FF" d="M7.673 86.138l.34 1.647a.174.174 0 0 0 .13.134l1.724.415c.183.044.175.305-.01.338l-1.705.308a.174.174 0 0 0-.14.138l-.337 1.742c-.036.183-.298.188-.34.006l-.414-1.755a.173.173 0 0 0-.137-.13l-1.642-.31c-.183-.035-.191-.292-.011-.338l1.659-.424a.173.173 0 0 0 .125-.125l.42-1.653c.044-.179.301-.173.338.007M72.673 83.138l.34 1.647a.174.174 0 0 0 .13.134l1.724.415c.183.043.175.305-.01.338l-1.705.308a.173.173 0 0 0-.14.138l-.337 1.742c-.036.183-.298.188-.34.007l-.414-1.756a.173.173 0 0 0-.137-.13l-1.642-.31c-.183-.035-.191-.292-.012-.338l1.66-.424a.172.172 0 0 0 .125-.125l.42-1.653c.044-.179.301-.173.338.007"/>
        <path stroke="#073C66" stroke-width="3" d="M75.143 67H17.857C15.186 67 13 64.794 13 62.099V31.9C13 29.206 15.186 27 17.857 27h57.286C77.814 27 80 29.206 80 31.901V62.1C80 64.794 77.814 67 75.143 67z"/>
        <path fill="#BFE7FF" d="M70.39 48.74H50.303l-1.213 1.93a.696.696 0 0 1-1.184.001l-1.221-1.931H26.61c-3.086 0-5.611-2.381-5.611-5.29V19.29c0-2.909 2.525-5.29 5.61-5.29h43.78c3.085 0 5.61 2.381 5.61 5.29v24.16c0 2.909-2.525 5.29-5.61 5.29"/>
        <path fill="#073C66" d="M63.008 29.284l.683 2.548a.226.226 0 0 0 .378.102l1.865-1.866a.226.226 0 0 0-.101-.377l-2.549-.683a.226.226 0 0 0-.276.276"/>
        <path fill="#073C66" d="M66.931 32.569l-.363.362a.235.235 0 0 1-.331 0l-2.168-2.168a.235.235 0 0 1 0-.332l.363-.362a.235.235 0 0 1 .332 0l2.167 2.168a.235.235 0 0 1 0 .332M50 23a4 4 0 1 1-8 0 4 4 0 0 1 8 0M34 39.5a1 1 0 1 1-2 0 1 1 0 0 1 2 0M39 39.5a1 1 0 1 1-2 0 1 1 0 0 1 2 0M44 39.5a1 1 0 1 1-2 0 1 1 0 0 1 2 0M49 39.5a1 1 0 1 1-2 0 1 1 0 0 1 2 0M54 39.5a1 1 0 1 1-2 0 1 1 0 0 1 2 0M59 39.5a1 1 0 1 1-2 0 1 1 0 0 1 2 0M53.346 34H38.654c-.456 0-.772-.416-.612-.806l1.14-2.773C39.781 28.964 41.306 28 43.01 28h5.98c1.704 0 3.23.964 3.828 2.42l1.14 2.774c.16.39-.155.806-.612.806"/>
        <path stroke="#073C66" d="M61.357 42H29.643C28.189 42 27 40.875 27 39.5s1.189-2.5 2.643-2.5h31.714C62.811 37 64 38.125 64 39.5S62.81 42 61.357 42z"/>
        <path stroke="#073C66" stroke-width="3" d="M68.39 45.74H48.303l-1.213 1.93a.696.696 0 0 1-1.184.001l-1.222-1.932H24.611c-3.086 0-5.611-2.38-5.611-5.29V16.29c0-2.909 2.525-5.29 5.61-5.29h43.78c3.085 0 5.61 2.381 5.61 5.29v24.16c0 2.909-2.525 5.29-5.61 5.29z"/>
        <path stroke="#073C66" stroke-linecap="round" stroke-linejoin="round" stroke-width="3" d="M36 88c2.408-2.099 3.187-8 3.187-8h13.626s.779 5.901 3.187 8H36zM31 88h31"/>
        <path fill="#BFE7FF" d="M50.346 65h-5.692c-.91 0-1.654-.73-1.654-1.623v-3.754c0-.893.744-1.623 1.654-1.623h5.692c.91 0 1.654.73 1.654 1.623v3.754C52 64.27 51.256 65 50.346 65"/>
        <path stroke="#073C66" d="M49.366 64h-5.732C42.735 64 42 63.278 42 62.397v-3.794c0-.882.735-1.603 1.634-1.603h5.732c.899 0 1.634.721 1.634 1.603v3.794c0 .881-.735 1.603-1.634 1.603z"/>
        <path stroke="#073C66" stroke-linecap="round" stroke-linejoin="round" d="M44 54.541v.027C44 53.155 45.125 52 46.5 52s2.5 1.155 2.5 2.568V57M49 59v2M49 62.5v.5"/>
        <path stroke="#073C66" stroke-linecap="round" stroke-linejoin="round" stroke-width=".25" d="M41 55h1M41.788 53.788l.424.424M41.788 56.212l.424-.424"/>
    </g>
</svg>
