<svg xmlns="http://www.w3.org/2000/svg" xmlns:xlink="http://www.w3.org/1999/xlink" width="96" height="96" viewBox="0 0 96 96">
    <defs>
        <path id="a" d="M.57.514h11.41v10.46H.57z"/>
        <path id="c" d="M.093.52h10.774v10.23H.093z"/>
        <path id="e" d="M0 .456h10.775v10.229H0z"/>
    </defs>
    <g fill="none" fill-rule="evenodd">
        <path stroke="#459DD7" stroke-linecap="round" stroke-linejoin="round" stroke-width="2" d="M20 24A2 2 0 1 1 16 24 2 2 0 0 1 20 24z"/>
        <g transform="translate(24 12)">
            <mask id="b" fill="#fff">
                <use xlink:href="#a"/>
            </mask>
            <path fill="#459DD7" d="M11.98 5.744c0 2.888-2.553 5.23-5.705 5.23-3.15 0-5.704-2.342-5.704-5.23 0-2.889 2.554-5.23 5.704-5.23 3.152 0 5.706 2.341 5.706 5.23" mask="url(#b)"/>
        </g>
        <path fill="#D3F5FF" d="M40 37c0 5.523-4.477 10-10 10-5.522 0-10-4.477-10-10s4.478-10 10-10c5.523 0 10 4.477 10 10"/>
        <path fill="#BFE7FF" d="M34.882 70.305l.746 3.623c.03.144.141.259.285.293l3.795.913c.401.097.385.671-.023.745l-3.75.677a.381.381 0 0 0-.308.303l-.742 3.832c-.078.404-.655.415-.75.015l-.908-3.863a.38.38 0 0 0-.301-.286l-3.615-.68c-.402-.078-.42-.643-.024-.744l3.651-.933a.384.384 0 0 0 .276-.275l.921-3.637c.1-.393.665-.38.747.017"/>
        <g transform="translate(81 33)">
            <mask id="d" fill="#fff">
                <use xlink:href="#c"/>
            </mask>
            <path fill="#BFE7FF" d="M4.853.804l.732 3.369c.03.134.138.24.28.273l3.716.849a.35.35 0 0 1-.021.692l-3.674.63a.363.363 0 0 0-.301.282l-.728 3.564c-.077.374-.64.385-.733.013l-.89-3.592a.368.368 0 0 0-.296-.267l-3.54-.633a.35.35 0 0 1-.024-.69l3.576-.867a.365.365 0 0 0 .27-.257L4.123.789c.097-.366.65-.354.73.015" mask="url(#d)"/>
        </g>
        <g transform="translate(4 47)">
            <mask id="f" fill="#fff">
                <use xlink:href="#e"/>
            </mask>
            <path fill="#BFE7FF" d="M5.761.739l.731 3.37c.03.133.139.24.28.272l3.717.85a.35.35 0 0 1-.022.691l-3.674.63a.365.365 0 0 0-.301.282l-.728 3.564c-.076.375-.64.386-.733.014L4.14 6.82a.365.365 0 0 0-.296-.267L.305 5.92a.35.35 0 0 1-.024-.691l3.577-.867a.366.366 0 0 0 .27-.257L5.03.725c.098-.366.651-.355.731.014" mask="url(#f)"/>
        </g>
        <path stroke="#CECECE" stroke-dasharray="19.994,2.999,3.999,14.995" stroke-linecap="round" stroke-linejoin="round" stroke-width="2" d="M83 62.5C83 74.374 73.374 84 61.5 84S40 74.374 40 62.5 49.626 41 61.5 41 83 50.626 83 62.5z"/>
        <path stroke="#CECECE" stroke-dasharray="5.877,3.918,4.898,14.693" stroke-linecap="round" stroke-linejoin="round" stroke-width="1.4" d="M77 62c0 8.284-6.716 15-15 15-8.285 0-15-6.716-15-15 0-8.285 6.715-15 15-15 8.284 0 15 6.715 15 15z"/>
        <path fill="#BFE7FF" d="M70 33.5C70 43.165 61.941 51 52 51s-18-7.835-18-17.5S42.059 16 52 16s18 7.835 18 17.5"/>
        <path stroke="#073C66" stroke-linecap="round" stroke-linejoin="round" stroke-width="4" d="M73.707 30.372c1.777 9.507-4.71 18.615-14.489 20.343-9.78 1.728-19.147-4.578-20.925-14.086-1.777-9.508 4.71-18.616 14.489-20.344 9.779-1.728 19.148 4.579 20.925 14.087zM37 52l6-6"/>
        <path fill="#23A4FF" d="M7.013 77.987a3.485 3.485 0 0 1 0-4.914l21.06-21.06a3.485 3.485 0 0 1 4.914 0 3.485 3.485 0 0 1 0 4.914l-21.06 21.06a3.486 3.486 0 0 1-4.914 0"/>
        <path stroke="#073C66" stroke-linecap="round" stroke-linejoin="round" stroke-width="4" d="M11.013 77.987a3.485 3.485 0 0 1 0-4.914l21.06-21.06a3.484 3.484 0 0 1 4.914 0 3.484 3.484 0 0 1 0 4.914l-21.06 21.06a3.485 3.485 0 0 1-4.914 0z"/>
        <path d="M0 0h96v96H0z"/>
    </g>
</svg>
