<svg xmlns="http://www.w3.org/2000/svg" xmlns:xlink="http://www.w3.org/1999/xlink" width="96" height="96" viewBox="0 0 96 96">
    <defs>
        <path id="a" d="M.302.148H7.44v7.173H.302z"/>
    </defs>
    <g fill="none" fill-rule="evenodd">
        <path d="M0 0h96v96H0z"/>
        <g stroke="#CECECE" stroke-linecap="round" stroke-linejoin="round">
            <path stroke-dasharray="19.994,2.999,3.999,14.995" stroke-width="2" d="M86.584 18.572c0 7.872-6.381 14.253-14.253 14.253s-14.253-6.381-14.253-14.253S64.459 4.319 72.33 4.319 86.584 10.7 86.584 18.572z"/>
            <path stroke-dasharray="5.877,3.918,4.898,14.693" stroke-width="1.4" d="M82.306 18.572c0 5.51-4.466 9.976-9.975 9.976-5.51 0-9.975-4.467-9.975-9.976 0-5.51 4.466-9.976 9.975-9.976 5.51 0 9.975 4.467 9.975 9.976z"/>
        </g>
        <path fill="#23A4FF" d="M73 40H53V28h20l-3.786 6z"/>
        <g transform="translate(45.571 1)">
            <mask id="b" fill="#fff">
                <use xlink:href="#a"/>
            </mask>
            <path fill="#BFE7FF" d="M4.118.346l.485 2.363c.019.094.09.169.185.192l2.461.595c.261.063.25.438-.014.486L4.8 4.423a.248.248 0 0 0-.199.198L4.12 7.12c-.05.263-.424.27-.486.01l-.59-2.519a.248.248 0 0 0-.195-.187L.504 3.98C.244 3.93.232 3.56.49 3.495l2.368-.608a.249.249 0 0 0 .18-.18L3.633.336c.065-.257.431-.248.484.01" mask="url(#b)"/>
        </g>
        <path fill="#BFE7FF" d="M22.971 4.933l.485 2.363c.019.094.091.169.184.191l2.462.596c.26.063.25.438-.014.485l-2.433.442a.248.248 0 0 0-.2.197l-.482 2.5c-.05.262-.425.27-.485.01l-.59-2.52a.248.248 0 0 0-.196-.187l-2.345-.444c-.26-.05-.272-.419-.016-.485l2.37-.607a.25.25 0 0 0 .178-.18l.598-2.371c.064-.257.43-.249.484.01M65.928 42.882l.484 2.363c.02.094.092.169.186.191l2.461.596c.26.063.25.437-.014.485l-2.433.442a.248.248 0 0 0-.2.197l-.482 2.5c-.05.262-.424.27-.486.01l-.59-2.52a.248.248 0 0 0-.195-.187l-2.345-.444c-.26-.05-.272-.419-.015-.485l2.368-.607a.25.25 0 0 0 .18-.18l.597-2.372c.065-.256.431-.248.484.011M13.816 37.336l.484 2.362c.02.095.092.17.185.192l2.462.595c.26.063.25.438-.014.486l-2.434.442a.247.247 0 0 0-.199.197l-.482 2.5c-.05.262-.424.27-.486.009l-.59-2.519a.248.248 0 0 0-.195-.187l-2.345-.444c-.26-.05-.272-.42-.015-.485l2.368-.608a.249.249 0 0 0 .179-.18l.598-2.371c.064-.256.431-.248.484.01"/>
        <path fill="#073C66" d="M37.027 22.265a4.41 4.41 0 0 0 4.406-4.406 4.41 4.41 0 0 0-4.406-4.406 4.41 4.41 0 0 0-4.406 4.406 4.41 4.41 0 0 0 4.406 4.406"/>
        <path fill="#073C66" d="M50.82 19.611a1.705 1.705 0 0 0-2.352-.377l-8.65 6.098h-5.936l-8.65-6.099a1.705 1.705 0 1 0-1.957 2.793l8.757 6.106L32 38.426l-3.886 12.118a2.15 2.15 0 0 0 4.094 1.32l3.77-11.64h.873v.001h.873l3.77 11.639a2.152 2.152 0 0 0 4.095-1.32l-3.886-12.117-.034-10.294 8.758-6.106c.79-.55.968-1.644.394-2.416"/>
        <path stroke="#073C66" stroke-linecap="round" stroke-linejoin="round" stroke-width="3" d="M54.484 66.518H27.94c-3.363 0-6.115-2.752-6.115-6.115 0-3.363 2.752-6.115 6.115-6.115h26.544M27.94 66.518h34.8c3.363 0 6.115 2.751 6.115 6.115 0 3.363-2.752 6.114-6.115 6.114H19.683M19.683 90.976c-3.363 0-6.115-2.751-6.115-6.114s2.752-6.115 6.115-6.115H62.74M67.516 76.437V91M50.83 25.548v28.241M69.83 37.159h-19V25.548h19l-3.596 5.806z"/>
    </g>
</svg>
