<svg xmlns="http://www.w3.org/2000/svg" width="96" height="96" viewBox="0 0 96 96">
    <g fill="none" fill-rule="evenodd">
        <path d="M0 0h96v96H0z"/>
        <path stroke="#CECECE" stroke-dasharray="19.994,2.999,3.999,14.995" stroke-linecap="round" stroke-linejoin="round" stroke-width="2" d="M42.514 29.718c0 8.401-6.934 15.211-15.488 15.211-8.553 0-15.488-6.81-15.488-15.21 0-8.401 6.935-15.212 15.488-15.212 8.554 0 15.488 6.81 15.488 15.211z"/>
        <path stroke="#CECECE" stroke-dasharray="5.877,3.918,4.898,14.693" stroke-linecap="round" stroke-linejoin="round" stroke-width="1.4" d="M37.866 29.718c0 5.88-4.853 10.646-10.84 10.646-5.986 0-10.84-4.766-10.84-10.646 0-5.879 4.854-10.646 10.84-10.646 5.987 0 10.84 4.767 10.84 10.646z"/>
        <path stroke="#459DD7" stroke-linecap="round" stroke-linejoin="round" stroke-width="2" d="M13.865 44.965a1.42 1.42 0 0 1-1.432 1.406c-.792 0-1.433-.63-1.433-1.406a1.42 1.42 0 0 1 1.433-1.407c.79 0 1.432.63 1.432 1.407z"/>
        <path fill="#459DD7" d="M86.135 38.372c0 2.152-1.776 3.895-3.966 3.895-2.19 0-3.966-1.743-3.966-3.895 0-2.15 1.776-3.895 3.966-3.895 2.19 0 3.966 1.744 3.966 3.895"/>
        <path fill="#D3F5FF" d="M86.566 52.204c0 4.019-3.316 7.276-7.407 7.276s-7.408-3.257-7.408-7.276c0-4.018 3.317-7.275 7.408-7.275 4.09 0 7.407 3.257 7.407 7.275"/>
        <path stroke="#459DD7" stroke-linecap="round" stroke-linejoin="round" stroke-width="2" d="M68.725 24.689a1.42 1.42 0 0 1-1.432 1.407 1.42 1.42 0 0 1-1.433-1.407c0-.777.641-1.407 1.433-1.407.79 0 1.432.63 1.432 1.407z"/>
        <path fill="#BFE7FF" d="M61.318 24.843l.383 1.835a.194.194 0 0 0 .146.15l1.947.462c.206.049.198.34-.011.377l-1.925.343a.194.194 0 0 0-.158.153l-.381 1.942c-.04.203-.336.21-.384.007l-.466-1.956a.195.195 0 0 0-.155-.146l-1.854-.345c-.206-.038-.216-.325-.013-.376l1.873-.473a.194.194 0 0 0 .142-.139l.473-1.842c.05-.2.34-.192.383.008M50.234 28.608H34.136l-4.94-13.226s6.042 1.758 8.125 1.874c5.822.324 4.929-1.645 10.437-3.021 3.295-.824 7.416 1.147 7.416 1.147l-4.94 13.226z"/>
        <path fill="#23A4FF" d="M52.585 38.372H32.741c-1.687 0-3.067-1.356-3.067-3.012V31.68c0-1.656 1.38-3.012 3.067-3.012h19.844c1.687 0 3.068 1.356 3.068 3.012v3.679c0 1.656-1.381 3.012-3.068 3.012"/>
        <path fill="#BFE7FF" d="M83.475 61.506v-3.498s-4.262-2.216-11.724-2.216c-7.63 0-11.724 2.216-11.724 2.216v3.498M83.475 76.447s-4.262 2.216-11.724 2.216c-7.63 0-11.724-2.216-11.724-2.216v-5.991s4.175 2.182 11.724 2.215c7.396.033 11.724-2.215 11.724-2.215v5.99z"/>
        <path fill="#BFE7FF" d="M83.475 70.497s-4.262 2.215-11.724 2.215c-7.63 0-11.724-2.215-11.724-2.215v-5.992s4.175 2.182 11.724 2.216c7.396.033 11.724-2.216 11.724-2.216v5.992z"/>
        <path fill="#BFE7FF" d="M83.475 64.42s-4.262 2.216-11.724 2.216c-7.63 0-11.724-2.215-11.724-2.215v-5.992s4.175 2.183 11.724 2.216c7.396.033 11.724-2.216 11.724-2.216v5.992z"/>
        <path stroke="#073C66" stroke-linecap="round" stroke-linejoin="round" stroke-width="3" d="M80.707 58.726v-1.888s-4.261-2.216-11.724-2.216c-7.63 0-11.724 2.216-11.724 2.216v1.888M80.707 76.743s-4.261 2.216-11.724 2.216c-7.63 0-11.724-2.216-11.724-2.216v-5.991s4.176 2.182 11.724 2.216c7.396.032 11.724-2.216 11.724-2.216v5.991z"/>
        <path stroke="#073C66" stroke-linecap="round" stroke-linejoin="round" stroke-width="3" d="M80.707 70.793s-4.261 2.215-11.724 2.215c-7.63 0-11.724-2.215-11.724-2.215v-5.991s4.176 2.182 11.724 2.215c7.396.033 11.724-2.215 11.724-2.215v5.99z"/>
        <path stroke="#073C66" stroke-linecap="round" stroke-linejoin="round" stroke-width="3" d="M80.707 64.717s-4.261 2.215-11.724 2.215c-7.63 0-11.724-2.215-11.724-2.215v-5.991s4.176 2.182 11.724 2.215c7.396.034 11.724-2.215 11.724-2.215v5.99z"/>
        <path stroke="#073C66" stroke-linecap="round" stroke-linejoin="round" stroke-width="3" d="M65.86 62.546c0 13.969-3.13 20.793-25.754 20.793-21.88 0-25.754-6.824-25.754-20.793 0-10.067 5.973-20.676 14.642-26.054h22.041c8.707 5.362 14.825 15.96 14.825 26.054z"/>
        <path fill="#BFE7FF" d="M76.229 67.666v-3.498s-4.262-2.216-11.724-2.216c-7.63 0-11.724 2.216-11.724 2.216v3.498M76.229 82.607s-4.262 2.216-11.724 2.216c-7.63 0-11.724-2.216-11.724-2.216v-5.991s4.176 2.182 11.724 2.216c7.396.033 11.724-2.216 11.724-2.216v5.991z"/>
        <path fill="#BFE7FF" d="M76.229 76.657s-4.262 2.215-11.724 2.215c-7.63 0-11.724-2.215-11.724-2.215v-5.991s4.176 2.182 11.724 2.215c7.396.033 11.724-2.215 11.724-2.215v5.99z"/>
        <path fill="#BFE7FF" d="M76.229 70.58s-4.262 2.217-11.724 2.217c-7.63 0-11.724-2.216-11.724-2.216v-5.99s4.176 2.181 11.724 2.215c7.396.033 11.724-2.216 11.724-2.216v5.99z"/>
        <text fill="#23A4FF" font-family="Open-Sans, sans-serif" font-size="15" font-weight="bold" transform="translate(11 13)">
            <tspan x="20" y="55">Rp</tspan>
        </text>
        <g stroke="#073C66" stroke-linecap="round" stroke-linejoin="round" stroke-width="3">
            <path d="M47.173 27.628H31.007l-4.96-13.242s6.067 1.76 8.16 1.876c5.846.324 4.95-1.647 10.48-3.025 3.31-.825 7.447 1.149 7.447 1.149l-4.96 13.242zM49.054 37.343H29.127c-1.694 0-3.08-1.357-3.08-3.016v-3.683c0-1.659 1.386-3.016 3.08-3.016h19.927c1.694 0 3.08 1.357 3.08 3.016v3.683c0 1.659-1.386 3.016-3.08 3.016zM72.681 64.742v-1.89s-4.28-2.219-11.773-2.219c-7.661 0-11.772 2.22-11.772 2.22v1.89M72.681 82.781s-4.28 2.22-11.773 2.22c-7.661 0-11.772-2.22-11.772-2.22v-5.998s4.192 2.185 11.772 2.218c7.427.034 11.773-2.218 11.773-2.218v5.998z"/>
            <path d="M72.681 76.824s-4.28 2.218-11.773 2.218c-7.661 0-11.772-2.218-11.772-2.218v-5.999s4.192 2.185 11.772 2.219c7.427.033 11.773-2.219 11.773-2.219v5.999z"/>
            <path d="M72.681 70.74s-4.28 2.219-11.773 2.219c-7.661 0-11.772-2.218-11.772-2.218v-5.999s4.192 2.185 11.772 2.219c7.427.032 11.773-2.219 11.773-2.219v5.999zM57.47 38.287h11.942M63.441 44.134V32.44"/>
        </g>
    </g>
</svg>
