<?xml version="1.0" encoding="UTF-8"?>
<svg width="64px" height="64px" viewBox="0 0 64 64" version="1.1" xmlns="http://www.w3.org/2000/svg" xmlns:xlink="http://www.w3.org/1999/xlink">
    <title>brand/content-icon/64/product/informasi-saham-harga-dan-kinerja</title>
    <g id="brand/content-icon/64/product/informasi-saham-harga-dan-kinerja" stroke="none" stroke-width="1" fill="none" fill-rule="evenodd">
        <path d="M22.7180027,8.25708279 C26.911659,3.23031568 34.3815172,2.55893155 39.4023979,6.75750436 C39.8687502,7.14747853 40.3044392,7.57280074 40.705607,8.0297048 L40.705607,8.0297048 L46.6081078,14.7522698 C48.1497337,16.5080815 49,18.7658376 49,21.1035846 L49,21.1035846 L49,50.3800394 C49,55.6929969 44.6980404,60 39.3913043,60 L39.3913043,60 L24.6086957,60 C19.3019596,60 15,55.6929969 15,50.3800394 L15,50.3800394 L15,20.9973759 C15,18.7431937 15.7906734,16.5605939 17.2340226,14.8305093 L17.2340226,14.8305093 Z M36.190458,9.87561917 C33.0619714,7.57489539 28.6443506,8.07952673 26.121698,11.1033289 L26.121698,11.1033289 L20.6377178,17.6767554 C19.8605298,18.6083394 19.4347826,19.7835855 19.4347826,20.9973759 L19.4347826,20.9973759 L19.4347826,50.3800394 C19.4347826,53.2408627 21.7512224,55.5600182 24.6086957,55.5600182 L24.6086957,55.5600182 L39.3913043,55.5600182 C42.2487776,55.5600182 44.5652174,53.2408627 44.5652174,50.3800394 L44.5652174,50.3800394 L44.5652174,21.1035846 C44.5652174,19.8447978 44.1073817,18.6290829 43.2772754,17.6836459 L43.2772754,17.6836459 L37.3747746,10.9610809 C37.1238033,10.6752409 36.8512355,10.4091586 36.5594848,10.16519 L36.5594848,10.16519 Z M32,13.6268564 C35.9460345,13.6268564 39.1449275,16.8294997 39.1449275,20.7801604 C39.1449275,24.7308212 35.9460345,27.9334645 32,27.9334645 C28.0539655,27.9334645 24.8550725,24.7308212 24.8550725,20.7801604 C24.8550725,16.8294997 28.0539655,13.6268564 32,13.6268564 Z M32,18.0668382 C30.5032283,18.0668382 29.2898551,19.281634 29.2898551,20.7801604 C29.2898551,22.2786869 30.5032283,23.4934827 32,23.4934827 C33.4967717,23.4934827 34.7101449,22.2786869 34.7101449,20.7801604 C34.7101449,19.281634 33.4967717,18.0668382 32,18.0668382 Z" id="Combined-Shape" fill="#0066AE" transform="translate(32.000000, 32.000000) rotate(40.000000) translate(-32.000000, -32.000000) "></path>
    </g>
</svg>