<?xml version="1.0" encoding="UTF-8"?>
<svg width="64px" height="64px" viewBox="0 0 64 64" version="1.1" xmlns="http://www.w3.org/2000/svg" xmlns:xlink="http://www.w3.org/1999/xlink">
    <title>brand/content-icon/64/product/informasi-saham-kepemilikan-saham</title>
    <g id="brand/content-icon/64/product/informasi-saham-kepemilikan-saham" stroke="none" stroke-width="1" fill="none" fill-rule="evenodd">
        <path d="M41.3157895,8 C43.8215258,8 45.8660053,9.98983683 45.977654,12.4867884 L45.9824561,12.7020202 L45.9824561,22.6010101 C45.9824561,25.1257293 44.0075805,27.1856972 41.5294029,27.2981918 L41.3157895,27.3030303 L34.012,27.303 L34.012,30.272 L45.5087719,30.2727273 C47.9633708,30.2727273 49.9753475,32.182175 50.1613983,34.6072874 L50.1754386,34.9747475 L50.175,37.696 L55.3333333,37.6969697 C57.8390697,37.6969697 59.8835491,39.6868065 59.9951979,42.1837581 L60,42.3989899 L60,52.2979798 C60,54.822699 58.0251243,56.8826669 55.5469468,56.9951615 L55.3333333,57 L38.1403509,57 C35.6346145,57 33.5901351,55.0101632 33.4784863,52.5132116 L33.4736842,52.2979798 L33.4736842,42.3989899 C33.4736842,39.8742707 35.4485599,37.8143028 37.9267374,37.7018082 L38.1403509,37.6969697 L45.754,37.696 L45.754386,34.9747475 C45.754386,34.8722401 45.6925306,34.7842892 45.604376,34.7467205 L45.5087719,34.7272727 L18.4912281,34.7272727 C18.3894914,34.7272727 18.3022018,34.7895967 18.2649156,34.8784191 L18.245614,34.9747475 L18.245,37.696 L25.8596491,37.6969697 C28.3653855,37.6969697 30.4098649,39.6868065 30.5215137,42.1837581 L30.5263158,42.3989899 L30.5263158,52.2979798 C30.5263158,54.822699 28.5514401,56.8826669 26.0732626,56.9951615 L25.8596491,57 L8.66666667,57 C6.1609303,57 4.11645086,55.0101632 4.00480211,52.5132116 L4,52.2979798 L4,42.3989899 C4,39.8742707 5.97487565,37.8143028 8.4530532,37.7018082 L8.66666667,37.6969697 L13.824,37.696 L13.8245614,34.9747475 C13.8245614,32.5015531 15.7196524,30.4743342 18.1265308,30.2868739 L18.4912281,30.2727273 L29.591,30.272 L29.591,27.303 L21.6666667,27.3030303 C19.1609303,27.3030303 17.1164509,25.3131935 17.0048021,22.8162419 L17,22.6010101 L17,12.7020202 C17,10.177301 18.9748757,8.11733306 21.4530532,8.00483849 L21.6666667,8 L41.3157895,8 Z M25.8596491,42.1515152 L8.66666667,42.1515152 C8.55039619,42.1515152 8.4529954,42.2329179 8.42753947,42.3422462 L8.42105263,42.3989899 L8.42105263,52.2979798 C8.42105263,52.4151311 8.50184335,52.5132698 8.61034962,52.5389186 L8.66666667,52.5454545 L25.8596491,52.5454545 C25.9759196,52.5454545 26.0733204,52.4640518 26.0987763,52.3547235 L26.1052632,52.2979798 L26.1052632,42.3989899 C26.1052632,42.2818386 26.0244724,42.1836999 25.9159662,42.1580511 L25.8596491,42.1515152 Z M55.3333333,42.1515152 L38.1403509,42.1515152 C38.0240804,42.1515152 37.9266796,42.2329179 37.9012237,42.3422462 L37.8947368,42.3989899 L37.8947368,52.2979798 C37.8947368,52.4151311 37.9755276,52.5132698 38.0840338,52.5389186 L38.1403509,52.5454545 L55.3333333,52.5454545 C55.4496038,52.5454545 55.5470046,52.4640518 55.5724605,52.3547235 L55.5789474,52.2979798 L55.5789474,42.3989899 C55.5789474,42.2818386 55.4981566,42.1836999 55.3896504,42.1580511 L55.3333333,42.1515152 Z M41.3157895,12.4545455 L21.6666667,12.4545455 C21.5503962,12.4545455 21.4529954,12.5359482 21.4275395,12.6452765 L21.4210526,12.7020202 L21.4210526,22.6010101 C21.4210526,22.7181614 21.5018434,22.8163001 21.6103496,22.8419489 L21.6666667,22.8484848 L41.3157895,22.8484848 C41.4320599,22.8484848 41.5294607,22.7670821 41.5549167,22.6577538 L41.5614035,22.6010101 L41.5614035,12.7020202 C41.5614035,12.5848689 41.4806128,12.4867302 41.3721065,12.4610814 L41.3157895,12.4545455 Z" id="Shape" fill="#0066AE"></path>
    </g>
</svg>