<?xml version="1.0" encoding="UTF-8"?>
<svg width="64px" height="64px" viewBox="0 0 64 64" version="1.1" xmlns="http://www.w3.org/2000/svg" xmlns:xlink="http://www.w3.org/1999/xlink">
    <title>brand/content-icon/64/product/investasi-reksadana</title>
    <g id="brand/content-icon/64/product/investasi-reksadana" stroke="none" stroke-width="1" fill="none" fill-rule="evenodd">
        <path d="M32.589876,4 C40.7914457,4 47.4401316,10.5837162 47.4401316,18.7051418 C47.4401316,26.0635891 41.9820044,32.1596797 34.8560562,33.2401455 L34.8546251,42.6349429 C36.1351929,40.4951086 37.9587899,38.6706964 40.2124907,37.3695216 C44.3082238,35.004849 49.1894372,34.7347631 53.4410004,36.5228144 L54.9999983,37.1784716 L54.7884781,38.856451 C54.2118897,43.4305004 51.5365507,47.5238104 47.4404417,49.8887 C43.5498917,52.1349102 38.9505901,52.4911409 34.8554637,50.9886337 L34.8551692,57.7568428 C34.8551692,58.9957043 33.8409629,60 32.589876,60 C31.4350265,60 30.4820161,59.1442688 30.3422326,58.0382197 L30.3245827,57.7568428 L30.3244619,45.9365038 C26.1845273,47.5163937 21.5071917,47.1830735 17.5595583,44.9039062 C13.4634493,42.5390166 10.7881103,38.4457066 10.2115219,33.8716572 L10.2115219,33.8716572 L10.0000017,32.1936778 L11.5589996,31.5380206 C15.8105628,29.7499693 20.6917762,30.0200552 24.7875093,32.3847278 C27.1492298,33.7482678 29.0386288,35.6864048 30.3257526,37.9599865 L30.3246973,33.2402974 C23.198259,32.160251 17.7396203,26.0639339 17.7396203,18.7051418 C17.7396203,10.5837162 24.3883062,4 32.589876,4 Z M42.4556479,41.2547839 L41.9633016,41.5572818 C40.03587,42.8155415 38.616406,44.6446868 37.8677797,46.7448036 L37.7377332,47.1415645 L38.1492221,47.2310638 C40.5256948,47.6665801 43.0190058,47.2610676 45.1972845,46.0034378 L45.6896308,45.7009399 C47.6170624,44.4426802 49.0365264,42.6135349 49.7851526,40.5134181 L49.9152273,40.1137629 L49.5037102,40.0271578 C47.1272376,39.5916415 44.6339266,39.9971541 42.4556479,41.2547839 Z M22.5443521,36.2699901 C20.3660734,35.0123603 17.8727624,34.6068477 15.4962898,35.042364 L15.4962898,35.042364 L15.0847727,35.1289691 L15.2148474,35.5286243 C15.9634736,37.6287411 17.3829376,39.4578864 19.3103692,40.716146 L19.3103692,40.716146 L19.8027155,41.018644 C21.9809942,42.2762738 24.4743052,42.6817863 26.8507779,42.24627 L26.8507779,42.24627 L27.2622668,42.1567707 L27.1322203,41.7600098 C26.383594,39.659893 24.96413,37.8307477 23.0366984,36.572488 L23.0366984,36.572488 Z M32.589876,8.48631443 C26.89048,8.48631443 22.2702068,13.0614393 22.2702068,18.7051418 C22.2702068,24.3488442 26.89048,28.9239691 32.589876,28.9239691 C38.2892719,28.9239691 42.9095451,24.3488442 42.9095451,18.7051418 C42.9095451,13.0614393 38.2892719,8.48631443 32.589876,8.48631443 Z" id="Combined-Shape" fill="#0066AE"></path>
    </g>
</svg>