<?xml version="1.0" encoding="UTF-8"?>
<svg width="64px" height="64px" viewBox="0 0 64 64" version="1.1" xmlns="http://www.w3.org/2000/svg" xmlns:xlink="http://www.w3.org/1999/xlink">
    <title>brand/content-icon/64/product/korporasi-manajemen</title>
    <defs>
        <path d="M33.9189531,33.1908911 C38.2986962,33.1908911 42.1963823,35.7243376 44.6934467,39.6629699 C45.5432484,39.3493365 46.4468039,39.1818335 47.3823529,39.1818335 L50.6176471,39.1818335 C55.7996022,39.1818335 60,44.3208132 60,50.6601268 C60,51.5350028 59.4206038,52.2442299 58.7058824,52.2442299 L45.9193086,52.2452089 C45.8421136,52.2570552 45.7634663,52.2631579 45.683659,52.2631579 L17.4483649,52.2631579 C17.3685576,52.2631579 17.2899103,52.2570552 17.2127153,52.2452089 L5.29411765,52.2442299 C4.57939621,52.2442299 4,51.5350028 4,50.6601268 C4,44.3208132 8.20039783,39.1818335 13.3823529,39.1818335 L16.6176471,39.1818335 C17.2931519,39.1818335 17.9519772,39.2691601 18.5869926,39.4350886 C21.086709,35.6272123 24.9181018,33.1908911 29.2130708,33.1908911 L33.9189531,33.1908911 Z M50.0053379,42.598331 L47.273612,42.598331 C46.9897355,42.598331 46.7106807,42.6259906 46.437862,42.6794101 C46.9812052,44.5978366 47.3415458,46.6637938 47.485631,48.8280893 L55.637862,48.8278691 L55.5786266,48.4639185 C54.9663051,45.0973378 52.7036377,42.598331 50.0053379,42.598331 Z M16.72,42.598331 L14.1979745,42.5998257 C11.2815226,42.5998257 8.85273937,45.2798773 8.32,48.8278691 L15.6017166,48.8280893 C15.7543117,46.632208 16.1393329,44.5375804 16.72,42.598331 Z M33.8239517,36.6982262 L29.2960483,36.6982262 C24.6638174,36.6982262 20.8061555,41.800374 19.96,48.5548629 L43.16,48.5548629 L43.0618158,47.8621583 C42.0468778,41.4545685 38.2964505,36.6982262 33.8239517,36.6982262 Z M49,22.521086 C52.8659932,22.521086 56,25.6701352 56,29.5546841 C56,33.4392331 52.8659932,36.5882822 49,36.5882822 C45.1340068,36.5882822 42,33.4392331 42,29.5546841 C42,25.6701352 45.1340068,22.521086 49,22.521086 Z M14,22.521086 C17.8659932,22.521086 21,25.6701352 21,29.5546841 C21,33.4392331 17.8659932,36.5882822 14,36.5882822 C10.1340068,36.5882822 7,33.4392331 7,29.5546841 C7,25.6701352 10.1340068,22.521086 14,22.521086 Z M49,26.138365 C47.1222319,26.138365 45.6,27.6679032 45.6,29.5546841 C45.6,31.441465 47.1222319,32.9710032 49,32.9710032 C50.8777681,32.9710032 52.4,31.441465 52.4,29.5546841 C52.4,27.6679032 50.8777681,26.138365 49,26.138365 Z M14,26.138365 C12.1222319,26.138365 10.6,27.6679032 10.6,29.5546841 C10.6,31.441465 12.1222319,32.9710032 14,32.9710032 C15.8777681,32.9710032 17.4,31.441465 17.4,29.5546841 C17.4,27.6679032 15.8777681,26.138365 14,26.138365 Z M31.566012,11 C37.089243,11 41.566012,15.4982562 41.566012,21.0479972 C41.566012,26.5977383 37.089243,31.0959945 31.566012,31.0959945 C26.0427809,31.0959945 21.566012,26.5977383 21.566012,21.0479972 C21.566012,15.4982562 26.0427809,11 31.566012,11 Z M31.566012,15.0191989 C28.251906,15.0191989 25.566012,17.7179845 25.566012,21.0479972 C25.566012,24.37801 28.251906,27.0767956 31.566012,27.0767956 C34.880118,27.0767956 37.566012,24.37801 37.566012,21.0479972 C37.566012,17.7179845 34.880118,15.0191989 31.566012,15.0191989 Z" id="path-1"></path>
    </defs>
    <g id="brand/content-icon/64/product/korporasi-manajemen" stroke="none" stroke-width="1" fill="none" fill-rule="evenodd">
        <mask id="mask-2" fill="white">
            <use xlink:href="#path-1"></use>
        </mask>
        <use id="Mask" fill="#0066AE" xlink:href="#path-1"></use>
    </g>
</svg>