<?xml version="1.0" encoding="UTF-8"?>
<svg width="64px" height="64px" viewBox="0 0 64 64" version="1.1" xmlns="http://www.w3.org/2000/svg" xmlns:xlink="http://www.w3.org/1999/xlink">
    <title>brand/content-icon/64/product/korporasi-prestasi</title>
    <defs>
        <path d="M29.8430363,39.0367444 C30.619711,37.9722954 32.1571717,37.9057673 33.0289446,38.8371602 L33.1940007,39.0367444 L36.3241481,43.3268148 L41.8769335,44.6944436 C43.2254476,45.0262886 43.8298232,46.527339 43.21779,47.6763053 L43.0886637,47.8872391 L42.930336,48.0876924 L39.4228148,52.0275556 L39.6852857,57.0345785 C39.7537272,58.3370229 38.6336906,59.3348568 37.4083536,59.2086011 L37.1776333,59.1715551 L36.9460318,59.1069629 L33.5226309,57.9422532 C32.3675197,57.5492612 31.1257127,57.5055954 29.9513357,57.8112559 L29.5144062,57.9422532 L26.0910052,59.1069629 C24.7790967,59.5533006 23.4332116,58.6150071 23.3525816,57.2750171 L23.3517514,57.0345785 L23.6121481,52.0275556 L20.1067011,48.0876924 C19.1831865,47.0505174 19.5351144,45.4710969 20.6902146,44.8707207 L20.9160928,44.7699948 L21.1601035,44.6944436 L26.7108148,43.3268148 L29.8430363,39.0367444 Z M31.5185185,43.7768889 L29.6170032,46.3841242 C29.3867245,46.6997259 29.0732632,46.9422254 28.7142964,47.0863481 L28.4371277,47.1755997 L25.4912593,47.8980741 L27.2798241,49.9058191 C27.5219705,50.1777675 27.6860859,50.5060758 27.7600985,50.8563443 L27.798525,51.1226256 L27.8020313,51.393917 L27.6545185,54.1928889 L28.1783312,54.0151631 C29.9831925,53.401113 31.9150496,53.2987714 33.7622428,53.708138 L34.3136492,53.8462993 L34.8587058,54.0151631 L35.3804444,54.1928889 L35.2350057,51.393917 C35.2158976,51.0302885 35.2929281,50.67142 35.4540256,50.3517117 L35.5904226,50.1198104 L35.757213,49.9058191 L37.5437037,47.8980741 L34.5999094,47.1755997 C34.2964175,47.1009158 34.0160209,46.9592271 33.7780102,46.7634738 L33.6077509,46.6067239 L33.4200338,46.3841242 L31.5185185,43.7768889 Z M39.8148148,5 C43.1285233,5 45.8372226,7.59035252 46.0264744,10.8566194 L46.037037,11.2222222 L46.037037,31.962963 C46.037037,35.2766715 43.4466845,37.9853707 40.1804176,38.1746226 L39.8148148,38.1851852 L23.2222222,38.1851852 C19.9085137,38.1851852 17.1998145,35.5948327 17.0105626,32.3285658 L17,31.962963 L17,11.2222222 C17,7.90851372 19.5903525,5.19981447 22.8566194,5.01056262 L23.2222222,5 L39.8148148,5 Z M25.2962963,9.14814815 L23.2222222,9.14814815 C22.1585627,9.14814815 21.2819111,9.9488241 21.162102,10.9803414 L21.1481481,11.2222222 L21.1481481,31.962963 C21.1481481,33.0266225 21.9488241,33.9032741 22.9803414,34.0230832 L23.2222222,34.037037 L25.2962963,34.037037 L25.2962963,9.14814815 Z M39.8148148,9.14814815 L37.7386667,9.14814815 L37.7386667,34.037037 L39.8148148,34.037037 C40.8784743,34.037037 41.755126,33.2363611 41.8749351,32.2048438 L41.8888889,31.962963 L41.8888889,11.2222222 C41.8888889,10.1585627 41.0882129,9.28191107 40.0566957,9.16210196 L39.8148148,9.14814815 Z M33.5905185,9.14814815 L29.4444444,9.14814815 L29.4444444,34.037037 L33.5905185,34.037037 L33.5905185,9.14814815 Z" id="path-1"></path>
    </defs>
    <g id="brand/content-icon/64/product/korporasi-prestasi" stroke="none" stroke-width="1" fill="none" fill-rule="evenodd">
        <mask id="mask-2" fill="white">
            <use xlink:href="#path-1"></use>
        </mask>
        <use id="Mask" fill="#0066AE" xlink:href="#path-1"></use>
    </g>
</svg>