<?xml version="1.0" encoding="UTF-8"?>
<svg width="64px" height="64px" viewBox="0 0 64 64" version="1.1" xmlns="http://www.w3.org/2000/svg" xmlns:xlink="http://www.w3.org/1999/xlink">
    <title>brand/content-icon/64/product/kredit-usaha-kredit-usaha-rakyat</title>
    <g id="brand/content-icon/64/product/kredit-usaha-kredit-usaha-rakyat" stroke="none" stroke-width="1" fill="none" fill-rule="evenodd">
        <path d="M18.6422018,59 C13.2821263,59 8.90521174,54.7609281 8.63688902,49.4302373 L8.62385321,48.9110619 L8.62171676,37.0784642 C6.02409487,35.6798062 4.21063487,32.9973296 4.01715667,29.8727434 L4,29.3169278 L4,25.351499 L4.02750532,25.0753867 L4.08220183,24.8131224 L9.22656849,6.68860623 C9.48178629,5.78904996 10.2421139,5.14092393 11.1441227,5.02029429 L11.4495413,5 L52.5504587,5 C53.4794656,5 54.307172,5.5581704 54.6701497,6.39844507 L54.7734315,6.68860623 L59.9482906,24.9446085 C59.9777037,25.0824396 59.9945142,25.2177677 60,25.351499 L60,29.3169278 C60,32.4645291 58.3581778,35.2259603 55.8899129,36.7800969 L55.8899083,48.9110619 C55.8899083,54.3089046 51.680496,58.716659 46.3871025,58.9868723 L45.8715596,59 L18.6422018,59 Z M44.8444644,35.278585 L44.5978501,35.5362746 C43.0173169,37.1279442 40.8338307,38.1124124 38.4220183,38.1124124 C35.8825969,38.1124124 33.5963023,37.0210117 32.0004277,35.278585 C30.4036977,37.0210117 28.1174031,38.1124124 25.5779817,38.1124124 C23.0385602,38.1124124 20.7522656,37.0210117 19.156391,35.278585 C17.6678454,36.9028925 15.5801696,37.9614484 13.2467614,38.097503 L13.2477064,48.9110619 C13.2477064,51.7809042 15.4574527,54.1309962 18.256949,54.3299269 L18.6422018,54.343567 L20,54.343 L20.0018532,51.0889381 L20.014889,50.5697627 C20.2832117,45.2390719 24.6601263,41 30.0202018,41 L30.0202018,41 L34.8027565,41 L35.3182993,41.0131277 C40.6116928,41.283341 44.8211051,45.6910954 44.8211051,51.0889381 L44.8211051,51.0889381 L44.821,54.343 L45.8715596,54.343567 C48.7213225,54.343567 51.0549715,52.1182508 51.2525104,49.2990292 L51.266055,48.9110619 L51.2634757,38.112412 C48.7250855,38.1116732 46.4397986,37.0204217 44.8444644,35.278585 Z M34.8027565,45.656433 L30.0202018,45.656433 L29.634949,45.6700731 C26.8354527,45.8690038 24.6257064,48.2190958 24.6257064,51.0889381 L24.6257064,51.0889381 L24.624,54.343 L40.196,54.343 L40.1972519,51.0889381 L40.1837072,50.7009708 C39.9861683,47.8817492 37.6525193,45.656433 34.8027565,45.656433 L34.8027565,45.656433 Z M16.8440367,27.7647835 L8.6212844,27.7647835 L8.62385321,29.3169278 C8.62385321,31.3488701 10.0777995,33.0388323 11.9951508,33.3892937 L12.3598428,33.4390644 L12.733945,33.4559794 C14.8777781,33.4559794 16.638249,31.8030452 16.8272401,29.6936659 L16.8440367,29.3169278 L16.8440367,27.7647835 Z M29.6880734,27.7647835 L21.4678899,27.7647835 L21.4678899,29.3169278 C21.4678899,31.3488701 22.9218362,33.0388323 24.8391875,33.3892937 L25.2038795,33.4390644 L25.5779817,33.4559794 C27.7218148,33.4559794 29.4822857,31.8030452 29.6712768,29.6936659 L29.6880734,29.3169278 L29.6880734,27.7647835 Z M42.5321101,27.7647835 L34.3119266,27.7647835 L34.3119266,29.3169278 C34.3119266,31.3488701 35.7658729,33.0388323 37.6832242,33.3892937 L38.0479162,33.4390644 L38.4220183,33.4559794 C40.5658515,33.4559794 42.3263224,31.8030452 42.5153135,29.6936659 L42.5321101,29.3169278 L42.5321101,27.7647835 Z M55.3761468,27.7647835 L47.1533945,27.7647835 L47.1559633,29.3169278 C47.1559633,31.3488701 48.6099096,33.0388323 50.5272609,33.3892937 L50.8919529,33.4390644 L51.266055,33.4559794 C53.4098882,33.4559794 55.1703591,31.8030452 55.3593502,29.6936659 L55.3761468,29.3169278 L55.3761468,27.7647835 Z M19.3280734,9.65643299 L13.1911927,9.65643299 L9.37651376,23.1083505 L16.9904587,23.1083505 L19.3280734,9.65643299 Z M39.5317431,9.65643299 L34.3119266,9.65643299 L34.3119266,23.1083505 L41.8693578,23.1083505 L39.5317431,9.65643299 Z M50.8062385,9.65643299 L44.1555963,9.65643299 L46.493211,23.1083505 L54.6209174,23.1083505 L50.8062385,9.65643299 Z M29.6880734,9.65643299 L23.9519266,9.65643299 L21.6143119,23.1083505 L29.6880734,23.1083505 L29.6880734,9.65643299 Z" id="Combined-Shape" fill="#0066AE"></path>
    </g>
</svg>