<?xml version="1.0" encoding="UTF-8"?>
<svg width="64px" height="64px" viewBox="0 0 64 64" version="1.1" xmlns="http://www.w3.org/2000/svg" xmlns:xlink="http://www.w3.org/1999/xlink">
    <title>brand/content-icon/64/product/remittance-inward</title>
    <g id="brand/content-icon/64/product/remittance-inward" stroke="none" stroke-width="1" fill="none" fill-rule="evenodd">
        <path d="M9.70758845,10.5086643 L26.9306422,4.23341279 C28.8373719,3.53869232 30.9365116,4.44652832 31.7557394,6.26964591 L31.8639061,6.53624348 L33.8236002,11.9280015 L45.672905,11.9292668 C47.7986281,11.9292668 49.5218671,13.6543126 49.5218671,15.7822645 L49.5233721,19.2712612 C52.4668012,19.3654085 54.8449971,21.7006481 55.0111139,24.6284074 L55.0203844,24.9560685 L55.0210062,31.7499501 C56.7951644,32.7122147 58,34.5923581 58,36.754201 L58,44.0932442 C58,46.2550872 56.7951644,48.1352306 55.0210062,49.0974952 L55.0203844,54.3122415 C55.0203844,57.3451844 52.6489671,59.8236724 49.6610016,59.9909962 L49.3385832,60 L12.6818012,60 C9.65203499,60 7.17614296,57.6260963 7.00899436,54.634998 L7,54.3122415 L7,24.9560685 C7,23.1171777 7.87174896,21.4821081 9.22411797,20.442399 L7.40716973,15.4471007 C6.7131769,13.5383719 7.62006204,11.4370312 9.44127012,10.6169444 L9.70758845,10.5086643 L26.9306422,4.23341279 L9.70758845,10.5086643 Z M49.3385832,23.3047838 L12.6818012,23.3047838 C11.8408558,23.3047838 11.1468868,23.9347245 11.0450984,24.7489349 L11.032246,24.9560685 L11.032246,54.3122415 C11.032246,55.1540686 11.6615269,55.8487652 12.4748845,55.9506604 L12.6818012,55.9635262 L49.3385832,55.9635262 C50.1795286,55.9635262 50.8734976,55.3335856 50.975286,54.5193751 L50.9881384,54.3122415 L50.9881384,49.7809517 L44.9868424,49.7810028 C39.8243721,49.7810028 35.639363,45.5916057 35.639363,40.4237226 C35.639363,35.2558395 39.8243721,31.0664425 44.9868424,31.0664425 L50.9881384,31.0663915 L50.9881384,24.9560685 C50.9881384,24.1142414 50.3588575,23.4195448 49.5454999,23.3176497 L49.3385832,23.3047838 Z M52.3181988,35.1029163 L44.9868424,35.1029163 C42.0513201,35.1029163 39.671609,37.4851224 39.671609,40.4237226 C39.671609,43.3623228 42.0513201,45.744529 44.9868424,45.744529 L52.3181988,45.744529 C53.229223,45.744529 53.967754,45.0052236 53.967754,44.0932442 L53.967754,36.754201 C53.967754,35.8422216 53.229223,35.1029163 52.3181988,35.1029163 Z M45.1701263,38.5889618 C46.2836003,38.5889618 47.1862493,39.4925573 47.1862493,40.6071987 C47.1862493,41.7218402 46.2836003,42.6254356 45.1701263,42.6254356 C44.0566523,42.6254356 43.1540033,41.7218402 43.1540033,40.6071987 C43.1540033,39.4925573 44.0566523,38.5889618 45.1701263,38.5889618 Z M45.1701263,40.4237226 C45.0689014,40.4237226 44.9868424,40.5058677 44.9868424,40.6071987 C44.9868424,40.7085297 45.0689014,40.7906748 45.1701263,40.7906748 C45.2713512,40.7906748 45.3534102,40.7085297 45.3534102,40.6071987 C45.3534102,40.5058677 45.2713512,40.4237226 45.1701263,40.4237226 Z M28.137521,8.08920994 L11.2589283,14.2389565 L13.0868586,19.2670447 L23.4955519,19.2670447 L23.4955519,15.7822645 C23.4955519,13.6543126 25.2187909,11.9292668 27.344514,11.9292668 L29.5329239,11.9280015 L28.137521,8.08920994 Z M45.4896211,15.9657406 L27.5277979,15.9657406 L27.5277979,19.26831 L45.4896211,19.26831 L45.4896211,15.9657406 Z" id="Shape" fill="#0066AE"></path>
    </g>
</svg>