<?xml version="1.0" encoding="UTF-8"?>
<svg width="65px" height="64px" viewBox="0 0 65 64" version="1.1" xmlns="http://www.w3.org/2000/svg" xmlns:xlink="http://www.w3.org/1999/xlink">
    <title>brand/content-icon/64/product/reward-bca-daftar-merchant</title>
    <g id="brand/content-icon/64/product/reward-bca-daftar-merchant" stroke="none" stroke-width="1" fill="none" fill-rule="evenodd">
        <path d="M13.5178231,43.5714286 C17.7122856,43.5714286 21.1125692,47.0252319 21.1125692,51.2857143 C21.1125692,55.5461966 17.7122856,59 13.5178231,59 C9.3233606,59 5.92307692,55.5461966 5.92307692,51.2857143 C5.92307692,47.0252319 9.3233606,43.5714286 13.5178231,43.5714286 Z M58.2135087,48.3928571 C59.7864321,48.3928571 61.0615385,49.6880334 61.0615385,51.2857143 C61.0615385,52.7604966 59.9750573,53.9775236 58.5707595,54.156032 L58.2135087,54.1785714 L26.98079,54.1785714 C25.4078666,54.1785714 24.1327602,52.8833952 24.1327602,51.2857143 C24.1327602,49.8109319 25.2192414,48.593905 26.6235392,48.4153966 L26.98079,48.3928571 L58.2135087,48.3928571 Z M13.5178231,49.3571429 C12.4692075,49.3571429 11.6191365,50.2205937 11.6191365,51.2857143 C11.6191365,52.3508349 12.4692075,53.2142857 13.5178231,53.2142857 C14.5664387,53.2142857 15.4165096,52.3508349 15.4165096,51.2857143 C15.4165096,50.2205937 14.5664387,49.3571429 13.5178231,49.3571429 Z M13.5178231,24.2857143 C17.7122856,24.2857143 21.1125692,27.7395176 21.1125692,32 C21.1125692,36.2604824 17.7122856,39.7142857 13.5178231,39.7142857 C9.3233606,39.7142857 5.92307692,36.2604824 5.92307692,32 C5.92307692,27.7395176 9.3233606,24.2857143 13.5178231,24.2857143 Z M58.2135087,29.1071429 C59.7864321,29.1071429 61.0615385,30.4023191 61.0615385,32 C61.0615385,33.4747824 59.9750573,34.6918093 58.5707595,34.8703177 L58.2135087,34.8928571 L26.98079,34.8928571 C25.4078666,34.8928571 24.1327602,33.5976809 24.1327602,32 C24.1327602,30.5252176 25.2192414,29.3081907 26.6235392,29.1296823 L26.98079,29.1071429 L58.2135087,29.1071429 Z M13.5178231,30.0714286 C12.4692075,30.0714286 11.6191365,30.9348794 11.6191365,32 C11.6191365,33.0651206 12.4692075,33.9285714 13.5178231,33.9285714 C14.5664387,33.9285714 15.4165096,33.0651206 15.4165096,32 C15.4165096,30.9348794 14.5664387,30.0714286 13.5178231,30.0714286 Z M13.5178231,5 C17.7122856,5 21.1125692,8.45380336 21.1125692,12.7142857 C21.1125692,16.9747681 17.7122856,20.4285714 13.5178231,20.4285714 C9.3233606,20.4285714 5.92307692,16.9747681 5.92307692,12.7142857 C5.92307692,8.45380336 9.3233606,5 13.5178231,5 Z M58.2135087,9.82142857 C59.7864321,9.82142857 61.0615385,11.1166048 61.0615385,12.7142857 C61.0615385,14.1890681 59.9750573,15.406095 58.5707595,15.5846034 L58.2135087,15.6071429 L26.98079,15.6071429 C25.4078666,15.6071429 24.1327602,14.3119666 24.1327602,12.7142857 C24.1327602,11.2395034 25.2192414,10.0224764 26.6235392,9.84396804 L26.98079,9.82142857 L58.2135087,9.82142857 Z M13.5178231,10.7857143 C12.4692075,10.7857143 11.6191365,11.6491651 11.6191365,12.7142857 C11.6191365,13.7794063 12.4692075,14.6428571 13.5178231,14.6428571 C14.5664387,14.6428571 15.4165096,13.7794063 15.4165096,12.7142857 C15.4165096,11.6491651 14.5664387,10.7857143 13.5178231,10.7857143 Z" id="Shape" fill="#0066AE"></path>
    </g>
</svg>