<?xml version="1.0" encoding="UTF-8"?>
<svg width="64px" height="64px" viewBox="0 0 64 64" version="1.1" xmlns="http://www.w3.org/2000/svg" xmlns:xlink="http://www.w3.org/1999/xlink">
    <title>brand/content-icon/64/product/smartcash-kartu-smartcash</title>
    <g id="brand/content-icon/64/product/smartcash-kartu-smartcash" stroke="none" stroke-width="1" fill="none" fill-rule="evenodd">
        <path d="M52.5504587,13 C56.6647268,13 60,16.3336636 60,20.4459459 L60,20.4459459 L60,43.5540541 C60,47.6663364 56.6647268,51 52.5504587,51 L52.5504587,51 L11.4495413,51 C7.33527324,51 4,47.6663364 4,43.5540541 L4,43.5540541 L4,20.4459459 C4,16.3336636 7.33527324,13 11.4495413,13 L11.4495413,13 Z M55.376,40.729 L8.623,40.729 L8.62385321,43.5540541 C8.62385321,45.0561138 9.79698087,46.2843071 11.2774082,46.3732239 L11.4495413,46.3783784 L52.5504587,46.3783784 C54.1110431,46.3783784 55.3761468,45.1138853 55.3761468,43.5540541 L55.3761468,43.5540541 L55.376,40.729 Z M52.5504587,17.6216216 L11.4495413,17.6216216 C9.88895685,17.6216216 8.62385321,18.8861147 8.62385321,20.4459459 L8.62385321,20.4459459 L8.623,36.108 L55.376,36.108 L55.3761468,20.4459459 C55.3761468,18.9438862 54.2030191,17.7156929 52.7225918,17.6267761 L52.5504587,17.6216216 Z" id="Combined-Shape" fill="#0066AE"></path>
    </g>
</svg>