<?xml version="1.0" encoding="UTF-8"?>
<svg width="64px" height="64px" viewBox="0 0 64 64" version="1.1" xmlns="http://www.w3.org/2000/svg" xmlns:xlink="http://www.w3.org/1999/xlink">
    <title>brand/content-icon/64/product/tahaka</title>
    <g id="brand/content-icon/64/product/tahaka" stroke="none" stroke-width="1" fill="none" fill-rule="evenodd">
        <path d="M51.0543081,4 C55.8157222,4 59.7309878,7.7570577 59.9867151,12.4575017 L60,12.9470044 L60,51.0529956 C60,55.8151551 56.2434482,59.7309515 51.5437345,59.9867133 L51.0543081,60 L12.9456919,60 C8.18427777,60 4.26901219,56.2429423 4.01328495,51.5424983 L4,51.0529956 L4,12.9470044 C4,8.18484489 7.75655177,4.26904854 12.4562655,4.01328674 L12.9456919,4 L51.0543081,4 Z M51.0543081,8.63907174 L12.9456919,8.63907174 C10.7068027,8.63907174 8.84491407,10.383359 8.6551277,12.5773902 L8.63920114,12.9470044 L8.63920114,51.0529956 C8.63920114,53.2930029 10.3832535,55.1551852 12.5762565,55.3449994 L12.9456919,55.3609283 L51.0543081,55.3609283 C53.2931973,55.3609283 55.1550859,53.616641 55.3448723,51.4226098 L55.3607989,51.0529956 L55.3585339,42.4630592 L52.6284289,42.463684 C52.539237,42.463684 52.4498069,42.4605153 52.3605833,42.4540392 L52.3609383,47.5410523 C52.3609383,50.0714791 50.399674,52.1539478 47.9181419,52.3465402 L47.5421902,52.3610748 L16.4578098,52.3610748 C13.9278535,52.3610748 11.846115,50.3991026 11.653591,47.9170764 L11.6390617,47.5410523 L11.6390617,16.4575389 C11.6390617,13.9280535 13.6007073,11.8460109 16.0819126,11.6534569 L16.4578098,11.6389252 L47.5421902,11.6389252 C50.0717462,11.6389252 52.1538469,13.6005162 52.3464062,16.0816522 L52.3609383,16.4575389 L52.3605833,22.0504794 L52.494518,22.0432284 L52.494518,22.0432284 L55.3585339,22.0408345 L55.3607989,12.9470044 C55.3607989,10.7069971 53.6167465,8.84481476 51.4237435,8.65500057 L51.0543081,8.63907174 Z M47.5421902,16.277997 L16.4578098,16.277997 C16.3874045,16.277997 16.321612,16.3261868 16.293116,16.3898836 L16.2782628,16.4575389 L16.2782628,47.5410523 C16.2782628,47.6124997 16.3264447,47.6785608 16.3901456,47.7071259 L16.4578098,47.722003 L47.5421902,47.722003 C47.612608,47.722003 47.6783943,47.6738038 47.7068863,47.609515 L47.7217372,47.5410523 L47.7217372,16.4575389 C47.7217372,16.3871356 47.673546,16.3213449 47.6098474,16.2928498 L47.5421902,16.277997 Z M31.9994161,21.6909517 C37.6930787,21.6909517 42.3093359,26.3064731 42.3093359,32 C42.3093359,37.6935269 37.6930787,42.3090483 31.9994161,42.3090483 C26.3059032,42.3090483 21.6906641,37.6936766 21.6906641,32 C21.6906641,26.3063234 26.3059032,21.6909517 31.9994161,21.6909517 Z M32.0788082,26.1267032 C28.8050896,26.1267032 26.1514461,28.7804993 26.1514461,32.054406 C26.1514461,35.3283127 28.8050896,37.9821088 32.0788082,37.9821088 C35.3527831,37.9821088 38.0071823,35.3280564 38.0071823,32.054406 C38.0071823,28.7807556 35.3527831,26.1267032 32.0788082,26.1267032 Z M55.3585339,29.2571684 L52.6284289,29.2571684 L52.3605833,29.2475235 L52.3605833,29.2475235 L52.3605833,35.2569951 L52.6284289,35.2473502 L55.3585339,35.2467254 L55.3585339,29.2571684 Z M31.9993372,29.1642307 C30.4342014,29.1642307 29.1649326,30.4336895 29.1649326,31.9998818 C29.1649326,33.5648613 30.4343141,34.8342073 31.9993372,34.8342073 C33.5655732,34.8342073 34.8350674,33.564974 34.8350674,31.9998818 C34.8350674,30.4335768 33.5656859,29.1642307 31.9993372,29.1642307 Z" id="Shape" fill="#0066AE"></path>
    </g>
</svg>