<?xml version="1.0" encoding="UTF-8"?>
<svg width="32px" height="32px" viewBox="0 0 32 32" version="1.1" xmlns="http://www.w3.org/2000/svg" xmlns:xlink="http://www.w3.org/1999/xlink">
    <title>brand/content-icon/32/benefit/easy</title>
    <g id="brand/content-icon/32/benefit/easy" stroke="none" stroke-width="1" fill="none" fill-rule="evenodd">
        <path d="M15.0057663,5.88458318 C18.3870384,5.88458318 21.1269494,8.64397588 21.1269494,12.0464806 C21.1269494,14.345745 19.859828,16.4359538 17.860846,17.4982398 L17.6357523,17.6119999 L17.488,17.678 L17.488,17.971 L17.5439318,17.9631992 L17.6876637,17.9506895 L17.8292469,17.946577 C18.2302789,17.946577 18.615834,18.0436744 18.9637703,18.2278115 L19.1345011,18.3270868 L19.229,18.392 L19.3583609,18.3052929 C19.5304891,18.1994234 19.7150451,18.1154626 19.9091532,18.0553527 L20.1063388,18.0032649 L20.3092533,17.9675093 L20.4874171,17.9506893 L20.6289935,17.946577 C21.4171331,17.946577 22.1363878,18.3238708 22.5969853,18.9486248 L22.6985991,19.0971325 L22.762,19.206 L22.8450332,19.1835705 L22.9690651,19.156515 L23.0973446,19.1354944 L23.2869516,19.1171292 L23.428528,19.113017 C24.6839709,19.113017 25.719449,20.0690489 25.8693556,21.3090486 L25.8838318,21.4723429 L25.8877576,21.6131214 L25.8877576,28.4100607 C25.8877576,29.2335918 25.5319251,29.6698103 24.8103842,29.9390947 C24.6828222,29.9867017 24.5620632,30.0173657 24.4128768,30.0424272 L24.1670831,30.0750508 L23.8593801,30.1002187 L23.5627448,30.1161205 L23.0264228,30.1340363 L22.3825817,30.1452025 L21.7830069,30.1494697 L21.0404746,30.1491912 L20.0710822,30.142011 L19.0344453,30.1276247 L19.0344453,30.1276247 L18.4975538,30.117814 L17.303005,30.0906244 L15.9636623,30.0511238 L14.7258915,30.0046295 L13.5580766,29.9481232 L12.9432229,29.91014 L12.5914536,29.8839317 L12.1855809,29.846519 L11.9939862,29.8241231 L11.7537256,29.7877857 C11.631745,29.7658646 11.5309781,29.7416791 11.4295405,29.7088334 C11.0112796,29.5733994 10.7711842,29.4180318 10.5653139,29.0951645 L10.4894358,28.9659495 L10.4270338,28.8425247 L8.39671687,24.545426 C7.84678916,23.3517366 8.27581543,21.9176809 9.39383027,21.2413748 C10.3900084,20.6388244 11.6440829,20.815141 12.4407253,21.5957764 L12.569,21.732 L12.569,17.699 L12.4370886,17.6417626 C10.4394149,16.7127281 9.08214616,14.7628432 8.90443809,12.5437406 L8.8895743,12.2961039 L8.88458318,12.0464806 C8.88458318,8.64397588 11.6244942,5.88458318 15.0057663,5.88458318 Z M15.0297125,11.752308 C14.703115,11.752308 14.4220947,11.9900827 14.344717,12.3111445 L14.3277711,12.4098071 L14.3229328,12.4997403 L14.3229328,25.5551596 C14.3229328,25.875936 14.118109,26.1591564 13.8189639,26.2470831 C13.5813244,26.3169318 13.3332526,26.1732632 13.1374435,25.9298703 L13.0665874,25.8341457 L11.3474076,23.0233456 C11.1296885,22.6489462 10.660322,22.5234091 10.3008185,22.7408591 C10.0089928,22.9173894 9.86123235,23.2749999 9.92361256,23.6100746 L9.95227958,23.7206521 L9.98776511,23.8108351 L12.0115211,28.093872 C12.0949821,28.2705704 23.4567712,28.5296188 24.123458,28.3545733 L24.135,28.349 L24.1353076,21.6131214 C24.1353076,21.2339869 23.8673917,20.9216949 23.5239283,20.8722791 L23.428528,20.8654669 C23.1019743,20.8654669 22.8209227,21.1033603 22.7435348,21.4245004 L22.7265866,21.5231852 L22.7217482,21.6131214 L22.7217482,23.5519307 C22.7217482,23.9475987 22.4131967,24.2710449 22.0287607,24.2710449 C21.7141679,24.2710449 21.4464612,24.0531673 21.3620057,23.7447529 L21.340828,23.6387696 L21.3355611,23.5519307 L21.3355611,20.4466815 C21.3355611,20.0330271 21.0168787,19.699027 20.6289935,19.699027 C20.3024398,19.699027 20.0213883,19.9369203 19.9440004,20.2580604 L19.9270521,20.3567452 L19.9222138,20.4466815 L19.9222138,23.513501 C19.9222138,23.9091438 19.6134716,24.2326153 19.2290142,24.2326153 C18.9145633,24.2326153 18.6469096,24.0147084 18.5624678,23.7063143 L18.5412933,23.6003397 L18.5360266,23.513501 L18.5360266,20.4466815 C18.5360266,20.0330802 18.2171846,19.699027 17.8292469,19.699027 C17.5027339,19.699027 17.2218091,19.9368809 17.1444559,20.2580466 L17.1275151,20.3567411 L17.1226793,20.4466815 L17.1226793,23.3064696 C17.1226793,23.7020872 16.8139586,24.0253617 16.4294797,24.0253617 C16.1148833,24.0253617 15.8473173,23.8076291 15.7629171,23.4992665 L15.7417543,23.3932966 L15.7364922,23.3064696 L15.7364922,12.4997403 C15.7364922,12.0861922 15.4177025,11.752308 15.0297125,11.752308 Z M15.0057663,1.85 C20.6111611,1.85 25.1615326,6.20306531 25.1615326,11.5821754 C25.1615326,13.5280631 24.5631805,15.4039529 23.4401523,17.0051504 C23.1622756,17.401343 22.6158344,17.497257 22.2196417,17.2193803 C21.8234491,16.9415036 21.7275351,16.3950624 22.0054118,15.9988698 C22.9223162,14.6915606 23.4090826,13.1666297 23.4090826,11.5821754 C23.4090826,7.17946886 19.6504204,3.60244995 15.0057663,3.60244995 C10.3611122,3.60244995 6.60244995,7.17946886 6.60244995,11.5821754 C6.60244995,14.7333312 8.55020395,17.5787366 11.5671451,18.8654966 C12.0122743,19.0553493 12.2192168,19.5701039 12.0293641,20.0152331 C11.8395114,20.4603623 11.3247568,20.6673048 10.8796276,20.4774521 C7.22123892,18.9171073 4.85,15.4415417 4.85,11.5821754 C4.85,6.20306531 9.4003715,1.85 15.0057663,1.85 Z M15.0057663,7.63703313 C12.5936691,7.63703313 10.6370331,9.61054341 10.6370331,12.0464806 C10.6370331,13.4658051 11.3106857,14.7756822 12.413222,15.5970324 L12.569,15.707 L12.5704828,12.4997403 C12.5704828,11.2909425 13.4229446,10.2601163 14.5795631,10.0417832 L14.7391176,10.0171062 L14.8881446,10.0039692 L15.0297125,9.99985803 C16.2851574,9.99985803 17.3206329,10.9557209 17.4705398,12.1956681 L17.485016,12.3589562 L17.4889421,12.4997623 L17.488,15.674 L17.63716,15.5675973 C18.6602784,14.7884955 19.3005037,13.5883173 19.3684821,12.2786681 L19.3744995,12.0464806 C19.3744995,9.61054341 17.4178635,7.63703313 15.0057663,7.63703313 Z" id="Shape" fill="#0066AE" fill-rule="nonzero"></path>
    </g>
</svg>