<?xml version="1.0" standalone="no"?>
<!DOCTYPE svg PUBLIC "-//W3C//DTD SVG 20010904//EN"
 "http://www.w3.org/TR/2001/REC-SVG-20010904/DTD/svg10.dtd">
<svg version="1.0" xmlns="http://www.w3.org/2000/svg"
 width="1000.000000pt" height="1000.000000pt" viewBox="0 0 1000.000000 1000.000000"
 preserveAspectRatio="xMidYMid meet">

<g transform="translate(0.000000,1000.000000) scale(0.100000,-0.100000)"
fill="#000000" stroke="none">
<path d="M5321 7902 c-19 -9 -39 -25 -45 -34 -15 -24 17 -117 52 -153 16 -17
58 -68 95 -115 37 -47 82 -103 101 -125 18 -22 45 -62 61 -90 16 -27 35 -59
44 -70 16 -19 16 -19 -9 -2 -67 47 -135 71 -215 74 -44 2 -90 6 -102 9 -38 7
-92 62 -99 100 -7 39 -19 51 -28 28 -11 -27 13 -91 45 -124 55 -55 111 -76
274 -105 50 -9 109 -23 131 -31 42 -15 51 -28 83 -119 10 -27 11 -26 6 17 -2
25 -14 61 -25 80 -11 18 -29 51 -40 73 -11 22 -27 49 -35 59 -18 23 -20 40 -3
30 7 -5 8 -3 4 5 -5 7 -10 10 -13 8 -8 -8 -73 69 -73 86 0 9 -6 20 -12 24 -7
4 -13 14 -14 21 -1 6 -2 21 -2 32 -2 14 -7 18 -19 14 -16 -5 -16 -4 0 6 17 11
17 13 -6 43 -13 18 -27 41 -31 52 -5 13 -10 15 -13 8 -3 -7 -11 -13 -19 -13
-9 0 -12 -5 -8 -11 10 -17 -28 6 -47 28 -9 10 -19 30 -23 46 -3 15 -13 27 -22
27 -11 0 -13 6 -9 21 5 15 4 19 -4 15 -16 -10 -14 6 5 32 11 16 12 22 2 22 -8
0 -7 5 4 16 12 12 34 17 80 16 48 0 56 2 33 8 -49 12 -68 11 -104 -8z"/>
<path d="M5511 7848 c51 -54 63 -76 29 -58 -16 8 -18 8 -14 -4 3 -8 14 -13 25
-11 16 3 17 1 9 -16 -9 -15 -7 -19 5 -19 10 0 13 -5 9 -11 -4 -7 -8 -27 -10
-45 -2 -26 3 -38 22 -53 15 -12 20 -22 14 -26 -6 -3 -8 -11 -5 -16 4 -5 1 -9
-5 -9 -7 0 -9 -7 -6 -17 4 -10 -2 -25 -16 -40 -17 -18 -18 -22 -6 -18 13 5 19
0 23 -18 4 -14 13 -28 21 -31 12 -5 14 2 11 34 -2 22 0 40 4 40 4 0 10 -17 12
-37 l4 -38 1 42 c3 58 -34 235 -58 282 -19 38 -95 121 -111 121 -4 0 14 -23
42 -52z m93 -190 c5 -22 3 -26 -9 -22 -15 6 -20 35 -8 47 8 9 9 8 17 -25z"/>
<path d="M5380 7710 c0 -13 18 -22 24 -11 3 5 -1 11 -9 15 -8 3 -15 1 -15 -4z"/>
<path d="M5527 7693 c-4 -3 -7 -11 -7 -17 0 -6 5 -5 12 2 6 6 9 14 7 17 -3 3
-9 2 -12 -2z"/>
<path d="M6055 7673 c-16 -2 -40 -6 -51 -8 -23 -5 -106 -74 -89 -75 5 0 23 13
40 29 35 34 101 57 76 27 -8 -9 -20 -15 -27 -12 -8 3 -11 0 -7 -10 4 -10 9
-12 18 -4 10 8 14 4 19 -16 4 -15 3 -31 -3 -37 -7 -7 -7 -16 0 -29 10 -19 11
-19 23 -2 21 27 31 -2 11 -32 -9 -14 -14 -28 -11 -32 3 -3 6 0 6 6 0 7 7 12
15 12 8 0 15 8 16 18 0 10 3 12 6 5 2 -7 9 -13 14 -13 6 0 5 8 -1 20 -8 16 -8
18 4 14 17 -7 29 -44 12 -41 -6 1 -11 -8 -10 -20 0 -12 -3 -20 -7 -17 -4 2
-10 0 -13 -5 -9 -14 20 -21 34 -8 7 7 5 -3 -4 -20 -16 -32 -11 -44 11 -22 8 8
13 8 18 0 3 -6 -1 -13 -9 -16 -48 -15 -52 -18 -34 -22 22 -6 70 26 62 41 -4 6
1 4 11 -6 18 -17 12 -44 -7 -32 -6 4 -8 3 -5 -3 3 -5 -3 -24 -14 -42 -32 -53
-4 -26 36 35 48 72 59 112 45 166 -27 104 -98 162 -185 151z m24 -45 c10 -18
11 -20 0 -10 -7 6 -21 12 -32 12 -10 0 -15 5 -12 10 10 17 29 11 44 -12z m-9
-27 c0 -6 -4 -13 -10 -16 -5 -3 -10 1 -10 9 0 9 5 16 10 16 6 0 10 -4 10 -9z"/>
<path d="M5527 7563 c-4 -3 -7 -13 -7 -22 0 -11 3 -11 16 5 13 16 15 16 10 2
-7 -22 10 -24 18 -2 3 9 6 18 6 20 0 7 -36 5 -43 -3z"/>
<path d="M5854 7537 c-55 -62 -115 -164 -120 -203 -4 -38 -4 -38 9 6 13 45 77
149 126 203 14 15 22 27 19 27 -3 0 -19 -15 -34 -33z"/>
<path d="M5490 7475 c13 -14 26 -25 28 -25 3 0 -5 11 -18 25 -13 14 -26 25
-28 25 -3 0 5 -11 18 -25z"/>
<path d="M6125 7270 c-4 -6 -10 -8 -15 -5 -4 3 -14 -3 -21 -13 -12 -15 -12
-16 2 -5 9 7 18 11 21 8 3 -3 11 1 18 10 7 8 10 15 7 15 -3 0 -9 -5 -12 -10z"/>
<path d="M6161 7254 c-20 -16 -54 -73 -92 -151 -34 -68 -94 -174 -135 -235
-41 -61 -74 -116 -74 -122 0 -6 -3 -6 -9 0 -5 5 -17 47 -26 94 -19 96 -42 160
-57 160 -6 0 -8 -8 -5 -17 43 -142 54 -194 63 -307 l6 -80 -34 27 c-18 15 -62
45 -98 67 -36 22 -76 49 -89 59 l-25 19 28 24 28 24 -26 17 c-14 10 -26 15
-26 11 0 -4 -9 5 -21 20 -11 14 -25 26 -31 26 -6 0 -5 -7 3 -17 12 -15 12 -16
-4 -10 -15 6 -16 4 -6 -16 12 -21 11 -21 -8 -4 -24 21 -40 23 -23 3 10 -13 8
-13 -14 -3 -15 7 -24 18 -21 25 3 7 0 10 -6 7 -5 -4 -20 4 -33 18 -18 19 -30
24 -58 21 -27 -3 -47 4 -94 35 -32 21 -99 64 -149 96 -49 32 -93 63 -96 68 -4
6 -9 5 -13 -1 -3 -5 15 -22 39 -38 25 -15 43 -30 40 -32 -2 -2 -31 -4 -65 -4
-41 0 -60 -4 -57 -12 5 -14 104 -11 122 4 10 9 20 7 40 -6 33 -22 20 -31 -54
-39 -36 -3 -51 -1 -51 8 -1 7 -6 5 -14 -5 -7 -10 -18 -18 -25 -18 -6 0 -11 -4
-11 -10 0 -5 6 -10 13 -10 9 0 8 -3 -2 -9 -8 -5 -9 -11 -3 -15 5 -3 12 1 16 9
3 8 10 15 15 15 6 0 7 -8 4 -17 -5 -13 -2 -15 11 -10 10 4 15 3 11 -3 -3 -6
-15 -10 -26 -10 -10 0 -19 -4 -19 -10 0 -5 11 -10 23 -10 14 0 24 -6 24 -15 0
-8 -7 -15 -14 -15 -8 0 -11 -4 -8 -10 3 -5 14 -10 24 -10 10 0 26 -9 36 -20
10 -11 23 -16 29 -13 19 12 46 13 46 2 0 -6 -8 -9 -17 -7 -10 1 -23 -1 -29 -5
-7 -4 -25 3 -40 15 l-29 21 27 -28 c22 -23 35 -29 63 -27 27 2 35 -1 35 -14 0
-10 -5 -14 -15 -10 -60 23 63 -63 160 -112 51 -25 165 -63 174 -57 4 2 29 7
55 10 27 4 79 17 116 30 65 22 69 22 84 6 15 -17 14 -19 -23 -29 -21 -7 -45
-12 -53 -12 -8 0 -23 -6 -34 -14 -16 -12 -9 -12 41 1 95 24 112 26 120 14 9
-16 -61 -44 -112 -45 -24 0 -43 -4 -43 -8 0 -14 64 -8 124 12 33 11 61 19 62
17 2 -1 8 -43 14 -92 13 -101 6 -173 -20 -225 -10 -19 -23 -53 -30 -76 -11
-37 -10 -45 15 -93 14 -29 24 -56 21 -59 -4 -3 1 -16 9 -29 9 -14 11 -23 5
-23 -6 0 -8 -5 -5 -10 4 -6 11 -8 16 -5 5 4 9 1 9 -4 0 -29 -59 16 -60 45 0 7
-9 22 -21 35 -11 13 -19 20 -17 14 5 -15 29 -67 39 -88 6 -10 7 -23 3 -29 -4
-6 -3 -8 3 -5 16 10 48 -112 33 -127 -8 -8 -10 -7 -5 6 7 17 -60 158 -74 158
-4 0 6 -28 23 -62 23 -48 31 -81 34 -137 l4 -73 -33 7 c-28 6 -32 5 -21 -6 18
-19 15 -34 -5 -18 -13 11 -17 11 -20 1 -3 -6 -9 -10 -14 -6 -5 3 -9 0 -9 -7 0
-6 -12 0 -26 15 -24 23 -44 33 -44 22 0 -8 101 -81 113 -82 36 -3 37 -5 32
-36 -7 -38 -35 -136 -75 -259 -30 -90 -99 -229 -169 -340 -46 -72 -50 -72 -21
1 22 55 26 95 10 105 -5 3 -10 12 -9 18 0 9 2 9 6 0 2 -7 9 -13 15 -13 13 0 4
260 -10 305 -9 25 -10 26 -11 8 -1 -13 -7 -23 -13 -23 -7 0 -5 -5 5 -11 12 -7
17 -23 17 -58 0 -46 -1 -48 -25 -46 -14 2 -28 -1 -31 -7 -4 -7 -9 -6 -14 2 -5
7 -7 2 -7 -14 0 -14 5 -26 11 -26 6 0 3 -5 -7 -11 -13 -8 -17 -18 -13 -35 4
-14 2 -24 -4 -24 -5 0 -10 -9 -10 -21 0 -11 -13 -31 -29 -45 -27 -22 -39 -64
-19 -64 4 0 8 -7 8 -16 0 -8 3 -13 8 -11 4 3 8 -7 9 -21 1 -28 1 -28 -34 25
-12 17 -12 17 -5 -2 14 -36 52 -120 62 -137 5 -10 10 -23 10 -29 0 -16 -137
-221 -192 -286 -24 -29 -68 -81 -98 -117 l-55 -65 -3 49 c-2 27 2 59 8 70 47
88 54 280 16 405 -60 195 -103 296 -122 288 -8 -3 -14 -13 -14 -22 0 -14 2
-14 10 -1 10 17 10 17 32 -32 13 -27 14 -36 4 -32 -13 5 -16 -29 -3 -42 13
-13 7 -23 -10 -18 -14 5 -15 4 -4 -4 11 -8 11 -11 0 -16 -8 -3 -5 -4 7 -1 15
4 24 -1 32 -20 6 -14 8 -25 3 -25 -5 0 -12 6 -15 13 -3 6 -3 -1 0 -18 5 -29 5
-29 -10 -11 -16 19 -16 19 -16 -1 0 -56 -13 -54 -47 6 -27 49 -32 64 -23 80
14 28 13 36 -5 21 -18 -15 -17 -16 -38 29 -18 36 -15 53 8 44 8 -3 15 0 15 6
0 6 -4 11 -10 11 -5 0 -10 7 -10 16 0 13 3 14 13 5 8 -6 17 -7 21 -3 4 4 14
-2 22 -12 12 -17 14 -17 14 -3 0 9 -11 19 -25 23 -14 3 -22 11 -18 17 4 7 0 8
-11 4 -13 -5 -17 -3 -13 7 4 9 0 12 -13 9 -10 -3 -21 1 -25 8 -6 8 -4 10 5 4
9 -5 10 -2 5 14 -4 13 -2 21 5 21 7 0 5 6 -4 16 -22 21 -20 27 5 14 11 -7 23
-9 26 -6 7 7 -7 27 -16 22 -4 -3 -23 -1 -43 3 -31 7 -36 6 -32 -8 6 -21 -11
14 -30 62 -8 20 -20 37 -26 37 -23 0 -60 -49 -61 -82 -1 -18 -2 -42 -2 -53 -4
-82 34 -248 84 -360 16 -38 141 -226 185 -282 60 -73 94 -159 94 -233 0 -96
-15 -135 -88 -230 -128 -166 -139 -174 -138 -103 1 26 -1 29 -13 20 -12 -10
-14 -9 -9 5 4 9 0 24 -7 35 -8 10 -15 13 -15 7 0 -5 4 -14 10 -20 5 -5 5 -15
1 -23 -12 -19 -59 52 -116 175 -26 55 -57 119 -70 144 -27 53 -71 181 -90 265
-8 33 -18 76 -23 97 -9 33 -7 37 12 42 37 10 44 7 55 -24 9 -28 9 -29 -9 -20
-11 6 -20 15 -20 20 0 6 -6 10 -14 10 -17 0 -15 -28 3 -40 10 -5 10 -9 1 -15
-8 -5 -6 -11 7 -22 10 -8 12 -12 6 -8 -7 3 -13 1 -13 -5 0 -10 15 -8 58 7 6 3
12 0 12 -6 0 -6 8 -11 18 -11 13 0 14 2 4 9 -11 7 -11 9 1 14 16 6 27 -10 20
-30 -2 -7 -11 -9 -19 -6 -8 3 -14 0 -14 -6 0 -6 7 -11 15 -11 8 0 15 -4 15
-10 0 -5 -8 -6 -17 -3 -16 6 -16 5 -4 -10 12 -16 12 -17 -5 -11 -15 5 -16 4
-4 -5 8 -5 11 -13 7 -17 -4 -4 3 -19 15 -32 13 -14 17 -22 9 -17 -10 6 -12 4
-7 -4 5 -7 15 -10 24 -6 8 3 19 0 23 -7 4 -7 11 -9 15 -5 4 3 1 13 -6 22 -7 9
-15 13 -17 11 -5 -5 -43 31 -43 40 0 4 20 -10 45 -31 37 -30 48 -35 60 -25 16
13 18 9 15 -33 -1 -18 3 -27 11 -25 7 2 14 -6 16 -17 1 -11 0 -15 -3 -9 -3 7
-13 10 -24 7 -16 -4 -17 -8 -7 -23 9 -15 8 -23 -5 -37 -17 -18 -8 -56 9 -40 4
5 1 12 -7 17 -13 8 -13 10 1 10 25 0 30 -11 14 -32 -12 -18 -11 -23 13 -43 23
-20 24 -25 13 -39 -12 -14 -11 -16 8 -17 11 -1 27 -2 34 -3 6 -1 15 -10 19
-21 11 -36 9 36 -3 75 -5 19 -12 103 -15 185 -7 198 -32 280 -134 434 -35 52
-51 67 -96 87 -34 15 -74 24 -104 24 -44 0 -55 -5 -92 -37 -63 -57 -81 -108
-84 -233 -1 -58 2 -125 7 -150 24 -110 134 -345 150 -319 5 8 3 17 -4 21 -7 4
-7 8 -2 8 6 -1 19 -8 30 -17 15 -12 16 -14 3 -10 -10 3 -19 -1 -22 -10 -8 -19
2 -35 16 -27 7 4 8 2 4 -5 -9 -13 25 -61 92 -130 44 -45 44 -45 -7 18 -40 49
-49 66 -40 77 9 11 16 11 33 2 21 -11 21 -11 2 10 l-18 21 -18 -21 -17 -21 -5
21 c-4 15 -2 19 8 15 10 -4 12 0 8 11 -3 9 -11 16 -16 16 -6 0 -5 6 2 15 14
17 51 3 47 -18 -2 -14 33 -17 50 -4 7 5 10 13 7 18 -3 5 -1 9 5 9 12 0 35 -39
27 -47 -2 -3 6 -29 19 -59 13 -30 21 -54 18 -54 -3 0 0 -7 7 -15 10 -11 10
-19 2 -27 -6 -6 -8 -17 -5 -24 7 -18 -28 -19 -47 -1 -8 6 -6 2 4 -11 11 -12
44 -38 73 -58 42 -28 60 -34 81 -29 24 6 21 0 -28 -50 -30 -31 -93 -88 -140
-125 l-84 -69 -46 43 c-98 92 -215 144 -344 153 -153 11 -282 -42 -407 -167
-148 -147 -219 -334 -219 -579 0 -245 74 -445 220 -592 192 -194 436 -222 667
-77 196 124 313 370 313 661 0 181 -34 321 -110 451 -23 38 -37 72 -33 75 4 3
25 22 45 40 l38 35 22 -21 c57 -53 186 -93 346 -106 l43 -4 -1 -539 c0 -633
13 -574 -126 -574 l-84 0 0 -35 0 -35 305 0 305 0 0 34 0 34 -90 4 c-55 2 -94
8 -102 16 -10 10 -14 84 -16 317 l-3 305 79 0 c92 0 159 -18 208 -55 57 -44
83 -114 99 -270 14 -134 38 -262 55 -295 37 -71 97 -110 171 -110 109 0 183
86 208 240 15 90 15 90 -18 90 -28 0 -30 -3 -36 -47 -13 -104 -55 -170 -92
-147 -34 21 -54 73 -98 249 -64 259 -84 286 -265 357 -22 9 -14 12 64 28 217
45 312 151 310 347 0 71 -5 90 -33 147 -28 57 -99 136 -122 136 -4 0 -5 27 -2
60 5 46 2 65 -11 86 -36 54 -218 110 -335 101 -166 -12 -394 -67 -530 -128
-35 -16 -65 -28 -67 -26 -1 1 14 20 33 42 20 22 57 72 82 110 25 39 49 74 52
78 4 5 26 -2 50 -15 40 -21 56 -23 189 -23 126 0 158 4 247 27 168 45 253 90
356 187 63 60 77 88 77 157 0 54 -2 59 -41 97 -34 32 -47 38 -70 33 -16 -3
-31 -1 -34 4 -9 14 -155 12 -234 -2 -58 -10 -62 -12 -36 -18 17 -4 44 -14 62
-23 18 -9 40 -17 49 -17 14 0 15 -2 3 -17 -10 -11 -10 -14 -1 -9 6 4 12 2 12
-3 0 -6 11 -11 25 -11 14 0 25 -5 25 -11 0 -5 -4 -7 -10 -4 -11 7 -4 -14 17
-55 16 -31 17 -43 2 -34 -6 3 -4 -5 5 -19 13 -18 14 -26 5 -29 -15 -5 -3 -28
14 -28 8 0 7 3 -2 9 -10 7 -7 9 12 8 15 -1 27 -3 27 -4 0 -1 -14 -10 -31 -19
-17 -8 -28 -11 -25 -5 4 6 3 11 -2 11 -5 0 -12 -8 -14 -18 -7 -26 -182 -83
-268 -88 -46 -2 -58 -1 -40 5 l25 9 -27 1 c-14 1 -28 -4 -30 -10 -6 -18 -165
0 -173 20 -5 13 -4 14 6 4 18 -18 30 -16 22 4 -4 10 -2 14 5 9 7 -4 9 1 6 16
-3 13 -6 28 -8 35 -3 17 -16 29 -16 15 0 -7 -5 -12 -11 -12 -5 0 -7 5 -4 10 3
6 1 10 -4 10 -6 0 -11 -6 -11 -12 0 -7 -10 -2 -21 12 l-21 25 5 -26 c3 -23 1
-27 -20 -24 -20 2 -24 -1 -20 -16 3 -11 1 -19 -5 -19 -6 0 -8 -7 -5 -15 4 -8
2 -17 -3 -20 -19 -12 -10 50 11 80 12 17 18 22 15 12 -3 -11 -2 -16 5 -12 5 4
7 14 4 24 -3 11 4 26 19 40 20 19 25 20 38 8 12 -13 17 -12 37 4 15 12 22 26
18 38 -3 13 4 28 22 43 l26 23 -23 -26 c-23 -26 -21 -42 4 -32 8 3 14 11 14
19 0 8 5 14 11 14 6 0 9 6 6 14 -8 21 123 210 178 255 27 23 55 41 63 41 7 0
39 11 71 25 38 16 94 28 158 34 121 13 302 39 313 46 5 3 41 8 82 11 93 7 193
27 158 31 -14 2 -35 9 -47 15 -18 9 -20 14 -12 31 7 12 7 17 1 13 -5 -3 -13 1
-16 10 -8 20 22 12 83 -23 33 -19 40 -28 30 -34 -14 -10 37 -1 55 9 12 7 -107
63 -193 92 -52 17 -67 27 -68 42 -2 19 2 20 44 14 82 -11 180 -46 235 -82 l53
-36 37 43 37 42 -46 24 c-25 12 -73 27 -107 33 -213 36 -221 38 -172 55 23 8
46 10 55 6 13 -7 142 -31 165 -31 3 0 6 -7 6 -15 0 -8 5 -15 11 -15 5 0 7 5 4
10 -9 14 5 13 55 -5 52 -18 50 -18 50 1 0 8 -4 12 -10 9 -14 -9 -70 23 -70 40
0 7 -4 16 -9 20 -6 3 -8 -3 -6 -13 3 -17 -1 -19 -33 -11 -20 4 -59 9 -87 10
-27 2 -57 7 -66 12 -15 9 -41 4 -163 -34 -16 -5 -31 -7 -34 -5 -9 10 29 38 43
32 9 -3 12 0 8 9 -3 8 -10 12 -16 8 -6 -4 -8 2 -5 15 4 14 2 19 -7 16 -7 -3
-16 -1 -20 5 -3 6 -14 11 -23 10 -11 0 -12 -3 -4 -6 6 -2 12 -9 12 -14 0 -6
-5 -7 -12 -3 -8 5 -9 2 -5 -10 4 -10 7 -21 7 -24 0 -4 4 0 10 8 14 23 20 7 7
-20 -7 -13 -23 -27 -37 -31 -14 -4 -18 -8 -10 -8 23 -2 -29 -39 -65 -47 -16
-4 -72 -28 -123 -55 -51 -27 -91 -45 -88 -40 3 5 -1 12 -10 15 -22 9 -24 8
-18 -9 4 -8 1 -15 -5 -15 -6 0 -11 4 -11 9 0 5 -9 7 -20 4 -77 -20 92 124 215
183 38 19 64 34 57 34 -23 0 -146 -67 -207 -113 -52 -39 -155 -154 -155 -174
0 -3 16 11 36 33 19 21 33 31 30 22 -3 -9 2 -19 11 -22 11 -5 14 -2 9 10 -5
14 -4 15 9 4 18 -15 23 -11 -80 -85 -44 -33 -97 -75 -117 -94 -21 -19 -38 -32
-38 -29 0 3 30 57 66 119 168 288 215 397 259 594 21 91 28 101 74 115 28 8
31 7 20 -6 -10 -12 -10 -17 1 -27 9 -9 11 -9 6 0 -3 6 -2 14 4 18 5 3 10 1 10
-4 0 -15 15 -14 58 6 20 9 40 15 45 15 14 -3 7 15 -12 32 -11 10 -25 15 -32
10 -7 -4 22 33 64 82 135 159 258 241 396 264 67 11 178 -13 214 -47 16 -16
28 -22 25 -14 -8 26 -51 50 -123 71 -84 24 -119 25 -205 4 -65 -15 -277 -108
-335 -147 l-30 -20 22 23 21 23 -24 24 c-13 13 -21 29 -18 35 4 6 2 8 -4 4 -6
-3 -13 -2 -17 4 -4 6 -11 8 -16 5 -12 -8 27 83 55 125 61 93 86 134 86 141 0
24 158 229 229 298 38 36 50 52 29 36 -36 -26 -37 -26 -41 -5 -4 16 -4 15 -3
-4 0 -14 -10 -36 -24 -51 l-25 -27 -7 29 -7 28 2 -30 c1 -28 -20 -75 -34 -75
-4 0 -10 21 -14 48 -4 26 -9 42 -12 36 -2 -6 1 -30 6 -54 6 -29 6 -50 -1 -66
-13 -28 -25 -31 -31 -6 -2 9 -3 4 -2 -11 1 -16 -7 -37 -19 -50 -12 -13 -27
-36 -35 -52 l-13 -30 -19 45 c-10 25 -18 50 -18 56 -1 18 -51 127 -56 122 -3
-3 8 -38 24 -79 16 -41 32 -83 36 -94 15 -39 14 -69 -3 -97 l-16 -28 -31 83
c-38 99 -62 147 -75 147 -6 0 2 -22 17 -48 27 -49 27 -82 -2 -82 -8 0 -23 16
-32 36 -14 28 -15 39 -5 55 7 10 8 19 3 19 -5 0 -13 -9 -16 -20 -14 -43 -22
-15 -28 93 l-6 112 32 28 c17 15 27 27 21 27 -5 0 -15 -5 -22 -12 -6 -6 -15
-8 -19 -4 -12 11 20 27 43 21 41 -9 266 165 321 249 58 87 81 297 40 360 -24
36 -83 36 -126 0z m72 9 c-7 -3 -13 -12 -13 -20 0 -10 6 -13 16 -9 8 3 12 2 9
-4 -3 -6 -2 -10 4 -10 6 0 14 -12 17 -26 4 -16 9 -22 14 -14 5 8 9 4 13 -11 4
-13 1 -26 -5 -30 -9 -6 -8 -11 1 -23 7 -9 9 -21 5 -28 -9 -14 -11 -19 -13 -44
-1 -11 -7 -15 -20 -11 -17 4 -18 2 -8 -13 6 -10 15 -16 19 -14 9 6 2 -33 -14
-75 -11 -31 -111 -135 -166 -173 -32 -22 -46 -27 -56 -19 -7 6 -17 7 -22 3 -4
-4 -4 0 2 8 14 20 11 46 -4 42 -15 -3 -16 14 -1 23 6 4 8 12 6 19 -3 7 4 13
14 13 12 1 17 -3 13 -10 -4 -7 -3 -9 1 -4 11 9 14 47 5 47 -4 0 -6 10 -5 23 1
15 8 22 22 21 15 0 19 4 15 14 -3 10 -1 13 6 8 6 -3 14 -1 18 5 3 6 0 15 -7
20 -10 6 -11 9 -1 9 6 0 12 7 12 16 0 12 -3 14 -12 6 -16 -13 -32 4 -35 36 -2
15 1 21 9 16 6 -4 8 -3 5 3 -15 24 53 156 76 147 15 -5 31 22 21 37 -3 5 0 9
5 9 6 0 11 -6 11 -12 0 -9 3 -8 9 2 6 8 8 17 6 20 -2 3 6 6 18 7 12 0 16 -1
10 -4z m47 -29 c0 -8 -4 -14 -9 -14 -6 0 -9 9 -8 19 1 22 17 18 17 -5z m-1071
-261 l31 -18 -82 -16 c-75 -14 -84 -14 -95 0 -10 14 -3 18 45 32 31 9 60 17
64 18 3 0 20 -7 37 -16z m76 -51 l23 -18 -54 -17 c-30 -9 -69 -17 -86 -17 -26
0 -29 2 -18 15 11 13 10 14 -5 9 -13 -5 -16 -3 -13 7 2 8 29 19 59 26 73 15
68 15 94 -5z m6 -61 c-7 -5 -10 -14 -7 -20 9 -14 5 -14 -31 0 -22 8 -24 12
-13 19 8 6 26 10 40 10 18 0 21 -3 11 -9z m-71 -20 c0 -5 8 -11 18 -13 11 -3
8 -6 -11 -10 -20 -4 -27 -2 -23 7 3 9 -2 11 -16 7 -14 -3 -19 -1 -14 6 9 14
46 16 46 3z m14 -66 c-4 -8 -11 -15 -16 -15 -6 0 -5 6 2 15 7 8 14 15 16 15 2
0 1 -7 -2 -15z m730 -39 c-10 -8 -21 -12 -23 -10 -3 2 4 11 15 18 10 8 21 12
23 10 3 -2 -4 -11 -15 -18z m-704 -4 c0 -15 -7 -18 -30 -17 -17 1 -36 8 -43
15 -10 10 -5 12 26 7 20 -3 37 -2 37 4 0 5 2 9 5 9 3 0 5 -8 5 -18z m354 -8
c22 -8 20 -19 -2 -21 -10 -1 -19 5 -19 13 0 16 0 16 21 8z m306 -29 c-6 -8 -9
-18 -6 -24 3 -5 -1 -11 -9 -15 -8 -3 -15 -1 -15 5 0 18 20 49 32 49 7 0 6 -5
-2 -15z m-616 -3 c2 -4 -8 -9 -24 -10 -16 -1 -31 2 -35 8 -4 6 6 10 24 10 16
0 32 -4 35 -8z m386 -17 c10 -12 9 -16 -6 -21 -11 -3 -30 -10 -44 -14 -111
-39 -243 -49 -224 -18 4 6 10 6 17 -1 12 -12 31 -15 24 -3 -3 4 6 8 19 8 13 1
31 9 40 18 10 10 23 14 33 10 21 -8 60 -16 44 -8 -18 8 -16 27 1 21 8 -3 17 1
20 9 7 19 60 18 76 -1z m-290 -35 c0 -5 -5 -10 -11 -10 -5 0 -7 5 -4 10 3 6 8
10 11 10 2 0 4 -4 4 -10z m504 -333 c3 -13 17 -40 31 -61 35 -51 57 -156 39
-181 -11 -14 -14 -15 -18 -4 -2 8 -12 38 -21 68 -9 29 -26 70 -39 90 -29 46
-38 71 -26 71 6 0 9 3 9 8 -6 36 16 44 25 9z m106 -67 c19 -52 21 -64 10 -90
-16 -39 -24 -38 -28 6 -1 19 -9 48 -17 64 -18 35 -19 52 -3 68 7 7 13 12 14
12 1 0 12 -27 24 -60z m-146 -16 c9 -8 16 -21 16 -27 0 -7 -7 -3 -15 7 -8 11
-15 14 -15 8 0 -10 -3 -10 -14 0 -14 13 -12 28 4 28 5 0 16 -7 24 -16z m-34
-58 c0 -2 3 -12 7 -22 4 -12 3 -15 -5 -10 -7 4 -12 2 -12 -6 0 -8 -5 -7 -16 4
-18 17 -11 38 12 38 8 0 14 -2 14 -4z m94 -65 c25 -60 27 -87 10 -102 -13 -11
-15 -11 -13 2 1 7 -3 27 -10 44 -7 16 -10 37 -8 47 3 10 2 18 -3 18 -4 0 -10
6 -13 13 -3 8 1 14 8 14 7 0 20 -16 29 -36z m-35 -56 c25 -53 28 -73 8 -56 -8
6 -16 8 -20 5 -6 -7 -30 33 -34 58 -2 12 2 15 12 12 11 -5 13 -2 9 10 -13 35
5 14 25 -29z m126 -135 c-3 -5 -11 -10 -16 -10 -6 0 -7 5 -4 10 3 6 11 10 16
10 6 0 7 -4 4 -10z m-145 -28 c0 -15 -2 -15 -10 -2 -13 20 -13 33 0 25 6 -3
10 -14 10 -23z m30 -56 c0 -3 -4 -8 -10 -11 -5 -3 -10 -1 -10 4 0 6 5 11 10
11 6 0 10 -2 10 -4z m-29 -73 c-8 -15 -10 -15 -11 -2 0 17 10 32 18 25 2 -3
-1 -13 -7 -23z m-111 -117 c-7 -7 -13 -7 -20 0 -6 6 -3 10 10 10 13 0 16 -4
10 -10z m-226 -429 c1 -20 -2 -33 -6 -31 -4 3 -7 20 -6 39 2 44 9 38 12 -8z
m-645 -72 c0 -5 -8 6 -19 25 -11 19 -19 42 -19 50 0 16 37 -58 38 -75z m586
45 c3 -5 1 -10 -4 -10 -6 0 -11 5 -11 10 0 6 2 10 4 10 3 0 8 -4 11 -10z m850
-30 c130 -25 165 -34 193 -51 27 -17 27 -20 3 -48 l-19 -22 -50 30 c-64 38
-192 81 -259 88 -51 6 -66 16 -40 27 13 6 18 5 172 -24z m-781 -6 c8 -22 8
-24 -7 -24 -7 0 -13 9 -13 20 0 24 11 26 20 4z m529 -21 c-7 -2 -19 -2 -25 0
-7 3 -2 5 12 5 14 0 19 -2 13 -5z m-53 -33 c0 -17 -7 -20 -42 -20 -46 0 -46 2
-3 24 39 21 45 20 45 -4z m-962 -45 c-3 -3 -9 2 -12 12 -6 14 -5 15 5 6 7 -7
10 -15 7 -18z m1160 8 c18 -4 20 -8 11 -19 -7 -9 -8 -14 -1 -14 5 0 13 -8 16
-17 6 -16 6 -16 -12 0 -10 9 -22 14 -26 10 -4 -5 -6 1 -4 11 1 10 -3 21 -9 23
-7 3 -13 0 -13 -6 0 -6 -4 -11 -8 -11 -4 0 -8 9 -8 20 0 15 5 19 16 14 8 -4
25 -9 38 -11z m-198 -8 c36 -5 50 -13 70 -39 31 -42 78 -65 91 -45 5 8 9 10 9
5 0 -5 6 -4 13 2 13 10 57 -1 57 -15 0 -5 -27 -10 -60 -11 -33 -2 -60 1 -60 6
0 10 -120 52 -149 52 -11 0 -27 7 -36 17 -9 9 -20 12 -23 7 -4 -5 -25 -7 -47
-4 l-40 5 30 18 c19 10 43 15 65 12 19 -2 55 -7 80 -10z m-480 -15 c0 -5 -2
-10 -4 -10 -3 0 -8 5 -11 10 -3 6 -1 10 4 10 6 0 11 -4 11 -10z m-1057 -17
c-5 -17 -5 -17 8 0 28 34 154 -13 190 -72 23 -38 23 -42 4 -35 -18 7 -19 0 -3
-26 16 -26 0 -40 -18 -16 -13 18 -14 18 -14 2 0 -12 -5 -16 -15 -12 -9 3 -18
-1 -22 -10 -3 -8 -11 -13 -19 -10 -7 3 -14 1 -16 -5 -2 -5 -15 -6 -35 0 -28 8
-32 7 -35 -12 -6 -36 -28 48 -35 136 -4 54 -3 77 5 77 6 0 9 -8 5 -17z m-26
-116 c16 -83 17 -99 5 -106 -8 -4 -14 -12 -14 -17 -3 -27 -12 -44 -25 -44 -11
0 -11 4 -3 21 7 11 9 27 6 35 -3 8 -2 13 3 10 5 -3 12 6 15 20 8 31 -3 114
-14 114 -5 0 -6 -10 -2 -22 4 -19 3 -21 -9 -12 -8 6 -22 10 -31 9 -26 -5 -31
11 -13 45 16 32 35 40 35 15 0 -8 -8 -15 -17 -15 -13 0 -14 -3 -6 -11 18 -18
49 16 33 36 -13 15 -3 42 10 28 4 -4 16 -52 27 -106z m1443 98 c14 -2 28 -4
31 -4 3 -1 4 -12 2 -25 -6 -29 -38 -25 -46 6 -3 11 -10 17 -17 13 -8 -5 -8
-11 1 -21 14 -17 6 -17 -43 -3 -40 10 -45 18 -27 36 10 10 25 10 99 -2z m-389
-32 c-8 -15 -10 -15 -11 -2 0 17 10 32 18 25 2 -3 -1 -13 -7 -23z m592 -22
c16 -16 -17 -15 -43 1 -16 10 -23 10 -35 -3 -13 -13 -22 -14 -50 -5 -38 12
-46 26 -15 26 11 0 20 -4 20 -9 0 -6 10 -8 21 -6 30 6 37 15 11 15 -11 0 -23
4 -26 9 -8 13 103 -14 117 -28z m-358 -1 c3 -5 14 -10 23 -10 15 0 15 2 2 11
-11 8 -9 9 10 3 14 -4 35 -7 48 -8 12 -1 21 -5 20 -11 -2 -6 -22 -8 -48 -5
-25 2 -62 4 -83 5 -32 0 -35 2 -20 13 20 15 40 16 48 2z m158 -17 c-7 -2 -19
-2 -25 0 -7 3 -2 5 12 5 14 0 19 -2 13 -5z m-163 -35 c-73 -12 -159 -38 -166
-49 -3 -5 -10 -9 -15 -9 -17 0 0 19 39 45 32 20 49 24 117 23 l80 -1 -55 -9z
m-1346 -19 c-6 -11 -24 -2 -24 11 0 5 7 7 15 4 8 -4 12 -10 9 -15z m650 -10
c-3 -6 -1 -16 6 -24 7 -8 7 -15 1 -19 -5 -4 -13 4 -17 16 -13 39 -13 47 2 41
8 -3 11 -9 8 -14z m-604 -27 c3 -2 0 -7 -6 -9 -6 -2 -20 -10 -30 -18 -18 -14
-18 -16 -1 -26 9 -5 15 -15 11 -20 -3 -5 -15 2 -26 16 -20 25 -20 26 -2 48 16
18 16 20 2 8 -11 -8 -18 -9 -18 -3 0 20 52 23 70 4z m308 -4 c15 -15 16 -28 2
-28 -5 0 -10 6 -10 14 0 8 -6 17 -12 19 -7 3 -8 6 -2 6 5 1 15 -4 22 -11z
m-198 -12 c0 -2 -7 -7 -16 -10 -8 -3 -12 -2 -9 4 6 10 25 14 25 6z m-200 -22
c0 -8 -5 -12 -10 -9 -6 4 -8 11 -5 16 9 14 15 11 15 -7z m195 -219 c37 -109
71 -208 76 -219 9 -21 9 -21 -3 -1 -7 11 -30 36 -51 56 -26 26 -34 39 -25 43
9 4 9 5 -2 5 -31 -2 -41 1 -34 13 4 6 -1 17 -11 25 -11 7 -13 13 -7 13 7 0 12
4 12 10 0 5 -7 6 -17 3 -11 -4 -14 -3 -9 5 4 7 2 12 -3 12 -6 0 -11 5 -11 10
0 6 7 10 15 10 8 0 15 4 15 9 0 5 -11 9 -25 9 -18 0 -25 -6 -26 -22 -1 -11 -4
-5 -8 14 -4 23 -14 38 -28 45 -13 5 -23 14 -23 19 0 4 11 1 25 -8 15 -10 25
-12 25 -6 0 7 8 9 19 5 16 -5 19 -1 18 15 -1 11 -7 20 -13 20 -7 0 -11 11 -9
25 2 25 1 25 -21 10 -13 -8 -24 -11 -24 -6 0 6 9 15 19 21 11 5 28 23 37 40
10 16 19 28 20 27 2 -1 32 -92 69 -202z m-158 153 c2 -18 0 -20 -7 -8 -12 18
-13 30 -2 30 4 0 9 -10 9 -22z m385 0 c-7 -7 -12 -8 -12 -2 0 6 3 14 7 17 3 4
9 5 12 2 2 -3 -1 -11 -7 -17z m-408 -14 c5 -14 4 -15 -9 -4 -17 14 -19 20 -6
20 5 0 12 -7 15 -16z m221 7 c3 -5 1 -12 -5 -16 -5 -3 -10 1 -10 9 0 18 6 21
15 7z m40 -1 c3 -5 1 -10 -4 -10 -6 0 -11 5 -11 10 0 6 2 10 4 10 3 0 8 -4 11
-10z m174 -40 c0 -10 -3 -8 -9 5 -12 27 -12 43 0 25 5 -8 9 -22 9 -30z m-374
-39 c-6 -5 -25 10 -25 20 0 5 6 4 14 -3 8 -7 12 -15 11 -17z m700 -49 c-2 -15
-4 -40 -4 -56 -1 -50 -13 -20 -15 37 -1 38 3 53 11 50 6 -3 10 -17 8 -31z
m-308 -82 c4 -38 2 -50 -7 -45 -6 4 -9 14 -6 22 3 8 1 11 -4 8 -6 -3 -10 -2
-10 4 0 5 4 12 9 15 4 3 6 18 3 33 -2 16 -2 25 2 21 4 -3 10 -30 13 -58z m400
-51 c-9 -6 -14 -15 -11 -21 4 -7 2 -8 -5 -4 -14 9 3 36 23 36 6 0 3 -5 -7 -11z
m-407 -119 c-19 -13 -30 -13 -30 0 0 6 10 10 23 10 18 0 19 -2 7 -10z m286
-105 c-11 -8 -25 -15 -30 -15 -6 1 0 7 14 15 32 19 40 18 16 0z m259 -184
c-10 -9 17 -30 33 -25 11 4 9 -1 -7 -15 -13 -12 -19 -21 -15 -21 5 0 15 -10
23 -22 13 -22 13 -22 -5 -8 -10 8 -29 21 -41 28 -21 11 -23 10 -24 -15 l-1
-28 -11 28 c-6 15 -15 27 -20 27 -4 0 -5 -5 -1 -11 3 -6 0 -15 -7 -20 -19 -12
-29 -11 -29 2 0 5 5 7 11 3 7 -4 10 -1 7 7 -3 8 -10 13 -16 12 -5 -1 -13 4
-16 12 -3 10 1 15 12 16 14 0 14 2 -3 9 -17 6 -13 9 20 15 22 3 44 8 49 9 16
3 45 2 41 -3z m-162 -33 c4 -10 8 -9 16 2 9 13 11 12 11 -6 0 -26 -23 -27 -39
-2 -6 10 -7 18 -2 18 5 0 12 -6 14 -12z m-908 -201 c28 -14 62 -36 77 -49 32
-28 88 -106 88 -124 0 -13 -186 -160 -255 -202 -22 -13 -74 -46 -115 -72 -41
-27 -105 -66 -142 -86 -54 -29 -68 -41 -68 -60 0 -24 26 -44 57 -44 10 0 63
35 116 78 54 42 137 102 184 132 47 30 111 75 142 100 31 25 68 53 84 63 27
17 27 17 36 -5 26 -72 36 -175 36 -383 0 -194 -3 -230 -23 -309 -42 -168 -109
-268 -214 -323 -45 -23 -65 -27 -138 -27 -103 -1 -157 22 -230 95 -103 103
-150 281 -150 574 0 197 25 354 75 462 27 59 104 147 150 171 95 49 205 53
290 9z m825 -15 c-6 -2 -8 -8 -4 -13 3 -5 0 -9 -6 -9 -7 0 -9 7 -6 16 3 9 6
21 6 27 0 7 4 6 10 -3 6 -10 6 -16 0 -18z m-41 -1 c9 -16 8 -18 -8 -14 -12 3
-17 11 -14 19 7 18 10 18 22 -5z m-22 -43 c-3 -8 -6 -5 -6 6 -1 11 2 17 5 13
3 -3 4 -12 1 -19z m695 -45 c20 -43 23 -62 23 -173 0 -110 -3 -130 -22 -167
-50 -92 -125 -123 -315 -130 l-138 -6 0 201 c0 183 2 201 18 206 9 2 43 10 76
17 32 7 60 19 63 26 3 7 10 13 15 13 6 0 17 8 25 18 8 9 12 11 8 5 -8 -16 7
-17 22 -2 8 8 13 7 18 -2 5 -8 4 -10 -3 -5 -7 4 -12 3 -12 -3 0 -5 -12 -14
-27 -20 -27 -10 -26 -10 7 -5 63 10 134 34 165 54 17 11 35 20 42 20 6 0 22
-21 35 -47z m-167 7 c-3 -5 -11 -10 -16 -10 -6 0 -7 5 -4 10 3 6 11 10 16 10
6 0 7 -4 4 -10z m-402 -35 c-3 -9 -8 -14 -10 -11 -3 3 -2 9 2 15 9 16 15 13 8
-4z m111 -9 c-6 -16 -24 -23 -24 -8 0 10 22 33 27 28 2 -2 1 -11 -3 -20z m-73
1 c-6 -8 -8 -17 -4 -21 4 -4 0 -4 -9 -1 -14 5 -15 10 -5 21 16 17 33 18 18 1z
m39 -11 c0 -3 -4 -8 -10 -11 -5 -3 -10 -1 -10 4 0 6 5 11 10 11 6 0 10 -2 10
-4z m-829 -106 c-45 -41 -141 -113 -141 -106 0 2 29 28 65 56 35 29 62 57 58
63 -3 6 -2 7 4 4 6 -4 19 0 29 8 37 28 29 14 -15 -25z"/>
<path d="M6220 6976 c0 -8 4 -17 9 -20 5 -4 7 3 4 14 -6 23 -13 26 -13 6z"/>
<path d="M5085 6950 c-3 -5 -1 -10 4 -10 6 0 11 5 11 10 0 6 -2 10 -4 10 -3 0
-8 -4 -11 -10z"/>
<path d="M5528 6633 c7 -3 16 -2 19 1 4 3 -2 6 -13 5 -11 0 -14 -3 -6 -6z"/>
<path d="M5883 6295 c0 -8 6 -16 14 -19 11 -4 11 -1 3 14 -13 24 -17 25 -17 5z"/>
<path d="M5920 6201 c0 -5 5 -13 10 -16 6 -3 10 -2 10 4 0 5 -4 13 -10 16 -5
3 -10 2 -10 -4z"/>
<path d="M4552 4995 c12 -26 28 -29 36 -7 2 7 -2 10 -12 6 -11 -4 -16 -1 -16
10 0 9 -4 16 -10 16 -6 0 -5 -10 2 -25z"/>
<path d="M4511 5001 c-11 -7 -10 -11 5 -19 15 -9 16 -14 6 -36 -6 -14 -8 -26
-4 -26 4 0 12 11 18 24 14 30 -4 70 -25 57z"/>
<path d="M4485 4950 c3 -5 8 -10 11 -10 2 0 4 5 4 10 0 6 -5 10 -11 10 -5 0
-7 -4 -4 -10z"/>
<path d="M4587 4953 c-12 -12 -7 -22 8 -17 8 4 15 10 15 15 0 11 -14 12 -23 2z"/>
<path d="M4545 4941 c-3 -5 -1 -12 5 -16 5 -3 10 -11 10 -16 0 -6 -4 -7 -10
-4 -5 3 -10 1 -10 -4 0 -13 10 -14 29 -2 10 6 10 10 1 16 -6 4 -9 13 -6 21 6
16 -9 19 -19 5z"/>
<path d="M4490 4910 c0 -13 3 -20 7 -17 3 4 12 -1 19 -11 7 -9 14 -12 14 -6 0
6 -9 21 -20 34 l-20 23 0 -23z"/>
<path d="M4601 4874 c0 -11 3 -14 6 -6 3 7 2 16 -1 19 -3 4 -6 -2 -5 -13z"/>
<path d="M4545 4870 c-8 -13 5 -13 25 0 13 8 13 10 -2 10 -9 0 -20 -4 -23 -10z"/>
<path d="M5804 4981 c3 -5 15 -7 26 -4 28 7 25 13 -6 13 -14 0 -23 -4 -20 -9z"/>
<path d="M4467 4753 c-3 -5 1 -19 9 -33 l14 -25 -6 30 c-8 35 -10 39 -17 28z"/>
<path d="M4496 4657 c3 -10 9 -15 12 -12 3 3 0 11 -7 18 -10 9 -11 8 -5 -6z"/>
<path d="M6026 7222 c-4 -7 -3 -12 1 -12 5 0 9 -8 9 -19 0 -10 -6 -17 -12 -14
-6 2 -16 -10 -22 -26 -6 -17 -18 -31 -27 -31 -9 0 -13 -4 -10 -10 7 -11 -4
-27 -49 -71 -33 -34 -46 -37 -46 -9 0 11 -4 20 -10 20 -5 0 -10 7 -10 15 0 8
5 15 10 15 6 0 10 -5 10 -11 0 -5 5 -7 10 -4 20 12 9 24 -30 35 -46 12 -69 10
-88 -8 -8 -7 -18 -10 -23 -7 -5 4 -5 -5 1 -20 13 -34 13 -55 0 -35 -5 8 -10
10 -10 4 0 -19 24 -34 40 -24 8 5 21 5 31 0 9 -5 19 -6 23 -3 3 3 6 1 6 -4 0
-6 -6 -14 -12 -16 -10 -4 -10 -6 0 -6 8 -1 16 8 19 19 6 21 30 22 26 1 -6 -23
21 -9 61 32 63 66 183 204 163 188 -13 -10 -17 -10 -17 -1 0 10 -3 10 -14 1
-11 -9 -15 -9 -18 1 -3 9 -6 9 -12 0z"/>
<path d="M5540 6956 c0 -2 8 -10 18 -17 15 -13 16 -12 3 4 -13 16 -21 21 -21
13z"/>
<path d="M5580 6921 c0 -5 7 -12 16 -15 9 -4 14 -13 10 -21 -7 -19 3 -45 16
-45 6 0 5 7 -2 15 -19 23 -7 28 16 7 59 -51 62 -49 9 6 -63 65 -65 67 -65 53z"/>
<path d="M5550 6558 c0 -11 32 -10 50 2 11 7 6 9 -17 7 -18 -1 -33 -5 -33 -9z"/>
<path d="M6122 6539 c6 -16 12 -28 14 -26 5 5 -13 57 -20 57 -3 0 0 -14 6 -31z"/>
<path d="M6065 6513 c4 -10 14 -40 22 -66 8 -27 16 -47 18 -45 8 7 -28 128
-37 128 -6 0 -7 -8 -3 -17z"/>
<path d="M5969 6453 c-13 -16 -12 -17 4 -4 9 7 17 15 17 17 0 8 -8 3 -21 -13z"/>
<path d="M5189 6373 c-13 -16 -12 -17 4 -4 9 7 17 15 17 17 0 8 -8 3 -21 -13z"/>
<path d="M5171 6294 c0 -11 3 -14 6 -6 3 7 2 16 -1 19 -3 4 -6 -2 -5 -13z"/>
<path d="M5221 6193 c7 -12 15 -20 18 -17 3 2 -3 12 -13 22 -17 16 -18 16 -5
-5z"/>
<path d="M5285 6110 c10 -11 20 -20 23 -20 3 0 -3 9 -13 20 -10 11 -20 20 -23
20 -3 0 3 -9 13 -20z"/>
<path d="M5320 6071 c0 -5 7 -15 17 -22 15 -13 15 -12 4 9 -12 23 -21 28 -21
13z"/>
<path d="M5360 6026 c0 -4 25 -35 55 -69 30 -33 55 -64 55 -69 0 -4 7 -8 15
-8 8 0 15 5 15 12 0 6 3 8 7 5 3 -4 12 -2 20 4 9 9 13 8 13 0 0 -6 9 -11 21
-11 13 0 18 -4 13 -12 -4 -7 -3 -8 4 -4 7 4 18 4 25 -1 18 -11 37 -13 37 -2 0
10 -41 34 -52 31 -5 -1 -8 2 -8 7 0 5 -12 9 -26 9 -15 0 -30 5 -34 12 -6 9
-11 6 -20 -11 -13 -23 -14 -23 -77 46 -34 38 -63 65 -63 61z"/>
<path d="M6011 6004 c0 -11 3 -14 6 -6 3 7 2 16 -1 19 -3 4 -6 -2 -5 -13z"/>
<path d="M5133 5935 c-98 -31 -135 -85 -131 -195 1 -43 2 -47 5 -17 2 20 6 37
9 37 3 0 26 -9 51 -21 52 -23 105 -20 123 9 11 16 11 16 6 0 -6 -19 9 -25 19
-8 9 15 28 12 22 -3 -3 -8 -1 -20 4 -28 7 -10 9 -1 6 26 -2 22 -8 39 -14 38
-13 -3 -10 32 5 50 16 19 58 27 72 13 7 -6 4 7 -5 29 l-16 40 36 -35 c20 -19
52 -68 71 -107 20 -40 37 -73 39 -73 6 0 -25 79 -46 116 -38 67 -89 113 -143
129 -57 17 -57 17 -113 0z"/>
<path d="M5535 5940 c-3 -5 -1 -10 4 -10 6 0 11 5 11 10 0 6 -2 10 -4 10 -3 0
-8 -4 -11 -10z"/>
<path d="M5500 5872 c0 -4 11 -21 25 -37 13 -17 36 -45 50 -63 15 -17 31 -29
36 -26 5 3 8 0 7 -7 -2 -7 2 -13 9 -14 6 0 15 -3 19 -7 12 -13 23 -9 34 12 9
16 8 19 -6 13 -13 -5 -15 -2 -9 15 5 17 2 22 -12 23 -10 1 -2 6 17 13 35 11
53 36 26 36 -8 0 -17 8 -20 17 -6 15 -8 15 -16 3 -5 -8 -12 -11 -16 -7 -4 3
-20 -1 -35 -10 -27 -16 -30 -16 -56 4 -16 12 -27 26 -25 32 1 6 -5 11 -13 11
-8 0 -15 -4 -15 -8z m126 -80 c-3 -3 -1 -11 5 -19 7 -7 7 -13 2 -13 -5 0 -15
11 -21 25 -9 20 -9 23 4 18 8 -3 12 -8 10 -11z"/>
<path d="M6036 5671 c-3 -5 1 -11 9 -15 8 -3 15 -1 15 4 0 13 -18 22 -24 11z"/>
<path d="M5000 5627 c0 -93 126 -349 167 -343 19 3 20 38 2 44 -5 2 -7 8 -3
13 8 13 -10 11 -24 -3 -7 -7 -12 -9 -12 -6 0 4 7 14 15 22 14 14 11 20 -30 59
-25 24 -42 47 -38 51 5 4 2 6 -5 4 -13 -3 -42 61 -42 92 0 13 1 13 10 0 8 -12
10 -9 10 13 0 28 -14 37 -24 15 -3 -7 -2 0 1 16 5 22 3 27 -7 21 -9 -5 -11 -4
-6 4 4 6 11 9 16 6 5 -3 11 -1 15 5 3 5 3 10 -2 11 -4 0 -16 2 -25 4 -14 3
-18 -4 -18 -28z m165 -317 c3 -5 2 -10 -4 -10 -5 0 -13 5 -16 10 -3 6 -2 10 4
10 5 0 13 -4 16 -10z"/>
<path d="M5470 5603 c0 -5 7 -18 15 -29 13 -18 14 -18 8 4 -5 22 -23 41 -23
25z"/>
<path d="M5850 5593 c0 -6 8 -17 18 -24 16 -13 16 -13 2 6 -8 11 -16 22 -17
24 -2 2 -3 0 -3 -6z"/>
<path d="M5907 5549 c7 -7 15 -10 18 -7 3 3 -2 9 -12 12 -14 6 -15 5 -6 -5z"/>
<path d="M5491 5534 c0 -11 3 -14 6 -6 3 7 2 16 -1 19 -3 4 -6 -2 -5 -13z"/>
<path d="M6400 5345 c-8 -2 -48 -9 -88 -15 -100 -16 -85 -22 22 -8 81 10 88 9
102 -8 9 -11 13 -13 9 -6 -3 6 -2 12 2 12 5 0 15 -6 22 -12 11 -10 13 -10 7 0
-5 8 0 12 16 12 19 0 20 -2 8 -10 -13 -9 -13 -11 0 -19 10 -7 17 -6 22 2 6 9
8 9 8 -1 0 -7 4 -11 9 -7 5 3 12 1 16 -5 4 -6 -12 -10 -42 -11 -26 -1 -52 -2
-58 -3 -5 -1 -33 -5 -60 -9 -94 -15 -76 -23 43 -20 107 2 121 1 140 -18 l22
-20 0 24 c0 27 -44 83 -80 101 -26 14 -95 25 -120 21z"/>
<path d="M4890 5320 c0 -5 5 -10 11 -10 5 0 7 5 4 10 -3 6 -8 10 -11 10 -2 0
-4 -4 -4 -10z"/>
<path d="M4930 5301 c7 -14 22 -34 33 -45 l19 -21 -15 31 c-9 17 -23 37 -33
45 -16 13 -16 12 -4 -10z"/>
<path d="M6400 5310 c0 -5 5 -10 11 -10 5 0 7 5 4 10 -3 6 -8 10 -11 10 -2 0
-4 -4 -4 -10z"/>
<path d="M6168 5293 c6 -2 18 -2 25 0 6 3 1 5 -13 5 -14 0 -19 -2 -12 -5z"/>
<path d="M5160 5272 c0 -4 19 -27 41 -52 23 -25 32 -32 20 -16 -11 15 -18 32
-15 37 3 5 0 8 -7 7 -6 -2 -14 3 -17 11 -3 9 0 11 9 6 8 -5 10 -4 6 0 -9 11
-37 16 -37 7z"/>
<path d="M4990 5210 c6 -11 13 -20 16 -20 2 0 0 9 -6 20 -6 11 -13 20 -16 20
-2 0 0 -9 6 -20z"/>
<path d="M5260 5146 c0 -2 8 -10 18 -17 15 -13 16 -12 3 4 -13 16 -21 21 -21
13z"/>
<path d="M4920 5071 c0 -5 5 -13 10 -16 6 -3 10 -2 10 4 0 5 -4 13 -10 16 -5
3 -10 2 -10 -4z"/>
<path d="M5335 5060 c10 -11 20 -20 23 -20 3 0 -3 9 -13 20 -10 11 -20 20 -23
20 -3 0 3 -9 13 -20z"/>
<path d="M5787 5055 c3 -8 9 -12 14 -9 12 7 11 11 -5 17 -10 4 -13 1 -9 -8z"/>
<path d="M5010 4980 c0 -5 5 -10 11 -10 5 0 7 5 4 10 -3 6 -8 10 -11 10 -2 0
-4 -4 -4 -10z"/>
<path d="M5678 4983 c-10 -2 -18 -9 -18 -14 0 -13 13 -11 36 6 19 14 14 17
-18 8z"/>
<path d="M4562 4657 c-10 -12 6 -47 23 -47 4 0 2 6 -4 14 -6 7 -9 21 -5 30 7
19 1 21 -14 3z"/>
<path d="M4590 4649 c0 -5 5 -7 10 -4 6 3 10 8 10 11 0 2 -4 4 -10 4 -5 0 -10
-5 -10 -11z"/>
<path d="M5473 4600 c-34 -14 -28 -21 7 -9 17 6 30 13 30 15 0 6 -12 4 -37 -6z"/>
<path d="M5676 4507 c3 -10 9 -15 12 -12 3 3 0 11 -7 18 -10 9 -11 8 -5 -6z"/>
<path d="M4685 4480 c3 -5 8 -10 11 -10 2 0 4 5 4 10 0 6 -5 10 -11 10 -5 0
-7 -4 -4 -10z"/>
<path d="M5360 4431 c0 -10 19 -25 25 -20 1 2 -3 10 -11 17 -8 7 -14 8 -14 3z"/>
<path d="M5320 4389 c0 -11 5 -30 11 -42 9 -20 9 -20 -4 -4 -19 23 -30 22 -17
-3 8 -15 8 -20 -2 -20 -9 -1 -9 -4 2 -13 9 -7 21 -23 27 -37 6 -14 12 -19 12
-12 1 6 8 12 16 12 8 0 15 6 15 14 0 8 6 17 13 19 6 3 -6 6 -28 7 -25 1 -34 4
-23 8 12 5 15 11 8 21 -5 9 -5 22 1 33 11 21 4 38 -17 38 -8 0 -14 -9 -14 -21z
m47 -105 c-3 -3 -12 -4 -19 -1 -8 3 -5 6 6 6 11 1 17 -2 13 -5z"/>
<path d="M5264 4353 l-2 -24 19 22 c23 27 23 25 1 25 -11 0 -18 -9 -18 -23z"/>
<path d="M5362 4346 c7 -8 15 -12 17 -11 5 6 -10 25 -20 25 -5 0 -4 -6 3 -14z"/>
<path d="M5273 4287 c3 -8 1 -18 -6 -20 -7 -3 1 -4 17 -3 26 1 52 26 28 26 -6
0 -18 3 -28 7 -13 5 -16 3 -11 -10z"/>
<path d="M4856 4023 c-6 -14 -5 -15 5 -6 7 7 10 15 7 18 -3 3 -9 -2 -12 -12z"/>
<path d="M7955 3318 c-120 -337 -227 -632 -237 -655 -25 -57 -65 -103 -105
-119 -72 -31 -176 -5 -220 54 -11 15 -110 174 -218 353 -109 178 -208 340
-221 360 l-22 36 172 199 c95 109 192 212 215 227 53 35 113 57 157 57 32 0
34 2 34 35 l0 35 -265 0 -265 0 0 -34 0 -34 57 -4 c98 -8 129 -74 72 -152 -12
-16 -128 -155 -258 -309 l-236 -281 -3 350 -3 349 26 23 c22 19 37 22 106 22
l79 0 0 35 0 35 -300 0 -300 0 0 -35 0 -35 71 0 c68 0 106 -11 121 -34 4 -6 8
-284 8 -617 0 -507 -2 -608 -14 -625 -12 -16 -29 -20 -100 -23 l-86 -3 0 -34
0 -34 300 0 300 0 0 35 0 35 -76 0 c-72 0 -111 10 -126 34 -4 6 -8 98 -8 205
l0 193 95 114 c53 63 99 114 104 114 11 0 363 -577 368 -604 7 -35 -21 -49
-108 -54 l-79 -5 0 -33 0 -34 510 0 510 0 0 35 c0 35 0 35 -45 35 -92 0 -155
50 -155 122 0 21 18 95 41 163 l40 125 257 0 257 0 58 -168 c31 -92 57 -174
57 -183 0 -32 -37 -51 -110 -57 l-70 -5 0 -33 0 -34 260 0 260 0 0 35 c0 33
-2 35 -35 35 -44 0 -90 23 -106 52 -6 12 -116 319 -244 682 l-233 661 -34 3
-33 3 -220 -613z m315 2 l108 -305 -114 -3 c-63 -1 -165 -1 -228 0 l-115 3
100 275 c135 376 132 367 137 350 3 -8 53 -152 112 -320z"/>
<path d="M1140 3865 l0 -35 85 0 c138 0 125 68 125 -650 0 -718 13 -650 -125
-650 l-85 0 0 -35 0 -35 315 0 315 0 0 35 0 35 -90 0 c-83 0 -93 2 -115 25
l-25 24 0 296 0 295 78 0 c144 0 209 -63 233 -223 11 -76 12 -77 40 -77 l29 0
0 325 0 325 -29 0 c-27 0 -28 -3 -39 -66 -15 -90 -46 -150 -95 -182 -35 -23
-53 -27 -129 -30 l-88 -4 0 280 c0 242 2 283 16 296 20 21 274 23 352 3 128
-34 188 -119 231 -327 18 -84 18 -85 50 -88 l32 -3 -6 128 c-3 70 -8 183 -11
251 l-6 122 -529 0 -529 0 0 -35z"/>
<path d="M2310 3865 l0 -35 80 0 c132 0 120 65 120 -644 0 -711 11 -649 -119
-654 l-81 -4 0 -34 0 -34 540 0 540 0 0 23 c0 12 7 135 15 272 8 138 15 254
15 258 0 5 -14 7 -31 5 -32 -3 -32 -4 -49 -88 -34 -167 -94 -283 -173 -341
-68 -49 -128 -61 -293 -57 -131 3 -147 5 -160 22 -12 17 -14 119 -14 628 0
715 -13 648 125 648 l85 0 0 35 0 35 -300 0 -300 0 0 -35z"/>
<path d="M1220 2200 l0 -150 48 0 c93 0 153 53 159 142 8 101 -49 158 -154
158 l-53 0 0 -150z m123 108 c47 -24 65 -82 47 -147 -14 -51 -51 -81 -101 -81
l-39 0 0 120 0 120 36 0 c19 0 45 -5 57 -12z"/>
<path d="M2080 2200 l0 -150 70 0 c56 0 70 3 70 15 0 12 -13 15 -55 15 l-55 0
0 55 0 55 45 0 c33 0 45 4 45 15 0 11 -12 15 -45 15 l-45 0 0 50 0 50 50 0
c38 0 50 4 50 15 0 12 -14 15 -65 15 l-65 0 0 -150z"/>
<path d="M2921 2332 c-46 -25 -71 -74 -71 -138 0 -105 83 -169 174 -134 44 17
29 29 -28 23 -49 -5 -57 -3 -79 20 -51 50 -48 148 5 193 28 23 38 26 80 21 50
-6 63 4 29 23 -29 15 -72 12 -110 -8z"/>
<path d="M3750 2338 c-83 -44 -96 -194 -22 -261 29 -26 82 -32 125 -13 83 34
103 189 33 255 -30 28 -100 38 -136 19z m113 -43 c70 -70 29 -215 -60 -215
-64 0 -104 71 -88 156 14 79 95 111 148 59z"/>
<path d="M4580 2201 c0 -128 2 -151 15 -151 12 0 15 14 15 65 0 55 3 65 18 65
27 0 37 -11 72 -72 17 -32 38 -58 46 -58 8 0 14 3 14 7 0 9 -50 95 -68 115
-14 16 -12 20 12 39 20 16 26 29 26 58 0 58 -18 74 -89 79 l-61 4 0 -151z
m108 107 c17 -17 15 -64 -4 -82 -8 -9 -29 -16 -45 -16 -29 0 -29 1 -29 55 l0
55 33 0 c18 0 38 -5 45 -12z"/>
<path d="M5425 2200 c-44 -129 -49 -150 -34 -150 11 0 22 15 31 43 l15 42 55
3 55 3 13 -42 c13 -37 33 -59 46 -47 2 3 -19 71 -47 151 -38 108 -56 147 -68
147 -12 0 -29 -39 -66 -150z m104 -17 c1 -9 -13 -13 -39 -13 -22 0 -40 2 -40
4 0 4 27 82 36 106 4 10 13 -3 24 -35 10 -27 19 -56 19 -62z"/>
<path d="M6190 2335 c0 -10 11 -15 35 -15 l35 0 0 -135 c0 -113 2 -135 15
-135 13 0 15 22 15 135 l0 135 40 0 c29 0 40 4 40 15 0 12 -17 15 -90 15 -73
0 -90 -3 -90 -15z"/>
<path d="M7020 2200 c0 -127 2 -150 15 -150 13 0 15 23 15 150 0 127 -2 150
-15 150 -13 0 -15 -23 -15 -150z"/>
<path d="M7770 2338 c-83 -44 -96 -194 -22 -261 29 -26 82 -32 125 -13 83 34
103 189 33 255 -30 28 -100 38 -136 19z m113 -43 c70 -70 29 -215 -60 -215
-64 0 -104 71 -88 156 14 79 95 111 148 59z"/>
<path d="M8600 2200 c0 -125 2 -150 15 -150 12 0 15 22 17 120 l3 119 68 -119
c50 -88 73 -120 88 -120 18 0 19 8 19 150 0 127 -2 150 -15 150 -13 0 -15 -21
-15 -127 l0 -128 -73 127 c-99 176 -107 174 -107 -22z"/>
</g>
</svg>
