<?xml version="1.0" encoding="UTF-8"?>
<svg width="24px" height="24px" viewBox="0 0 24 24" version="1.1" xmlns="http://www.w3.org/2000/svg" xmlns:xlink="http://www.w3.org/1999/xlink">
    <title>brand/icon/24/basic/tag</title>
    <defs>
        <path d="M3.16884285,2.00248552 L11.785698,2.57694253 C12.0505593,2.59459995 12.300009,2.70779228 12.4877099,2.89549325 L21.6790221,12.0868054 C22.1069926,12.514776 22.1069926,13.2086534 21.6790221,13.6366239 L13.6366239,21.6790221 C13.2086534,22.1069926 12.514776,22.1069926 12.0868054,21.6790221 L2.89549325,12.4877099 C2.70779228,12.300009 2.59459995,12.0505593 2.57694253,11.785698 L2.00248552,3.16884285 C1.95838086,2.50727298 2.50727298,1.95838086 3.16884285,2.00248552 Z M4.27271676,4.27271676 L4.73647244,11.229052 L12.8617147,19.3542942 L19.3542942,12.8617147 L11.229052,4.73647244 L4.27271676,4.27271676 Z M9.53422461,6.38354887 C11.2742948,6.38354887 12.6849004,7.79415445 12.6849004,9.53422461 C12.6849004,11.2742948 11.2742948,12.6849004 9.53422461,12.6849004 C7.79415445,12.6849004 6.38354887,11.2742948 6.38354887,9.53422461 C6.38354887,7.79415445 7.79415445,6.38354887 9.53422461,6.38354887 Z M9.53422461,8.5753233 C9.00463804,8.5753233 8.5753233,9.00463804 8.5753233,9.53422461 C8.5753233,10.0638112 9.00463804,10.4931259 9.53422461,10.4931259 C10.0638112,10.4931259 10.4931259,10.0638112 10.4931259,9.53422461 C10.4931259,9.00463804 10.0638112,8.5753233 9.53422461,8.5753233 Z" id="path-1"></path>
    </defs>
    <g id="brand/icon/24/basic/tag" stroke="none" stroke-width="1" fill="none" fill-rule="evenodd">
        <mask id="mask-2" fill="white">
            <use xlink:href="#path-1"></use>
        </mask>
        <use id="tag" fill="#0066AE" xlink:href="#path-1"></use>
    </g>
</svg>