<?xml version="1.0" encoding="UTF-8"?>
<svg width="32px" height="32px" viewBox="0 0 32 32" version="1.1" xmlns="http://www.w3.org/2000/svg" xmlns:xlink="http://www.w3.org/1999/xlink">
    <title>brand/content-icon/32/benefit/free</title>
    <g id="brand/content-icon/32/benefit/free" stroke="none" stroke-width="1" fill="none" fill-rule="evenodd">
        <path d="M22.667294,4.54830599 L22.7425365,4.72613244 C23.2130974,5.98179815 22.8632531,8.83197288 22.2032207,10.2815678 L22.0836283,10.5222301 L20.9668981,12.5667787 L26.6425953,12.2118582 C28.3374189,12.1052785 29.8826775,13.3553677 29.9936337,15.04383 L29.999999,15.2405458 C30.0008014,16.3264927 29.5280714,17.3098128 28.7602375,17.9259609 L28.6784169,17.9870648 L28.724336,18.1220031 C28.7692525,18.2708916 28.8036082,18.4238965 28.8267448,18.580023 L28.852953,18.8164294 C28.9245183,19.7801713 28.561816,20.6871247 27.9258892,21.326642 L27.8802502,21.3685047 C28.0477936,21.700291 28.1603386,22.0609804 28.2129629,22.4488964 L28.2372763,22.6848472 L28.2428001,22.8076515 C28.2517766,23.6937701 27.8969255,24.5175488 27.3065989,25.1110947 L27.2650478,25.1492291 L27.3218648,25.2613636 C27.4515297,25.5391812 27.5422623,25.8376882 27.5883644,26.1491476 L27.6144838,26.3850499 C27.741705,28.0966399 26.5120918,29.6495014 24.8579412,29.8010485 L24.657465,29.8124283 L16.4151085,29.996012 C14.0463422,30.0481465 12.283509,29.5920423 10.8582488,28.455949 C10.426553,29.3671946 9.50797564,29.997991 8.4481897,29.997991 L8.4481897,29.997991 L4.67708201,29.997991 C3.20224632,29.997991 2,28.7763444 2,27.2777098 L2,27.2777098 L2,14.6400459 C2,13.1413876 3.20226937,11.9206226 4.67708201,11.9206226 L4.67708201,11.9206226 L8.4481897,11.9206226 C9.45555155,11.9206226 10.3353472,12.4901626 10.7918716,13.3287658 L15.6682987,8.74487808 L17.8639593,4.23592884 C18.7811837,2.35127215 21.8177465,2.75526208 22.667294,4.54830599 Z M19.877296,5.22074466 L19.8451658,5.23168161 L17.559032,9.92748481 C17.5191918,10.009318 17.4697552,10.0857545 17.4119121,10.1551764 L17.3189913,10.2538461 L11.1360505,16.0665539 L11.124,16.076 L11.1239504,25.4959957 C12.2910497,27.1370186 13.6510297,27.7554006 16.0456273,27.7542653 L16.3669583,27.7505701 L24.6091003,27.5669912 C25.0586596,27.5570081 25.4499569,27.085669 25.4104098,26.553615 C25.3911614,26.2928275 25.2660417,26.0564807 25.0688145,25.893114 L24.9643482,25.817737 C24.1615836,25.3160509 24.3151459,24.1138022 25.1625496,23.8061782 L25.3020779,23.7652731 C25.7080902,23.6729938 26.0058351,23.3109845 26.0285662,22.8325686 L26.0272753,22.751027 L26.0117627,22.640877 C25.9670346,22.4316551 25.8524931,22.2445467 25.6879277,22.1081035 L25.5833439,22.0325458 C24.7809485,21.5303045 24.9352996,20.3282068 25.782876,20.0211482 L25.9224263,19.9803358 C26.3677331,19.8794316 26.6834998,19.45122 26.6488821,18.9850365 C26.6336007,18.7783009 26.5524184,18.5868984 26.4196831,18.4337131 L26.3106896,18.3263473 C25.5793648,17.7108749 25.9075799,16.5306125 26.8017423,16.3590805 L26.9332764,16.3416079 C27.4180454,16.304803 27.7901415,15.8516387 27.7896906,15.2405452 C27.7899803,14.8493255 27.3981656,14.4852673 26.9132656,14.4536941 L26.778937,14.4535561 L19.0915166,14.9356608 C18.2663747,14.9874083 17.6963151,14.1424305 17.9983774,13.3939561 L18.0569021,13.2702743 L20.1503502,9.43354179 C20.5917516,8.62384142 20.9222269,6.17998112 20.6767004,5.52480702 C20.5992398,5.31775311 20.0219205,5.20722798 19.877296,5.22074466 Z M8.4481897,14.1665975 L4.67708201,14.1665975 C4.42262224,14.1665975 4.21030795,14.382178 4.21030795,14.6400459 L4.21030795,14.6400459 L4.21030795,27.2777098 C4.21030795,27.5359267 4.42296569,27.7520161 4.67708201,27.7520161 L4.67708201,27.7520161 L8.4481897,27.7520161 C8.70196252,27.7520161 8.91411954,27.5362757 8.91411954,27.2777098 L8.91411954,27.2777098 L8.91411954,14.6400459 C8.91411954,14.381829 8.70230601,14.1665975 8.4481897,14.1665975 L8.4481897,14.1665975 Z" id="Combined-Shape" fill="#0066AE"></path>
    </g>
</svg>