<?xml version="1.0" encoding="UTF-8"?>
<svg width="24px" height="24px" viewBox="0 0 24 24" version="1.1" xmlns="http://www.w3.org/2000/svg" xmlns:xlink="http://www.w3.org/1999/xlink">
    <title>brand/icon/24/basic/chat</title>
    <defs>
        <path d="M8.14500289,2 L15.8549971,2 C19.1572898,2 21.8508287,4.60269924 21.9940132,7.86789664 L22,8.1414884 L22,11.9771337 C22,15.2869937 19.3923433,17.9851416 16.1200915,18.1285697 L15.845907,18.1345667 L14.907352,18.1345667 L10.0532509,21.7933914 C9.41497048,22.2745014 8.51682034,21.8711789 8.41899588,21.111931 L8.41025641,20.974359 L8.41025641,18.1345667 L8.15409296,18.1345667 C4.84717819,18.1345667 2.1494062,15.5261763 2.00599626,12.254572 L2,11.9804448 L2,8.15028975 C2,4.84421866 4.60366136,2.14924901 7.87121182,2.00598993 L8.14500289,2 Z M15.8549971,4.05128205 L8.14500289,4.05128205 C5.96153578,4.05128205 4.17815601,5.76065241 4.05776057,7.91753972 L4.05128205,8.15028975 L4.05128205,11.9804448 C4.05128205,14.1682253 5.76370978,15.9560901 7.92127919,16.0767897 L8.15409296,16.0832847 L9.43589744,16.0832847 C9.95877057,16.0832847 10.3902584,16.4745515 10.4535473,16.9802715 L10.4615385,17.1089257 L10.4615385,18.9169038 L13.9467491,16.2898932 C14.0890589,16.1826259 14.2562122,16.1147568 14.4314348,16.0918999 L14.5641026,16.0832847 L15.845907,16.0832847 C18.0342328,16.0832847 19.821563,14.3707342 19.9422251,12.2102685 L19.9487179,11.9771337 L19.9487179,8.1414884 C19.9487179,5.88247395 18.1164084,4.05128205 15.8549971,4.05128205 Z M9.43589744,10.974359 L14.5641026,10.974359 C15.1305485,10.974359 15.5897436,11.4335541 15.5897436,12 C15.5897436,12.5228731 15.1984767,12.954361 14.6927568,13.0176498 L14.5641026,13.025641 L9.43589744,13.025641 C8.86945154,13.025641 8.41025641,12.5664459 8.41025641,12 C8.41025641,11.4771269 8.80152327,11.045639 9.3072432,10.9823502 L9.43589744,10.974359 L14.5641026,10.974359 L9.43589744,10.974359 Z M8.15384615,7.12820513 L15.8461538,7.12820513 C16.4125997,7.12820513 16.8717949,7.58740026 16.8717949,8.15384615 C16.8717949,8.67671929 16.480528,9.10820716 15.9748081,9.17149598 L15.8461538,9.17948718 L8.15384615,9.17948718 C7.58740026,9.17948718 7.12820513,8.72029205 7.12820513,8.15384615 C7.12820513,7.63097302 7.51947198,7.19948515 8.02519192,7.13619633 L8.15384615,7.12820513 Z" id="path-1"></path>
    </defs>
    <g id="brand/icon/24/basic/chat" stroke="none" stroke-width="1" fill="none" fill-rule="evenodd">
        <mask id="mask-2" fill="white">
            <use xlink:href="#path-1"></use>
        </mask>
        <use id="chat" fill="#0066AE" xlink:href="#path-1"></use>
    </g>
</svg>