<?xml version="1.0" encoding="UTF-8"?>
<svg width="24px" height="24px" viewBox="0 0 24 24" version="1.1" xmlns="http://www.w3.org/2000/svg" xmlns:xlink="http://www.w3.org/1999/xlink">
    <title>brand/icon/24/basic/clock</title>
    <defs>
        <path d="M12,2 C17.5228475,2 22,6.4771525 22,12 C22,17.5228475 17.5228475,22 12,22 C6.4771525,22 2,17.5228475 2,12 C2,6.4771525 6.4771525,2 12,2 Z M12,4.05128205 C7.6100443,4.05128205 4.05128205,7.6100443 4.05128205,12 C4.05128205,16.3899557 7.6100443,19.9487179 12,19.9487179 C16.3899557,19.9487179 19.9487179,16.3899557 19.9487179,12 C19.9487179,7.6100443 16.3899557,4.05128205 12,4.05128205 Z M12,5.19909099 C12.5826301,5.19909099 13.0634308,5.63507406 13.1339527,6.19859057 L13.1428571,6.34194814 L13.1428571,11.5247048 L15.7665469,14.1334885 C16.21413,14.5785287 16.2161914,15.3021429 15.7711512,15.749726 C15.3665691,16.1566197 14.7317607,16.1953137 14.2834088,15.8646209 L14.1549137,15.7543303 L11.1941834,12.8104209 C11.0215937,12.6388117 10.9094416,12.4178169 10.8714843,12.1805161 L10.8571429,12 L10.8571429,6.34194814 C10.8571429,5.71076557 11.3688174,5.19909099 12,5.19909099 Z" id="path-1"></path>
    </defs>
    <g id="brand/icon/24/basic/clock" stroke="none" stroke-width="1" fill="none" fill-rule="evenodd">
        <mask id="mask-2" fill="white">
            <use xlink:href="#path-1"></use>
        </mask>
        <use id="clock" fill="#0066AE" fill-rule="nonzero" xlink:href="#path-1"></use>
    </g>
</svg>