<?xml version="1.0" encoding="UTF-8"?>
<svg width="24px" height="24px" viewBox="0 0 24 24" version="1.1" xmlns="http://www.w3.org/2000/svg" xmlns:xlink="http://www.w3.org/1999/xlink">
    <title>brand/icon/24/basic/location</title>
    <defs>
        <path d="M11.723052,2 C16.5396019,2 20.4461039,5.9039554 20.4461039,10.7180345 C20.4461039,16.4128239 14.8552832,22 11.723052,22 C8.59082072,22 3,16.4128239 3,10.7180345 C3,5.9039554 6.90650201,2 11.723052,2 Z M11.723052,4.05248282 C8.03975746,4.05248282 5.05248282,7.03781008 5.05248282,10.7180345 C5.05248282,13.2771649 6.19827131,15.6041848 8.11902164,17.5236831 C9.49785528,18.9016178 11.2724936,19.9475172 11.723052,19.9475172 C12.1736103,19.9475172 13.9482486,18.9016178 15.3270823,17.5236831 C17.2478326,15.6041848 18.3936211,13.2771649 18.3936211,10.7180345 C18.3936211,7.03781008 15.4063465,4.05248282 11.723052,4.05248282 Z M11.723052,7.13120704 C13.7067731,7.13120704 15.3148969,8.73933079 15.3148969,10.723052 C15.3148969,12.7067731 13.7067731,14.3148969 11.723052,14.3148969 C9.73933079,14.3148969 8.13120704,12.7067731 8.13120704,10.723052 C8.13120704,8.73933079 9.73933079,7.13120704 11.723052,7.13120704 Z M11.723052,9.18368985 C10.8728857,9.18368985 10.1836899,9.87288575 10.1836899,10.723052 C10.1836899,11.5732182 10.8728857,12.2624141 11.723052,12.2624141 C12.5732182,12.2624141 13.2624141,11.5732182 13.2624141,10.723052 C13.2624141,9.87288575 12.5732182,9.18368985 11.723052,9.18368985 Z" id="path-1"></path>
    </defs>
    <g id="brand/icon/24/basic/location" stroke="none" stroke-width="1" fill="none" fill-rule="evenodd">
        <mask id="mask-2" fill="white">
            <use xlink:href="#path-1"></use>
        </mask>
        <use id="location" fill="#0066AE" xlink:href="#path-1"></use>
    </g>
</svg>