<?xml version="1.0" encoding="UTF-8"?>
<svg width="24px" height="24px" viewBox="0 0 24 24" version="1.1" xmlns="http://www.w3.org/2000/svg" xmlns:xlink="http://www.w3.org/1999/xlink">
    <title>brand/icon/24/basic/love</title>
    <defs>
        <path d="M15.7855248,3 C19.7231677,3 22,6.4128199 22,9.88719853 C22,13.2579911 20.3081617,16.1852285 17.5484519,18.5382831 C15.5977468,20.2015433 13.0507278,21.5278515 12,21.5278515 C10.9498292,21.5278515 8.40270411,20.2013983 6.45205449,18.5383114 C3.69203527,16.1851712 2,13.2579777 2,9.88719853 C2,6.4128199 4.27683235,3 8.21447518,3 C9.54495222,3 10.6889089,3.51292531 11.6355842,4.35861029 L11.8681367,4.57685977 L12,4.71013722 L12.1305096,4.57819342 L12.3631114,4.35977133 C13.3100013,3.51341102 14.4543841,3 15.7855248,3 Z M15.7855248,5.33421751 C15.0226963,5.33421751 14.3550401,5.66318698 13.7689073,6.24078906 C13.5032483,6.50258152 13.3002162,6.76529834 13.1668791,6.97089655 L13.0219935,7.22205922 L12.9509231,7.33623532 C12.8009754,7.54947537 12.5948542,7.69301477 12.3692828,7.76684919 L12.175413,7.81232638 L12.0890152,7.82218838 L11.9578273,7.82476269 L11.8242761,7.81254624 L11.7135429,7.79011362 L11.6543908,7.77427398 L11.5772055,7.74639075 C11.438195,7.69471098 11.3083254,7.61457958 11.1960715,7.50733677 L11.1081041,7.41326207 L11.0230705,7.29773295 L10.904589,7.08683109 C10.7780017,6.86968773 10.5491376,6.55402106 10.2302265,6.2399357 C9.64427061,5.66284651 8.97691414,5.33421751 8.21447518,5.33421751 C5.81232794,5.33421751 4.33421751,7.5498065 4.33421751,9.88719853 C4.33421751,12.482849 5.68184014,14.8142142 7.96646673,16.7620437 C9.53262484,18.0973204 11.6378237,19.193634 12,19.193634 C12.3627599,19.193634 14.4677565,18.0974999 16.0339733,16.762072 C18.3183165,14.8143367 19.6657825,12.482936 19.6657825,9.88719853 C19.6657825,7.5498065 18.1876721,5.33421751 15.7855248,5.33421751 Z" id="path-1"></path>
    </defs>
    <g id="brand/icon/24/basic/love" stroke="none" stroke-width="1" fill="none" fill-rule="evenodd">
        <mask id="mask-2" fill="white">
            <use xlink:href="#path-1"></use>
        </mask>
        <use id="love" fill="#0066AE" xlink:href="#path-1"></use>
    </g>
</svg>