<?xml version="1.0" encoding="UTF-8"?>
<svg width="24px" height="24px" viewBox="0 0 24 24" version="1.1" xmlns="http://www.w3.org/2000/svg" xmlns:xlink="http://www.w3.org/1999/xlink">
    <title>brand/icon/24/basic/mail</title>
    <defs>
        <path d="M19.6923077,5 C20.9672941,5 22,6.03274586 22,7.30685655 L22,17.5565808 C22,18.8306914 20.9672941,19.8634373 19.6923077,19.8634373 L4.30769231,19.8634373 C3.03370377,19.8634373 2,18.8304074 2,17.5565808 L2,7.30685655 C2,6.03302991 3.03370377,5 4.30769231,5 L19.6923077,5 Z M19.9487179,8.42692308 L12.6563467,14.501064 C12.3141074,14.7860774 11.8326326,14.8145788 11.4625462,14.586568 L11.3436533,14.501064 L4.05128205,8.42820513 L4.05128205,17.5565808 C4.05128205,17.697216 4.16629623,17.8121553 4.30769231,17.8121553 L19.6923077,17.8121553 C19.8343846,17.8121553 19.9487179,17.6978174 19.9487179,17.5565808 L19.9487179,8.42692308 Z M18.3974359,7.05 L5.60128205,7.05 L12,12.3782054 L18.3974359,7.05 Z" id="path-1"></path>
    </defs>
    <g id="brand/icon/24/basic/mail" stroke="none" stroke-width="1" fill="none" fill-rule="evenodd">
        <mask id="mask-2" fill="white">
            <use xlink:href="#path-1"></use>
        </mask>
        <use id="mail" fill="#0066AE" xlink:href="#path-1"></use>
    </g>
</svg>