<?xml version="1.0" encoding="UTF-8"?>
<svg width="32px" height="32px" viewBox="0 0 32 32" version="1.1" xmlns="http://www.w3.org/2000/svg" xmlns:xlink="http://www.w3.org/1999/xlink">
    <title>brand/content-icon/32/benefit/calendar</title>
    <g id="brand/content-icon/32/benefit/calendar" stroke="none" stroke-width="1" fill="none" fill-rule="evenodd">
        <path d="M22.1609134,2 C22.7475092,2 23.2324902,2.4350647 23.3107813,3.00011909 L25.9589116,3 C28.1064013,3 29.8742121,4.69025517 29.9935766,6.80131498 L30,7.02905236 L30,26.2941445 C30,28.3295731 29.3908091,28.9532249 27.4813932,28.9974243 L27.2552664,29 L4.36899727,28.9996778 C3.25998742,28.995566 3.03427206,28.9470983 2.57262236,28.5249891 C2.07697836,28.0717973 2.00807854,27.7718429 2.000759,26.714418 L2,7.02905236 C2,4.88692746 3.69280565,3.12534214 5.81245893,3.00640061 L6.04114031,3 L9.01104546,3.00011909 C9.08933661,2.4350647 9.5743176,2 10.1609134,2 C10.7475092,2 11.2324902,2.4350647 11.3107813,3.00011909 L13.0110455,3.00011909 C13.0893366,2.4350647 13.5743176,2 14.1609134,2 C14.7475092,2 15.2324902,2.4350647 15.3107813,3.00011909 L17.0110455,3.00011909 C17.0893366,2.4350647 17.5743176,2 18.1609134,2 C18.7475092,2 19.2324902,2.4350647 19.3107813,3.00011909 L21.0110455,3.00011909 C21.0893366,2.4350647 21.5743176,2 22.1609134,2 Z M27.6707287,10.0544837 L4.32876281,10.0544837 L4.32876281,26.6767148 L27.254779,26.6781562 L27.6642833,26.674135 L27.6676282,26.5975864 L27.6707287,10.0544837 Z M25.1582758,11.473909 C25.8727981,11.473909 26.4520329,12.0514186 26.4520329,12.7638128 L26.4520329,24.3729467 C26.4520329,25.0853408 25.8727981,25.6628504 25.1582758,25.6628504 L7.04567619,25.6628504 C6.33115386,25.6628504 5.75191907,25.0853408 5.75191907,24.3729467 L5.75191907,12.7638128 C5.75191907,12.0514186 6.33115386,11.473909 7.04567619,11.473909 L25.1582758,11.473909 Z M10.9269241,21.792608 L8.08065844,21.792608 L8.08065844,23.3410236 L10.9269241,23.3404925 L10.9269241,21.792608 Z M17.6544845,21.792608 L13.2556869,21.792608 L13.2556869,23.3410236 L17.6544845,23.3410236 L17.6544845,21.792608 Z M24.1232701,21.792608 L19.9832239,21.792608 L19.9832239,23.3404925 L24.1232701,23.3410236 L24.1232701,21.792608 Z M10.9269241,17.6649159 L8.08068188,17.6654471 L8.08068188,19.4713123 L10.9269241,19.4707812 L10.9269241,17.6649159 Z M19.9832239,17.6649159 L19.9832239,19.4707812 L24.1232701,19.4713123 L24.1232701,17.6654471 L19.9832239,17.6649159 Z M17.6544611,17.6649159 L13.2556869,17.6649159 L13.2556869,19.4707812 L17.6544611,19.4707812 L17.6544611,17.6649159 Z M10.9269241,13.7952046 L8.08065844,13.7957358 L8.08065844,15.3430892 L10.9269241,15.3430892 L10.9269241,13.7952046 Z M17.6544845,13.7957358 L13.2556869,13.7957358 L13.2556869,15.3430892 L17.6544845,15.3430892 L17.6544845,13.7957358 Z M24.1232701,13.7957358 L19.9832239,13.7952046 L19.9832239,15.3430892 L24.1232701,15.3430892 L24.1232701,13.7957358 Z M25.9589116,5.32182678 L23.2170992,5.32162941 C23.0339251,5.72190843 22.6298951,6 22.1609134,6 C21.6919317,6 21.2879017,5.72190843 21.1047276,5.32162941 L19.2170992,5.32162941 C19.0339251,5.72190843 18.6298951,6 18.1609134,6 C17.6919317,6 17.2879017,5.72190843 17.1047276,5.32162941 L15.2170992,5.32162941 C15.0339251,5.72190843 14.6298951,6 14.1609134,6 C13.6919317,6 13.2879017,5.72190843 13.1047276,5.32162941 L11.2170992,5.32162941 C11.0339251,5.72190843 10.6298951,6 10.1609134,6 C9.69193165,6 9.28790168,5.72190843 9.10472761,5.32162941 L6.04114031,5.32182678 C5.16070808,5.32182678 4.42608759,5.99938689 4.33769922,6.85558098 L4.32876281,7.02905375 L4.32876281,7.73265692 L27.6707287,7.73265692 L27.6712372,7.02905236 C27.6712372,6.15335901 26.9902997,5.41909946 26.1326486,5.33073769 L25.9589116,5.32182678 Z" id="Shape" fill="#0066AE"></path>
    </g>
</svg>