<?xml version="1.0" encoding="UTF-8"?>
<svg width="32px" height="32px" viewBox="0 0 32 32" version="1.1" xmlns="http://www.w3.org/2000/svg" xmlns:xlink="http://www.w3.org/1999/xlink">
    <title>brand/content-icon/32/benefit/e-banking</title>
    <g id="brand/content-icon/32/benefit/e-banking" stroke="none" stroke-width="1" fill="none" fill-rule="evenodd">
        <path d="M17.2180851,2 C19.4361421,2 21.2492313,3.7072778 21.3759085,5.86004461 L21.3829787,6.1010101 L21.3815426,7.65656566 L27.2712766,7.65656566 C28.7065455,7.65656566 29.8830014,8.74767866 29.9917903,10.1334571 L30,10.3434343 L30,17.4141414 C30,18.8273953 28.8918902,19.9858061 27.4845247,20.0929263 L27.2712766,20.1010101 L21.3815426,20.1010101 L21.3829787,25.8989899 C21.3829787,28.083025 19.6491058,29.8683041 17.4628042,29.9930383 L17.2180851,30 L7.16489362,30 C4.94683665,30 3.1337474,28.2927222 3.00707018,26.1399554 L3,25.8989899 L3,6.1010101 C3,3.91697495 4.73387293,2.1316959 6.92017448,2.00696173 L7.16489362,2 L17.2180851,2 Z M18.7921277,25.9838384 L5.58941489,25.9838384 L5.59437636,26.0684848 C5.67402013,26.7921937 6.25777589,27.3669955 6.99275839,27.4454177 L7.16489362,27.4545455 L17.2180851,27.4545455 C18.0324113,27.4545455 18.7028322,26.8478637 18.7886024,26.0684848 L18.7921277,25.9838384 Z M17.2180851,4.54545455 L7.16489362,4.54545455 C6.35056738,4.54545455 5.68014657,5.15213635 5.59437636,5.93151519 L5.58510638,6.1010101 L5.58367021,23.4383838 L18.7964362,23.4383838 L18.7964362,20.1010101 L14.3457447,20.1010101 C12.9104758,20.1010101 11.7340198,19.0098971 11.625231,17.6241186 L11.6170213,17.4141414 L11.6170213,10.3434343 C11.6170213,8.93018044 12.7251311,7.77176963 14.1324966,7.66464945 L14.3457447,7.65656566 L18.7964362,7.65656566 L18.7978723,6.1010101 C18.7978723,5.29917446 18.1817399,4.63903695 17.3902203,4.55458233 L17.2180851,4.54545455 Z M27.4134574,14.3030303 L14.2006915,14.3030303 L14.2021277,17.4141414 C14.2021277,17.4727171 14.2382961,17.5229747 14.2898425,17.5444425 L14.3457447,17.5555556 L27.2712766,17.5555556 C27.3307647,17.5555556 27.3818052,17.5199418 27.4036075,17.4691862 L27.4148936,17.4141414 L27.4134574,14.3030303 Z M27.2712766,10.2020202 L14.3457447,10.2020202 C14.2862566,10.2020202 14.235216,10.2376339 14.2134138,10.2883896 L14.2021277,10.3434343 L14.2006915,11.7575758 L27.4134574,11.7575758 L27.4148936,10.3434343 C27.4148936,10.2848587 27.3787251,10.2346011 27.3271788,10.2131332 L27.2712766,10.2020202 Z" id="Shape" fill="#0066AE"></path>
    </g>
</svg>