<?xml version="1.0" encoding="UTF-8"?>
<svg width="64px" height="64px" viewBox="0 0 64 64" version="1.1" xmlns="http://www.w3.org/2000/svg" xmlns:xlink="http://www.w3.org/1999/xlink">
    <title>brand/content-icon/64/product/asuransi-protection</title>
    <g id="brand/content-icon/64/product/asuransi-protection" stroke="none" stroke-width="1" fill="none" fill-rule="evenodd">
        <path d="M30.2913541,4.37439286 C31.0801922,3.93624038 32.0148546,3.88243914 32.8393824,4.21418268 L33.1429179,4.35666125 L52.4066617,14.7407217 C53.2977359,15.2207663 53.8854837,16.1191841 53.9849827,17.1246764 L54,17.429225 L54,30.7249027 C53.9988715,42.6235144 47.0752286,53.3812318 36.3935806,58.2047565 L32.8570794,59.7505526 C32.1902973,60.0426036 31.4449303,60.078076 30.7596525,59.8576568 L30.4700452,59.7475267 L27.8677665,58.6003298 C17.233348,53.8963169 10.2832097,43.3857516 10.0084409,31.6834932 L10,30.9937854 L10,17.429225 C10,16.4172568 10.4945745,15.4794544 11.3073818,14.915991 L11.5605947,14.7584823 L30.2913541,4.37439286 Z M31.7515151,9.02854555 L14.9999995,18.5130298 L14.9999995,31.0234491 C15.0094202,40.5699074 20.2315814,49.2496262 28.4160672,53.510995 L28.9660636,53.7885016 L29.6258571,54.0986715 L31.6836363,55.0285455 L34.7489688,53.6553963 C43.0043353,49.7682677 48.4704391,41.4642592 48.9635843,32.1412061 L48.9894762,31.5040042 L48.9999995,30.7646721 L48.9999995,18.5230823 L31.7515151,9.02854555 Z" id="Shape" fill="#0066AE"></path>
    </g>
</svg>