<?xml version="1.0" encoding="UTF-8"?>
<svg width="64px" height="64px" viewBox="0 0 64 64" version="1.1" xmlns="http://www.w3.org/2000/svg" xmlns:xlink="http://www.w3.org/1999/xlink">
    <title>brand/content-icon/64/product/hubungan-investor-laporan-keuangan</title>
    <g id="brand/content-icon/64/product/hubungan-investor-laporan-keuangan" stroke="none" stroke-width="1" fill="none" fill-rule="evenodd">
        <path d="M32,4 C43.045695,4 52,12.8489602 52,23.7647059 C52,32.7188681 45.9747512,40.2823142 37.7123697,42.7114942 L37.7142857,54.3529412 C37.7142857,57.4717256 35.1559129,60 32,60 C28.9755835,60 26.4999494,57.6780258 26.2988973,54.7395735 L26.2857143,54.3529412 L26.2852623,42.7107978 C18.0240975,40.280869 12,32.7180126 12,23.7647059 C12,12.8489602 20.954305,4 32,4 Z M33.4285714,43.5294118 L30.5714286,43.5294118 L30.5714286,54.3529412 C30.5714286,54.9766981 30.9807682,55.5059733 31.5484609,55.6927332 L31.7682783,55.7462283 L32,55.7647059 C32.7100804,55.7647059 33.2991589,55.2527303 33.4098738,54.5819367 L33.4285714,54.3529412 L33.4285714,43.5294118 Z M32,8.23529412 C23.3212396,8.23529412 16.2857143,15.1880486 16.2857143,23.7647059 C16.2857143,32.3413632 23.3212396,39.2941176 32,39.2941176 C40.6787604,39.2941176 47.7142857,32.3413632 47.7142857,23.7647059 C47.7142857,15.1880486 40.6787604,8.23529412 32,8.23529412 Z M32,11.0588235 C39.1008039,11.0588235 44.8571429,16.7474408 44.8571429,23.7647059 C44.8571429,30.7819709 39.1008039,36.4705882 32,36.4705882 C24.8991961,36.4705882 19.1428571,30.7819709 19.1428571,23.7647059 C19.1428571,16.7474408 24.8991961,11.0588235 32,11.0588235 Z M32,15.2941176 C27.2661307,15.2941176 23.4285714,19.0865292 23.4285714,23.7647059 C23.4285714,28.4428826 27.2661307,32.2352941 32,32.2352941 C36.7338693,32.2352941 40.5714286,28.4428826 40.5714286,23.7647059 C40.5714286,19.0865292 36.7338693,15.2941176 32,15.2941176 Z" id="Shape" fill="#0066AE" transform="translate(32.000000, 32.000000) rotate(45.000000) translate(-32.000000, -32.000000) "></path>
    </g>
</svg>