<svg xmlns="http://www.w3.org/2000/svg" width="48" height="48" viewBox="0 0 48 48">
    <g fill="none" fill-rule="evenodd">
        <g>
            <g>
                <g fill="#0C5EA9">
                    <path d="M38.591 24.192c-.293-.214-.679-.252-1.008-.1-.33.153-.552.471-.58.834-.024.335.12.658.384.864.29.226.682.273 1.018.124.337-.15.565-.471.595-.84l-.024-.018c.023-.334-.121-.658-.385-.864M37.69 28.05c-.419.136-.699.53-.69.97.01.442.306.824.73.943.389.109.805-.027 1.055-.344.273-.346.287-.83.035-1.191-.252-.361-.71-.515-1.13-.379M1.387 20.798c.296.222.689.264 1.025.11.336-.152.56-.477.586-.845.023-.327-.116-.644-.37-.85-.439-.342-1.073-.264-1.415.173-.342.438-.264 1.07.174 1.412M1.377 16.791c.1.084.22.143.35.172.393.11.814-.03 1.063-.354.079-.1.138-.214.174-.336.07-.258.037-.533-.095-.766-.132-.232-.35-.402-.608-.473-.458-.123-.94.094-1.153.518-.214.425-.102.942.269 1.24M39.996 20.463c-1.235-9.546-9.72-16.788-19.542-16.867l1.088-1.352c.485-.604.375-1.478-.247-1.95s-1.523-.364-2.01.24l-2.982 3.708c-.486.603-.375 1.478.247 1.95l3.82 2.896c.622.472 1.523.364 2.009-.24.485-.603.375-1.478-.247-1.95l-.664-.503c8.072.508 14.72 6.499 15.74 14.44.014.08.037.157.069.231.018.078.045.154.08.227l.026.048c.091.142.206.269.355.387.124.091.262.161.409.209.082.036.183.06.293.051.099.012.199.015.298.009l.059-.008c.086-.016.17-.04.252-.07.067-.018.137-.042.233-.083.164-.083.305-.196.435-.354.173-.23.267-.5.274-.784.007-.062.01-.124.009-.186l-.004-.05zM23.395 38.329l-3.037-2.385c-.62-.486-1.518-.375-2.002.248-.46.592-.383 1.435.155 1.936-8.051-.521-14.683-6.707-15.697-14.891-.012-.092-.038-.182-.077-.267-.017-.064-.037-.128-.06-.19l-.034-.073c-.186-.324-.485-.559-.843-.662l-.05-.011c-.079-.014-.16-.021-.241-.023-.092-.015-.187-.015-.29 0-.075.014-.148.035-.218.064-.271.077-.513.232-.71.464-.118.152-.204.325-.262.554-.015.089-.023.18-.023.27-.004.062-.006.124-.006.186l.004.056c.67 5.38 3.481 10.044 7.487 13.188 3.371 2.648 7.59 4.219 12.087 4.234l-.51.656c-.483.624-.373 1.527.247 2.014.62.486 1.519.375 2.003-.248l2.379-3.062c.241-.31.346-.712.287-1.101-.058-.386-.273-.733-.589-.957" transform="translate(-49 -606) translate(49 606) translate(4 2)"/>
                    <path d="M11.219 11.136c4.736-1.515 9.827-1.515 14.562 0 .99.316 1.767 1.092 2.083 2.083 1.515 4.735 1.515 9.825 0 14.56-.316.99-1.092 1.767-2.083 2.083-4.735 1.517-9.827 1.517-14.562 0-.99-.316-1.767-1.092-2.084-2.083-1.513-4.735-1.513-9.825 0-14.56.317-.991 1.093-1.767 2.084-2.083zm12.646 4.954c-.326-.092-.676-.003-.918.232l-6.313 6.322-2.594-2.565c-.364-.365-.956-.365-1.32 0-.366.364-.366.955 0 1.32l3.254 3.253c.174.176.412.275.66.275.248 0 .485-.1.66-.275l6.973-6.972c.243-.236.34-.583.258-.91-.083-.33-.335-.588-.66-.68z" transform="translate(-49 -606) translate(49 606) translate(4 2)"/>
                </g>
                <path d="M0 0H48V48H0z" transform="translate(-49 -606) translate(49 606)"/>
            </g>
        </g>
    </g>
</svg>
