<?xml version="1.0" encoding="UTF-8"?>
<svg width="32px" height="32px" viewBox="0 0 32 32" version="1.1" xmlns="http://www.w3.org/2000/svg" xmlns:xlink="http://www.w3.org/1999/xlink">
    <title>brand/content-icon/32/benefit/registration</title>
    <g id="brand/content-icon/32/benefit/registration" stroke="none" stroke-width="1" fill="none" fill-rule="evenodd">
        <path d="M25.6073686,2.32352795 C26.0389196,1.89214745 26.7385759,1.8921588 27.170113,2.3235533 L27.170113,2.3235533 L29.6763398,4.82895237 C30.1078966,5.26036668 30.1078853,5.95983097 29.6763144,6.39123127 L29.6763144,6.39123127 L24.6970601,11.3693939 C24.6982519,11.3774578 24.6993565,11.38555 24.700373,11.3936696 L24.7089829,11.5322384 L24.7089829,29.8953199 C24.7089829,30.4584873 24.2874246,30.9232269 23.7425523,30.991393 L23.6039378,31 L3.10504506,31 C2.54169164,31 2.07679845,30.5785809 2.00860987,30.0338886 L2,29.8953199 L2,6.53494186 C2,5.97177451 2.42155832,5.50703486 2.96643055,5.43886881 L3.10504506,5.43026178 L22.499,5.43 Z M4.20886229,7.63877808 L4.20886229,28.7897193 L22.4985858,28.7897193 L22.498,13.566 L16.6699341,19.3924719 C16.57613,19.486239 16.4664671,19.5620966 16.3463796,19.6167409 L16.2230185,19.6641917 L12.55189,20.8295525 C11.6979143,21.100638 10.8931943,20.296405 11.1641344,19.4426369 L11.1641344,19.4426369 L12.329036,15.771877 C12.382559,15.603219 12.4758262,15.4498812 12.6009883,15.3247686 L12.6009883,15.3247686 L20.289,7.639 L4.20886229,7.63877808 Z M20.0812583,25.0213169 C20.6915578,25.0213169 21.1863034,25.515899 21.1863034,26.125997 C21.1863034,26.6891643 20.7647451,27.153904 20.2198728,27.22207 L20.0812583,27.2306771 L6.24997954,27.2306771 C5.63968,27.2306771 5.14493448,26.736095 5.14493448,26.125997 C5.14493448,25.5628296 5.5664928,25.09809 6.11136503,25.0299239 L6.24997954,25.0213169 L20.0812583,25.0213169 Z M20.0812583,21.6387569 C20.6915578,21.6387569 21.1863034,22.133339 21.1863034,22.743437 C21.1863034,23.3066043 20.7647451,23.771344 20.2198728,23.83951 L20.0812583,23.8481171 L6.24997954,23.8481171 C5.63968,23.8481171 5.14493448,23.353535 5.14493448,22.743437 C5.14493448,22.1802696 5.5664928,21.71553 6.11136503,21.6473639 L6.24997954,21.6387569 L20.0812583,21.6387569 Z M26.3883444,4.66596125 L14.3544037,16.6946999 L13.9148414,18.0780048 L15.2986033,17.6385876 L27.3313162,5.60984901 L26.3883444,4.66596125 Z" id="Combined-Shape" fill="#0066AE"></path>
    </g>
</svg>