<?xml version="1.0" encoding="UTF-8"?>
<svg width="32px" height="32px" viewBox="0 0 32 32" version="1.1" xmlns="http://www.w3.org/2000/svg" xmlns:xlink="http://www.w3.org/1999/xlink">
    <title>brand/content-icon/32/benefit/achivement</title>
    <g id="brand/content-icon/32/benefit/achivement" stroke="none" stroke-width="1" fill="none" fill-rule="evenodd">
        <path d="M28.9335051,4 L29.0608943,4.00742722 C29.6448643,4.07605684 30.0731661,4.61058069 29.989555,5.20463189 L29.989555,5.20463189 L29.1814135,10.9464228 L29.1394462,11.1944652 C28.6760253,13.5360976 26.3966039,15.3404621 23.4682619,15.8915391 C22.6467435,17.8925067 21.0534064,19.4754033 19.0582405,20.2295855 L18.7909035,20.3241828 L18.79408,20.3472642 C18.8147165,20.4294546 18.8611295,20.4911637 18.9022483,20.518831 L18.9404517,20.5346489 L19.0005166,20.5381314 C20.0213341,20.5381314 20.8783685,21.1965238 21.2068418,22.1081399 L21.6107893,22.1087125 C22.1543917,22.1087125 22.602986,22.5124139 22.6687839,23.0342057 L22.6770919,23.1669486 L22.677,26.883 L23.7849666,26.8835279 C24.3738692,26.8835279 24.8512691,27.3573163 24.8512691,27.9417639 C24.8512691,28.4812541 24.4444905,28.9264547 23.9187213,28.9917548 L23.7849666,29 L8.07902839,29 C7.49012574,29 7.01272582,28.5262116 7.01272582,27.9417639 C7.01272582,27.4022738 7.41950445,26.9570732 7.94527366,26.891773 L8.07902839,26.8835279 L9.017,26.883 L9.0177392,23.1669486 C9.0177392,22.6274585 9.42451784,22.1822578 9.95028705,22.1169577 L10.0840418,22.1087125 L10.6577373,22.1083776 C10.9455279,21.3142446 11.6402819,20.7087131 12.5251173,20.5664358 L12.7129875,20.5435172 L12.8634783,20.5381314 C12.9535432,20.5381314 13.0444238,20.4590707 13.0722156,20.3372591 L13.0731522,20.3241828 L12.8057544,20.2295855 C10.8012659,19.4718793 9.20236997,17.877696 8.38443766,15.8631315 C5.52742158,15.2800691 3.31619964,13.4971145 2.86055381,11.1947687 L2.81858647,10.9467263 L2.01044499,5.2049354 C1.9268339,4.6108842 2.35513569,4.07636035 2.93910566,4.00773073 L3.06649493,4.00030351 L28.9335051,4 Z M20.5443789,24.2243706 L11.1502532,24.2243706 L11.15,26.883 L20.544,26.883 L20.5443789,24.2243706 Z M22.6118211,6.11677564 L9.25104985,6.11677564 L9.94866925,13.3795026 C10.1855815,15.8482627 11.8834745,17.853948 14.1221836,18.4278322 L14.3640728,18.4837968 C14.8134352,18.576659 15.1471403,18.9422916 15.2043094,19.3844728 L15.2130031,19.5192274 L15.2134138,20.258749 C15.2134138,21.0000172 14.8813604,21.6684805 14.3643881,22.1095989 L17.5072185,22.1093269 C17.0250652,21.7039188 16.7073709,21.1076807 16.657473,20.4424934 L16.6505813,20.2581655 L16.6509918,19.5192274 C16.6512702,19.0181459 17.0056235,18.5859453 17.4999222,18.4837968 C19.7760873,18.0134198 21.5442994,16.0766443 21.8843937,13.6421965 L21.9153257,13.3795026 L22.6118211,6.11677564 Z M27.7090799,6.11647213 L24.754,6.116 L24.0411205,13.5616071 C25.6587408,13.0214221 26.7925226,11.9786825 27.0405737,10.8160139 L27.0693137,10.6536312 L27.7090799,6.11647213 Z M7.109,6.116 L4.29155811,6.11677564 L4.93068634,10.6539347 C5.09865712,11.8473559 6.20280587,12.9349843 7.81984243,13.5138225 L7.109,6.116 Z" id="Combined-Shape" fill="#0066AE"></path>
    </g>
</svg>