<?xml version="1.0" encoding="UTF-8"?>
<svg width="32px" height="32px" viewBox="0 0 32 32" version="1.1" xmlns="http://www.w3.org/2000/svg" xmlns:xlink="http://www.w3.org/1999/xlink">
    <title>brand/content-icon/32/benefit/applyonline</title>
    <g id="brand/content-icon/32/benefit/applyonline" stroke="none" stroke-width="1" fill="none" fill-rule="evenodd">
        <path d="M21.2732738,6 C21.7668712,6 22.1742,6.36884117 22.2339452,6.84557548 L22.241489,6.96685582 L22.2412837,10.7660304 L25.4498884,10.7665721 C25.9434858,10.7665721 26.3508146,11.1354133 26.4105598,11.6121476 L26.4181036,11.7334279 L26.4171389,22.0577689 L29.7144753,25.3494739 C30.295372,25.929555 29.9312102,26.9017955 29.1500753,26.9930745 L29.0298438,27 L3.97015623,27 C3.14864422,27 2.71770104,26.0553824 3.20541212,25.4392681 L3.2855247,25.3494739 L6.58125716,22.0577689 L6.5818964,11.7334279 C6.5818964,11.2405235 6.95125615,10.8337667 7.42866074,10.7741053 L7.5501116,10.7665721 L10.7582514,10.7660304 L10.758511,6.96685582 C10.758511,6.47395146 11.1278707,6.06719457 11.6052753,6.00753318 L11.7267262,6 L21.2732738,6 Z M25.0487707,23.4250168 L7.95009024,23.4250168 L6.30754163,25.0652592 L26.6913193,25.0652592 L25.0487707,23.4250168 Z M10.7582514,12.6997421 L8.51735044,12.6997421 L8.51735044,21.4913051 L24.4815105,21.4913051 L24.4815105,12.6997421 L22.2412837,12.6997421 L22.241489,18.883286 C22.241489,19.3761904 21.8721293,19.7829473 21.3947247,19.8426087 L21.2732738,19.8501419 L11.7267262,19.8501419 C11.2331288,19.8501419 10.8258,19.4813007 10.7660548,19.0045664 L10.758511,18.883286 L10.7582514,12.6997421 Z M20.3057638,7.93268249 L12.6955923,7.93268249 L12.6955923,17.9163219 L20.3057638,17.9163219 L20.3057638,7.93268249 Z M18.5150809,14.5239892 C19.0498114,14.5239892 19.4832961,14.9568653 19.4832961,15.490845 C19.4832961,16.0248248 19.0498114,16.4577008 18.5150809,16.4577008 L14.4849191,16.4577008 C13.9501886,16.4577008 13.5167039,16.0248248 13.5167039,15.490845 C13.5167039,14.9568653 13.9501886,14.5239892 14.4849191,14.5239892 L18.5150809,14.5239892 Z M18.5150809,11.7334279 C19.0498114,11.7334279 19.4832961,12.166304 19.4832961,12.7002837 C19.4832961,13.2342634 19.0498114,13.6671395 18.5150809,13.6671395 L14.4849191,13.6671395 C13.9501886,13.6671395 13.5167039,13.2342634 13.5167039,12.7002837 C13.5167039,12.166304 13.9501886,11.7334279 14.4849191,11.7334279 L18.5150809,11.7334279 Z M18.5150809,8.80331486 C19.0498114,8.80331486 19.4832961,9.23619096 19.4832961,9.77017068 C19.4832961,10.3041504 19.0498114,10.7370265 18.5150809,10.7370265 L14.4849191,10.7370265 C13.9501886,10.7370265 13.5167039,10.3041504 13.5167039,9.77017068 C13.5167039,9.23619096 13.9501886,8.80331486 14.4849191,8.80331486 L18.5150809,8.80331486 Z" id="Shape" fill="#0066AE"></path>
    </g>
</svg>