<?xml version="1.0" encoding="UTF-8"?>
<svg width="32px" height="32px" viewBox="0 0 32 32" version="1.1" xmlns="http://www.w3.org/2000/svg" xmlns:xlink="http://www.w3.org/1999/xlink">
    <title>brand/content-icon/32/benefit/balance</title>
    <g id="brand/content-icon/32/benefit/balance" stroke="none" stroke-width="1" fill="none" fill-rule="evenodd">
        <path d="M26.8313621,21.5459302 C27.3353156,21.5459302 27.7438506,21.9544652 27.7438506,22.4584187 C27.7438506,22.920376 27.4005677,23.3021553 26.9551814,23.3625771 L26.8313621,23.3709071 L18.1572534,23.3708935 L22.1932321,28.5249423 C22.6346389,29.0886465 22.2826091,29.8978859 21.6054573,29.9911401 L21.4747957,30 L11.5855739,30 C10.8633722,30 10.4446998,29.2120416 10.8001789,28.6218788 L10.8760183,28.5137818 L15.0328101,23.3708935 L5.91248842,23.3709071 C5.40853498,23.3709071 5,22.9623721 5,22.4584187 C5,21.9964613 5.34328286,21.614682 5.78866914,21.5542602 L5.91248842,21.5459302 L26.8313621,21.5459302 Z M16.597764,24.3382951 L13.4962763,28.1735816 L19.6007079,28.1735816 L16.597764,24.3382951 Z M23.8069482,2.22399677 C24.1871992,2.55472063 24.2273488,3.1310796 23.896625,3.51133056 L11.0073127,18.3308643 C10.6765888,18.7111153 10.1002299,18.7512649 9.71997889,18.4205411 C9.33972793,18.0898172 9.29957828,17.5134582 9.63030214,17.1332073 L22.5196144,2.31367352 C22.8503383,1.93342256 23.4266972,1.89327291 23.8069482,2.22399677 Z M22.4378994,9.65247329 C24.8643419,9.65247329 26.8313621,11.6194936 26.8313621,14.045936 C26.8313621,16.4723785 24.8643419,18.4393988 22.4378994,18.4393988 C20.0114569,18.4393988 18.0444367,16.4723785 18.0444367,14.045936 C18.0444367,11.6194936 20.0114569,9.65247329 22.4378994,9.65247329 Z M22.4378994,11.4774501 C21.0193638,11.4774501 19.8694135,12.6274004 19.8694135,14.045936 C19.8694135,15.4644716 21.0193638,16.6144219 22.4378994,16.6144219 C23.856435,16.6144219 25.0063853,15.4644716 25.0063853,14.045936 C25.0063853,12.6274004 23.856435,11.4774501 22.4378994,11.4774501 Z M10.3059512,2.91250204 C12.7323936,2.91250204 14.6994139,4.87952231 14.6994139,7.30596478 C14.6994139,9.73240725 12.7323936,11.6994275 10.3059512,11.6994275 C7.87950869,11.6994275 5.91248842,9.73240725 5.91248842,7.30596478 C5.91248842,4.87952231 7.87950869,2.91250204 10.3059512,2.91250204 Z M10.3059512,4.73747887 C8.88741556,4.73747887 7.73746525,5.88742919 7.73746525,7.30596478 C7.73746525,8.72450038 8.88741556,9.87445069 10.3059512,9.87445069 C11.7244868,9.87445069 12.8744371,8.72450038 12.8744371,7.30596478 C12.8744371,5.88742919 11.7244868,4.73747887 10.3059512,4.73747887 Z" id="Shape" fill="#0066AE"></path>
    </g>
</svg>