<?xml version="1.0" encoding="UTF-8"?>
<svg width="32px" height="32px" viewBox="0 0 32 32" version="1.1" xmlns="http://www.w3.org/2000/svg" xmlns:xlink="http://www.w3.org/1999/xlink">
    <title>brand/content-icon/32/benefit/connect</title>
    <g id="brand/content-icon/32/benefit/connect" stroke="none" stroke-width="1" fill="none" fill-rule="evenodd">
        <path d="M16.1564804,7.76448493 C18.2366073,7.76448493 19.9228834,9.43212023 19.9228834,11.4892526 C19.9228834,13.1427004 18.8334889,14.5445192 17.3258044,15.0310232 L17.3253591,22.5504214 L22.2173588,22.5504646 C25.5367305,22.5504646 28.280088,25.0696182 28.5591264,28.3305916 L28.5745721,28.5592826 L28.6102943,30 L3.73167955,30 L3.73167955,28.8440376 C3.73167955,25.4454342 6.45567945,22.676022 9.86229862,22.5546153 L10.0956019,22.5504646 L14.9873591,22.5504214 L14.988086,15.031323 C13.5404356,14.5646056 12.4782119,13.2540822 12.3952981,11.6870711 L12.3900773,11.4892526 C12.3900773,9.43212023 14.0763534,7.76448493 16.1564804,7.76448493 Z M22.2173588,24.8623894 L10.0956019,24.8623894 C8.40261108,24.8623894 6.95368082,25.8957857 6.35858997,27.3595403 L6.2886948,27.5447075 L6.24174907,27.6880752 L26.0699129,27.6880752 L26.0305557,27.561878 C25.5360866,26.1224011 24.2318028,25.0572239 22.6617437,24.8864193 L22.4460484,24.8687202 L22.2173588,24.8623894 Z M7.51536358,4.64010149 C8.01536105,5.0439328 8.0896598,5.77215014 7.68131447,6.26662044 C6.47189139,7.7311255 5.80112651,9.55776218 5.80112651,11.4892526 C5.80112651,13.3632877 6.43236623,15.1390587 7.57659991,16.5824711 C7.97488901,17.0848994 7.88591472,17.8115059 7.37787026,18.2053922 C6.86982581,18.5992784 6.13509729,18.5112877 5.73680819,18.0088594 C4.27273498,16.1619802 3.46335911,13.8850857 3.46335911,11.4892526 C3.46335911,9.01986048 4.32337795,6.67784465 5.87066345,4.80421789 C6.27900877,4.30974759 7.0153661,4.23627018 7.51536358,4.64010149 Z M26.1293365,4.80421789 C27.676622,6.67784465 28.5366409,9.01986048 28.5366409,11.4892526 C28.5366409,13.8850857 27.727265,16.1619802 26.2631918,18.0088594 C25.8649027,18.5112877 25.1301742,18.5992784 24.6221297,18.2053922 C24.1140853,17.8115059 24.025111,17.0848994 24.4234001,16.5824711 C25.5676338,15.1390587 26.1988735,13.3632877 26.1988735,11.4892526 C26.1988735,9.55776218 25.5281086,7.7311255 24.3186855,6.26662044 C23.9103402,5.77215014 23.9846389,5.0439328 24.4846364,4.64010149 C24.9846339,4.23627018 25.7209912,4.30974759 26.1293365,4.80421789 Z M10.8247997,7.14112044 C11.3564281,7.50328885 11.4905207,8.22309016 11.124304,8.74884167 C10.5670162,9.54890042 10.2644856,10.4952007 10.2644856,11.4892526 C10.2644856,12.502438 10.5788343,13.4659331 11.1563303,14.2750846 C11.5285886,14.7966698 11.4028089,15.5179373 10.8753934,15.8860805 C10.3479779,16.2542238 9.61864813,16.1298344 9.2463898,15.6082492 C8.39274165,14.4121705 7.92671822,12.9837842 7.92671822,11.4892526 C7.92671822,10.0230111 8.37522559,8.62010296 9.19910742,7.43731387 C9.56532413,6.91156236 10.2931714,6.77895204 10.8247997,7.14112044 Z M22.8008926,7.43731387 C23.6247744,8.62010296 24.0732818,10.0230111 24.0732818,11.4892526 C24.0732818,12.9837842 23.6072583,14.4121705 22.7536102,15.6082492 C22.3813519,16.1298344 21.6520221,16.2542238 21.1246066,15.8860805 C20.5971911,15.5179373 20.4714114,14.7966698 20.8436697,14.2750846 C21.4211657,13.4659331 21.7355144,12.502438 21.7355144,11.4892526 C21.7355144,10.4952007 21.4329838,9.54890042 20.875696,8.74884167 C20.5094793,8.22309016 20.6435719,7.50328885 21.1752003,7.14112044 C21.7068286,6.77895204 22.4346759,6.91156236 22.8008926,7.43731387 Z M16.1564804,10.0764097 C15.3674667,10.0764097 14.7278447,10.708961 14.7278447,11.4892526 C14.7278447,12.2695442 15.3674667,12.9020956 16.1564804,12.9020956 C16.945494,12.9020956 17.585116,12.2695442 17.585116,11.4892526 C17.585116,10.708961 16.945494,10.0764097 16.1564804,10.0764097 Z" id="Shape" fill="#0066AE"></path>
    </g>
</svg>