<?xml version="1.0" encoding="UTF-8"?>
<svg width="33px" height="32px" viewBox="0 0 33 32" version="1.1" xmlns="http://www.w3.org/2000/svg" xmlns:xlink="http://www.w3.org/1999/xlink">
    <title>brand/content-icon/32/benefit/e-commerce</title>
    <g id="brand/content-icon/32/benefit/e-commerce" stroke="none" stroke-width="1" fill="none" fill-rule="evenodd">
        <path d="M15.0004134,21.6177242 C16.7688015,21.6177242 18.2023437,23.0464345 18.2023437,24.8088621 C18.2023437,26.5712898 16.7688015,28 15.0004134,28 C13.2320253,28 11.7984831,26.5712898 11.7984831,24.8088621 C11.7984831,23.0464345 13.2320253,21.6177242 15.0004134,21.6177242 Z M23.5071738,21.6177242 C25.2755619,21.6177242 26.7091041,23.0464345 26.7091041,24.8088621 C26.7091041,26.5712898 25.2755619,28 23.5071738,28 C21.7387857,28 20.3052435,26.5712898 20.3052435,24.8088621 C20.3052435,23.0464345 21.7387857,21.6177242 23.5071738,21.6177242 Z M15.0004134,23.9265378 C14.5114602,23.9265378 14.115105,24.321557 14.115105,24.8088621 C14.115105,25.2961673 14.5114602,25.6911865 15.0004134,25.6911865 C15.4893666,25.6911865 15.8857218,25.2961673 15.8857218,24.8088621 C15.8857218,24.321557 15.4893666,23.9265378 15.0004134,23.9265378 Z M23.5071738,23.9265378 C23.0182206,23.9265378 22.6218654,24.321557 22.6218654,24.8088621 C22.6218654,25.2961673 23.0182206,25.6911865 23.5071738,25.6911865 C23.996127,25.6911865 24.3924822,25.2961673 24.3924822,24.8088621 C24.3924822,24.321557 23.996127,23.9265378 23.5071738,23.9265378 Z M10.6417322,4 C11.1465809,4 11.5868512,4.32463235 11.7415575,4.79199128 L11.7791815,4.93629885 L12.316,7.719 L29.8416891,7.72045477 C30.4321975,7.72045477 30.9194997,8.16084384 30.9909751,8.7300552 L31,8.87486153 C31,9.46337961 30.5581215,9.9490393 29.9869851,10.0202738 L29.8416891,10.0292683 L12.762,10.029 L13.307,12.85 L28.5127612,12.8511515 C29.1032697,12.8511515 29.5905719,13.2915406 29.6620473,13.8607519 L29.6710722,14.0055583 C29.6710722,14.5940763 29.2291937,15.079736 28.6580573,15.1509706 L28.5127612,15.159965 L13.8556427,15.159965 L13.751,15.154 L14.216311,17.5629968 L26.7590245,17.5636964 C27.349533,17.5636964 27.8368352,18.0040855 27.9083106,18.5732969 L27.9173355,18.7181032 C27.9173355,19.3066213 27.475457,19.792281 26.9043206,19.8635155 L26.7590245,19.87251 L13.260217,19.87251 C12.7553683,19.87251 12.3150979,19.5478776 12.1603917,19.0805187 L12.1227677,18.9362111 L9.68345416,6.30881353 L4.15831095,6.30881353 C3.56780251,6.30881353 3.08050032,5.86842445 3.00902489,5.29921309 L3,5.15440676 C3,4.56588869 3.44187846,4.08022899 4.01301488,4.00899447 L4.15831095,4 L10.6417322,4 Z" id="Combined-Shape" fill="#0066AE"></path>
    </g>
</svg>