<?xml version="1.0" encoding="UTF-8"?>
<svg width="32px" height="32px" viewBox="0 0 32 32" version="1.1" xmlns="http://www.w3.org/2000/svg" xmlns:xlink="http://www.w3.org/1999/xlink">
    <title>brand/content-icon/32/benefit/fast</title>
    <g id="brand/content-icon/32/benefit/fast" stroke="none" stroke-width="1" fill="none" fill-rule="evenodd">
        <path d="M20.8584914,2 C21.4677495,2 21.9616509,2.49390133 21.9616509,3.1031595 C21.9616509,3.66555165 21.5408119,4.12965159 20.9968694,4.19772382 L20.8584914,4.206319 L19.252,4.206 L19.2528392,6.34963303 C25.2803932,6.90615018 30,11.9766502 30,18.1494734 C30,24.6943385 24.6943385,30 18.1494734,30 C14.3560139,30 10.8594992,28.2039771 8.63757388,25.2187401 C8.27380294,24.7300007 8.3751099,24.0389045 8.86384931,23.6751336 C9.35258872,23.3113626 10.0436849,23.4126696 10.4074559,23.901409 C12.2173813,26.3331092 15.0608366,27.793681 18.1494734,27.793681 C23.4758222,27.793681 27.793681,23.4758222 27.793681,18.1494734 C27.793681,12.8231246 23.4758222,8.50526583 18.1494734,8.50526583 C14.8398353,8.50526583 11.8182799,10.1842504 10.0505903,12.9108252 C9.71915618,13.4220462 9.0360492,13.5677922 8.5248282,13.2363581 C8.0136072,12.9049239 7.86786117,12.2218169 8.19929534,11.7105959 C10.1715482,8.6684922 13.4191784,6.68630682 17.0463391,6.34990789 L17.046,4.206 L15.6920748,4.206319 C15.0828167,4.206319 14.5889154,3.71241766 14.5889154,3.1031595 C14.5889154,2.54076734 15.0097544,2.0766674 15.5536969,2.00859518 L15.6920748,2 L20.8584914,2 Z M17.8119528,12.4942266 C18.374345,12.4942266 18.8384449,12.9150656 18.9065171,13.4590081 L18.9151123,13.5973861 L18.9151123,17.8151326 L20.9610805,15.7706592 C21.3559902,15.3757495 21.9758182,15.3428403 22.4082143,15.6719318 L22.5211836,15.7706592 C22.9160933,16.1655689 22.9490025,16.7853969 22.6199111,17.217793 L22.5211836,17.3307623 L18.5920044,21.2599416 C17.9286414,21.9233046 16.8157976,21.5049922 16.7160006,20.6108032 L16.7087933,20.47989 L16.7087933,13.5973861 C16.7087933,12.988128 17.2026946,12.4942266 17.8119528,12.4942266 Z M12.0768858,18.809415 C12.6861439,18.809415 13.1800453,19.3033164 13.1800453,19.9125745 C13.1800453,20.4749667 12.7592063,20.9390666 12.2152637,21.0071389 L12.0768858,21.015734 L5.70552751,21.015734 C5.09626934,21.015734 4.60236801,20.5218327 4.60236801,19.9125745 C4.60236801,19.3501824 5.02320701,18.8860825 5.56714952,18.8180102 L5.70552751,18.809415 L12.0768858,18.809415 Z M12.0768858,15.3765574 C12.6861439,15.3765574 13.1800453,15.8704587 13.1800453,16.4797169 C13.1800453,17.0421091 12.7592063,17.506209 12.2152637,17.5742812 L12.0768858,17.5828764 L3.1031595,17.5828764 C2.49390133,17.5828764 2,17.0889751 2,16.4797169 C2,15.9173247 2.420839,15.4532248 2.96478151,15.3851526 L3.1031595,15.3765574 L12.0768858,15.3765574 Z" id="Combined-Shape" fill="#0066AE"></path>
    </g>
</svg>