<?xml version="1.0" encoding="UTF-8"?>
<svg width="32px" height="32px" viewBox="0 0 32 32" version="1.1" xmlns="http://www.w3.org/2000/svg" xmlns:xlink="http://www.w3.org/1999/xlink">
    <title>brand/content-icon/32/benefit/insurance</title>
    <g id="brand/content-icon/32/benefit/insurance" stroke="none" stroke-width="1" fill="none" fill-rule="evenodd">
        <path d="M16.0903163,3 C16.6461609,3 17.1048577,3.41584974 17.1721374,3.95334353 L17.1806325,4.09008097 L17.1804165,5.0485734 C24.097551,5.62020853 29.6039427,11.1696583 29.9796865,18.1027225 L29.9947404,18.4701505 L30,18.8255852 C30.0078889,19.4166951 29.560963,19.9081449 28.9815046,19.976107 L28.8455776,19.9841257 L28.4208786,19.9847607 C28.0291911,19.9853464 27.6674882,19.7901849 27.4549884,19.4724249 L27.2739606,19.1491498 C26.6952491,18.1789378 25.5872532,17.5502646 24.3484511,17.5502646 C23.109649,17.5502646 22.0016532,18.1789378 21.4229417,19.1491498 L21.2420452,19.4722281 C21.056465,19.7498577 20.7569859,19.9339703 20.4230529,19.9757252 L20.2780609,19.984762 L19.4894177,19.9849569 C19.0248935,19.9849569 18.6054237,19.7102615 18.4244782,19.2872754 C18.1492161,18.6438109 17.6963628,18.1441601 17.1549928,17.8492228 L17.1558462,26.8967453 L17.109969,26.8970992 C16.8287658,28.6555212 15.2887443,30 13.4311043,30 C11.3739862,30 9.70636247,28.3512708 9.70636247,26.3174603 C9.70636247,25.6862777 10.2239009,25.1746032 10.8623168,25.1746032 C11.4516239,25.1746032 11.9379347,25.6105862 12.0092647,26.1741027 L12.0182712,26.3174603 C12.0182712,27.0889057 12.6508181,27.7142857 13.4311043,27.7142857 C14.1593714,27.7142857 14.7589412,27.1695102 14.8356471,26.4696598 L14.8439374,26.3174603 L14.8435281,17.8499112 C14.3027166,18.1449373 13.8503535,18.6443112 13.5753054,19.2872754 C13.4144649,19.663263 13.0651609,19.9220827 12.6632733,19.9749564 L12.5103659,19.9849569 L11.7217227,19.984762 C11.3306876,19.9846654 10.9698301,19.789519 10.7577384,19.4722281 L10.5768419,19.1491498 C9.99813043,18.1789378 8.89013457,17.5502646 7.65133247,17.5502646 C6.41253038,17.5502646 5.30453452,18.1789378 4.72582303,19.1491498 L4.54479524,19.4724249 C4.35885791,19.7504649 4.05868697,19.9346404 3.72414944,19.9759476 L3.57890499,19.9847607 L3.15420606,19.9841257 C2.51647347,19.9831721 2,19.4717775 2,18.8412698 C2,11.529324 7.73475046,5.54162495 15.0000332,5.03475604 L15,4.09008097 C15,3.48804587 15.4881512,3 16.0903163,3 Z M15.9998918,7.28571429 C10.6848196,7.28571429 6.19837173,10.7932799 4.77946439,15.5948625 L4.68750041,15.9242223 L4.64585111,16.0869841 L4.73877746,16.0325441 C5.42297689,15.6411745 6.19630111,15.3864918 7.01324229,15.2986779 L7.36589769,15.2713478 L7.65133247,15.2645503 C9.26431956,15.2645503 10.7586026,15.9140661 11.8077491,16.9966008 L12.0115465,17.2188172 L12.0747845,17.2971429 L12.2795033,17.0379936 C13.0878019,16.0764396 14.2083533,15.4415583 15.4523313,15.2963386 L15.7415081,15.2715928 L15.9998918,15.2645503 C17.4611016,15.2645503 18.7962618,15.937875 19.7216515,17.0396255 L19.9011818,17.2656154 L19.9237147,17.2971429 L19.9882371,17.2188172 C20.9175247,16.147586 22.2595806,15.4464116 23.7430618,15.2952544 L24.0630164,15.2713478 L24.3484511,15.2645503 C25.2830544,15.2645503 26.1778048,15.4826135 26.9692012,15.8766246 L27.2610062,16.0325441 L27.3526481,16.088254 L27.3138842,15.9290195 C26.0634247,11.1645044 21.8167729,7.60391979 16.696646,7.30593443 L16.3380373,7.29046421 L15.9998918,7.28571429 Z" id="Shape" fill="#0066AE"></path>
    </g>
</svg>