<?xml version="1.0" encoding="UTF-8"?>
<svg width="32px" height="32px" viewBox="0 0 32 32" version="1.1" xmlns="http://www.w3.org/2000/svg" xmlns:xlink="http://www.w3.org/1999/xlink">
    <title>brand/content-icon/32/benefit/investment</title>
    <g id="brand/content-icon/32/benefit/investment" stroke="none" stroke-width="1" fill="none" fill-rule="evenodd">
        <path d="M28.847375,27.6880734 C29.4839522,27.6880734 30,28.2056158 30,28.8440367 C30,29.4824576 29.4839522,30 28.847375,30 L4.15262498,30 C3.51604778,30 3,29.4824576 3,28.8440367 C3,28.2056158 3.51604778,27.6880734 4.15262498,27.6880734 L28.847375,27.6880734 Z M7.85591298,13.7645757 C8.44352271,13.7645757 8.9284328,14.2055586 8.99955738,14.7755374 L9.00853796,14.920539 L9.00853796,25.2713876 C9.00853796,25.8606992 8.56882861,26.3470138 8.00049581,26.4183443 L7.85591298,26.4273509 L4.15262498,26.4273509 C3.56501526,26.4273509 3.08010516,25.986368 3.00898058,25.4163892 L3,25.2713876 L3,14.920539 C3,14.3312274 3.43970935,13.8449129 4.00804215,13.7735823 L4.15262498,13.7645757 L7.85591298,13.7645757 Z M14.853067,7.75733945 C15.4406767,7.75733945 15.9255868,8.19832232 15.9967114,8.76830117 L16.005692,8.91330275 L16.005692,25.2713876 C16.005692,25.8606992 15.5659826,26.3470138 14.9976498,26.4183443 L14.853067,26.4273509 L11.149779,26.4273509 C10.5621693,26.4273509 10.0772592,25.986368 10.0061346,25.4163892 L9.99715401,25.2713876 L9.99715401,8.91330275 C9.99715401,8.32399115 10.4368634,7.83767661 11.0051962,7.76634604 L11.149779,7.75733945 L14.853067,7.75733945 Z M21.850221,11.0112959 C22.4378307,11.0112959 22.9227408,11.4522787 22.9938654,12.0222576 L23.002846,12.1672592 L23.002846,25.2713876 C23.002846,25.8606992 22.5631366,26.3470138 21.9948038,26.4183443 L21.850221,26.4273509 L18.146933,26.4273509 C17.5593233,26.4273509 17.0744132,25.986368 17.0032886,25.4163892 L16.994308,25.2713876 L16.994308,12.1672592 C16.994308,11.5779476 17.4340174,11.091633 18.0023502,11.0203025 L18.146933,11.0112959 L21.850221,11.0112959 Z M28.847375,2 C29.4349847,2 29.9198948,2.44098287 29.9910194,3.01096172 L30,3.1559633 L30,25.2713876 C30,25.8606992 29.5602906,26.3470138 28.9919578,26.4183443 L28.847375,26.4273509 L25.144087,26.4273509 C24.5564773,26.4273509 24.0715672,25.986368 24.0004426,25.4163892 L23.991462,25.2713876 L23.991462,3.1559633 C23.991462,2.5666517 24.4311714,2.08033717 24.9995042,2.0090066 L25.144087,2 L28.847375,2 Z M6.70248757,16.0757798 L5.30524996,16.0757798 L5.30524996,24.1148624 L6.70248757,24.1148624 L6.70248757,16.0757798 Z M20.6966355,13.3220183 L19.2993979,13.3220183 L19.2993979,24.1148624 L20.6966355,24.1148624 L20.6966355,13.3220183 Z M27.6943498,4.31192661 L26.2958315,4.31192661 L26.2958315,24.1148624 L27.6943498,24.1148624 L27.6943498,4.31192661 Z M13.7002019,10.0686239 L12.3016836,10.0686239 L12.3016836,24.1148624 L13.7002019,24.1148624 L13.7002019,10.0686239 Z" id="Shape" fill="#0066AE"></path>
    </g>
</svg>