<?xml version="1.0" encoding="UTF-8"?>
<svg width="32px" height="32px" viewBox="0 0 32 32" version="1.1" xmlns="http://www.w3.org/2000/svg" xmlns:xlink="http://www.w3.org/1999/xlink">
    <title>brand/content-icon/32/benefit/notify</title>
    <g id="brand/content-icon/32/benefit/notify" stroke="none" stroke-width="1" fill="none" fill-rule="evenodd">
        <path d="M16,2 C23.7319865,2 30,8.2680135 30,16 C30,20.8839069 27.4991796,25.1837158 23.7082361,27.6887298 L28.8440367,27.6880734 C29.4824576,27.6880734 30,28.2056158 30,28.8440367 C30,29.4333483 29.5590171,29.9196628 28.9890383,29.9909934 L28.8440367,30 L4.4862134,30 C3.8477925,30 3.3302501,29.4824576 3.3302501,28.8440367 C3.3302501,28.2547251 3.77123297,27.7684106 4.34121182,27.69708 L4.4862134,27.6880734 L8.29176393,27.6887298 C4.50082036,25.1837158 2,20.8839069 2,16 C2,8.2680135 8.2680135,2 16,2 Z M16,4.31192661 C9.54485531,4.31192661 4.31192661,9.54485531 4.31192661,16 C4.31192661,22.4551447 9.54485531,27.6880734 16,27.6880734 C22.4551447,27.6880734 27.6880734,22.4551447 27.6880734,16 C27.6880734,9.54485531 22.4551447,4.31192661 16,4.31192661 Z M16,8.29357798 C16.5893116,8.29357798 17.0756261,8.73456085 17.1469567,9.3045397 L17.1559633,9.44954128 L17.1578382,13.8512553 C17.9215093,14.2636217 18.440367,15.071218 18.440367,16 C18.440367,17.3477775 17.3477775,18.440367 16,18.440367 C15.7590929,18.440367 15.5263389,18.4054594 15.3065203,18.3404264 L10.450723,23.2360762 C10.0011313,23.6893405 9.26922187,23.6923177 8.81595759,23.2427259 C8.40046533,22.8306002 8.36333932,22.1812491 8.70633715,21.726757 L8.80930788,21.6079605 L13.6652988,16.7125433 C13.5965916,16.4871342 13.559633,16.2478832 13.559633,16 C13.559633,15.0706962 14.0790738,14.2627143 14.8434491,13.8505606 L14.8440367,9.44954128 C14.8440367,8.86022968 15.2850196,8.37391515 15.8549984,8.30258458 L16,8.29357798 Z M7.65567887,2.57829884 C8.05851544,3.07358052 7.98357387,3.80164922 7.48829219,4.20448579 C6.25482382,5.20772535 5.12604348,6.33138212 4.12046047,7.55702614 C3.7155172,8.05058688 2.98713579,8.12242553 2.49357506,7.71748226 C2.00001432,7.312539 1.92817567,6.58415759 2.33311893,6.09059685 C3.43704794,4.74508488 4.67591094,3.51184511 6.02949191,2.41091216 C6.52477359,2.00807559 7.25284229,2.08301716 7.65567887,2.57829884 Z M24.0940418,2.57829884 C24.4968783,2.08301716 25.224947,2.00807559 25.7202287,2.41091216 C27.0738097,3.51184511 28.3126727,4.74508488 29.4166017,6.09059685 C29.821545,6.58415759 29.7497063,7.312539 29.2561456,7.71748226 C28.7625848,8.12242553 28.0342034,8.05058688 27.6292602,7.55702614 C26.6236771,6.33138212 25.4948968,5.20772535 24.2614284,4.20448579 C23.7661468,3.80164922 23.6912052,3.07358052 24.0940418,2.57829884 Z" id="Shape" fill="#0066AE"></path>
    </g>
</svg>