<?xml version="1.0" encoding="UTF-8"?>
<svg width="32px" height="32px" viewBox="0 0 32 32" version="1.1" xmlns="http://www.w3.org/2000/svg" xmlns:xlink="http://www.w3.org/1999/xlink">
    <title>brand/content-icon/32/benefit/payment</title>
    <g id="brand/content-icon/32/benefit/payment" stroke="none" stroke-width="1" fill="none" fill-rule="evenodd">
        <path d="M27.9278148,3 C29.0131416,3 29.9107123,3.86889048 29.9937342,4.945358 L30,5.10830229 L30,15.7663651 C30,16.8590155 29.1432596,17.7827194 28.0875771,17.8682135 L27.9278148,17.8746674 L23.8728913,17.8746674 C23.8028449,17.8746674 23.7344798,17.8673428 23.6684958,17.8534054 L23.6692821,27.2698244 C23.6692821,28.688915 22.6557906,29.8954828 21.3305209,29.9935664 L21.1559491,30 L10.8432662,30 C9.49299338,30 8.42249155,28.8498675 8.33562729,27.4533076 L8.32993331,27.2698244 L8.33032268,17.8533234 L8.25102651,17.866737 L8.25102651,17.866737 L8.12553943,17.8746674 L4.07218517,17.8746674 C2.9955349,17.8746674 2.09011402,17.0134534 2.00632484,15.930406 L2,15.7663651 L2,5.10830229 C2,4.00196681 2.84393022,3.09064468 3.91059292,3.00636079 L4.07218517,3 L27.9278148,3 Z M17.6917092,9.9811735 L10.3288218,9.9811735 L10.3307179,27.2698244 C10.3307179,27.5897023 10.4970249,27.8422673 10.6929268,27.9304982 L10.7675103,27.9556921 L10.8432662,27.9643427 L17.6917092,27.9639436 L17.6917092,9.9811735 Z M21.6666013,9.9811735 L19.6924938,9.9811735 L19.6924938,27.9639436 L21.1559491,27.9643427 C21.3848237,27.9643427 21.6168882,27.72752 21.6610123,27.386992 L21.6684974,27.2698244 L21.6666013,9.9811735 Z M27.9278148,5.03565726 L4.07218517,5.03565726 C4.04768566,5.03565726 4.02411858,5.05132626 4.01112937,5.07285071 L4.00078462,5.10830229 L4.00078462,15.7663651 C4.00078462,15.7866378 4.01940226,15.8121669 4.04055797,15.8269338 L4.07218517,15.8390101 L8.12553943,15.8390101 C8.19572309,15.8390101 8.26421873,15.8463634 8.33032268,15.8603541 L8.33032268,13.443531 L8.25102651,13.4569446 L8.25102651,13.4569446 L8.12553943,13.4648749 L7.16830129,13.4648749 C6.21382344,13.4648749 5.42562818,12.7106247 5.34530424,11.7628964 L5.33856414,11.6032464 L5.33856414,9.80787653 C5.33856414,8.84021068 6.07951191,8.03590895 7.01132599,7.95392612 L7.16830129,7.9470463 L9.11261763,7.94567154 L9.21971574,7.92765168 L9.21971574,7.92765168 L9.33032562,7.9215008 L22.6688898,7.9215008 C22.7437523,7.9215008 22.8166943,7.92986721 22.8868617,7.94573118 L24.8316987,7.9470463 C25.7836146,7.9470463 26.5741021,8.69739887 26.6546745,9.64773062 L26.6614359,9.80787653 L26.6614359,11.6032464 C26.6614359,12.5751912 25.92425,13.3763809 24.989268,13.4580243 L24.8316987,13.4648749 L23.8728913,13.4648749 C23.8028449,13.4648749 23.7344798,13.4575504 23.6684958,13.4436129 L23.6684958,15.8603541 L23.7474042,15.8469404 L23.7474042,15.8469404 L23.8728913,15.8390101 L27.9278148,15.8390101 C27.9428989,15.8390101 27.9696044,15.8169547 27.9857321,15.7954303 L27.9992154,15.7663651 L27.9992154,5.10830229 C27.9992154,5.08802432 27.9809442,5.06249696 27.9597885,5.04773184 L27.9278148,5.03565726 Z M8.32914869,9.9811735 L7.3387603,9.98230442 L7.3387603,11.428752 L8.12553943,11.4292177 C8.19572309,11.4292177 8.26421873,11.436571 8.33032268,11.4505616 L8.32914869,9.9811735 Z M24.6599974,9.98230442 L23.6684974,9.9811735 L23.6684958,11.4504797 L23.7474042,11.437148 L23.7474042,11.437148 L23.8728913,11.4292177 L24.6599974,11.428752 L24.6599974,9.98230442 Z" id="Shape" fill="#0066AE"></path>
    </g>
</svg>