<?xml version="1.0" encoding="UTF-8"?>
<svg width="32px" height="32px" viewBox="0 0 32 32" version="1.1" xmlns="http://www.w3.org/2000/svg" xmlns:xlink="http://www.w3.org/1999/xlink">
    <title>brand/content-icon/32/benefit/profile</title>
    <g id="brand/content-icon/32/benefit/profile" stroke="none" stroke-width="1" fill="none" fill-rule="evenodd">
        <path d="M15.375,4.83188631 C19.4481,4.83188631 22.75,8.10686538 22.75,12.1467568 C22.75,14.5394439 21.5917659,16.6638165 19.8010599,17.9983991 C24.4438998,19.6728635 27.75,23.9070704 27.75,28.8841723 C27.75,29.5004269 27.2463203,30 26.625,30 C26.0036797,30 25.5,29.5004269 25.5,28.8841723 C25.5,23.6949562 20.9808061,19.4616273 15.375,19.4616273 C9.76919393,19.4616273 5.25,23.6949562 5.25,28.8841723 C5.25,29.5004269 4.74632034,30 4.125,30 C3.50367966,30 3,29.5004269 3,28.8841723 C3,23.9070704 6.30610019,19.6728635 10.9490854,17.9977355 C9.15823406,16.6638165 8,14.5394439 8,12.1467568 C8,8.10686538 11.3019,4.83188631 15.375,4.83188631 Z M15.375,7.06354171 C12.5445407,7.06354171 10.25,9.33937462 10.25,12.1467568 C10.25,14.954139 12.5445407,17.2299719 15.375,17.2299719 C18.2054593,17.2299719 20.5,14.954139 20.5,12.1467568 C20.5,9.33937462 18.2054593,7.06354171 15.375,7.06354171 Z M25.375,2 C25.9485265,2 26.4218147,2.42567174 26.4912347,2.97586064 L26.5,3.1158277 L26.499,4.47 L27.8546171,4.47044481 C28.4708717,4.47044481 28.9704448,4.97412447 28.9704448,5.59544481 C28.9704448,6.16897128 28.5447731,6.64225954 27.9945842,6.71167947 L27.8546171,6.72044481 L26.499,6.72 L26.5,8.07506192 C26.5,8.69131655 25.9963203,9.19088963 25.375,9.19088963 C24.8014735,9.19088963 24.3281853,8.76521789 24.2587653,8.21502898 L24.25,8.07506192 L24.249,6.72 L22.8953829,6.72044481 C22.2791283,6.72044481 21.7795552,6.21676516 21.7795552,5.59544481 C21.7795552,5.02191834 22.2052269,4.54863009 22.7554158,4.47921016 L22.8953829,4.47044481 L24.249,4.47 L24.25,3.1158277 C24.25,2.49957308 24.7536797,2 25.375,2 Z" id="Combined-Shape-Copy" fill="#0066AE"></path>
    </g>
</svg>