<?xml version="1.0" encoding="UTF-8"?>
<svg width="32px" height="32px" viewBox="0 0 32 32" version="1.1" xmlns="http://www.w3.org/2000/svg" xmlns:xlink="http://www.w3.org/1999/xlink">
    <title>brand/content-icon/32/benefit/shopping</title>
    <g id="brand/content-icon/32/benefit/shopping" stroke="none" stroke-width="1" fill="none" fill-rule="evenodd">
        <path d="M20.1555616,4.06828513 C20.6191846,3.88474035 21.1377206,4.08378744 21.3695465,4.51461562 L21.4213322,4.62706416 L23.7293023,10.5788778 L29.0232558,10.5791423 C29.5212013,10.5791423 29.9321182,10.9556039 29.9923898,11.4421879 L30,11.5659739 L30,15.9518924 C30,16.4549805 29.6273866,16.8701412 29.1457765,16.9310353 L29.0232558,16.9387241 L27.6677519,16.9384596 L25.6431598,28.1896981 C25.5657543,28.619825 25.2194115,28.9422646 24.7986289,28.9930175 L24.6821705,29 L7.31782946,29 C6.88511977,29 6.5091683,28.7134043 6.38447256,28.3042123 L6.35684024,28.1896981 L4.33116279,16.9384596 L2.97674419,16.9387241 C2.47879872,16.9387241 2.06788179,16.5622624 2.00761022,16.0756785 L2,15.9518924 L2,11.5659739 C2,11.0628858 2.37261344,10.6477251 2.85422347,10.5868311 L2.97674419,10.5791423 L7.65317829,10.5788778 L9.9619429,4.62706416 C10.1587505,4.11961885 10.7254553,3.86944495 11.2277135,4.06828513 C11.6913364,4.25182991 11.9379866,4.7538084 11.818395,5.22906928 L11.7807806,5.34712814 L9.75100775,10.5788778 L21.6314729,10.5788778 L19.6024945,5.34712814 L19.5648802,5.22906928 C19.4452885,4.7538084 19.6919387,4.25182991 20.1555616,4.06828513 Z M25.6817054,16.9387241 L6.3172093,16.9387241 L8.13286822,27.0263367 L23.8660465,27.0263367 L25.6817054,16.9387241 Z M21.6632519,18.684515 C22.1463299,18.8065317 22.4546059,19.2724445 22.3962703,19.7592692 L22.3739376,19.8812241 L21.2886663,24.2671426 C21.1578327,24.795882 20.6275246,25.117353 20.10419,24.9851681 C19.621112,24.8631514 19.312836,24.3972386 19.3711716,23.9104139 L19.3935042,23.788459 L20.4787755,19.4025405 C20.6096092,18.8738011 21.1399173,18.5523301 21.6632519,18.684515 Z M11.4841258,19.2843151 L11.5212245,19.4025405 L12.6064958,23.788459 C12.7373294,24.3171983 12.4191446,24.8529833 11.89581,24.9851681 C11.4127319,25.1071849 10.9237119,24.8426547 10.7484323,24.3853679 L10.7113337,24.2671426 L9.62606236,19.8812241 C9.49522872,19.3524847 9.81341359,18.8166998 10.3367481,18.684515 C10.8198262,18.5624982 11.3088462,18.8270284 11.4841258,19.2843151 Z M16,18.6550506 C16.4979455,18.6550506 16.9088624,19.0315123 16.969134,19.5180962 L16.9767442,19.6418823 L16.9767442,24.0278008 C16.9767442,24.5728129 16.5394409,25.0146325 16,25.0146325 C15.5020545,25.0146325 15.0911376,24.6381708 15.030866,24.1515869 L15.0232558,24.0278008 L15.0232558,19.6418823 C15.0232558,19.0968702 15.4605591,18.6550506 16,18.6550506 Z M28.0465116,12.5528056 L3.95348837,12.5528056 L3.95348837,14.9650608 L28.0465116,14.9650608 L28.0465116,12.5528056 Z" id="Shape" fill="#0066AE"></path>
    </g>
</svg>