<?xml version="1.0" encoding="UTF-8"?>
<svg width="32px" height="32px" viewBox="0 0 32 32" version="1.1" xmlns="http://www.w3.org/2000/svg" xmlns:xlink="http://www.w3.org/1999/xlink">
    <title>brand/content-icon/32/benefit/topup</title>
    <g id="brand/content-icon/32/benefit/topup" stroke="none" stroke-width="1" fill="none" fill-rule="evenodd">
        <path d="M16,3 C20.0482562,3 23.4625489,5.74321615 24.5222294,9.4906825 L26.2752294,9.49038462 C28.2588943,9.49038462 29.8803863,11.057539 29.993677,13.0336192 L30,13.2548077 L30,26.2355769 C30,28.2403592 28.4493532,29.8791129 26.4940879,29.9936096 L26.2752294,30 L5.72477064,30 C3.74110569,30 2.11961371,28.4328456 2.00632304,26.4567654 L2,26.2355769 L2,13.2548077 C2,11.2500254 3.55064681,9.61127168 5.50591207,9.49677497 L5.72477064,9.49038462 L7.47777059,9.4906825 C8.53745113,5.74321615 11.9517438,3 16,3 Z M4.31060566,23.2288205 L4.31192661,26.2355769 C4.31192661,26.9716026 4.86294953,27.5775598 5.57082572,27.6550829 L5.72477064,27.6634615 L26.2752294,27.6634615 C27.0035021,27.6634615 27.6030765,27.1065726 27.679783,26.3911607 L27.6880734,26.2355769 L27.6876828,23.2295304 C27.3161117,23.3835414 26.9144507,23.4786094 26.4940879,23.503225 L26.2752294,23.5096154 L5.72477064,23.5096154 C5.22417827,23.5096154 4.7466506,23.4098124 4.31060566,23.2288205 Z M24.8623853,11.9567308 C24.8623853,13.3855845 24.5296432,14.7644946 23.9095022,16.0011131 C24.4512234,16.0959031 24.8623853,16.5739436 24.8623853,17.1490385 C24.8623853,17.7446236 24.4214024,18.2361153 23.8514236,18.3082052 L23.706422,18.3173077 L8.29357798,18.3173077 C7.65515708,18.3173077 7.13761468,17.7942557 7.13761468,17.1490385 C7.13761468,16.5739436 7.54877665,16.0959031 8.09021906,15.9987886 C7.47043811,14.7645423 7.13761468,13.3856995 7.13761468,11.9567308 L7.13889908,11.8269231 L5.72477064,11.8269231 C4.99649791,11.8269231 4.39692347,12.383812 4.32021698,13.0992239 L4.31192661,13.2548077 L4.31192661,19.7451923 C4.31192661,20.4812179 4.86294953,21.0871752 5.57082572,21.1646983 L5.72477064,21.1730769 L26.2752294,21.1730769 C27.0035021,21.1730769 27.6030765,20.616188 27.679783,19.9007761 L27.6880734,19.7451923 L27.6880734,13.2548077 C27.6880734,12.5187821 27.1370505,11.9128248 26.4291743,11.8353017 L26.2752294,11.8269231 L24.8614858,11.8278 L24.8623853,11.9567308 L24.8623853,11.9567308 Z M16,5.33653846 C12.3822815,5.33653846 9.44954128,8.30049952 9.44954128,11.9567308 C9.44954128,13.3839915 9.89661575,14.7392893 10.7098569,15.8618431 L10.8007339,15.9807692 L21.1979817,15.9807692 L21.3197717,15.8205946 C22.1144695,14.7057809 22.5504587,13.3662913 22.5504587,11.9567308 C22.5504587,8.30049952 19.6177185,5.33653846 16,5.33653846 Z" id="Shape" fill="#0066AE"></path>
    </g>
</svg>