<?xml version="1.0" encoding="UTF-8"?>
<svg width="33px" height="32px" viewBox="0 0 33 32" version="1.1" xmlns="http://www.w3.org/2000/svg" xmlns:xlink="http://www.w3.org/1999/xlink">
    <title>brand/content-icon/32/benefit/wallet</title>
    <g id="brand/content-icon/32/benefit/wallet" stroke="none" stroke-width="1" fill="none" fill-rule="evenodd">
        <path d="M25.5564488,3 C27.3881343,3 28.8957579,4.45128447 29.0090194,6.27080186 L29.0158493,6.49084215 L29.0157382,10.5374433 C30.0541596,10.5675116 30.9010309,11.3835987 30.9919227,12.4154062 L31,12.5996131 L31,19.3906518 C31,20.4643033 30.181992,21.3493933 29.1420573,21.4444229 L29.014563,21.4499485 L29.0158493,25.5091579 C29.0158493,27.3557756 27.5770405,28.8786852 25.7744385,28.9931004 L25.5564488,29 L6.45859653,29 C4.62801804,29 3.12011589,27.549789 3.00683137,25.729322 L3,25.5091579 L3,6.49084215 C3,4.64263752 4.43660438,3.12119276 6.24044177,3.00689258 L6.45859653,3 L25.5564488,3 Z M25.5564488,5.33642235 L6.45859653,5.33642235 C5.88096523,5.33642235 5.39562718,5.78154892 5.32437773,6.3471263 L5.31537843,6.49084215 L5.31537843,25.5091579 C5.31537843,26.0923556 5.75678515,26.5825282 6.31641352,26.6544885 L6.45859653,26.6635776 L25.5564488,26.6635776 C26.1328519,26.6635776 26.6199142,26.2168302 26.6914362,25.6524996 L26.7004709,25.5091579 L26.6991846,21.4525445 L21.775468,21.452869 C19.1474785,21.452869 16.9884644,19.3571032 16.8560924,16.7373957 L16.8496612,16.4822927 L16.8496612,15.5071609 C16.8496612,12.8558384 18.926775,10.6766839 21.5226838,10.5430759 L21.775468,10.5365846 L26.6991846,10.5362601 L26.7004709,6.49084215 C26.7004709,5.90825125 26.2589345,5.41756514 25.6987735,5.34552226 L25.5564488,5.33642235 Z M28.6839784,12.8726825 L21.775468,12.873007 C20.475363,12.873007 19.3865703,13.8495919 19.1949475,15.1102797 L19.172247,15.3115957 L19.1650396,15.5071609 L19.1650396,16.4822927 C19.1650396,17.8635664 20.2369368,19.0079909 21.5816035,19.1091757 L21.775468,19.1164467 L28.6839784,19.1161222 L28.6839784,12.8726825 Z M22.2248765,14.7023932 C22.9352331,14.7023932 23.5111979,15.2835928 23.5111979,16.0004056 C23.5111979,16.7172185 22.9352331,17.298418 22.2248765,17.298418 C21.5139382,17.298418 20.9385552,16.7172185 20.9385552,16.0004056 C20.9385552,15.2835928 21.5139382,14.7023932 22.2248765,14.7023932 Z" id="Shape" fill="#0066AE"></path>
    </g>
</svg>