<?xml version="1.0" encoding="UTF-8"?>
<svg width="32px" height="32px" viewBox="0 0 32 32" version="1.1" xmlns="http://www.w3.org/2000/svg" xmlns:xlink="http://www.w3.org/1999/xlink">
    <title>brand/content-icon/32/benefit/winner</title>
    <g id="brand/content-icon/32/benefit/winner" stroke="none" stroke-width="1" fill="none" fill-rule="evenodd">
        <path d="M15.7251919,3.24719885 L15.8169453,3.33497016 L20.9501349,8.82463135 C21.5476324,9.46362165 21.1445604,10.4883389 20.3113292,10.5844821 L20.1831897,10.591775 L16.0995,10.5912804 L16.099,13.981 L19.2758065,13.9814362 C19.8110978,13.9814362 20.2528335,14.3819956 20.3176255,14.8997264 L20.3258065,15.0314362 L20.3251667,19.8347804 L26.05,19.8352373 C26.5852914,19.8352373 27.0270271,20.2357968 27.091819,20.7535276 L27.1,20.8852373 L27.1,28.9342139 C27.1,29.5141129 26.629899,29.9842139 26.05,29.9842139 C25.5147086,29.9842139 25.0729729,29.5836545 25.008181,29.0659237 L25,28.9342139 L25,21.9347804 L19.2758065,21.9352373 C18.7405151,21.9352373 18.2987794,21.5346779 18.2339874,21.0169471 L18.2258065,20.8852373 L18.2251667,16.0804471 L15.066,16.08 L15.05,16.0814362 L15.032,16.08 L12.8736667,16.0804471 L12.8741935,20.8852373 C12.8741935,21.4205287 12.4736341,21.8622644 11.9559033,21.9270563 L11.8241935,21.9352373 L6.1,21.9347804 L6.1,28.9342139 C6.1,29.4695053 5.69944056,29.911241 5.18170977,29.976033 L5.05,29.9842139 C4.51470863,29.9842139 4.07297292,29.5836545 4.00818099,29.0659237 L4,28.9342139 L4,20.8852373 C4,20.349946 4.40055944,19.9082103 4.91829023,19.8434183 L5.05,19.8352373 L10.7736667,19.8347804 L10.7741935,15.0314362 C10.7741935,14.4961448 11.174753,14.0544091 11.6924838,13.9896172 L11.8241935,13.9814362 L13.999,13.981 L14,4.05211378 C14,3.14288205 15.06275,2.68208867 15.7251919,3.24719885 Z M16.0995,6.71211378 L16.0995,8.49128045 L17.7631667,8.49128045 L16.0995,6.71211378 Z" id="Combined-Shape" fill="#0066AE"></path>
    </g>
</svg>