<?xml version="1.0" encoding="UTF-8"?>
<svg width="32px" height="32px" viewBox="0 0 32 32" version="1.1" xmlns="http://www.w3.org/2000/svg" xmlns:xlink="http://www.w3.org/1999/xlink">
    <title>brand/content-icon/32/benefit/mobile</title>
    <g id="brand/content-icon/32/benefit/mobile" stroke="none" stroke-width="1" fill="none" fill-rule="evenodd">
        <path d="M21.3571429,2 C23.8411915,2 25.8696085,3.92784006 25.9939587,6.35212531 L26,6.58823529 L26,25.4117647 C26,27.8665892 24.0492095,29.8711425 21.5960637,29.9940298 L21.3571429,30 L10.6428571,30 C8.15880855,30 6.13039149,28.0721599 6.00604126,25.6478747 L6,25.4117647 L6,6.58823529 C6,4.1334108 7.95079053,2.12885748 10.4039363,2.00597018 L10.6428571,2 L21.3571429,2 Z M10.7607143,4.11647059 L10.6428571,4.11764706 C9.32217622,4.11764706 8.24068073,5.1296737 8.14913421,6.41179597 L8.14285714,6.58823529 L8.14285714,25.4117647 C8.14285714,26.7169082 9.16693172,27.7856802 10.4643174,27.8761497 L10.6428571,27.8823529 L21.3571429,27.8823529 C22.6778238,27.8823529 23.7593193,26.8703263 23.8508658,25.588204 L23.8571429,25.4117647 L23.8571429,6.58823529 C23.8571429,5.28309179 22.8330683,4.21431978 21.5356826,4.12385027 L21.3571429,4.11764706 L21.2369048,4.11647059 L21.2380952,6.90196078 C21.2380952,7.4417504 20.8293611,7.88719817 20.3010644,7.95253458 L20.1666667,7.96078431 L11.8333333,7.96078431 C11.2871176,7.96078431 10.8363669,7.55685883 10.7702527,7.03477736 L10.7619048,6.90196078 L10.7607143,4.11647059 Z M18.9761905,25.0014059 C19.5679241,25.0014059 20.047619,25.4754573 20.047619,26.0602294 C20.047619,26.6000191 19.6388849,27.0454668 19.1105882,27.1108032 L18.9761905,27.119053 L13.0238095,27.119053 C12.4320759,27.119053 11.952381,26.6450015 11.952381,26.0602294 C11.952381,25.5204398 12.3611151,25.074992 12.8894118,25.0096556 L13.0238095,25.0014059 L18.9761905,25.0014059 Z M19.0940476,4.11647059 L12.9035714,4.11647059 L12.9047619,5.84235294 L19.0952381,5.84235294 L19.0940476,4.11647059 Z" id="Shape" fill="#0066AE"></path>
    </g>
</svg>