<?xml version="1.0" encoding="UTF-8"?>
<svg width="32px" height="32px" viewBox="0 0 32 32" version="1.1" xmlns="http://www.w3.org/2000/svg" xmlns:xlink="http://www.w3.org/1999/xlink">
    <title>brand/content-icon/32/benefit/transfer</title>
    <g id="brand/content-icon/32/benefit/transfer" stroke="none" stroke-width="1" fill="none" fill-rule="evenodd">
        <path d="M25.3166667,15.3522814 C25.9517941,15.3522814 26.4666667,15.8758968 26.4666667,16.5218092 C26.4666667,21.3185837 22.7226995,25.2260589 18.0445004,25.3867885 L17.7446502,25.3919319 L8.95727778,25.3918563 L11.5266649,28.0034911 C11.9383426,28.4221594 11.972649,29.0792775 11.6295843,29.5376874 L11.5266649,29.6574532 C11.1149872,30.0761215 10.4688411,30.1110105 10.0180853,29.7621203 L9.90031927,29.6574532 L5.369193,25.0493851 C4.95751531,24.6307168 4.92320883,23.9735987 5.26627358,23.5151888 L5.369193,23.395423 L9.90031927,18.7873549 C10.3494222,18.3306259 11.0775619,18.3306259 11.5266649,18.7873549 C11.9383426,19.2060232 11.972649,19.8631413 11.6295843,20.3215512 L11.5266649,20.441317 L8.95855556,23.0528006 L17.7446502,23.0528762 C21.291432,23.0528762 24.1666667,20.1288179 24.1666667,16.5218092 C24.1666667,15.8758968 24.6815392,15.3522814 25.3166667,15.3522814 Z M21.4485814,2.2378797 L21.5663474,2.34254677 L26.0974737,6.95061487 C26.1401384,6.99400413 26.1787501,7.03995446 26.2133085,7.08797925 L26.2922666,7.21393596 L26.2922666,7.21393596 C26.3522498,7.32460735 26.3953897,7.44716418 26.4174603,7.57705939 C26.4406847,7.71436286 26.4398924,7.85458366 26.4150709,7.99117658 C26.3996218,8.0761559 26.3753742,8.15741125 26.3433097,8.23427809 L26.2684687,8.38313192 L26.2684687,8.38313192 L26.2003931,8.48481121 L26.2003931,8.48481121 L26.0974737,8.604577 L21.5663474,13.2126451 C21.1172445,13.6693741 20.3891047,13.6693741 19.9400018,13.2126451 C19.5283241,12.7939768 19.4940176,12.1368587 19.8370824,11.6784488 L19.9400018,11.558683 L22.5081111,8.94699537 L13.7220165,8.94712378 C10.1752347,8.94712378 7.3,11.8711821 7.3,15.4781908 C7.3,16.1241032 6.78512746,16.6477186 6.15,16.6477186 C5.51487254,16.6477186 5,16.1241032 5,15.4781908 C5,10.6814163 8.74396716,6.77394106 13.4221663,6.61321153 L13.7220165,6.6080681 L22.5081111,6.60793969 L19.9400018,3.99650891 C19.5283241,3.57784063 19.4940176,2.92072249 19.8370824,2.46231257 L19.9400018,2.34254677 C20.3516795,1.92387849 20.9978256,1.88898947 21.4485814,2.2378797 Z" id="Shape" fill="#0066AE"></path>
    </g>
</svg>