<?xml version="1.0" encoding="UTF-8"?>
<svg width="32px" height="32px" viewBox="0 0 32 32" version="1.1" xmlns="http://www.w3.org/2000/svg" xmlns:xlink="http://www.w3.org/1999/xlink">
    <title>brand/content-icon/32/benefit/safety</title>
    <g id="brand/content-icon/32/benefit/safety" stroke="none" stroke-width="1" fill="none" fill-rule="evenodd">
        <path d="M15.1456771,2.18719643 C15.5400961,1.96812019 16.0074273,1.94121957 16.4196912,2.10709134 L16.5714589,2.17833062 L26.2033309,7.37036087 C26.648868,7.61038317 26.9427419,8.05959205 26.9924913,8.5623382 L27,8.71461251 L27,15.3624513 C26.9994357,21.3117572 23.5376143,26.6906159 18.1967903,29.1023783 L16.4285397,29.8752763 C16.0951486,30.0213018 15.7224652,30.039038 15.3798263,29.9288284 L15.2350226,29.8737633 L13.9338832,29.3001649 C8.61667399,26.9481584 5.14160483,21.6928758 5.00422046,15.8417466 L5,15.4968927 L5,8.71461251 C5,8.20862842 5.24728724,7.73972719 5.65369092,7.4579955 L5.78029734,7.37924117 L15.1456771,2.18719643 Z M15.8690856,4.15059316 L7.04354083,9.04280545 L7.04354083,15.4958318 C7.04850415,20.4200111 9.79980252,24.8971155 14.1118032,27.0951814 L14.401569,27.2383226 L14.7491816,27.3983121 L15.8333237,27.8779524 L17.4482956,27.1696653 C21.7976398,25.1646371 24.6774595,20.8813286 24.9372733,16.0723844 L24.9509144,15.7437079 L24.9564586,15.3623515 L24.9564586,9.04799062 L15.8690856,4.15059316 Z M20.1287432,12.8226545 C20.5070384,13.1644001 20.5634882,13.7294961 20.2787428,14.1367462 L20.2004371,14.2350496 L15.3649764,19.587662 C14.9634151,20.0321703 14.2736109,20.0212142 13.8834619,19.5907841 L13.8046593,19.4921417 L12.1759075,17.1736088 C11.8584374,16.7216893 11.9674302,16.0979759 12.4193497,15.7805059 C12.8365062,15.4874566 13.4000433,15.557784 13.7339717,15.9257845 L13.8124527,16.0239481 L14.72,17.316 L18.716348,12.8943484 C19.0865725,12.4845285 19.7189233,12.4524301 20.1287432,12.8226545 Z" id="Shape" fill="#0066AE"></path>
    </g>
</svg>