<?xml version="1.0" encoding="UTF-8"?>
<svg width="32px" height="32px" viewBox="0 0 32 32" version="1.1" xmlns="http://www.w3.org/2000/svg" xmlns:xlink="http://www.w3.org/1999/xlink">
    <title>brand/content-icon/32/benefit/outlet</title>
    <g id="brand/content-icon/32/benefit/outlet" stroke="none" stroke-width="1" fill="none" fill-rule="evenodd">
        <path d="M26.2752294,3 C26.7397328,3 27.153586,3.2790852 27.3350748,3.69922253 L27.3867158,3.84430312 L29.9741453,12.9723042 L29.9741453,12.9723042 C29.9888518,13.0412198 29.9972571,13.1088838 30,13.1757495 L30,15.1584639 C30,16.7322646 29.1790889,18.1129802 27.9449564,18.8900485 L27.9449541,24.9555309 C27.9449541,27.6544523 25.840248,29.8583295 23.1935513,29.9934362 L22.9357798,30 L9.32110092,30 C6.64106317,30 4.45260587,27.8804641 4.31844451,25.2151186 L4.31192661,24.9555309 L4.31085838,19.0392321 C3.01204744,18.3399031 2.10531744,16.9986648 2.00857833,15.4363717 L2,15.1584639 L2,13.1757495 L2.01375266,13.0376934 L2.04110092,12.9065612 L4.61328424,3.84430312 C4.74089315,3.39452498 5.12105693,3.07046197 5.57206137,3.01014714 L5.72477064,3 L26.2752294,3 Z M22.4222322,18.1392925 L22.298925,18.2681373 C21.5086584,19.0639721 20.4169153,19.5562062 19.2110092,19.5562062 C17.9412985,19.5562062 16.7981511,19.0105059 16.0002139,18.1392925 C15.2018489,19.0105059 14.0587015,19.5562062 12.7889908,19.5562062 C11.5192801,19.5562062 10.3761328,19.0105059 9.57819551,18.1392925 C8.83392272,18.9514463 7.79008478,19.4807242 6.62338071,19.5487515 L6.62385321,24.9555309 C6.62385321,26.3904521 7.72872634,27.5654981 9.1284745,27.6649635 L9.32110092,27.6717835 L22.9357798,27.6717835 C24.3606613,27.6717835 25.5274857,26.5591254 25.6262552,25.1495146 L25.6330275,24.9555309 L25.6317378,19.556206 C24.3625427,19.5558366 23.2198993,19.0102109 22.4222322,18.1392925 Z M8.42201835,14.3823918 L4.3106422,14.3823918 L4.31192661,15.1584639 C4.31192661,16.1744351 5.03889974,17.0194161 5.99757538,17.1946469 L6.17992141,17.2195322 L6.36697248,17.2279897 C7.43888906,17.2279897 8.31912449,16.4015226 8.41362005,15.3468329 L8.42201835,15.1584639 L8.42201835,14.3823918 Z M14.8440367,14.3823918 L10.733945,14.3823918 L10.733945,15.1584639 C10.733945,16.1744351 11.4609181,17.0194161 12.4195937,17.1946469 L12.6019398,17.2195322 L12.7889908,17.2279897 C13.8609074,17.2279897 14.7411428,16.4015226 14.8356384,15.3468329 L14.8440367,15.1584639 L14.8440367,14.3823918 Z M21.266055,14.3823918 L17.1559633,14.3823918 L17.1559633,15.1584639 C17.1559633,16.1744351 17.8829364,17.0194161 18.8416121,17.1946469 L19.0239581,17.2195322 L19.2110092,17.2279897 C20.2829258,17.2279897 21.1631612,16.4015226 21.2576567,15.3468329 L21.266055,15.1584639 L21.266055,14.3823918 Z M27.6880734,14.3823918 L23.5766972,14.3823918 L23.5779817,15.1584639 C23.5779817,16.1744351 24.3049548,17.0194161 25.2636304,17.1946469 L25.4459765,17.2195322 L25.6330275,17.2279897 C26.7049441,17.2279897 27.5851795,16.4015226 27.6796751,15.3468329 L27.6880734,15.1584639 L27.6880734,14.3823918 Z M9.6640367,5.32821649 L6.59559633,5.32821649 L4.68825688,12.0541753 L8.49522936,12.0541753 L9.6640367,5.32821649 Z M19.7658716,5.32821649 L17.1559633,5.32821649 L17.1559633,12.0541753 L20.9346789,12.0541753 L19.7658716,5.32821649 Z M25.4031193,5.32821649 L22.0777982,5.32821649 L23.2466055,12.0541753 L27.3104587,12.0541753 L25.4031193,5.32821649 Z M14.8440367,5.32821649 L11.9759633,5.32821649 L10.807156,12.0541753 L14.8440367,12.0541753 L14.8440367,5.32821649 Z" id="Shape" fill="#0066AE"></path>
    </g>
</svg>