<?xml version="1.0" encoding="UTF-8"?>
<svg width="32px" height="32px" viewBox="0 0 32 32" version="1.1" xmlns="http://www.w3.org/2000/svg" xmlns:xlink="http://www.w3.org/1999/xlink">
    <title>brand/content-icon/32/benefit/lightly</title>
    <g id="brand/content-icon/32/benefit/lightly" stroke="none" stroke-width="1" fill="none" fill-rule="evenodd">
        <path d="M22.5608182,5.97330265 C23.9122451,4.60665368 25.4341179,4.38247935 26.6592634,5.58397582 C27.8296172,6.73144256 27.6887483,8.22923405 26.4940151,9.54757132 L26.3322249,9.71846711 L23.5182331,12.5647682 L23.5925355,12.6166494 C23.7473401,12.7315047 23.8908349,12.8676139 24.0221885,13.025301 L24.1494642,13.1901928 L24.2684609,13.3695419 C24.5346673,13.8023626 24.666157,14.244032 24.6710012,14.6893088 L24.6629068,14.9122235 L24.6400474,15.0877001 C25.0621088,15.2464336 25.4290765,15.5148153 25.7316067,15.9011648 L25.8774588,16.1042087 L25.9960462,16.2981751 C26.2663696,16.7751743 26.381514,17.2434395 26.3600771,17.6989776 L26.3425819,17.8934174 L26.3373064,17.9206994 C27.9450028,18.5790197 28.4736744,20.4932952 27.5385655,21.8785707 L27.4241503,22.035961 L27.2966111,22.1880465 L26.9239735,22.5924226 L26.7226247,22.8025288 L21.3050465,28.2765717 C19.1074353,30.4949661 16.1492704,30.573687 13.9141002,28.5013668 L13.7067165,28.3007846 L9.87475175,24.4307009 C9.56061571,24.117885 9.32812739,23.7644795 9.16284263,23.3587392 L9.07162064,23.108921 L7.04839124,16.9123799 C6.96557906,16.6562473 6.85837158,16.4770574 6.69324513,16.3164362 L6.34742861,15.9771579 L5.54064905,15.1610236 L5.13615,14.7642026 C4.85454421,14.4908011 4.57729027,14.1660461 4.36438221,13.8065871 C3.93119628,13.0752264 3.82146987,12.3014148 4.38373995,11.6221014 C5.29496817,10.5209018 6.68615044,10.1914613 8.21081436,10.6532475 C9.96328693,11.1842141 11.2912013,12.0827155 12.1934291,13.4769325 L12.3681985,13.7624234 L13.3031812,15.3444747 L22.5608182,5.97330265 Z M25.0780979,7.09059966 C24.8649549,6.90943155 24.6850919,6.9481659 24.2310148,7.38768114 L24.1116048,7.50601423 L14.1004474,17.6415521 C13.7702785,17.9603917 13.5416097,18.0902146 13.0847055,18.0871673 C12.4910566,18.083208 12.1648548,17.7950673 11.8934437,17.3165071 L11.6134486,16.7882697 L11.378394,16.3718486 L10.4807778,14.8543422 C9.87892375,13.8143958 8.9515246,13.1557424 7.57848269,12.7397363 C7.11506983,12.599379 6.75583116,12.5935048 6.47454957,12.7060354 L6.35869676,12.7614651 L6.30577367,12.7948964 L6.42603321,12.9525579 L6.53864928,13.0807008 L6.65523398,13.200078 L7.08117343,13.6179986 L7.74842105,14.2947789 L8.21418133,14.7541118 C8.58200439,15.1118993 8.84870097,15.5209493 9.03610825,15.9976962 L9.12330554,16.2417871 L11.1454057,22.4348456 C11.1922772,22.5789003 11.249095,22.6903431 11.3277494,22.7900128 L11.4141231,22.8865299 L15.2552894,26.7658374 C16.6001353,28.1218899 18.2055596,28.1699628 19.5844788,26.9071555 L19.7556287,26.7424769 L25.2605767,21.1773217 L25.6746445,20.7308349 C25.9237046,20.4537698 25.8389185,20.071552 25.5214338,19.9413112 C25.4632113,19.9174204 25.377757,19.9132139 25.1945784,19.9440354 L25.0723803,19.9668543 L24.7985854,20.0276525 C23.7301735,20.28049 23.0001293,18.9741721 23.7755292,18.1970281 C24.1929421,17.7786764 24.2381865,17.6188931 24.0988277,17.3729873 C23.9306806,17.0763336 23.7609938,17.0282206 23.2225392,17.1931125 C22.1747191,17.5139881 21.3613749,16.262307 22.0804645,15.4355377 C22.5180908,14.9323793 22.5541313,14.744375 22.4109781,14.5116245 C22.2764481,14.2929444 22.1339526,14.2512798 21.5726325,14.4009763 C20.7061887,14.6320452 19.9665358,13.7839084 20.266289,12.9755755 L20.3658043,12.7529967 L20.422886,12.6463633 L20.4827749,12.5573137 L20.5989857,12.4186998 L24.7806637,8.1865393 C25.3087154,7.65198126 25.3741179,7.42136417 25.1848559,7.19668512 L25.1323552,7.14046661 L25.0780979,7.09059966 Z M18.7707673,5.51698304 C19.2194628,5.84499098 19.3442355,6.45135838 19.0812299,6.92494269 L19.0073629,7.04033452 L17.1901691,9.52507541 C16.8347505,10.0110573 16.1525755,10.1169619 15.6664888,9.76161992 C15.2177933,9.43361199 15.0930206,8.82724459 15.3560262,8.35366028 L15.4298932,8.23826844 L17.247087,5.75352756 C17.6025056,5.2675457 18.2846805,5.16164111 18.7707673,5.51698304 Z M9.07587381,5.51698304 C9.52456928,5.18897511 10.1403458,5.25398196 10.511972,5.64816178 L10.5995541,5.75352756 L12.4167479,8.23826844 L12.490615,8.35366028 C12.7536205,8.82724459 12.6288478,9.43361199 12.1801523,9.76161992 C11.7314568,10.0896279 11.1156803,10.024621 10.7440541,9.63044119 L10.656472,9.52507541 L8.83927824,7.04033452 L8.76541117,6.92494269 C8.5024056,6.45135838 8.62717834,5.84499098 9.07587381,5.51698304 Z M13.8696985,2 C14.4255432,2 14.8842399,2.41584974 14.9515197,2.95334353 L14.9600148,3.09008097 L14.9600148,6.39693104 C14.9600148,6.99896613 14.4718635,7.48701201 13.8696985,7.48701201 C13.3138538,7.48701201 12.8551571,7.07116227 12.7878773,6.53366848 L12.7793822,6.39693104 L12.7793822,3.09008097 C12.7793822,2.48804587 13.2675335,2 13.8696985,2 Z" id="Shape" fill="#0066AE"></path>
    </g>
</svg>