<svg xmlns="http://www.w3.org/2000/svg" xmlns:xlink="http://www.w3.org/1999/xlink" width="375" height="236" viewBox="0 0 375 236">
    <defs>
        <path id="prefix__a" d="M0 0H375V233H0z"/>
        <path id="prefix__b" d="M0 0H375V236H0z"/>
    </defs>
    <g fill="none" fill-rule="evenodd">
        <g transform="translate(0 3)">
            <use fill="#F1F5F8" xlink:href="#prefix__a"/>
        </g>
        <mask id="prefix__c" fill="#fff">
            <use xlink:href="#prefix__b"/>
        </mask>
        <use fill="#FFF" fill-opacity="0" xlink:href="#prefix__b"/>
        <g mask="url(#prefix__c)">
            <g>
                <path fill="#297FE8" d="M56.21 114.73l-.414-.208-.199-.429C48.012 97.828 44 80.04 44 62.633c0-17.38 3.848-34.408 11.437-50.651l.21-.432.422-.215C71.705 3.81 88.524 0 106.077 0c16.35 0 33.814 4.242 50.492 12.29l.427.194.198.44C164.924 29.49 169 47.274 169 64.392c0 17.05-3.914 34.094-11.654 50.65l-.202.433-.431.202C141.315 123.08 123.953 127 106.506 127c-16.47 0-33.393-4.12-50.296-12.27z" opacity=".125" transform="rotate(180 42 157.5)"/>
                <path fill="#0066AE" d="M13.383 175.377l-.455-.23-.217-.477C4.397 156.612 0 136.862 0 117.538c0-19.296 4.217-38.202 12.535-56.235l.23-.48.463-.239C30.365 52.23 48.798 48 68.037 48c17.92 0 37.06 4.71 55.338 13.646l.469.215.217.488C132.532 80.739 137 100.486 137 119.49c0 18.929-4.29 37.852-12.772 56.232l-.223.482-.472.223C106.658 184.648 87.63 189 68.506 189c-18.05 0-36.599-4.575-55.123-13.623z" opacity=".073" transform="rotate(180 42 157.5)"/>
                <path fill="#7FBEF8" d="M42.09 193.778c.712 0 1.467.159 2.2.463l.335.148.01.022c.384.812.587 1.683.587 2.522 0 .73-.149 1.461-.444 2.176l-.146.326-.021.01c-.767.363-1.631.555-2.5.555-.717 0-1.452-.155-2.188-.46l-.336-.151-.01-.021c-.377-.797-.577-1.669-.577-2.522 0-.851.192-1.685.57-2.481l.01-.021.02-.01c.78-.37 1.616-.556 2.49-.556zm9.333 0c.713 0 1.467.159 2.2.463l.335.148.01.022c.385.812.588 1.683.588 2.522 0 .73-.15 1.461-.445 2.176l-.146.326-.021.01c-.767.363-1.63.555-2.5.555-.717 0-1.451-.155-2.187-.46l-.337-.151-.01-.021c-.377-.797-.577-1.669-.577-2.522 0-.851.192-1.685.57-2.481l.01-.021.021-.01c.778-.37 1.616-.556 2.49-.556zm10.112 0c.712 0 1.466.159 2.2.463l.334.148.01.022c.385.812.588 1.683.588 2.522 0 .73-.15 1.461-.445 2.176l-.146.326-.021.01c-.766.363-1.63.555-2.5.555-.716 0-1.451-.155-2.187-.46l-.336-.151-.01-.021c-.378-.797-.578-1.669-.578-2.522 0-.851.192-1.685.57-2.481l.01-.021.021-.01c.779-.37 1.616-.556 2.49-.556zm9.333 0c.712 0 1.467.159 2.2.463l.334.148.01.022c.385.812.588 1.683.588 2.522 0 .73-.15 1.461-.445 2.176l-.145.326-.022.01c-.766.363-1.63.555-2.499.555-.717 0-1.452-.155-2.188-.46l-.336-.151-.01-.021c-.378-.797-.577-1.669-.577-2.522 0-.851.191-1.685.57-2.481l.01-.021.02-.01c.779-.37 1.616-.556 2.49-.556zm-28.778-9.334c.712 0 1.467.16 2.2.464l.335.148.01.022c.384.811.587 1.683.587 2.521 0 .731-.149 1.462-.444 2.177l-.146.326-.021.01c-.767.363-1.631.555-2.5.555-.717 0-1.452-.155-2.188-.461l-.336-.15-.01-.022c-.377-.797-.577-1.668-.577-2.52 0-.852.192-1.687.57-2.483l.01-.02.02-.011c.78-.369 1.616-.556 2.49-.556zm9.333 0c.713 0 1.467.16 2.2.464l.335.148.01.022c.385.811.588 1.683.588 2.521 0 .731-.15 1.462-.445 2.177l-.146.326-.021.01c-.767.363-1.63.555-2.5.555-.717 0-1.451-.155-2.187-.461l-.337-.15-.01-.022c-.377-.797-.577-1.668-.577-2.52 0-.852.192-1.687.57-2.483l.01-.02.021-.011c.778-.369 1.616-.556 2.49-.556zm10.112 0c.712 0 1.466.16 2.2.464l.334.148.01.022c.385.811.588 1.683.588 2.521 0 .731-.15 1.462-.445 2.177l-.146.326-.021.01c-.766.363-1.63.555-2.5.555-.716 0-1.451-.155-2.187-.461l-.336-.15-.01-.022c-.378-.797-.578-1.668-.578-2.52 0-.852.192-1.687.57-2.483l.01-.02.021-.011c.779-.369 1.616-.556 2.49-.556zm9.333 0c.712 0 1.467.16 2.2.464l.334.148.01.022c.385.811.588 1.683.588 2.521 0 .731-.15 1.462-.445 2.177l-.145.326-.022.01c-.766.363-1.63.555-2.499.555-.717 0-1.452-.155-2.188-.461l-.336-.15-.01-.022c-.378-.797-.577-1.668-.577-2.52 0-.852.191-1.687.57-2.483l.01-.02.02-.011c.779-.369 1.616-.556 2.49-.556zm-28.778-10.11c.712 0 1.467.158 2.2.462l.335.149.01.022c.384.811.587 1.682.587 2.521 0 .731-.149 1.462-.444 2.176l-.146.327-.021.01c-.767.363-1.631.555-2.5.555-.717 0-1.452-.155-2.188-.461l-.336-.15-.01-.022c-.377-.797-.577-1.668-.577-2.521 0-.852.192-1.686.57-2.482l.01-.02.02-.011c.78-.369 1.616-.556 2.49-.556zm9.333 0c.713 0 1.467.158 2.2.462l.335.149.01.022c.385.811.588 1.682.588 2.521 0 .731-.15 1.462-.445 2.176l-.146.327-.021.01c-.767.363-1.63.555-2.5.555-.717 0-1.451-.155-2.187-.461l-.337-.15-.01-.022c-.377-.797-.577-1.668-.577-2.521 0-.852.192-1.686.57-2.482l.01-.02.021-.011c.778-.369 1.616-.556 2.49-.556zm10.112 0c.712 0 1.466.158 2.2.462l.334.149.01.022c.385.811.588 1.682.588 2.521 0 .731-.15 1.462-.445 2.176l-.146.327-.021.01c-.766.363-1.63.555-2.5.555-.716 0-1.451-.155-2.187-.461l-.336-.15-.01-.022c-.378-.797-.578-1.668-.578-2.521 0-.852.192-1.686.57-2.482l.01-.02.021-.011c.779-.369 1.616-.556 2.49-.556zm9.333 0c.712 0 1.467.158 2.2.462l.334.149.01.022c.385.811.588 1.682.588 2.521 0 .731-.15 1.462-.445 2.176l-.145.327-.022.01c-.766.363-1.63.555-2.499.555-.717 0-1.452-.155-2.188-.461l-.336-.15-.01-.022c-.378-.797-.577-1.668-.577-2.521 0-.852.191-1.686.57-2.482l.01-.02.02-.011c.779-.369 1.616-.556 2.49-.556zM42.09 165c.712 0 1.467.16 2.2.463l.335.149.01.021c.384.812.587 1.683.587 2.522 0 .73-.149 1.461-.444 2.176l-.146.327-.021.01c-.767.362-1.631.554-2.5.554-.717 0-1.452-.154-2.188-.46l-.336-.151-.01-.021c-.377-.797-.577-1.669-.577-2.521 0-.852.192-1.686.57-2.482l.01-.021.02-.01c.78-.37 1.616-.556 2.49-.556zm9.333 0c.713 0 1.467.16 2.2.463l.335.149.01.021c.385.812.588 1.683.588 2.522 0 .73-.15 1.461-.445 2.176l-.146.327-.021.01c-.767.362-1.63.554-2.5.554-.717 0-1.451-.154-2.187-.46l-.337-.151-.01-.021c-.377-.797-.577-1.669-.577-2.521 0-.852.192-1.686.57-2.482l.01-.021.021-.01c.778-.37 1.616-.556 2.49-.556zm10.112 0c.712 0 1.466.16 2.2.463l.334.149.01.021c.385.812.588 1.683.588 2.522 0 .73-.15 1.461-.445 2.176l-.146.327-.021.01c-.766.362-1.63.554-2.5.554-.716 0-1.451-.154-2.187-.46l-.336-.151-.01-.021c-.378-.797-.578-1.669-.578-2.521 0-.852.192-1.686.57-2.482l.01-.021.021-.01c.779-.37 1.616-.556 2.49-.556zm9.333 0c.712 0 1.467.16 2.2.463l.334.149.01.021c.385.812.588 1.683.588 2.522 0 .73-.15 1.461-.445 2.176l-.145.327-.022.01c-.766.362-1.63.554-2.499.554-.717 0-1.452-.154-2.188-.46l-.336-.151-.01-.021c-.378-.797-.577-1.669-.577-2.521 0-.852.191-1.686.57-2.482l.01-.021.02-.01c.779-.37 1.616-.556 2.49-.556z" transform="rotate(180 42 157.5)"/>
            </g>
        </g>
        <g mask="url(#prefix__c)">
            <g>
                <path fill="#297FE8" d="M56.21 114.73l-.414-.208-.199-.429C48.012 97.828 44 80.04 44 62.633c0-17.38 3.848-34.408 11.437-50.651l.21-.432.422-.215C71.705 3.81 88.524 0 106.077 0c16.35 0 33.814 4.242 50.492 12.29l.427.194.198.44C164.924 29.49 169 47.274 169 64.392c0 17.05-3.914 34.094-11.654 50.65l-.202.433-.431.202C141.315 123.08 123.953 127 106.506 127c-16.47 0-33.393-4.12-50.296-12.27z" opacity=".125" transform="rotate(180 229.5 72.5)"/>
                <path fill="#0066AE" d="M13.383 175.377l-.455-.23-.217-.477C4.397 156.612 0 136.862 0 117.538c0-19.296 4.217-38.202 12.535-56.235l.23-.48.463-.239C30.365 52.23 48.798 48 68.037 48c17.92 0 37.06 4.71 55.338 13.646l.469.215.217.488C132.532 80.739 137 100.486 137 119.49c0 18.929-4.29 37.852-12.772 56.232l-.223.482-.472.223C106.658 184.648 87.63 189 68.506 189c-18.05 0-36.599-4.575-55.123-13.623z" opacity=".073" transform="rotate(180 229.5 72.5)"/>
            </g>
        </g>
    </g>
</svg>
