<svg xmlns="http://www.w3.org/2000/svg" xmlns:xlink="http://www.w3.org/1999/xlink" width="1334" height="349" viewBox="0 0 1334 349">
    <defs>
        <path id="prefix__a" d="M0 0H1334V349H0z"/>
    </defs>
    <g fill="none" fill-rule="evenodd">
        <mask id="prefix__b" fill="#fff">
            <use xlink:href="#prefix__a"/>
        </mask>
        <use fill="#FFF" xlink:href="#prefix__a"/>
        <g mask="url(#prefix__b)">
            <g>
                <path fill="#F1F5F8" fill-opacity=".72" d="M60.46 306.973l-.524-1.523.546-1.524c20.505-57.92 53.495-110.702 95.457-152.663 41.9-41.901 92.444-73.465 150.323-93.906l1.557-.524 1.562.524c56.703 20.422 107.371 52.718 150.665 96.012 40.326 40.325 73.17 93.624 94.9 154.163l.587 1.52-.57 1.549c-20.873 58.999-53.697 111.931-94.965 153.2-41.104 41.103-91.85 72.541-150.849 93.364l-1.546.545-1.548-.576c-55.827-20.126-108.097-53.499-151.13-96.531-40.62-40.62-72.426-92.295-94.466-153.63zM1341.46 794.973l-.524-1.523.546-1.524c20.505-57.92 53.495-110.702 95.457-152.663 41.9-41.901 92.444-73.465 150.323-93.906l1.557-.524 1.562.524c56.703 20.422 107.371 52.718 150.665 96.012 40.326 40.325 73.17 93.624 94.9 154.163l.587 1.52-.57 1.549c-20.873 58.999-53.697 111.931-94.965 153.2-41.104 41.103-91.85 72.541-150.849 93.364l-1.546.545-1.548-.576c-55.827-20.126-108.097-53.499-151.13-96.531-40.62-40.62-72.426-92.295-94.466-153.63z" transform="translate(-254 -440)"/>
                <path fill="#7FBEF8" d="M1387.96 693.569c1.373 0 2.828.306 4.243.893l.645.286.019.042c.742 1.565 1.133 3.245 1.133 4.863 0 1.41-.288 2.819-.857 4.197l-.281.63-.042.019c-1.478.7-3.144 1.07-4.82 1.07-1.383 0-2.8-.299-4.22-.889l-.648-.29-.019-.041c-.728-1.537-1.113-3.218-1.113-4.862 0-1.643.37-3.252 1.098-4.786l.02-.041.04-.02c1.502-.711 3.116-1.071 4.801-1.071zm17.677-.708c1.373 0 2.829.307 4.244.894l.644.286.02.042c.741 1.565 1.133 3.245 1.133 4.863 0 1.41-.288 2.819-.858 4.197l-.28.63-.042.019c-1.478.7-3.145 1.07-4.82 1.07-1.383 0-2.8-.299-4.22-.89l-.648-.29-.019-.04c-.728-1.537-1.113-3.218-1.113-4.862 0-1.643.369-3.252 1.098-4.786l.02-.041.04-.02c1.501-.712 3.116-1.072 4.801-1.072zm19.8 0c1.372 0 2.828.307 4.243.894l.644.286.02.042c.741 1.565 1.133 3.245 1.133 4.863 0 1.41-.288 2.819-.858 4.197l-.28.63-.042.019c-1.478.7-3.145 1.07-4.82 1.07-1.383 0-2.8-.299-4.22-.89l-.648-.29-.019-.04c-.728-1.537-1.113-3.218-1.113-4.862 0-1.643.369-3.252 1.098-4.786l.02-.041.04-.02c1.501-.712 3.116-1.072 4.801-1.072zm18.384 0c1.373 0 2.829.307 4.243.894l.645.286.02.042c.741 1.565 1.132 3.245 1.132 4.863 0 1.41-.287 2.819-.857 4.197l-.28.63-.042.019c-1.478.7-3.145 1.07-4.82 1.07-1.383 0-2.8-.299-4.22-.89l-.648-.29-.02-.04c-.727-1.537-1.113-3.218-1.113-4.862 0-1.643.37-3.252 1.098-4.786l.02-.041.041-.02c1.501-.712 3.116-1.072 4.8-1.072zm-55.862-17.677c1.374 0 2.83.307 4.244.893l.645.286.019.042c.742 1.565 1.133 3.246 1.133 4.863 0 1.41-.288 2.819-.857 4.197l-.281.63-.042.019c-1.478.7-3.144 1.07-4.82 1.07-1.383 0-2.8-.298-4.22-.889l-.648-.29-.019-.04c-.728-1.538-1.113-3.218-1.113-4.863 0-1.642.37-3.251 1.098-4.786l.02-.04.04-.021c1.502-.711 3.116-1.071 4.801-1.071zm18.385 0c1.374 0 2.829.307 4.244.893l.644.286.02.042c.741 1.565 1.133 3.246 1.133 4.863 0 1.41-.288 2.819-.858 4.197l-.28.63-.042.019c-1.478.7-3.145 1.07-4.82 1.07-1.383 0-2.8-.298-4.22-.889l-.648-.29-.019-.04c-.728-1.538-1.113-3.218-1.113-4.863 0-1.642.37-3.251 1.098-4.786l.02-.04.04-.021c1.501-.711 3.116-1.071 4.801-1.071zm19.8 0c1.373 0 2.828.307 4.243.893l.644.286.02.042c.741 1.565 1.133 3.246 1.133 4.863 0 1.41-.288 2.819-.858 4.197l-.28.63-.042.019c-1.478.7-3.145 1.07-4.82 1.07-1.383 0-2.8-.298-4.22-.889l-.648-.29-.019-.04c-.728-1.538-1.113-3.218-1.113-4.863 0-1.642.37-3.251 1.098-4.786l.02-.04.04-.021c1.501-.711 3.116-1.071 4.801-1.071zm17.677-.707c1.373 0 2.829.307 4.243.893l.645.286.02.042c.741 1.565 1.132 3.246 1.132 4.863 0 1.41-.287 2.819-.857 4.197l-.28.63-.042.019c-1.478.7-3.145 1.07-4.82 1.07-1.383 0-2.8-.298-4.22-.889l-.648-.29-.02-.04c-.727-1.538-1.113-3.219-1.113-4.863 0-1.642.37-3.251 1.098-4.786l.02-.041.041-.02c1.501-.711 3.116-1.071 4.8-1.071zm-55.862-19.092c1.374 0 2.83.307 4.244.893l.645.286.019.042c.742 1.565 1.133 3.246 1.133 4.863 0 1.41-.288 2.819-.857 4.197l-.281.63-.042.019c-1.478.7-3.144 1.07-4.82 1.07-1.383 0-2.8-.298-4.22-.889l-.648-.29-.019-.04c-.728-1.538-1.113-3.218-1.113-4.863 0-1.642.37-3.251 1.098-4.786l.02-.04.04-.021c1.502-.711 3.116-1.071 4.801-1.071zm18.385 0c1.374 0 2.829.307 4.244.893l.644.286.02.042c.741 1.565 1.133 3.246 1.133 4.863 0 1.41-.288 2.819-.858 4.197l-.28.63-.042.019c-1.478.7-3.145 1.07-4.82 1.07-1.383 0-2.8-.298-4.22-.889l-.648-.29-.019-.04c-.728-1.538-1.113-3.218-1.113-4.863 0-1.642.37-3.251 1.098-4.786l.02-.04.04-.021c1.501-.711 3.116-1.071 4.801-1.071zm19.092.707c1.373 0 2.829.307 4.244.893l.644.287.02.041c.741 1.565 1.133 3.246 1.133 4.863 0 1.41-.288 2.82-.858 4.197l-.28.63-.042.019c-1.478.7-3.145 1.07-4.82 1.07-1.383 0-2.8-.298-4.22-.889l-.648-.29-.019-.04c-.728-1.538-1.113-3.218-1.113-4.863 0-1.642.369-3.251 1.098-4.786l.02-.04.04-.021c1.501-.711 3.116-1.071 4.801-1.071zm18.385-1.414c1.373 0 2.829.307 4.243.893l.645.286.02.042c.741 1.565 1.132 3.246 1.132 4.863 0 1.41-.287 2.819-.857 4.197l-.28.63-.042.019c-1.478.7-3.145 1.07-4.82 1.07-1.383 0-2.8-.298-4.22-.889l-.648-.29-.02-.04c-.727-1.538-1.113-3.219-1.113-4.863 0-1.642.37-3.251 1.098-4.786l.02-.041.041-.02c1.501-.711 3.116-1.071 4.8-1.071zm-55.154-16.97c1.373 0 2.828.306 4.243.892l.645.287.019.041c.742 1.565 1.133 3.246 1.133 4.863 0 1.41-.288 2.82-.857 4.197l-.281.63-.041.02c-1.479.699-3.145 1.07-4.82 1.07-1.384 0-2.8-.299-4.22-.89l-.649-.29-.019-.04c-.728-1.537-1.113-3.218-1.113-4.863 0-1.642.37-3.251 1.098-4.786l.02-.04.04-.02c1.502-.712 3.116-1.072 4.802-1.072zm17.677-.708c1.374 0 2.829.307 4.244.893l.644.287.02.041c.741 1.565 1.133 3.246 1.133 4.863 0 1.41-.288 2.82-.858 4.197l-.28.63-.042.02c-1.478.699-3.145 1.069-4.82 1.069-1.383 0-2.8-.298-4.22-.888l-.648-.291-.019-.04c-.728-1.537-1.113-3.218-1.113-4.863 0-1.642.37-3.251 1.098-4.786l.02-.04.04-.021c1.501-.711 3.116-1.071 4.801-1.071zm19.8 0c1.373 0 2.828.307 4.243.893l.644.287.02.041c.741 1.565 1.133 3.246 1.133 4.863 0 1.41-.288 2.82-.858 4.197l-.28.63-.042.02c-1.478.699-3.145 1.069-4.82 1.069-1.383 0-2.8-.298-4.22-.888l-.648-.291-.019-.04c-.728-1.537-1.113-3.218-1.113-4.863 0-1.642.37-3.251 1.098-4.786l.02-.04.04-.021c1.501-.711 3.116-1.071 4.801-1.071zm17.677.707c1.373 0 2.829.307 4.243.893l.645.287.02.041c.741 1.565 1.132 3.246 1.132 4.863 0 1.41-.287 2.82-.857 4.197l-.28.63-.042.02c-1.478.699-3.145 1.07-4.82 1.07-1.383 0-2.8-.299-4.22-.89l-.648-.29-.02-.04c-.727-1.537-1.113-3.218-1.113-4.863 0-1.642.37-3.251 1.098-4.786l.02-.04.041-.02c1.501-.712 3.116-1.072 4.8-1.072zM248.946 492c1.831 0 3.771.41 5.658 1.19l.86.383.025.055c.99 2.087 1.511 4.328 1.511 6.484 0 1.88-.384 3.759-1.143 5.596l-.375.84-.055.025c-1.97.933-4.193 1.427-6.426 1.427-1.845 0-3.734-.397-5.627-1.185l-.864-.387-.026-.054c-.97-2.05-1.484-4.29-1.484-6.483 0-2.19.493-4.335 1.464-6.381l.027-.055.054-.027c2.001-.948 4.154-1.428 6.4-1.428zm23-1c1.831 0 3.771.41 5.658 1.19l.86.383.025.055c.99 2.087 1.511 4.328 1.511 6.484 0 1.88-.384 3.759-1.143 5.596l-.375.84-.055.025c-1.97.933-4.193 1.427-6.426 1.427-1.845 0-3.734-.397-5.627-1.185l-.864-.387-.026-.054c-.97-2.05-1.484-4.29-1.484-6.483 0-2.19.493-4.335 1.464-6.381l.027-.055.054-.027c2.001-.948 4.154-1.428 6.4-1.428zm25 0c1.831 0 3.771.41 5.658 1.19l.86.383.025.055c.99 2.087 1.511 4.328 1.511 6.484 0 1.88-.384 3.759-1.143 5.596l-.375.84-.055.025c-1.97.933-4.193 1.427-6.426 1.427-1.845 0-3.734-.397-5.627-1.185l-.864-.387-.026-.054c-.97-2.05-1.484-4.29-1.484-6.483 0-2.19.493-4.335 1.464-6.381l.027-.055.054-.027c2.001-.948 4.154-1.428 6.4-1.428zm24 0c1.831 0 3.771.41 5.658 1.19l.86.383.025.055c.99 2.087 1.511 4.328 1.511 6.484 0 1.88-.384 3.759-1.143 5.596l-.375.84-.055.025c-1.97.933-4.193 1.427-6.426 1.427-1.845 0-3.734-.397-5.627-1.185l-.864-.387-.026-.054c-.97-2.05-1.484-4.29-1.484-6.483 0-2.19.493-4.335 1.464-6.381l.027-.055.054-.027c2.001-.948 4.154-1.428 6.4-1.428zm-72-23c1.831 0 3.771.41 5.658 1.19l.86.383.025.055c.99 2.087 1.511 4.328 1.511 6.484 0 1.88-.384 3.759-1.143 5.596l-.375.84-.055.025c-1.97.933-4.193 1.427-6.426 1.427-1.845 0-3.734-.397-5.627-1.185l-.864-.387-.026-.054c-.97-2.05-1.484-4.29-1.484-6.483 0-2.19.493-4.335 1.464-6.381l.027-.055.054-.027c2.001-.948 4.154-1.428 6.4-1.428zm24 0c1.831 0 3.771.41 5.658 1.19l.86.383.025.055c.99 2.087 1.511 4.328 1.511 6.484 0 1.88-.384 3.759-1.143 5.596l-.375.84-.055.025c-1.97.933-4.193 1.427-6.426 1.427-1.845 0-3.734-.397-5.627-1.185l-.864-.387-.026-.054c-.97-2.05-1.484-4.29-1.484-6.483 0-2.19.493-4.335 1.464-6.381l.027-.055.054-.027c2.001-.948 4.154-1.428 6.4-1.428zm25 0c1.831 0 3.771.41 5.658 1.19l.86.383.025.055c.99 2.087 1.511 4.328 1.511 6.484 0 1.88-.384 3.759-1.143 5.596l-.375.84-.055.025c-1.97.933-4.193 1.427-6.426 1.427-1.845 0-3.734-.397-5.627-1.185l-.864-.387-.026-.054c-.97-2.05-1.484-4.29-1.484-6.483 0-2.19.493-4.335 1.464-6.381l.027-.055.054-.027c2.001-.948 4.154-1.428 6.4-1.428zm23-1c1.831 0 3.771.41 5.658 1.19l.86.383.025.055c.99 2.087 1.511 4.328 1.511 6.484 0 1.88-.384 3.759-1.143 5.596l-.375.84-.055.025c-1.97.933-4.193 1.427-6.426 1.427-1.845 0-3.734-.397-5.627-1.185l-.864-.387-.026-.054c-.97-2.05-1.484-4.29-1.484-6.483 0-2.19.493-4.335 1.464-6.381l.027-.055.054-.027c2.001-.948 4.154-1.428 6.4-1.428zm-72-24c1.831 0 3.771.41 5.658 1.19l.86.383.025.055c.99 2.087 1.511 4.328 1.511 6.484 0 1.88-.384 3.759-1.143 5.596l-.375.84-.055.025c-1.97.933-4.193 1.427-6.426 1.427-1.845 0-3.734-.397-5.627-1.185l-.864-.387-.026-.054c-.97-2.05-1.484-4.29-1.484-6.483 0-2.19.493-4.335 1.464-6.381l.027-.055.054-.027c2.001-.948 4.154-1.428 6.4-1.428zm24 0c1.831 0 3.771.41 5.658 1.19l.86.383.025.055c.99 2.087 1.511 4.328 1.511 6.484 0 1.88-.384 3.759-1.143 5.596l-.375.84-.055.025c-1.97.933-4.193 1.427-6.426 1.427-1.845 0-3.734-.397-5.627-1.185l-.864-.387-.026-.054c-.97-2.05-1.484-4.29-1.484-6.483 0-2.19.493-4.335 1.464-6.381l.027-.055.054-.027c2.001-.948 4.154-1.428 6.4-1.428zm24 1c1.831 0 3.771.41 5.658 1.19l.86.383.025.055c.99 2.087 1.511 4.328 1.511 6.484 0 1.88-.384 3.759-1.143 5.596l-.375.84-.055.025c-1.97.933-4.193 1.427-6.426 1.427-1.845 0-3.734-.397-5.627-1.185l-.864-.387-.026-.054c-.97-2.05-1.484-4.29-1.484-6.483 0-2.19.493-4.335 1.464-6.381l.027-.055.054-.027c2.001-.948 4.154-1.428 6.4-1.428zm24-2c1.831 0 3.771.41 5.658 1.19l.86.383.025.055c.99 2.087 1.511 4.328 1.511 6.484 0 1.88-.384 3.759-1.143 5.596l-.375.84-.055.025c-1.97.933-4.193 1.427-6.426 1.427-1.845 0-3.734-.397-5.627-1.185l-.864-.387-.026-.054c-.97-2.05-1.484-4.29-1.484-6.483 0-2.19.493-4.335 1.464-6.381l.027-.055.054-.027c2.001-.948 4.154-1.428 6.4-1.428zm-71-22c1.831 0 3.771.41 5.658 1.19l.86.383.025.055c.99 2.087 1.511 4.328 1.511 6.484 0 1.88-.384 3.759-1.143 5.596l-.375.84-.055.025c-1.97.933-4.193 1.427-6.426 1.427-1.845 0-3.734-.397-5.627-1.185l-.864-.387-.026-.054c-.97-2.05-1.484-4.29-1.484-6.483 0-2.19.493-4.335 1.464-6.381l.027-.055.054-.027c2.001-.948 4.154-1.428 6.4-1.428zm23-1c1.831 0 3.771.41 5.658 1.19l.86.383.025.055c.99 2.087 1.511 4.328 1.511 6.484 0 1.88-.384 3.759-1.143 5.596l-.375.84-.055.025c-1.97.933-4.193 1.427-6.426 1.427-1.845 0-3.734-.397-5.627-1.185l-.864-.387-.026-.054c-.97-2.05-1.484-4.29-1.484-6.483 0-2.19.493-4.335 1.464-6.381l.027-.055.054-.027c2.001-.948 4.154-1.428 6.4-1.428zm25 0c1.831 0 3.771.41 5.658 1.19l.86.383.025.055c.99 2.087 1.511 4.328 1.511 6.484 0 1.88-.384 3.759-1.143 5.596l-.375.84-.055.025c-1.97.933-4.193 1.427-6.426 1.427-1.845 0-3.734-.397-5.627-1.185l-.864-.387-.026-.054c-.97-2.05-1.484-4.29-1.484-6.483 0-2.19.493-4.335 1.464-6.381l.027-.055.054-.027c2.001-.948 4.154-1.428 6.4-1.428zm23 1c1.831 0 3.771.41 5.658 1.19l.86.383.025.055c.99 2.087 1.511 4.328 1.511 6.484 0 1.88-.384 3.759-1.143 5.596l-.375.84-.055.025c-1.97.933-4.193 1.427-6.426 1.427-1.845 0-3.734-.397-5.627-1.185l-.864-.387-.026-.054c-.97-2.05-1.484-4.29-1.484-6.483 0-2.19.493-4.335 1.464-6.381l.027-.055.054-.027c2.001-.948 4.154-1.428 6.4-1.428z" opacity=".16" transform="translate(-254 -440)"/>
            </g>
        </g>
    </g>
</svg>
